<?xml version="1.0" standalone="no"?>
<!DOCTYPE svg PUBLIC "-//W3C//DTD SVG 1.1//EN" "http://www.w3.org/Graphics/SVG/1.1/DTD/svg11.dtd" >
<svg>
<metadata>
Created by FontForge 20090914 at Fri Apr 24 13:42:17 2020
 By www-data
(C) 2010 Jason Walcott/Jukebox. All Rights Reserved.
</metadata>
<defs>
<font id="EloquentJFItalicPro" horiz-adv-x="864" >
  <font-face 
    font-family="EloquentJFItalicPro"
    font-weight="400"
    font-style="italic"
    font-stretch="normal"
    units-per-em="1000"
    panose-1="0 0 0 0 0 0 0 0 0 0"
    ascent="730"
    descent="-270"
    x-height="551"
    cap-height="800"
    bbox="-390.999 -656 1713 1069"
    underline-thickness="50"
    underline-position="-100"
    slope="-12"
    unicode-range="U+000D-U+FB04"
  />
<missing-glyph horiz-adv-x="285" 
 />
    <glyph glyph-name="ellipsis" unicode="&#x2e;&#x2e;&#x2e;" horiz-adv-x="926" 
d="M899 103c-4 -16 -10.666 -31.167 -19.999 -45.5s-20.833 -26.833 -34.5 -37.5s-28.5 -19.167 -44.5 -25.5s-32.333 -9.5 -49 -9.5c-29.333 0 -52.833 8.66699 -70.5 26s-26.5 39.333 -26.5 66c0 18.667 4.33301 36.834 13 54.501s20.167 33 34.5 46s30.5 23.5 48.5 31.5
s36.667 12 56 12c29.333 0 52.666 -8.66699 69.999 -26s26 -39.333 26 -66c0 -8.66699 -1 -17.334 -3 -26.001zM602.001 103c-4 -16 -10.666 -31.167 -19.999 -45.5s-20.833 -26.833 -34.5 -37.5s-28.5 -19.167 -44.5 -25.5s-32.333 -9.5 -49 -9.5
c-29.333 0 -52.833 8.66699 -70.5 26s-26.5 39.333 -26.5 66c0 18.667 4.33301 36.834 13 54.501s20.167 33 34.5 46s30.5 23.5 48.5 31.5s36.667 12 56 12c29.333 0 52.666 -8.66699 69.999 -26s26 -39.333 26 -66c0 -8.66699 -1 -17.334 -3 -26.001zM302.002 103
c-4 -16 -10.666 -31.167 -19.999 -45.5s-20.833 -26.833 -34.5 -37.5s-28.5 -19.167 -44.5 -25.5s-32.333 -9.5 -49 -9.5c-29.333 0 -52.833 8.66699 -70.5 26s-26.5 39.333 -26.5 66c0 18.667 4.33301 36.834 13 54.501s20.167 33 34.5 46s30.5 23.5 48.5 31.5
s36.667 12 56 12c29.333 0 52.666 -8.66699 69.999 -26s26 -39.333 26 -66c0 -8.66699 -1 -17.334 -3 -26.001z" />
    <glyph glyph-name="ff" unicode="ff" horiz-adv-x="787" 
d="M1030 684c-3.33301 -13.333 -8.83008 -26.1709 -16.4971 -38.5039s-17.167 -23.333 -28.5 -33s-24.333 -17.334 -39 -23.001s-30.334 -8.5 -47.001 -8.5c-23.333 0 -44 6.16699 -62 18.5s-27 30.5 -27 54.5c0 17.333 3.66699 33.333 11 48s17 27.334 29 38.001
s25.667 19 41 25s30.666 9 45.999 9h23.5c7 0 10.833 0.666992 11.5 2c0 2.66699 -5.66699 6.5 -17 11.5s-27.666 7.5 -48.999 7.5c-28.667 0 -53.667 -8.16699 -75 -24.5s-35.666 -39.833 -42.999 -70.5l-36 -158h116l-4 -14h-116l-118 -513
c-2.66699 -10 -8.33398 -15 -17.001 -15h-181c-6 0 -9 3 -9 9c0 2.66699 0.333008 5 1 7l118 512h-143l-118 -513c-2.66699 -10 -8.33398 -15 -17.001 -15h-181c-6 0 -9 3 -9 9c0 2.66699 0.333008 5 1 7l118 512h-58l4 14h58l10 49c8 38.667 22.833 71.834 44.5 99.501
s47 50.334 76 68.001s60.333 30.5 94 38.5s66.5 12 98.5 12c37.333 0 67 -5.5 89 -16.5s38.667 -25.167 50 -42.5c29.333 19.333 62.666 34 99.999 44s76 15 116 15c28 0 52 -2.83301 72 -8.5s36.333 -13.167 49 -22.5s22 -20.166 28 -32.499s9 -25.166 9 -38.499
c0 -7.33301 -1 -15 -3 -23zM562.003 613.995c6 27.333 16.498 51.667 31.498 73s33.5 40 55.5 56c-19.333 32 -50.666 48 -93.999 48c-28.667 0 -53.667 -9.16699 -75 -27.5s-36.666 -47.5 -45.999 -87.5l-31 -134h143z" />
    <glyph glyph-name="fi" unicode="fi" horiz-adv-x="702" 
d="M74 1l122.001 526.997h-51l3 13h51l13 55c9.33301 39.333 25.5 73.333 48.5 102s51.167 52.167 84.5 70.5s70.666 31.833 111.999 40.5s85 13 131 13c36 0 66.667 -3.5 92 -10.5s45.833 -16.167 61.5 -27.5s27 -24.166 34 -38.499s10.5 -29.166 10.5 -44.499
c0 -16.667 -3.66699 -33 -11 -49s-17.166 -30.167 -29.499 -42.5s-26.833 -22.333 -43.5 -30s-34 -11.5 -52 -11.5c-26 0 -47.667 7.66699 -65 23s-26 35 -26 59c0 16.667 3.83301 32.5 11.5 47.5s17.667 28.167 30 39.5s26.333 20.333 42 27s31.5 10 47.5 10
c7.33301 0 13.833 -0.833008 19.5 -2.5s10.167 -2.5 13.5 -2.5c2 0 3 1 3 3c0 2.66699 -2.5 5.83398 -7.5 9.50098s-11.833 7.16699 -20.5 10.5s-18.5 6.16602 -29.5 8.49902s-22.833 3.5 -35.5 3.5c-49.333 0 -91.5 -12.5 -126.5 -37.5s-59.5 -67.5 -73.5 -127.5l-23 -98
h337l-97 -423c-2 -8 -3 -16 -3 -24c0 -12 2.66699 -22.167 8 -30.5s13.666 -12.5 24.999 -12.5c6 0 12.667 1.66699 20 5s14.5 7.33301 21.5 12s13.5 9.66699 19.5 15s10.667 10 14 14l11 -8c-8 -9.33301 -19.333 -19.833 -34 -31.5s-32 -22.667 -52 -33s-42 -19 -66 -26
s-49 -10.5 -75 -10.5c-31.333 0 -56.5 7.33301 -75.5 22s-28.5 38 -28.5 70c0 11.333 1.33301 22.333 4 33l86 371c1.33301 6.66699 2 11.334 2 14.001c0 20 -11 30 -33 30h-87l-121 -527h-212z" />
    <glyph glyph-name="fl" unicode="fl" horiz-adv-x="697" 
d="M74 0l121.001 527.997h-63l3 13h63l23 100c6.66699 30 19.834 56.333 39.501 79s43.334 41.5 71.001 56.5s57.834 26.167 90.501 33.5s66 11 100 11c22.667 0 42 -1.5 58 -4.5s31.167 -6.5 45.5 -10.5s29.166 -7.5 44.499 -10.5s33.666 -4.5 54.999 -4.5
c10.667 0 19.667 0.666992 27 2l32 6l-157 -681c-2 -8 -3 -16 -3 -24c0 -12 2.66699 -22.167 8 -30.5s13.666 -12.5 24.999 -12.5c6 0 12.667 1.66699 20 5s14.5 7.33301 21.5 12s13.5 9.66699 19.5 15s10.667 10 14 14l11 -8c-8 -9.33301 -18.833 -19.833 -32.5 -31.5
s-29.834 -22.667 -48.501 -33s-39.5 -19 -62.5 -26s-47.5 -10.5 -73.5 -10.5c-15.333 0 -30 1.83301 -44 5.5s-26.333 9.33398 -37 17.001s-19 17.167 -25 28.5s-9 25 -9 41c0 11.333 1.33301 22.333 4 33l139 596c4.66699 20.667 7 38.334 7 53.001
c0 18.667 -3.5 31.334 -10.5 38.001s-16.167 10 -27.5 10c-17.333 0 -32.833 -6.33301 -46.5 -19s-24.167 -35 -31.5 -67l-43 -183h78l-3 -13h-78l-120 -528h-205z" />
    <glyph glyph-name="ffi" unicode="ffi" horiz-adv-x="1036" 
d="M408 1l122.001 526.995h-131l-118 -513c-2.66699 -10 -8.33398 -15 -17.001 -15h-181c-6 0 -9 3 -9 9c0 2.66699 0.333008 5 1 7l118 512h-58l4 14h58l10 49c8 38.667 22.833 71.834 44.5 99.501s47 50.334 76 68.001s60.333 30.5 94 38.5s66.5 12 98.5 12
c36 0 64.833 -5 86.5 -15s38.167 -23.333 49.5 -40c34.667 23.333 74.667 40.5 120 51.5s94 16.5 146 16.5c36 0 66.667 -3.5 92 -10.5s45.833 -16.167 61.5 -27.5s27 -24.166 34 -38.499s10.5 -29.166 10.5 -44.499c0 -16.667 -3.66699 -33 -11 -49
s-17.166 -30.167 -29.499 -42.5s-26.833 -22.333 -43.5 -30s-34 -11.5 -52 -11.5c-26 0 -47.667 7.66699 -65 23s-26 35 -26 59c0 16.667 3.83301 32.5 11.5 47.5s17.667 28.167 30 39.5s26.333 20.333 42 27s31.5 10 47.5 10c7.33301 0 13.833 -0.833008 19.5 -2.5
s10.167 -2.5 13.5 -2.5c2 0 3 1 3 3c0 2.66699 -2.5 5.83398 -7.5 9.50098s-11.833 7.16699 -20.5 10.5s-18.5 6.16602 -29.5 8.49902s-22.833 3.5 -35.5 3.5c-49.333 0 -91.5 -12.5 -126.5 -37.5s-59.5 -67.5 -73.5 -127.5l-23 -98h337l-97 -423c-2 -8 -3 -16 -3 -24
c0 -12 2.66699 -22.167 8 -30.5s13.666 -12.5 24.999 -12.5c6 0 12.667 1.66699 20 5s14.5 7.33301 21.5 12s13.5 9.66699 19.5 15s10.667 10 14 14l11 -8c-8 -9.33301 -19.333 -19.833 -34 -31.5s-32 -22.667 -52 -33s-42 -19 -66 -26s-49 -10.5 -75 -10.5
c-31.333 0 -56.5 7.33301 -75.5 22s-28.5 38 -28.5 70c0 11.333 1.33301 22.333 4 33l86 371c1.33301 6.66699 2 11.334 2 14.001c0 20 -11 30 -33 30h-87l-121 -527h-212zM546.001 595.995c7.33301 32.667 19.666 61.5 36.999 86.5s38.333 46.5 63 64.5
c-9.33301 14 -21.5 24.833 -36.5 32.5s-33.167 11.5 -54.5 11.5c-28.667 0 -53.667 -9.16699 -75 -27.5s-36.666 -47.5 -45.999 -87.5l-26 -135h125z" />
    <glyph glyph-name="ffl" unicode="ffl" horiz-adv-x="1030" 
d="M407 0l121.005 527.997h-129l-118 -513c-2.66699 -10 -8.33398 -15 -17.001 -15h-181c-6 0 -9 3 -9 9c0 2.66699 0.333008 5 1 7l118 512h-58l4 14h58l10 49c8 38.667 22.833 71.834 44.5 99.501s47 50.334 76 68.001s60.333 30.5 94 38.5s66.5 12 98.5 12
s58.167 -3.83301 78.5 -11.5s36.5 -18.167 48.5 -31.5c28.667 18.667 61 32.5 97 41.5s73 13.5 111 13.5c22.667 0 42 -1.5 58 -4.5s31.167 -6.5 45.5 -10.5s29.166 -7.5 44.499 -10.5s33.666 -4.5 54.999 -4.5c10.667 0 19.667 0.666992 27 2l32 6l-157 -681
c-2 -8 -3 -16 -3 -24c0 -12 2.66699 -22.167 8 -30.5s13.666 -12.5 24.999 -12.5c6 0 12.667 1.66699 20 5s14.5 7.33301 21.5 12s13.5 9.66699 19.5 15s10.667 10 14 14l11 -8c-8 -9.33301 -18.833 -19.833 -32.5 -31.5s-29.834 -22.667 -48.501 -33s-39.5 -19 -62.5 -26
s-47.5 -10.5 -73.5 -10.5c-15.333 0 -30 1.83301 -44 5.5s-26.333 9.33398 -37 17.001s-19 17.167 -25 28.5s-9 25 -9 41c0 11.333 1.33301 22.333 4 33l139 596c4.66699 20 7.16699 36.5 7.5 49.5s-1 23.333 -4 31s-7.5 13 -13.5 16s-13 4.5 -21 4.5
c-16.667 0 -32 -6.33301 -46 -19s-24.667 -35 -32 -67l-43 -183h78l-3 -13h-78l-120 -528h-205zM554.005 640.997c5.33301 25.333 15.3301 47.667 29.9971 67s32.334 36.333 53.001 51c-19.333 21.333 -46.666 32 -81.999 32c-28.667 0 -53.667 -9.16699 -75 -27.5
s-36.666 -47.5 -45.999 -87.5l-31 -135h128z" />
    <glyph glyph-name="ft.liga" unicode="ft" horiz-adv-x="682" 
d="M197 528l-57.999 -0.00390625l3 13h58l21 91c6 27.333 19.5 52 40.5 74s46 40.667 75 56s60.5 27 94.5 35s67 12 99 12c28 0 52 -2.83301 72 -8.5s36.333 -13.167 49 -22.5s22 -20.166 28 -32.499s9 -25.166 9 -38.499c0 -15.333 -3.33301 -30.5 -10 -45.5
s-16 -28.5 -28 -40.5s-26.167 -21.667 -42.5 -29s-34.166 -11 -53.499 -11c-23.333 0 -44 6.16699 -62 18.5s-27 30.5 -27 54.5c0 17.333 3.66699 33.333 11 48s17 27.334 29 38.001s25.667 19 41 25s30.666 9 45.999 9h22.5c7 0 11.167 0.666992 12.5 2
c0.666992 2.66699 -4.66602 6.5 -15.999 11.5s-28 7.5 -50 7.5c-28.667 0 -53.667 -8.16699 -75 -24.5s-35.666 -39.833 -42.999 -70.5l-37 -159h108c37.333 0 69.5 5.16699 96.5 15.5s49.667 24.5 68 42.5s33.333 39 45 63s20.5 49.667 26.5 77l13 -1l-46 -197h92l-3 -13
h-92l-104 -454c-1.33301 -5.33301 -2.33301 -9.83301 -3 -13.5s-1 -7.16699 -1 -10.5c0 -8 2 -13.167 6 -15.5s8.66699 -3.5 14 -3.5c13.333 0 28.666 12.667 45.999 38s31.666 62.666 42.999 111.999h13c-8.66699 -37.333 -19.5 -68.666 -32.5 -93.999
s-27.833 -45.666 -44.5 -60.999s-35.334 -26.333 -56.001 -33s-42.667 -10 -66 -10c-38 0 -69.167 7 -93.5 21s-36.5 36.333 -36.5 67c0 8 1 17 3 27l99 430h-98l-121 -528h-207z" />
    <glyph glyph-name=".notdef" horiz-adv-x="285" 
 />
    <glyph glyph-name=".null" horiz-adv-x="0" 
 />
    <glyph glyph-name=".null" horiz-adv-x="0" 
 />
    <glyph glyph-name="nonmarkingreturn" unicode="&#xd;" horiz-adv-x="285" 
 />
    <glyph glyph-name="space" unicode=" " horiz-adv-x="285" 
 />
    <glyph glyph-name="exclam" unicode="!" horiz-adv-x="360" 
d="M468 647c-5.33301 -24 -13.668 -45.498 -25.001 -64.498s-24.166 -37.167 -38.499 -54.5s-29.5 -34.333 -45.5 -51s-31.5 -34.834 -46.5 -54.501s-28.667 -41.334 -41 -65.001s-22.166 -50.834 -29.499 -81.501c-2.66699 -12.667 -5.66699 -19 -9 -19
c-2.66699 0 -4 2.66699 -4 8c0 1.33301 0.166992 2.83301 0.5 4.5s0.833008 3.83398 1.5 6.50098c3.33301 14.667 5.66602 28.5 6.99902 41.5s2 25.167 2 36.5c0 24.667 -2.5 47.167 -7.5 67.5s-10.667 39.666 -17 57.999s-12 36.833 -17 55.5s-7.5 38.667 -7.5 60
c0 22 4 44.833 12 68.5s19.5 45.334 34.5 65.001s33.167 35.667 54.5 48s45.666 18.5 72.999 18.5c36.667 0 63.834 -9.83301 81.501 -29.5s26.5 -44.834 26.5 -75.501c0 -6.66699 -0.333008 -13.667 -1 -21s-2 -14.666 -4 -21.999zM313.998 107.002
c-3.33301 -16 -9.66895 -30.8311 -19.002 -44.498s-20.5 -25.834 -33.5 -36.501s-27.5 -19 -43.5 -25s-32 -9 -48 -9c-28 0 -50.667 8.66699 -68 26s-26 38.666 -26 63.999c0 18.667 4.33301 36.5 13 53.5s19.834 31.833 33.501 44.5s29.334 22.834 47.001 30.501
s35.5 11.5 53.5 11.5c28 0 50.667 -8.5 68 -25.5s26 -38.167 26 -63.5c0 -8.66699 -1 -17.334 -3 -26.001z" />
    <glyph glyph-name="quotedbl" unicode="&#x22;" horiz-adv-x="578" 
d="M696 680c-7.33301 -30.667 -18.5 -59 -33.5 -85s-33.333 -48.5 -55 -67.5s-45.667 -33.833 -72 -44.5s-54.5 -16 -84.5 -16l3 11c22.667 0 45.167 4.16699 67.5 12.5s42.333 19 60 32s32 27.667 43 44s16.5 32.5 16.5 48.5c0 2.66699 -1 4 -3 4s-5 -1.33301 -9 -4
s-9.5 -5.5 -16.5 -8.5s-15.333 -5.66699 -25 -8s-20.834 -3.5 -33.501 -3.5c-26 0 -48.167 8.16699 -66.5 24.5s-27.5 36.833 -27.5 61.5c0 18 4.5 34.833 13.5 50.5s20.333 29 34 40s28.834 19.667 45.501 26s32.667 9.5 48 9.5c30 0 54 -8.5 72 -25.5s27 -39.5 27 -67.5
c0 -12 -1.33301 -23.333 -4 -34zM429 680c-7.33301 -30.667 -18.5 -59 -33.5 -85s-33.333 -48.5 -55 -67.5s-45.667 -33.833 -72 -44.5s-54.5 -16 -84.5 -16l3 11c22.667 0 45.167 4.16699 67.5 12.5s42.333 19 60 32s32 27.667 43 44s16.5 32.5 16.5 48.5
c0 2.66699 -1 4 -3 4s-5 -1.33301 -9 -4s-9.5 -5.5 -16.5 -8.5s-15.333 -5.66699 -25 -8s-20.834 -3.5 -33.501 -3.5c-26 0 -48.167 8.16699 -66.5 24.5s-27.5 36.833 -27.5 61.5c0 18.667 4.5 35.667 13.5 51s20.333 28.5 34 39.5s28.834 19.667 45.501 26
s32.667 9.5 48 9.5c30 0 54 -8.5 72 -25.5s27 -39.5 27 -67.5c0 -12 -1.33301 -23.333 -4 -34z" />
    <glyph glyph-name="numbersign" unicode="#" horiz-adv-x="564" 
d="M647 503l-10 -20h-144l-76 -157h144l-10 -20h-144l-132 -272h-21l131 272h-133l-133 -272h-21l133 272h-144l10 20h144l76 157h-144l10 20h144l137 282h21l-137 -282h134l136 282h21l-136 -282h144zM472 483h-134l-76 -157h134z" />
    <glyph glyph-name="dollar" unicode="$" horiz-adv-x="660" 
d="M677 266c-7.33301 -30 -19.999 -58.334 -37.999 -85.001s-40.167 -51 -66.5 -73s-56.333 -40.833 -90 -56.5s-69.5 -26.834 -107.5 -33.501l-25 -106h-15l24 103c-10.667 -1.33301 -21.167 -2.5 -31.5 -3.5s-20.833 -1.5 -31.5 -1.5h-10h-6l-23 -98h-15l23 98
c-30 2 -57.167 7.33301 -81.5 16s-45.166 19.834 -62.499 33.501s-30.666 29.667 -39.999 48s-14 37.833 -14 58.5s4.33301 39.667 13 57s19.667 32.166 33 44.499s27.833 21.833 43.5 28.5s30.5 10 44.5 10c30 0 52.167 -8.83301 66.5 -26.5s21.5 -37.5 21.5 -59.5
c0 -18 -3.83301 -35.167 -11.5 -51.5s-17.834 -30.5 -30.501 -42.5s-27.167 -21.5 -43.5 -28.5s-33.166 -10.5 -50.499 -10.5c-6.66699 0 -10.834 -0.666992 -12.501 -2s-2.5 -3.33301 -2.5 -6c0 -4 3.33301 -8.83301 10 -14.5s15.834 -11.167 27.501 -16.5
s25.5 -10.166 41.5 -14.499s33 -7.16602 51 -8.49902l71 305l-62 32.5c-20 11 -38 23.167 -54 36.5s-28.833 28.166 -38.5 44.499s-14.5 35.166 -14.5 56.499c0 28.667 7.33301 57 22 85s34.5 54 59.5 78s53.667 45 86 63s66.166 31.333 101.499 40l20 87h15l-19 -84
c11.333 2 22.5 3.66699 33.5 5s22.167 2 33.5 2c2 0 4 -0.166992 6 -0.5s4 -0.5 6 -0.5l18 78h15l-18 -78c29.333 -2 54.5 -7 75.5 -15s38.333 -17.667 52 -29s23.667 -24 30 -38s9.5 -28.333 9.5 -43c0 -14 -3 -27.5 -9 -40.5s-14.167 -24.667 -24.5 -35
s-22.333 -18.5 -36 -24.5s-28.5 -9 -44.5 -9c-20.667 0 -38.334 5.83301 -53.001 17.5s-22 28.167 -22 49.5c0 14.667 3 28.667 9 42s13.833 25.166 23.5 35.499s20.667 18.5 33 24.5s24.5 9 36.5 9c7.33301 0 11.333 1.66699 12 5s1 4.33301 1 3
c0 5.33301 -8.83301 11.833 -26.5 19.5s-40.834 12.834 -69.501 15.501l-62 -272l70 -34.5c23.333 -11.667 44.5 -24.667 63.5 -39s34.333 -30.666 46 -48.999s17.5 -39.833 17.5 -64.5c0 -13.333 -1.33301 -25.666 -4 -36.999zM470.001 496.999l61.998 266
c-3.33301 0.666992 -6.16602 1 -8.49902 1h-7.5c-21.333 0 -42.666 -2.66699 -63.999 -8l-51 -222c10 -6.66699 20.833 -13 32.5 -19zM387.999 542.999l48 208c-28.667 -9.33301 -52.5 -24.5 -71.5 -45.5s-28.5 -46.167 -28.5 -75.5c0 -18.667 4.83301 -35 14.5 -49
s22.167 -26.667 37.5 -38zM495.999 150.999c2 8.66699 3 17.667 3 27c0 21.333 -6 39.833 -18 55.5s-27.667 30.167 -47 43.5l-55 -242c32 10 58 25.167 78 45.5s33 43.833 39 70.5zM362.999 30.999l59 255c-11.333 6.66699 -22.833 13 -34.5 19l-35.5 18l-69 -299
c1.33301 0 3 -0.166992 5 -0.5s3.66699 -0.5 5 -0.5c24 0 47.333 2.66699 70 8z" />
    <glyph glyph-name="percent" unicode="%" horiz-adv-x="648" 
d="M819 865l-770.002 -917.995h-16l699 833c-8 -6 -17.833 -12 -29.5 -18s-24 -11.333 -37 -16s-26.167 -8.5 -39.5 -11.5s-26 -4.5 -38 -4.5c-18.667 0 -35.5 1.66699 -50.5 5s-28.167 7.66602 -39.5 12.999c4 -10 7.16699 -20.667 9.5 -32s3.5 -23 3.5 -35
c0 -32 -6.33301 -62.667 -19 -92s-29 -55 -49 -77s-42.5 -39.667 -67.5 -53s-50.167 -20 -75.5 -20c-37.333 0 -67.166 13.167 -89.499 39.5s-33.5 59.833 -33.5 100.5c0 31.333 6.16699 61.666 18.5 90.999s28.5 55.166 48.5 77.499s42.5 40.166 67.5 53.499
s50.5 20 76.5 20c21.333 0 38.333 -4 51 -12s25.334 -16.667 38.001 -26s27.334 -18 44.001 -26s40 -12 70 -12c22.667 0 45 4.16699 67 12.5s42.5 18.666 61.5 30.999s36.167 25.833 51.5 40.5s27.666 28 36.999 40zM628.998 147.005
c-6 -26 -15.833 -50.6689 -29.5 -74.002s-29.834 -43.666 -48.501 -60.999s-39 -31 -61 -41s-44 -15 -66 -15c-37.333 0 -67.166 13.333 -89.499 40s-33.5 60.334 -33.5 101.001c0 32 6.33301 62.5 19 91.5s29 54.667 49 77s42.667 40 68 53s50.666 19.5 75.999 19.5
c18.667 0 35.5 -3.5 50.5 -10.5s27.833 -16.667 38.5 -29s18.834 -27 24.501 -44s8.5 -35.5 8.5 -55.5c0 -16.667 -2 -34 -6 -52zM392.998 627.003c9.33301 38.667 15.999 69.501 19.999 92.501s6 41.167 6 54.5c0 14 -2.5 23 -7.5 27s-12.5 6 -22.5 6
s-18.833 -2.16699 -26.5 -6.5s-15 -13 -22 -26s-14.167 -31 -21.5 -54s-15.333 -53.5 -24 -91.5c-8.66699 -36 -15 -65 -19 -87s-6 -39.667 -6 -53c0 -14.667 2.66699 -24.5 8 -29.5s13.666 -7.5 24.999 -7.5c10.667 0 19.834 2.66699 27.501 8s14.834 14.666 21.501 27.999
s13.167 31.333 19.5 54s13.5 51 21.5 85zM517.997 145.004c9.33301 38.667 15.999 69.501 19.999 92.501s6 41.167 6 54.5c0 14 -2.5 23 -7.5 27s-12.5 6 -22.5 6s-18.833 -2.16699 -26.5 -6.5s-15 -13 -22 -26s-14.167 -31 -21.5 -54s-15.333 -53.5 -24 -91.5
c-8 -36 -14.167 -65.167 -18.5 -87.5s-6.5 -40.166 -6.5 -53.499c0 -14.667 2.66699 -24.334 8 -29.001s13.666 -7 24.999 -7c10.667 0 19.834 2.66699 27.501 8s14.834 14.666 21.501 27.999s13.167 31.333 19.5 54s13.5 51 21.5 85z" />
    <glyph glyph-name="ampersand" unicode="&#x26;" horiz-adv-x="959" 
d="M1025 429c-4 -15.333 -10.501 -30.0029 -19.501 -44.0029s-19.667 -26.5 -32 -37.5s-26.333 -19.667 -42 -26s-31.834 -9.5 -48.501 -9.5c-30.667 0 -55.334 8.33301 -74.001 25s-28 39 -28 67c0 12 1.83301 23.167 5.5 33.5s7.66699 19.5 12 27.5s8.5 14.5 12.5 19.5
s6.33301 8.5 7 10.5c-2.66699 0.666992 -8.16699 -2.5 -16.5 -9.5s-18.666 -17.167 -30.999 -30.5s-26.333 -30 -42 -50s-32.167 -42.667 -49.5 -68c15.333 -24 31 -46.333 47 -67s32.333 -38.667 49 -54s33.167 -27.333 49.5 -36s32.5 -13 48.5 -13
c11.333 0 22.666 2.66699 33.999 8s21.333 12.333 30 21s15.667 18 21 28s8 19.667 8 29c0 2.66699 -0.166992 4.83398 -0.5 6.50098s-0.5 3.16699 -0.5 4.5s0.5 3.83301 1.5 7.5s3.5 5.5 7.5 5.5c2 0 3.83301 -1 5.5 -3s2.5 -6 2.5 -12c0 -2 -0.166992 -4.16699 -0.5 -6.5
s-0.833008 -5.16602 -1.5 -8.49902c-7.33301 -31.333 -21 -62.333 -41 -93s-43.667 -58.167 -71 -82.5s-57 -44 -89 -59s-63.333 -22.5 -94 -22.5c-28 0 -56.5 10.5 -85.5 31.5s-57.5 48.5 -85.5 82.5c-40 -40.667 -80.5 -69.5 -121.5 -86.5s-87.5 -25.5 -139.5 -25.5
c-28 0 -53.333 4 -76 12s-42 19 -58 33s-28.5 30.667 -37.5 50s-13.5 40.333 -13.5 63c0 40 8.66699 75.667 26 107s39.333 59 66 83s56.334 44.5 89.001 61.5s64.334 31.167 95.001 42.5c-4.66699 19.333 -8.33398 38 -11.001 56s-4 35 -4 51c0 38 8.66699 73 26 105
s40 59.5 68 82.5s60 41 96 54s72.667 19.5 110 19.5c25.333 0 48.5 -2.33301 69.5 -7s39.167 -11.5 54.5 -20.5s27.333 -20.167 36 -33.5s13 -28.333 13 -45c0 -24.667 -6.16699 -47 -18.5 -67s-28.333 -37.833 -48 -53.5s-42 -29.5 -67 -41.5s-50.167 -22.667 -75.5 -32
c21.333 -55.333 47.666 -109 78.999 -161c18 26.667 36.5 52.5 55.5 77.5s39.333 47.167 61 66.5s44.334 34.833 68.001 46.5s48.834 17.5 75.501 17.5c12.667 0 24.834 -2.16699 36.501 -6.5s22 -10.666 31 -18.999s16.167 -18.5 21.5 -30.5s8 -25.667 8 -41
c0 -11.333 -1.33301 -22.333 -4 -33zM643.999 572.997c2 8 2.99805 19 2.99805 33c0 16.667 -1.5 36.167 -4.5 58.5s-7.33301 43.333 -13 63s-12.667 36.334 -21 50.001s-18.166 20.5 -29.499 20.5c-14 0 -24.5 -5.66699 -31.5 -17s-10.5 -27 -10.5 -47
c0 -26.667 4.5 -58.334 13.5 -95.001s21.167 -75 36.5 -115c16 7.33301 28.833 14.833 38.5 22.5s15.834 16.5 18.501 26.5zM503.997 115.997c-17.333 22 -33.666 45.833 -48.999 71.5s-29.833 52.167 -43.5 79.5s-25.834 54.833 -36.501 82.5s-19.667 54.834 -27 81.501
c-25.333 -11.333 -42.666 -23.333 -51.999 -36s-14 -29.334 -14 -50.001c0 -24 4.5 -51.833 13.5 -83.5s20.667 -61.667 35 -90s30.333 -52.333 48 -72s35.167 -29.5 52.5 -29.5c10.667 0 22.167 4 34.5 12s25.166 19.333 38.499 34z" />
    <glyph glyph-name="quotesingle" unicode="'" horiz-adv-x="274" 
d="M413 680c-7.33301 -30.667 -18.5 -59 -33.5 -85s-33.333 -48.5 -55 -67.5s-45.667 -33.833 -72 -44.5s-54.5 -16 -84.5 -16l3 11c22.667 0 45.167 4.16699 67.5 12.5s42.333 19 60 32s32 27.667 43 44s16.5 32.5 16.5 48.5c0 2.66699 -1 4 -3 4s-5 -1.33301 -9 -4
s-9.5 -5.5 -16.5 -8.5s-15.333 -5.66699 -25 -8s-20.834 -3.5 -33.501 -3.5c-26 0 -48.167 8.16699 -66.5 24.5s-27.5 36.833 -27.5 61.5c0 18.667 4.5 35.667 13.5 51s20.333 28.5 34 39.5s28.834 19.667 45.501 26s32.667 9.5 48 9.5c30 0 54 -8.5 72 -25.5
s27 -39.5 27 -67.5c0 -12 -1.33301 -23.333 -4 -34z" />
    <glyph glyph-name="parenleft" unicode="(" horiz-adv-x="369" 
d="M309 -120l-10.002 -11.999c-17.333 9.33301 -36.666 24.5 -57.999 45.5s-41.333 47.167 -60 78.5s-34.5 67.833 -47.5 109.5s-19.5 88.167 -19.5 139.5c0 60.667 8.33301 117.667 25 171s38.167 102.666 64.5 147.999s55.5 86.5 87.5 123.5s63.5 69.167 94.5 96.5
s59.5 49.5 85.5 66.5s45.667 28.5 59 34.5l1 -10c-14.667 -7.33301 -34 -22 -58 -44s-49.333 -53.167 -76 -93.5s-53.167 -90.166 -79.5 -149.499s-48.833 -130 -67.5 -212c-11.333 -50 -19.5 -95.5 -24.5 -136.5s-7.5 -78.5 -7.5 -112.5c0 -38 2.66699 -71 8 -99
s12.333 -51.833 21 -71.5s18.334 -35.334 29.001 -47.001s21.667 -20.167 33 -25.5z" />
    <glyph glyph-name="parenright" unicode=")" horiz-adv-x="346" 
d="M421 378c-11.333 -48.667 -27.334 -94.165 -48.001 -136.498s-43.667 -81.5 -69 -117.5s-52.166 -68.5 -80.499 -97.5s-55.5 -54.333 -81.5 -76s-49.667 -39.5 -71 -53.5s-38.333 -23.667 -51 -29l-1 10c14.667 7.33301 34 22.166 58 44.499s49.333 53.5 76 93.5
s53 89.833 79 149.5s48.667 130.5 68 212.5c11.333 50 19.5 95.5 24.5 136.5s7.5 78.5 7.5 112.5c0 37.333 -2.66699 70 -8 98s-12.333 51.833 -21 71.5s-18.5 35.5 -29.5 47.5s-21.833 20.667 -32.5 26l10 11c17.333 -9.33301 36.666 -24.333 57.999 -45
s41.5 -46.667 60.5 -78s34.833 -67.833 47.5 -109.5s19 -87.834 19 -138.501c0 -20.667 -1.16699 -42 -3.5 -64s-6.16602 -44.667 -11.499 -68z" />
    <glyph glyph-name="asterisk" unicode="*" horiz-adv-x="371" 
d="M499 612c-3.33301 -12 -10.1787 -21.5039 -20.5117 -28.5039s-21.166 -10.5 -32.499 -10.5c-6.66699 0 -13.167 1.66699 -19.5 5s-13.5 6.83301 -21.5 10.5s-17.333 7.16699 -28 10.5s-23.667 5 -39 5l2 -3c10.667 -14.667 21.834 -24.5 33.501 -29.5
s22.334 -8.83301 32.001 -11.5s17.667 -6.16699 24 -10.5s9.5 -12.833 9.5 -25.5c0 -12 -5.33301 -22.5 -16 -31.5s-21.667 -13.5 -33 -13.5c-14 0 -23 3.33301 -27 10s-6.66699 15.334 -8 26.001s-3.16602 22.834 -5.49902 36.501s-8.83301 27.167 -19.5 40.5l-4 5l-1 -5
c-2.66699 -10.667 -4 -21 -4 -31c0 -17.333 2.5 -31.333 7.5 -42s7.5 -20.667 7.5 -30c0 -13.333 -5 -25 -15 -35s-21.667 -15 -35 -15c-10 0 -17.5 3 -22.5 9s-7.5 13.667 -7.5 23c0 8 2.33301 15.667 7 23l16 24.5c6 9 12.167 19.333 18.5 31s11.5 26.167 15.5 43.5
c-13.333 -10.667 -24.333 -22.5 -33 -35.5l-24.5 -37c-7.66699 -11.667 -16 -21.334 -25 -29.001s-19.833 -11.5 -32.5 -11.5c-9.33301 0 -16.333 2.5 -21 7.5s-7 11.5 -7 19.5c0 15.333 4.83301 27 14.5 35s21.334 14.5 35.001 19.5s28 9.83301 43 14.5
s27.833 11.667 38.5 21l9 7h-11c-12.667 0 -24 -1.5 -34 -4.5s-19.333 -6.5 -28 -10.5s-16.667 -7.5 -24 -10.5s-15 -4.5 -23 -4.5c-10 0 -18.833 2.5 -26.5 7.5s-11.5 12.5 -11.5 22.5c0 15.333 6.33301 27 19 35s25 12 37 12c8 0 14.833 -1.83301 20.5 -5.5
s12.167 -7.66699 19.5 -12s15.833 -8.33301 25.5 -12s22.5 -5.5 38.5 -5.5l-6 8c-6.66699 8 -15.167 14.5 -25.5 19.5l-30.5 15c-10 5 -18.5 10.5 -25.5 16.5s-10.5 14 -10.5 24c0 12 4.66699 22.5 14 31.5s20 13.5 32 13.5c13.333 0 22.5 -4.16699 27.5 -12.5
s8.33301 -18.333 10 -30l5 -36.5c1.66699 -12.667 5.83398 -23.667 12.501 -33l6 -6l3 11c2 8.66699 3 17 3 25c0 14.667 -1.83301 26.834 -5.5 36.501s-5.5 19.5 -5.5 29.5c0 12 4.5 24.5 13.5 37.5s21.167 19.5 36.5 19.5c10 0 17.333 -3.33301 22 -10s7 -14.667 7 -24
c0 -10 -2.5 -18.833 -7.5 -26.5s-10.833 -16 -17.5 -25s-13.667 -19.5 -21 -31.5s-13 -27.333 -17 -46l9 7c18.667 15.333 32.334 30 41.001 44s15.834 26.5 21.501 37.5s11.667 19.667 18 26s16.5 9.5 30.5 9.5c9.33301 0 16.666 -2.83301 21.999 -8.5s8 -12.834 8 -21.501
c0 -15.333 -3.66699 -26.166 -11 -32.499s-17.166 -11.666 -29.499 -15.999s-26.666 -9.66602 -42.999 -15.999s-33.166 -16.5 -50.499 -30.5l-6 -5h5c14.667 0 27.834 1.83301 39.501 5.5s22.167 7.66699 31.5 12l25 12c7.33301 3.66699 14.333 5.5 21 5.5
c10.667 0 19.334 -2.5 26.001 -7.5s10 -12.167 10 -21.5c0 -4 -0.333008 -7.33301 -1 -10z" />
    <glyph glyph-name="plus" unicode="+" horiz-adv-x="362" 
d="M392 367h-100l-23 -100h-36l23 100h-100l9 36h100l23 100h36l-23 -100h100z" />
    <glyph glyph-name="comma" unicode="," horiz-adv-x="307" 
d="M292 73c-7.33301 -30.667 -18.5 -59 -33.5 -85s-33.333 -48.5 -55 -67.5s-45.667 -33.833 -72 -44.5s-54.5 -16 -84.5 -16l3 11c22.667 0 45.167 4.16699 67.5 12.5s42.333 19 60 32s32 27.667 43 44s16.5 32.5 16.5 48.5c0 2.66699 -1 4 -3 4s-5 -1.33301 -9 -4
s-9.5 -5.5 -16.5 -8.5s-15.333 -5.66699 -25 -8s-20.834 -3.5 -33.501 -3.5c-26 0 -48.167 8.16699 -66.5 24.5s-27.5 36.833 -27.5 61.5c0 18.667 4.5 35.667 13.5 51s20.333 28.5 34 39.5s28.834 19.667 45.501 26s32.667 9.5 48 9.5c30 0 54 -8.5 72 -25.5
s27 -39.5 27 -67.5c0 -12 -1.33301 -23.333 -4 -34z" />
    <glyph glyph-name="hyphen" unicode="-" horiz-adv-x="336" 
d="M347 261h-236l13 56h236z" />
    <glyph glyph-name="period" unicode="." horiz-adv-x="312" 
d="M302 103c-4 -16 -10.666 -31.167 -19.999 -45.5s-20.833 -26.833 -34.5 -37.5s-28.5 -19.167 -44.5 -25.5s-32.333 -9.5 -49 -9.5c-29.333 0 -52.833 8.66699 -70.5 26s-26.5 39.333 -26.5 66c0 18.667 4.33301 36.834 13 54.501s20.167 33 34.5 46s30.5 23.5 48.5 31.5
s36.667 12 56 12c29.333 0 52.666 -8.66699 69.999 -26s26 -39.333 26 -66c0 -8.66699 -1 -17.334 -3 -26.001z" />
    <glyph glyph-name="slash" unicode="/" horiz-adv-x="483" 
d="M740 817l-690 -837h-19l688 837h21z" />
    <glyph glyph-name="zero" unicode="0" horiz-adv-x="660" 
d="M725 398c-13.333 -56.667 -33.668 -110.003 -61.001 -160.003s-59 -93.5 -95 -130.5s-75 -66.333 -117 -88s-84 -32.5 -126 -32.5c-34 0 -64.667 7.16699 -92 21.5s-50.833 34.333 -70.5 60s-34.667 56 -45 91s-15.5 73.5 -15.5 115.5
c0 46.667 5.66699 92.334 17 137.001s27 86.834 47 126.501s43.333 76.334 70 110.001s55.334 62.5 86.001 86.5s62.5 42.833 95.5 56.5s65.833 20.5 98.5 20.5c34 0 64.667 -7.16699 92 -21.5s50.833 -34.5 70.5 -60.5s34.667 -56.667 45 -92s15.5 -74 15.5 -116
c0 -40 -5 -81.333 -15 -124zM509.998 388.997l46.498 209.001c11.667 54.667 17.5 97.667 17.5 129c0 25.333 -4.5 43.666 -13.5 54.999s-23.167 17 -42.5 17s-36.666 -6.83301 -51.999 -20.5s-30 -36.167 -44 -67.5s-28.167 -73 -42.5 -125s-30.166 -116 -47.499 -192
c-19.333 -83.333 -34 -150.666 -44 -201.999s-15 -91.333 -15 -120c0 -27.333 4.83301 -45.833 14.5 -55.5s24.167 -14.5 43.5 -14.5c18 0 34 5 48 15s27.667 29 41 57s27 67.167 41 117.5s30.333 116.166 49 197.499z" />
    <glyph glyph-name="one" unicode="1" horiz-adv-x="447" 
d="M420 0l-374 -0.000976562l3 13h30c16.667 0 29.834 5.16699 39.501 15.5s16.5 23.833 20.5 40.5l126 544c2 8.66699 3 16.334 3 23.001c0 14.667 -3.83301 24.834 -11.5 30.501s-17.167 8.5 -28.5 8.5h-28l3 11c10.667 0 24.667 2.33301 42 7s36.166 10.667 56.499 18
s41.333 15.833 63 25.5s42 19.5 61 29.5s36 19.833 51 29.5s26.167 18.167 33.5 25.5l-171 -740c-1.33301 -4 -2 -7.5 -2 -10.5v-9.5c0 -16.667 4 -28.834 12 -36.501s16.667 -11.5 26 -11.5h48z" />
    <glyph glyph-name="two" unicode="2" horiz-adv-x="644" 
d="M682 289c-10 -42.667 -23.3301 -83.1689 -39.9971 -121.502s-36.667 -72 -60 -101s-50 -52 -80 -69s-63 -25.5 -99 -25.5c-24.667 0 -45.334 3.5 -62.001 10.5s-30.834 15.667 -42.501 26s-22 21.5 -31 33.5s-18.333 23.167 -28 33.5s-20.5 19 -32.5 26
s-27 10.5 -45 10.5c-13.333 0 -26.5 -2.83301 -39.5 -8.5s-24.667 -13.5 -35 -23.5s-18.833 -21.667 -25.5 -35s-10 -27.333 -10 -42c0 -1.33301 0.166992 -2.33301 0.5 -3s0.5 -1.33398 0.5 -2.00098h-16c-1.33301 2.66699 -2 7.33398 -2 14.001
c0 40.667 7.5 78.334 22.5 113.001s33.667 65.5 56 92.5s46.5 50.167 72.5 69.5s50 34.666 72 45.999c12.667 6 31.5 14.333 56.5 25s51.333 26.5 79 47.5s54 48.5 79 82.5s43.5 77 55.5 129c6.66699 27.333 10 52.333 10 75c0 38.667 -8.83301 65.834 -26.5 81.501
s-39.834 23.5 -66.501 23.5c-17.333 0 -36.833 -4 -58.5 -12s-41.834 -18.333 -60.501 -31s-34.334 -26.834 -47.001 -42.501s-19 -30.834 -19 -45.501c0 -3.33301 1.33301 -5 4 -5c1.33301 0 4.5 1.33301 9.5 4s11 5.66699 18 9s15 6.33301 24 9s18.5 4 28.5 4
c27.333 0 47.666 -8 60.999 -24s20 -35 20 -57c0 -17.333 -3.66699 -33.666 -11 -48.999s-17.333 -29 -30 -41s-27.5 -21.5 -44.5 -28.5s-35.5 -10.5 -55.5 -10.5c-30 0 -52.333 9 -67 27s-22 40.333 -22 67c0 24.667 6.66699 51.5 20 80.5s33.166 55.833 59.499 80.5
s59 45.167 98 61.5s84.5 24.5 136.5 24.5c37.333 0 70.666 -4.16699 99.999 -12.5s54.333 -20 75 -35s36.334 -33.167 47.001 -54.5s16 -44.666 16 -69.999c0 -39.333 -8.16699 -73.333 -24.5 -102s-37 -53.334 -62 -74.001s-52.833 -37.667 -83.5 -51
s-60.5 -24.333 -89.5 -33s-55.333 -15.334 -79 -20.001s-41.167 -8.66699 -52.5 -12c-39.333 -10.667 -75.5 -25.167 -108.5 -43.5s-62.167 -39.5 -87.5 -63.5s-46.5 -50.167 -63.5 -78.5s-28.833 -57.5 -35.5 -87.5c0 -2.66699 -0.5 -5 -1.5 -7s-1.5 -3.66699 -1.5 -5
c0 -2 1 -3 3 -3c0.666992 2.66699 6.33398 11 17.001 25s26.834 28.833 48.501 44.5s49 29.834 82 42.501s72.167 19 117.5 19c25.333 0 46.333 -0.666992 63 -2s31.834 -3 45.501 -5s27.334 -3.66699 41.001 -5s30.167 -2 49.5 -2c22 0 41.5 2.83301 58.5 8.5
s31.667 13.334 44 23.001s22.333 20.834 30 33.501s13.167 26 16.5 40z" />
    <glyph glyph-name="three" unicode="3" horiz-adv-x="663" 
d="M674 231c-9.33301 -39.333 -26.6611 -74.6729 -51.9941 -106.006s-55.666 -58 -90.999 -80s-74 -38.833 -116 -50.5s-84 -17.5 -126 -17.5c-41.333 0 -76.333 4.66699 -105 14s-52 21.666 -70 36.999s-31.167 32.833 -39.5 52.5s-12.5 39.834 -12.5 60.501
c0 21.333 4 42.333 12 63s19 39 33 55s30.833 29 50.5 39s41.167 15 64.5 15c26.667 0 47.334 -8 62.001 -24s22 -35.667 22 -59c0 -18 -3.66699 -35.167 -11 -51.5s-17.166 -30.666 -29.499 -42.999s-26.5 -22 -42.5 -29s-32.667 -10.5 -50 -10.5
s-30.833 2.83301 -40.5 8.5s-15.167 8.5 -16.5 8.5c-2.66699 0 -4.83398 -1.16699 -6.50098 -3.5s-2.5 -7.83301 -2.5 -16.5c0 -10.667 3.16699 -22 9.5 -34s15.666 -23 27.999 -33s27.833 -18.167 46.5 -24.5s40.667 -9.5 66 -9.5c24.667 0 46.667 2.66699 66 8
s36.833 16 52.5 32s29.834 38.333 42.501 67s24.334 66.334 35.001 113.001c10 46 15 83.333 15 112c0 24 -2.83301 43.333 -8.5 58s-13.167 26 -22.5 34s-19.833 13.333 -31.5 16s-23.834 4 -36.501 4c-10.667 0 -20.5 -0.833008 -29.5 -2.5s-15.167 -2.5 -18.5 -2.5
s-5 2.33301 -5 7c0 3.33301 0.833008 6.5 2.5 9.5s4.5 4.5 8.5 4.5c3.33301 0 6.16602 -0.333008 8.49902 -1s5.16602 -1.16699 8.49902 -1.5s7.33301 -0.833008 12 -1.5s10.667 -1 18 -1c18.667 0 34.667 3.16699 48 9.5s25.166 16.666 35.499 30.999s19.5 33.333 27.5 57
s16 52.834 24 87.501c7.33301 32.667 11 59.334 11 80.001c0 61.333 -24 92 -72 92c-16 0 -31.833 -2.66699 -47.5 -8s-30 -11.666 -43 -18.999s-23.5 -14.833 -31.5 -22.5s-12 -14.167 -12 -19.5c0 -4 2 -6 6 -6c3.33301 0 8.66602 1.16699 15.999 3.5
s15.666 3.5 24.999 3.5c21.333 0 38.666 -7 51.999 -21s20 -32 20 -54c0 -17.333 -3.83301 -33.833 -11.5 -49.5s-17.667 -29.334 -30 -41.001s-26.5 -21 -42.5 -28s-32 -10.5 -48 -10.5c-28 0 -49 8.16699 -63 24.5s-21 36.166 -21 59.499c0 21.333 5.5 43.833 16.5 67.5
s27.5 45.5 49.5 65.5s49.667 36.5 83 49.5s72.333 19.5 117 19.5c34.667 0 66.167 -4 94.5 -12s52.5 -19 72.5 -33s35.5 -30.5 46.5 -49.5s16.5 -39.5 16.5 -61.5c0 -20.667 -4.16699 -40 -12.5 -58s-18.833 -34.5 -31.5 -49.5s-27 -28.5 -43 -40.5s-31.667 -22.5 -47 -31.5
s-29.5 -16.167 -42.5 -21.5s-23.167 -9 -30.5 -11l-1 -5c17.333 -5.33301 36.166 -12.666 56.499 -21.999s39.166 -21.166 56.499 -35.499s31.833 -31.166 43.5 -50.499s17.5 -41.666 17.5 -66.999c0 -10.667 -1.66699 -23.667 -5 -39z" />
    <glyph glyph-name="four" unicode="4" horiz-adv-x="659" 
d="M718 346l-52.001 -107.999h-115l-40 -177c-1.33301 -3.33301 -2 -6.33301 -2 -9v-8c0 -21.333 14.333 -32 43 -32h32l-2 -12h-402l2 12h48c21.333 0 37.833 4.66699 49.5 14s19.834 23.666 24.501 42.999l39 169h-278l458 562h158l-121 -526h61
c13.333 0 26.833 4.33301 40.5 13s25.167 21.667 34.5 39l11 21zM445.999 682.001l-334 -408h240z" />
    <glyph glyph-name="five" unicode="5" horiz-adv-x="636" 
d="M666 258c-10 -42 -27.834 -80.166 -53.501 -114.499s-56.167 -63.666 -91.5 -87.999s-73.666 -43.166 -114.999 -56.499s-82.333 -20 -123 -20c-40 0 -74.167 4.66699 -102.5 14s-51.166 21.666 -68.499 36.999s-30 32.666 -38 51.999s-12 39.333 -12 60
c0 21.333 4 42.333 12 63s18.833 39 32.5 55s29.667 29 48 39s38.166 15 59.499 15c26.667 0 48 -7.83301 64 -23.5s24 -35.167 24 -58.5c0 -18.667 -4 -36.167 -12 -52.5s-18.5 -30.5 -31.5 -42.5s-27.333 -21.333 -43 -28s-30.834 -10 -45.501 -10
c-9.33301 0 -17.833 1.16699 -25.5 3.5s-14.334 5 -20.001 8s-10.167 5.66699 -13.5 8s-5.33301 3.5 -6 3.5c-2.66699 0 -4.66699 -2.16699 -6 -6.5s-2 -9.16602 -2 -14.499c0 -12 3.83301 -24.333 11.5 -37s18.334 -24.167 32.001 -34.5s30 -18.666 49 -24.999
s39.833 -9.5 62.5 -9.5c24.667 0 46 4.33301 64 13s34.167 22.667 48.5 42s27 44.666 38 75.999s21.833 69.666 32.5 114.999c12 52.667 18 96.334 18 131.001c0 42.667 -8.83301 73.167 -26.5 91.5s-43.834 27.5 -78.501 27.5c-19.333 0 -38.333 -4.33301 -57 -13
s-35.667 -18.834 -51 -30.501s-28.833 -23.834 -40.5 -36.501s-19.834 -23 -24.501 -31l-13 6c6.66699 10.667 15.5 27.834 26.5 51.501l35.5 79l39 90.5l36.5 87.5l28 68.5c7.66699 18.667 11.834 30 12.501 34c1.33301 6 3.33301 9.83301 6 11.5s5.66699 2.5 9 2.5
c1.33301 0 5.5 -1 12.5 -3s17.167 -4.33301 30.5 -7s30.333 -5 51 -7s45.334 -3 74.001 -3s55.5 1.16699 80.5 3.5s46.667 4.66602 65 6.99902s33 4.66602 44 6.99902s17.167 3.5 18.5 3.5c4 0 6 -2 6 -6c0 -14 -6.83301 -31.167 -20.5 -51.5
s-33.834 -39.666 -60.501 -57.999s-59.834 -34 -99.501 -47s-85.5 -19.5 -137.5 -19.5c-12 0 -25 0.5 -39 1.5s-27 2 -39 3s-22.167 2 -30.5 3s-13.166 1.5 -14.499 1.5l-94 -204h6c7.33301 8 17.5 16.667 30.5 26s28.833 18.166 47.5 26.499s40.334 15.333 65.001 21
s52.334 8.5 83.001 8.5c33.333 0 64.5 -4.66699 93.5 -14s54.333 -22.666 76 -39.999s38.667 -38.333 51 -63s18.5 -52.667 18.5 -84c0 -9.33301 -0.5 -18.833 -1.5 -28.5s-2.83301 -19.5 -5.5 -29.5z" />
    <glyph glyph-name="six" unicode="6" horiz-adv-x="657" 
d="M688 263c-8 -35.333 -22.834 -69.8311 -44.501 -103.498s-48 -63.667 -79 -90s-65.5 -47.5 -103.5 -63.5s-77.333 -24 -118 -24c-34 0 -66.167 6 -96.5 18s-56.833 29.5 -79.5 52.5s-40.667 50.833 -54 83.5s-20 70 -20 112c0 30 4 62.667 12 98
c16 70 41.333 133.667 76 191s74.167 106.5 118.5 147.5s92 72.833 143 95.5s101.167 34 150.5 34c24 0 44.833 -3.66699 62.5 -11s32.334 -16.833 44.001 -28.5s20.334 -25 26.001 -40s8.5 -30.5 8.5 -46.5c0 -16.667 -3 -32.834 -9 -48.501s-14.833 -29.667 -26.5 -42
s-25.667 -22.333 -42 -30s-34.5 -11.5 -54.5 -11.5c-28 0 -49.167 7.66699 -63.5 23s-21.5 33.666 -21.5 54.999c0 14.667 3.5 29.167 10.5 43.5s16.167 26.833 27.5 37.5s24.166 19.334 38.499 26.001s28.833 10 43.5 10c8.66699 0 15.5 -0.833008 20.5 -2.5
s9.16699 -2.5 12.5 -2.5c2 0 3.16699 1.16699 3.5 3.5s0.5 4.5 0.5 6.5c0 13.333 -8.16699 24.833 -24.5 34.5s-36.166 14.5 -59.499 14.5c-55.333 0 -104.833 -33.667 -148.5 -101s-82.834 -173.333 -117.501 -318c21.333 38 47.333 66.5 78 85.5s68 28.5 112 28.5
c57.333 0 102 -15.667 134 -47s48 -73 48 -125c0 -18.667 -2.66699 -40.334 -8 -65.001zM486.999 240.002c8.66699 38 15.499 71.333 20.499 100s7.5 52.667 7.5 72c0 22.667 -3.83301 39.5 -11.5 50.5s-20.5 16.5 -38.5 16.5c-27.333 0 -55 -13.167 -83 -39.5
s-52.333 -65.166 -73 -116.499c-13.333 -58 -23.166 -106.833 -29.499 -146.5s-9.5 -72.167 -9.5 -97.5c0 -32 5.33301 -54.167 16 -66.5s26.667 -18.5 48 -18.5c22.667 0 41.667 5.16699 57 15.5s28.5 25.666 39.5 45.999s20.833 45.833 29.5 76.5s17.667 66.667 27 108z
" />
    <glyph glyph-name="seven" unicode="7" horiz-adv-x="568" 
d="M729 771c-10 -44.667 -24.834 -83.335 -44.501 -116.002s-41.834 -63.167 -66.501 -91.5s-50.667 -56 -78 -83s-53.833 -56.333 -79.5 -88s-49.167 -67.834 -70.5 -108.501s-38.333 -88.667 -51 -144c-4 -17.333 -6.83301 -33.166 -8.5 -47.499
s-2.5 -27.166 -2.5 -38.499c0 -15.333 1 -27.333 3 -36s4.33301 -14.667 7 -18h-265c-2 6.66699 -3 14 -3 22c0 10.667 1.33301 21.334 4 32.001c8.66699 38 24.167 74.333 46.5 109s48.166 67.334 77.499 98.001s60.5 58.667 93.5 84s64.833 47.666 95.5 66.999l86 56
c31.333 20.667 61.333 43 90 67s53.667 49.333 75 76s35 54 41 82c0 0.666992 0.166992 1.16699 0.5 1.5s0.5 0.833008 0.5 1.5c0 2 -0.666992 3 -2 3s-7.16602 -4.83301 -17.499 -14.5s-24.5 -20.167 -42.5 -31.5s-39.5 -21.833 -64.5 -31.5s-52.5 -14.5 -82.5 -14.5
c-20 0 -37.667 1.83301 -53 5.5s-29.833 7.66699 -43.5 12s-27 8.33301 -40 12s-27.5 5.5 -43.5 5.5c-20 0 -37.333 -4.5 -52 -13.5s-27.334 -20.667 -38.001 -35s-19.667 -30.333 -27 -48s-14 -35.5 -20 -53.5h-14c4.66699 10 11.667 27.333 21 52l30 80.5
c10.667 29 20.5 57.167 29.5 84.5s15.167 49 18.5 65h13c-1.33301 -4.66699 -2.66602 -10 -3.99902 -16s-2 -10.667 -2 -14s0.666992 -5 2 -5c2 0 8 4 18 12s23 16.667 39 26s34.333 18 55 26s42.334 12 65.001 12s43.334 -2.83301 62.001 -8.5s36.5 -12 53.5 -19
s34 -13.333 51 -19s35.5 -8.5 55.5 -8.5c14 0 25.5 1.33301 34.5 4s16.5 5.66699 22.5 9s10.5 6.33301 13.5 9s5.16699 4 6.5 4c4 0 6 -2.66699 6 -8c0 -2.66699 -0.333008 -5 -1 -7z" />
    <glyph glyph-name="eight" unicode="8" horiz-adv-x="666" 
d="M700 262c-11.333 -48 -30.5029 -89.666 -57.5029 -124.999s-58.667 -64.5 -95 -87.5s-75.166 -40.167 -116.499 -51.5s-82 -17 -122 -17c-33.333 0 -64.833 3.66699 -94.5 11s-55.667 18.166 -78 32.499s-40.166 31.833 -53.499 52.5s-20 44.334 -20 71.001
c0 30 6.5 57.333 19.5 82s30 47 51 67s44.667 37.333 71 52s52.5 27 78.5 37c-20 15.333 -36.5 33.5 -49.5 54.5s-19.5 47.5 -19.5 79.5c0 43.333 9.66699 83.5 29 120.5s44.333 68.833 75 95.5s65.334 47.5 104.001 62.5s77 22.5 115 22.5c22 0 44.667 -3 68 -9
s44.5 -14.833 63.5 -26.5s34.667 -26.334 47 -44.001s18.5 -38.5 18.5 -62.5c0 -21.333 -4.5 -41.5 -13.5 -60.5s-20.833 -36.5 -35.5 -52.5s-31.5 -30.833 -50.5 -44.5s-38.5 -26.167 -58.5 -37.5c16.667 -8.66699 32.834 -18 48.501 -28s29.667 -21.5 42 -34.5
s22.166 -28 29.499 -45s11 -36.833 11 -59.5c0 -8 -0.5 -16.667 -1.5 -26s-2.83301 -19 -5.5 -29zM611.997 629.001c0 2.66699 0.667969 6.00293 2.00098 10.0029c2.66699 11.333 5 23.333 7 36s3 25.667 3 39c0 24.667 -5.33301 46.334 -16 65.001s-30.667 28 -60 28
c-21.333 0 -40.5 -5.66699 -57.5 -17s-31.333 -25.5 -43 -42.5s-20.667 -35.167 -27 -54.5s-9.5 -37 -9.5 -53c0 -18.667 3.66699 -34.834 11 -48.501s17 -26 29 -37s25.833 -20.833 41.5 -29.5s32.167 -17 49.5 -25c11.333 6.66699 20.833 15.167 28.5 25.5
s14.167 21.166 19.5 32.499s9.66602 23.166 12.999 35.499s6.33301 24.166 9 35.499zM503.998 141.004c3.33301 15.333 4.99805 28.667 4.99805 40c0 26 -6.33301 47.833 -19 65.5s-28.834 33.167 -48.501 46.5s-41.167 25.5 -64.5 36.5s-45.666 23.167 -66.999 36.5
c-18 -11.333 -33.167 -27.333 -45.5 -48s-22.5 -43.334 -30.5 -68.001s-13.667 -49.667 -17 -75s-5 -47.666 -5 -66.999c0 -16 1.83301 -31 5.5 -45s9.83398 -26 18.501 -36s20.334 -17.833 35.001 -23.5s33 -8.5 55 -8.5c50 0 89.333 12.333 118 37s48.667 61 60 109z" />
    <glyph glyph-name="nine" unicode="9" horiz-adv-x="651" 
d="M727 453c-16 -70 -41.166 -133.997 -75.499 -191.997s-73.333 -107.667 -117 -149s-90.334 -73.5 -140.001 -96.5s-97.834 -34.5 -144.501 -34.5c-23.333 0 -45.333 3.33301 -66 10s-38.667 16.167 -54 28.5s-27.5 26.833 -36.5 43.5s-13.5 35 -13.5 55
c0 18.667 3.66699 36.5 11 53.5s17.333 31.667 30 44s27.167 22.166 43.5 29.499s33.166 11 50.499 11c28 0 49.333 -7.5 64 -22.5s22 -32.833 22 -53.5c0 -16.667 -3.66699 -32.167 -11 -46.5s-16.666 -26.833 -27.999 -37.5s-24 -19 -38 -25s-27.667 -9 -41 -9
c-8.66699 0 -15.834 0.833008 -21.501 2.5s-10.167 2.5 -13.5 2.5s-5.16602 -1.33301 -5.49902 -4s-0.5 -5.33398 -0.5 -8.00098c0 -8 2.66699 -15.5 8 -22.5s12.833 -13.333 22.5 -19s21.167 -10.167 34.5 -13.5s27.666 -5 42.999 -5c28 0 54.167 8.5 78.5 25.5
s47 43 68 78s40.833 79.5 59.5 133.5s36.667 118.333 54 193l7 33c-17.333 -47.333 -41.333 -84.333 -72 -111s-71 -40 -121 -40c-55.333 0 -98.333 15.667 -129 47s-46 73 -46 125c0 27.333 4.33301 54.666 13 81.999s20.834 53.5 36.501 78.5s34.167 48.333 55.5 70
s44.5 40.5 69.5 56.5s51.333 28.5 79 37.5s55.5 13.5 83.5 13.5c34.667 0 67.334 -6 98.001 -18s57.5 -29.5 80.5 -52.5s41.167 -51 54.5 -84s20 -70.5 20 -112.5c0 -30.667 -4 -63 -12 -97zM538.001 578.003c4 18 8.33398 39.333 13.001 64s7 48.667 7 72
c0 25.333 -4.33301 46.833 -13 64.5s-25.334 26.5 -50.001 26.5c-19.333 0 -35.833 -5.16699 -49.5 -15.5s-26 -25.833 -37 -46.5s-21.167 -46.5 -30.5 -77.5s-18.666 -66.833 -27.999 -107.5c-8.66699 -38 -15.5 -70.5 -20.5 -97.5s-7.5 -49.5 -7.5 -67.5
c0 -22 4 -37.833 12 -47.5s21.333 -14.5 40 -14.5c19.333 0 37.166 6.33301 53.499 19s31.333 30.167 45 52.5s26 48.5 37 78.5s20.5 62.333 28.5 97z" />
    <glyph glyph-name="colon" unicode=":" horiz-adv-x="312" 
d="M379 436c-4 -16 -10.667 -31.167 -20 -45.5s-20.833 -26.833 -34.5 -37.5s-28.5 -19.167 -44.5 -25.5s-32.333 -9.5 -49 -9.5c-29.333 0 -52.833 8.66699 -70.5 26s-26.5 39.333 -26.5 66c0 18.667 4.33301 36.834 13 54.501s20.167 33 34.5 46s30.5 23.5 48.5 31.5
s36.333 12 55 12c29.333 0 52.833 -8.83301 70.5 -26.5s26.5 -39.5 26.5 -65.5c0 -8.66699 -1 -17.334 -3 -26.001zM302 103c-4 -16 -10.666 -31.167 -19.999 -45.5s-20.833 -26.833 -34.5 -37.5s-28.5 -19.167 -44.5 -25.5s-32.333 -9.5 -49 -9.5
c-29.333 0 -52.833 8.66699 -70.5 26s-26.5 39.333 -26.5 66c0 18.667 4.33301 36.834 13 54.501s20.167 33 34.5 46s30.5 23.5 48.5 31.5s36.667 12 56 12c29.333 0 52.666 -8.66699 69.999 -26s26 -39.333 26 -66c0 -8.66699 -1 -17.334 -3 -26.001z" />
    <glyph glyph-name="semicolon" unicode=";" horiz-adv-x="307" 
d="M374 436c-4 -16 -10.667 -31.167 -20 -45.5s-20.833 -26.833 -34.5 -37.5s-28.5 -19.167 -44.5 -25.5s-32.333 -9.5 -49 -9.5c-29.333 0 -52.833 8.66699 -70.5 26s-26.5 39.333 -26.5 66c0 18.667 4.33301 36.834 13 54.501s20.167 33 34.5 46s30.5 23.5 48.5 31.5
s36.333 12 55 12c29.333 0 52.833 -8.83301 70.5 -26.5s26.5 -39.5 26.5 -65.5c0 -8.66699 -1 -17.334 -3 -26.001zM292 73c-7.33301 -30.667 -18.5 -59 -33.5 -85s-33.333 -48.5 -55 -67.5s-45.667 -33.833 -72 -44.5s-54.5 -16 -84.5 -16l3 11
c22.667 0 45.167 4.16699 67.5 12.5s42.333 19 60 32s32 27.667 43 44s16.5 32.5 16.5 48.5c0 2.66699 -1 4 -3 4s-5 -1.33301 -9 -4s-9.5 -5.5 -16.5 -8.5s-15.333 -5.66699 -25 -8s-20.834 -3.5 -33.501 -3.5c-26 0 -48.167 8.16699 -66.5 24.5s-27.5 36.833 -27.5 61.5
c0 18.667 4.5 35.667 13.5 51s20.333 28.5 34 39.5s28.834 19.667 45.501 26s32.667 9.5 48 9.5c30 0 54 -8.5 72 -25.5s27 -39.5 27 -67.5c0 -12 -1.33301 -23.333 -4 -34z" />
    <glyph glyph-name="less" unicode="&#x3c;" horiz-adv-x="546" 
d="M485 43l-374 234l10 41l483 237l-23 -98l-327 -160l252 -163z" />
    <glyph glyph-name="equal" unicode="=" horiz-adv-x="336" 
d="M342 261h-236l10 46h236zM361 352h-236l10 46h236z" />
    <glyph glyph-name="greater" unicode="&#x3e;" horiz-adv-x="564" 
d="M565 290l-482 -237l22 98l327 160l-252 163l21 91l374 -234z" />
    <glyph glyph-name="question" unicode="?" horiz-adv-x="647" 
d="M774 594c-8.66699 -38 -25.666 -68.4971 -50.999 -91.4971s-54.333 -42 -87 -57s-66.834 -27.5 -102.501 -37.5s-68.5 -21.167 -98.5 -33.5s-54.667 -27.333 -74 -45s-29 -41.5 -29 -71.5c0 -6 -1.66699 -9 -5 -9c-6.66699 0 -10 5.33301 -10 16
c0 19.333 5.33301 38 16 56s23.834 36.5 39.501 55.5l51.5 59.5c18.667 20.667 35.834 43.5 51.501 68.5s28.834 52.5 39.501 82.5s16 63.667 16 101c0 35.333 -8.5 60 -25.5 74s-38.833 21 -65.5 21c-16.667 0 -33.5 -2.33301 -50.5 -7s-32.833 -10.834 -47.5 -18.501
s-27 -16 -37 -25s-16 -17.833 -18 -26.5c0 -3.33301 2.33301 -5 7 -5c3.33301 0 7.83301 0.166992 13.5 0.5s12.167 0.5 19.5 0.5c30.667 0 53.167 -8.66699 67.5 -26s21.5 -37.666 21.5 -60.999c0 -18 -3.66699 -36.333 -11 -55s-17.666 -35.834 -30.999 -51.501
s-29.833 -28.5 -49.5 -38.5s-41.834 -15 -66.501 -15c-33.333 0 -58.333 9 -75 27s-25 40.667 -25 68c0 26 7.33301 53.667 22 83s36.5 56.666 65.5 81.999s65.167 46.333 108.5 63s93.666 25 150.999 25c38 0 73.667 -4.16699 107 -12.5s62.166 -20 86.499 -35
s43.666 -33.333 57.999 -55s21.5 -45.834 21.5 -72.501c0 -12 -1.33301 -23.333 -4 -34zM437.001 100.003c-4 -16 -10.668 -30.834 -20.001 -44.501s-20.5 -25.667 -33.5 -36s-27.5 -18.5 -43.5 -24.5s-32 -9 -48 -9c-28.667 0 -51.667 8.33301 -69 25s-26 37.667 -26 63
c0 18.667 4.16699 36.667 12.5 54s19.5 32.333 33.5 45s29.833 22.834 47.5 30.501s35.834 11.5 54.501 11.5c28 0 50.833 -8.66699 68.5 -26s26.5 -39 26.5 -65c0 -8 -1 -16 -3 -24z" />
    <glyph glyph-name="at" unicode="@" horiz-adv-x="893" 
d="M935 273c-9.33301 -40.667 -22.1777 -78.668 -38.5107 -114.001s-35.666 -66 -57.999 -92s-48.166 -46.333 -77.499 -61s-61.666 -22 -96.999 -22c-34 0 -61.333 10.667 -82 32s-31 54 -31 98v10.5c0 3.66699 0.333008 7.5 1 11.5
c-19.333 -46.667 -41.666 -83 -66.999 -109s-56 -39 -92 -39c-19.333 0 -37.166 4.66699 -53.499 14s-30.5 22.333 -42.5 39s-21.5 36.5 -28.5 59.5s-10.5 48.167 -10.5 75.5c0 28.667 3.83301 58 11.5 88s18.334 59 32.001 87s29.834 54.333 48.501 79
s38.834 46.334 60.501 65.001s44.334 33.334 68.001 44.001s47.5 16 71.5 16c23.333 0 41.5 -5.83301 54.5 -17.5s20.167 -32.5 21.5 -62.5l16 67h174l-98 -425c-2.66699 -10.667 -4 -20.667 -4 -30c0 -30 14 -45 42 -45c22.667 0 44.5 10.833 65.5 32.5s39.5 49 55.5 82
s28.667 69 38 108s14 75.833 14 110.5c0 37.333 -5.16699 73.666 -15.5 108.999s-27.166 66.833 -50.499 94.5s-54 49.834 -92 66.501s-85 25 -141 25c-49.333 0 -99.666 -9 -150.999 -27s-99.833 -45.333 -145.5 -82s-86.334 -82.834 -122.001 -138.501
s-62.167 -120.834 -79.5 -195.501c-8 -36 -12 -69 -12 -99c0 -49.333 9.16699 -92.333 27.5 -129s42.166 -67 71.499 -91s62.833 -42 100.5 -54s76.167 -18 115.5 -18c45.333 0 88.833 8 130.5 24s76.834 39 105.501 69l8 -14c-36 -32.667 -74.333 -56.667 -115 -72
s-87.667 -23 -141 -23c-45.333 0 -89.166 7.33301 -131.499 22s-80 36 -113 64s-59.5 61.833 -79.5 101.5s-30 84.5 -30 134.5c0 29.333 3.33301 58.333 10 87c16.667 72.667 44.5 137.334 83.5 194.001s84.167 104.5 135.5 143.5s106.5 68.667 165.5 89
s116.833 30.5 173.5 30.5c56 0 103.667 -8.66699 143 -26s71.333 -40.333 96 -69s42.667 -61.5 54 -98.5s17 -75.5 17 -115.5c0 -35.333 -4 -70 -12 -104zM579.988 283.999c20.667 91.333 31.002 154.67 31.002 190.003c0 20 -2.5 34 -7.5 42s-12.167 12 -21.5 12
c-20.667 0 -40.334 -20.833 -59.001 -62.5s-39 -109.834 -61 -204.501c-11.333 -50 -19.5 -90.833 -24.5 -122.5s-7.5 -56.834 -7.5 -75.501c0 -16.667 1.66699 -28.334 5 -35.001s8.33301 -10 15 -10s15 5 25 15s21 25.667 33 47s24.167 48.833 36.5 82.5
s24.166 74.167 35.499 121.5z" />
    <glyph glyph-name="A" unicode="A" horiz-adv-x="866" 
d="M881 0l-447.998 0.000976562l3 13h59c15.333 0 27.833 5.5 37.5 16.5s14.5 25.833 14.5 44.5v8l-21 254h-214l-60 -114c-13.333 -24.667 -23.166 -46.834 -29.499 -66.501s-9.5 -38.167 -9.5 -55.5c0 -29.333 8.16699 -51.166 24.5 -65.499s36.166 -21.5 59.499 -21.5h35
l-3 -13h-335l3 13h19c20.667 0 41.5 7.16699 62.5 21.5s41.5 32.666 61.5 54.999s38.833 47 56.5 74s33.5 53.5 47.5 79.5l302 557h176l76 -748c1.33301 -14 6.16602 -24 14.499 -30s19.166 -9 32.499 -9h39zM525.002 350.001l-29 322l-177 -322h206z" />
    <glyph glyph-name="B" unicode="B" horiz-adv-x="855" 
d="M861 210c-7.33301 -30 -20.333 -57.999 -39 -83.999s-42.5 -48.333 -71.5 -67s-62.5 -33.334 -100.5 -44.001s-79.667 -16 -125 -16h-527l3 14h62c18 0 34.5 6.5 49.5 19.5s24.833 28.833 29.5 47.5l154 666c0.666992 2 1 4.16699 1 6.5v5.5c0 19.333 -13 29 -39 29h-54
l3 13h444c34.667 0 67.167 -3.16699 97.5 -9.5s56.666 -15.833 78.999 -28.5s39.833 -28.5 52.5 -47.5s19 -40.833 19 -65.5c0 -28 -6.83301 -53.833 -20.5 -77.5s-32 -44.834 -55 -63.501s-49.333 -34.167 -79 -46.5s-60.167 -21.5 -91.5 -27.5l-1 -7
c28.667 -4 55.834 -10.833 81.501 -20.5s48.167 -22.167 67.5 -37.5s34.833 -33.166 46.5 -53.499s17.5 -42.833 17.5 -67.5c0 -6 -0.333008 -12.167 -1 -18.5s-1.66699 -12.833 -3 -19.5zM659 620.001c8.66699 37.333 12.998 68.667 12.998 94
c0 27.333 -4.66699 46.333 -14 57s-22 16 -38 16h-85l-80 -349h86c16.667 0 30.834 3.5 42.501 10.5s21.834 17.833 30.501 32.5s16.5 33.5 23.5 56.5s14.167 50.5 21.5 82.5zM591.998 216.002c10 42 14.998 78 14.998 108c0 32 -5.83301 56.5 -17.5 73.5
s-30.167 25.5 -55.5 25.5h-82l-80 -344c-1.33301 -7.33301 -2.66602 -13.833 -3.99902 -19.5s-2 -10.834 -2 -15.501c0 -11.333 4.33301 -19.333 13 -24s25.667 -7 51 -7c24.667 0 45.334 2.66699 62.001 8s30.667 15.333 42 30s21.333 35.334 30 62.001s18 61 28 103z" />
    <glyph glyph-name="C" unicode="C" horiz-adv-x="820" 
d="M855 307c-8 -36.667 -22.8301 -74.334 -44.4971 -113.001s-49.334 -74 -83.001 -106s-72.667 -58.333 -117 -79s-93.5 -31 -147.5 -31c-56.667 0 -107.5 7.66699 -152.5 23s-83.333 37 -115 65s-55.834 61.333 -72.501 100s-25 81 -25 127
c0 45.333 7.83301 89.833 23.5 133.5s36.834 84.834 63.501 123.501s57.5 74.334 92.5 107.001s72.333 60.834 112 84.501s80.167 42.167 121.5 55.5s81.333 20 120 20c28 0 51.167 -3.33301 69.5 -10s35 -14 50 -22s29.833 -15.333 44.5 -22s32 -10 52 -10
c15.333 0 28.666 2.66699 39.999 8s20.666 11.666 27.999 18.999c8.66699 8 16 17.333 22 28h4l-88 -383h-12l5 22c0.666992 3.33301 1.16699 7.66602 1.5 12.999s0.5 11.666 0.5 18.999c0 16 -1.33301 35 -4 57s-7 45.167 -13 69.5s-14.167 48.333 -24.5 72
s-23.166 44.834 -38.499 63.501s-33.5 33.834 -54.5 45.501s-45.167 17.5 -72.5 17.5c-28.667 0 -56 -10.333 -82 -31s-50.167 -49.834 -72.5 -87.501s-43 -83 -62 -136s-35.833 -111.5 -50.5 -175.5c-8.66699 -38 -15.167 -72.667 -19.5 -104s-6.5 -60.333 -6.5 -87
c0 -64.667 12 -112.167 36 -142.5s58.333 -45.5 103 -45.5c38.667 0 77 8.5 115 25.5s72.833 39.667 104.5 68s59.167 61.333 82.5 99s39.666 77.5 48.999 119.5h17z" />
    <glyph glyph-name="D" unicode="D" horiz-adv-x="874" 
d="M942 402c-16 -70 -40.168 -130.332 -72.501 -180.999s-69.333 -92.334 -111 -125.001s-86.167 -56.834 -133.5 -72.501s-94.333 -23.5 -141 -23.5h-496l3 12h57c24 0 43.667 4.66699 59 14s25.333 24 30 44l150 651c2 8 3 15 3 21c0 16 -5 27.5 -15 34.5
s-22.667 10.5 -38 10.5h-29l3 13h461c42 0 80.333 -7.83301 115 -23.5s64.334 -37.167 89.001 -64.5s43.667 -59.5 57 -96.5s20 -76.833 20 -119.5c0 -29.333 -3.66699 -60.666 -11 -93.999zM681.999 406.001c13.333 57.333 23.0029 106.499 29.0029 147.499
s9 75.833 9 104.5c0 26 -2.16699 47.333 -6.5 64s-10.333 29.834 -18 39.501s-16.834 16.334 -27.501 20.001s-22 5.5 -34 5.5h-103l-165 -715c-1.33301 -3.33301 -2 -6.5 -2 -9.5v-8.5c0 -13.333 3.5 -23.666 10.5 -30.999s18.167 -11 33.5 -11h63c12.667 0 25 1.5 37 4.5
s23.5 9.16699 34.5 18.5s21.833 22.666 32.5 39.999s21.667 40.666 33 69.999s23.166 65.333 35.499 108s25.166 93.667 38.499 153z" />
    <glyph glyph-name="E" unicode="E" horiz-adv-x="767" 
d="M718 0l-734.001 0.00585938l4 13h68c21.333 0 39 5.83301 53 17.5s24.667 33.167 32 64.5l144 623c3.33301 14.667 5 25.667 5 33c0 13.333 -3.83301 22.666 -11.5 27.999s-19.167 8 -34.5 8h-45l3 12h662l-71 -309h-9l4 27c1.33301 6 2 12 2 18v18
c0 28 -4.66699 56 -14 84s-22.833 53 -40.5 75s-39.5 40 -65.5 54s-55.667 21 -89 21h-54l-81 -353h39c18 0 36.667 4.33301 56 13s37.666 20.5 54.999 35.5s32.666 32.667 45.999 53s23 42.166 29 65.499l7 28h12l-98 -424h-12l7 31c3.33301 16.667 5 32 5 46
c0 18.667 -2.5 36.167 -7.5 52.5s-12.167 30.666 -21.5 42.999s-20.666 22.166 -33.999 29.499s-28.333 11 -45 11h-42l-86 -374c0 -0.666992 -0.166992 -1.33398 -0.5 -2.00098s-0.5 -1.33398 -0.5 -2.00098c0 -6 2.83301 -12 8.5 -18s13.834 -9 24.501 -9h82
c17.333 0 36.5 5.33301 57.5 16s42.333 24.5 64 41.5s42.834 36.5 63.501 58.5s39.5 44.333 56.5 67s31.5 44.667 43.5 66s20.333 40 25 56l10 37h9z" />
    <glyph glyph-name="F" unicode="F" horiz-adv-x="716" 
d="M793 490l-8.99902 0.00292969l4 27c1.33301 6 2 12 2 18v18c0 28 -4.66699 55.833 -14 83.5s-22.833 52.667 -40.5 75s-39.5 40.333 -65.5 54s-56 20.5 -90 20.5h-53l-81 -352h39c18 0 36.5 3.16699 55.5 9.5s36.667 15.666 53 27.999s30.833 27.666 43.5 45.999
s22 39.166 28 62.499l4 16h13l-83 -361h-13l5 23c3.33301 15.333 5 29.333 5 42c0 35.333 -10.167 63.833 -30.5 85.5s-47.5 32.5 -81.5 32.5h-42l-76 -331c-3.33301 -14.667 -5 -25.667 -5 -33c0 -27.333 15 -41 45 -41h36l-3 -13h-430l3 13h43c10.667 0 20.5 1 29.5 3
s17 5.66699 24 11s13.167 12.833 18.5 22.5s9.66602 22.167 12.999 37.5l145 631c3.33301 14.667 5 25.667 5 33c0 13.333 -3.83301 22.5 -11.5 27.5s-19.5 7.5 -35.5 7.5h-44l3 13h662z" />
    <glyph glyph-name="G" unicode="G" horiz-adv-x="911" 
d="M980 394l-35.0029 0.00292969c-13.333 0 -26.666 -4.5 -39.999 -13.5s-22.333 -23.167 -27 -42.5l-78 -338h-12l3 17c0.666992 2 1 6 1 12c0 5.33301 -1.16699 11 -3.5 17s-6.33301 11.5 -12 16.5s-13.5 9.16699 -23.5 12.5s-22.333 5 -37 5
c-21.333 0 -39.5 -2.33301 -54.5 -7s-28.833 -10.667 -41.5 -18l-38 -23c-12.667 -8 -27 -15.667 -43 -23s-34.667 -13.333 -56 -18s-47.333 -7 -78 -7c-43.333 0 -83.333 8.16699 -120 24.5s-68.667 38.833 -96 67.5s-48.666 62.167 -63.999 100.5s-23 79.166 -23 122.499
c0 47.333 8.33301 93.166 25 137.499s39 85.666 67 123.999s60.5 73.333 97.5 105s76 58.834 117 81.501s82.5 40.167 124.5 52.5s82 18.5 120 18.5c24.667 0 45.667 -3 63 -9s33.166 -12.5 47.499 -19.5l41.5 -19.5c13.333 -6 29 -9 47 -9c13.333 0 25.166 2 35.499 6
s19 8.66699 26 14s12.333 10.833 16 16.5s5.83398 10.167 6.50098 13.5h9l-76 -322l-7 1v13c0 14.667 -1.33301 32.167 -4 52.5s-7.33398 41.666 -14.001 63.999s-15.167 44.5 -25.5 66.5s-23.333 41.667 -39 59s-34 31.5 -55 42.5s-45.167 16.5 -72.5 16.5
c-59.333 0 -112.666 -36.333 -159.999 -109s-87 -178 -119 -316c-12 -52 -20.833 -97.667 -26.5 -137s-8.5 -74 -8.5 -104c0 -50 7.83301 -85.833 23.5 -107.5s39.167 -32.5 70.5 -32.5c44.667 0 80.834 11.5 108.501 34.5s47.167 59.5 58.5 109.5l46 196
c0.666992 2.66699 1 6.66699 1 12c0 15.333 -5.66699 26.5 -17 33.5s-24.666 10.5 -39.999 10.5h-54l3 13h445z" />
    <glyph glyph-name="H" unicode="H" horiz-adv-x="958" 
d="M937 0l-426.001 -0.000976562l3 13h21c6.66699 0 14.5 1.16699 23.5 3.5s18 6.33301 27 12s17.333 13.167 25 22.5s13.167 21 16.5 35l80 343h-255l-80 -344c-2 -8 -3 -15.333 -3 -22c0 -18.667 5.5 -31.667 16.5 -39s22.833 -11 35.5 -11h29l-3 -13h-427l3 13h22
c6 0 13.5 1.16699 22.5 3.5s18 6.33301 27 12s17.333 13.167 25 22.5s13.167 21 16.5 35l144 621c2 8 3 16 3 24c0 17.333 -5 31 -15 41s-24.333 15 -43 15h-24l3 13h427l-3 -13h-23c-20 0 -38.5 -7.5 -55.5 -22.5s-28.167 -34.167 -33.5 -57.5l-61 -262h255l61 262
c2 8 3 16 3 24c0 17.333 -5 31 -15 41s-24.333 15 -43 15h-24l3 13h426l-3 -13h-22c-20 0 -38.667 -7.5 -56 -22.5s-28.666 -34.167 -33.999 -57.5l-144 -622c-2 -8 -3 -15 -3 -21c0 -19.333 5.66699 -32.666 17 -39.999s23 -11 35 -11h29z" />
    <glyph glyph-name="I" unicode="I" horiz-adv-x="505" 
d="M487 0h-467l3 13h42c6 0 13.5 1.16699 22.5 3.5s18 6.33301 27 12s17.333 13.167 25 22.5s13.167 21 16.5 35l144 621c2 8 3 16 3 24c0 17.333 -5 31 -15 41s-24.333 15 -43 15h-44l3 13h467l-3 -13h-43c-20 0 -38.5 -7.5 -55.5 -22.5s-28.167 -34.167 -33.5 -57.5
l-144 -622c-2 -8 -3 -15.333 -3 -22c0 -18.667 5.5 -31.667 16.5 -39s22.833 -11 35.5 -11h49z" />
    <glyph glyph-name="J" unicode="J" horiz-adv-x="719" 
d="M884 787l-43.999 0.00683594c-13.333 0 -27 -3.83301 -41 -11.5s-23 -20.834 -27 -39.501l-124 -539c-8 -35.333 -24.667 -66.833 -50 -94.5s-55.333 -51 -90 -70s-72.334 -33.5 -113.001 -43.5s-80.334 -15 -119.001 -15c-30.667 0 -59.834 3.16699 -87.501 9.5
s-52 16.166 -73 29.499s-37.667 30.166 -50 50.499s-18.5 44.166 -18.5 71.499c0 26 5.33301 50.833 16 74.5s24.667 44.167 42 61.5s36.833 31.166 58.5 41.499s43.5 15.5 65.5 15.5c16.667 0 32 -2.83301 46 -8.5s25.667 -13.334 35 -23.001s16.666 -21 21.999 -34
s8 -26.833 8 -41.5c0 -20 -4.66699 -39.333 -14 -58s-21.666 -35 -36.999 -49s-32.5 -25.167 -51.5 -33.5s-37.833 -12.5 -56.5 -12.5c-16 0 -29.167 1.83301 -39.5 5.5s-17.833 5.5 -22.5 5.5c-4 0 -6 -3.33301 -6 -10c0 -8 2.5 -16.333 7.5 -25s12.5 -16.834 22.5 -24.501
s22.333 -14 37 -19s31.334 -7.5 50.001 -7.5c39.333 0 74.5 13 105.5 39s52.167 63 63.5 111l133 578c2 8.66699 3 17 3 25c0 15.333 -4.66699 26 -14 32s-22.666 9 -39.999 9h-47l3 13h450z" />
    <glyph glyph-name="K" unicode="K" horiz-adv-x="873" 
d="M945 -1h-467.001l4 14h17c12.667 0 25.167 3.83301 37.5 11.5s18.5 19.167 18.5 34.5c0 6.66699 -1.66699 14.334 -5 23.001l-104 288l-66 -285c-2 -8 -3 -15 -3 -21c0 -19.333 5.66699 -32.666 17 -39.999s23 -11 35 -11h24l-3 -13h-424l3 13h24
c6 0 13.667 1.16699 23 3.5s18.5 6.33301 27.5 12s17.333 13.167 25 22.5s13.167 21 16.5 35l144 621c2 8 3 16 3 24c0 17.333 -5 31 -15 41s-24.667 15 -44 15h-26l3 13h424l-3 -13h-17c-20 0 -38.667 -7.5 -56 -22.5s-28.666 -34.167 -33.999 -57.5l-58 -247l233 168
c23.333 16.667 40 34.5 50 53.5s15 36.833 15 53.5c0 15.333 -4.16699 27.833 -12.5 37.5s-20.166 14.5 -35.499 14.5h-33l3 13h351l-3 -13h-26c-9.33301 0 -18.5 -0.5 -27.5 -1.5s-19.5 -3.83301 -31.5 -8.5s-26.333 -11.834 -43 -21.501s-36.667 -22.834 -60 -39.501
l-209 -151l209 -498c4.66699 -11.333 9.16699 -20.5 13.5 -27.5s9.16602 -12.5 14.499 -16.5s11.833 -6.83301 19.5 -8.5s17.5 -2.5 29.5 -2.5h25z" />
    <glyph glyph-name="L" unicode="L" horiz-adv-x="754" 
d="M718 0l-695.002 -0.00195312l2 12h40c25.333 0 45.5 7.33301 60.5 22s25.167 32.667 30.5 54l143 620c2 8.66699 3 17.334 3 26.001c0 16 -4.66699 28.833 -14 38.5s-24.666 14.5 -45.999 14.5h-40l3 12h468l-3 -12h-58c-18.667 0 -34.5 -5.5 -47.5 -16.5
s-21.167 -24.833 -24.5 -41.5l-151 -654c-1.33301 -5.33301 -2.33301 -10.166 -3 -14.499s-1 -8.16602 -1 -11.499c0 -15.333 5.33301 -25.333 16 -30s27 -7 49 -7c25.333 0 50.833 6 76.5 18s50.334 27.5 74.001 46.5s46 40.5 67 64.5s39.667 48.167 56 72.5
s30 47.666 41 69.999s18.167 41.5 21.5 57.5h10z" />
    <glyph glyph-name="M" unicode="M" horiz-adv-x="1012" 
d="M996 -1l-451.001 -0.00195312l3 13h39c19.333 0 35.333 7.16699 48 21.5s21.334 30.833 26.001 49.5l135 585l-327 -669h-132l-40 665l-113 -489c-4.66699 -20.667 -7 -40.667 -7 -60c0 -32.667 6.33301 -58 19 -76s28.334 -27 47.001 -27h38l-3 -13h-285l3 13h34
c11.333 0 23.666 3.5 36.999 10.5s26.333 17.5 39 31.5s24.5 31.167 35.5 51.5s19.5 43.833 25.5 70.5l117 505c1.33301 6.66699 2.33301 12.834 3 18.501s1 11.167 1 16.5c0 25.333 -7.5 43.5 -22.5 54.5s-33.167 16.5 -54.5 16.5h-27l3 12h356l5 -599l294 599h335l-3 -12
h-41c-30.667 0 -52.5 -4 -65.5 -12s-22.167 -22.667 -27.5 -44l-153 -662c-0.666992 -3.33301 -1.16699 -6.16602 -1.5 -8.49902s-0.5 -4.83301 -0.5 -7.5c0 -13.333 4.33301 -23.5 13 -30.5s19.667 -10.5 33 -10.5h68z" />
    <glyph glyph-name="N" unicode="N" horiz-adv-x="854" 
d="M1021 786l-17.999 -0.00195312c-12 0 -25 -2.5 -39 -7.5s-27.833 -13.167 -41.5 -24.5s-26.334 -26.333 -38.001 -45s-20.5 -41.667 -26.5 -69l-147 -640h-191l-208 683l-115 -493c-6 -26 -9 -49.333 -9 -70c0 -34.667 7.5 -61.167 22.5 -79.5s36.833 -27.5 65.5 -27.5
h28l-3 -13h-283l3 13h32c10 0 21 4 33 12s24.167 19.833 36.5 35.5s23.833 34.834 34.5 57.501s19.334 48.667 26.001 78l114 494c2 8.66699 3 16.667 3 24c0 12 -2.16699 22.5 -6.5 31.5s-9.83301 16.667 -16.5 23s-14 11 -22 14s-16 4.5 -24 4.5h-17l3 13h365l167 -565
l93 406c4 16.667 6 32.334 6 47.001c0 30.667 -7.33301 54.667 -22 72s-32.334 26 -53.001 26h-44l3 14h292z" />
    <glyph glyph-name="O" unicode="O" 
d="M932 400c-13.333 -57.333 -36.5 -111.172 -69.5 -161.505s-72.333 -94.166 -118 -131.499s-95.834 -66.833 -150.501 -88.5s-110 -32.5 -166 -32.5c-48 0 -91.833 8 -131.5 24s-73.667 38.333 -102 67s-50.333 62.334 -66 101.001s-23.5 81 -23.5 127
c0 44.667 6.83301 88.5 20.5 131.5s32.5 83.333 56.5 121s52.333 72.334 85 104.001s68.167 58.834 106.5 81.501s78.333 40.334 120 53.001s83.834 19 126.501 19c48 0 91.833 -8.16699 131.5 -24.5s73.667 -38.666 102 -66.999s50.333 -62 66 -101s23.5 -81.5 23.5 -127.5
c0 -28.667 -3.66699 -60.334 -11 -95.001zM684 414.994c13.333 56 22.8311 104.168 28.498 144.501s8.5 74.833 8.5 103.5c0 28 -2.5 50.833 -7.5 68.5s-12.167 31.667 -21.5 42s-20.5 17.333 -33.5 21s-27.167 5.5 -42.5 5.5c-26 0 -49.333 -5.16699 -70 -15.5
s-40.167 -29.833 -58.5 -58.5s-36.166 -68.5 -53.499 -119.5s-35.333 -116.833 -54 -197.5c-15.333 -65.333 -26.666 -121.166 -33.999 -167.499s-11 -85.5 -11 -117.5c0 -46.667 7.83301 -79 23.5 -97s39.5 -27 71.5 -27c26 0 50.333 6.16699 73 18.5
s44.167 34.166 64.5 65.499s40 73.666 59 126.999s38.167 121.333 57.5 204z" />
    <glyph glyph-name="P" unicode="P" horiz-adv-x="760" 
d="M866 578c-8 -36 -22.5029 -68.5 -43.5029 -97.5s-47 -54 -78 -75s-66.667 -37.167 -107 -48.5s-84.166 -17 -131.499 -17c-15.333 0 -28.833 1.16699 -40.5 3.5s-21.167 5.16602 -28.5 8.49902l-63 -271c-2 -9.33301 -3 -17 -3 -23c0 -30.667 22.667 -46 68 -46h41
l-3 -13h-457l3 13h34c23.333 0 42 6.33301 56 19s23.667 30.667 29 54l149 643c0.666992 3.33301 1.16699 6.5 1.5 9.5s0.5 5.83301 0.5 8.5c0 15.333 -4.66699 26 -14 32s-20 9 -32 9h-45l3 12h444c36.667 0 68.834 -5 96.501 -15s50.834 -23.333 69.501 -40
s32.667 -35.834 42 -57.501s14 -44.167 14 -67.5c0 -7.33301 -0.5 -14.166 -1.5 -20.499s-2.16699 -13.166 -3.5 -20.499zM631.997 569c14.667 64.667 22 112.997 22 144.997c0 18 -1.83301 31.833 -5.5 41.5s-8.5 16.834 -14.5 21.501s-12.833 7.5 -20.5 8.5
s-15.5 1.5 -23.5 1.5h-53l-97 -420c5.33301 -4 12 -7.33301 20 -10s18.667 -4 32 -4c16 0 30.167 2.16699 42.5 6.5s23.833 13.833 34.5 28.5s21 36.334 31 65.001s20.667 67.334 32 116.001z" />
    <glyph glyph-name="Q" unicode="Q" horiz-adv-x="849" 
d="M925 400c-11.333 -50 -30.168 -97.168 -56.501 -141.501s-58.5 -84.5 -96.5 -120.5c8 -12 12 -27.667 12 -47c0 -10.667 -1.66699 -23.667 -5 -39c-9.33301 -40.667 -24 -75.334 -44 -104.001s-42.5 -52.167 -67.5 -70.5s-51.333 -31.666 -79 -39.999
s-54.5 -12.5 -80.5 -12.5c-19.333 0 -37.333 2.16699 -54 6.5s-31.167 10.5 -43.5 18.5s-22.166 17.667 -29.499 29s-11 24.333 -11 39c0 12 2.5 24.167 7.5 36.5s10.833 23.166 17.5 32.499c-44.667 2.66699 -85.167 12.5 -121.5 29.5s-67.5 39.667 -93.5 68
s-46.167 61.166 -60.5 98.499s-21.5 78 -21.5 122c0 44.667 6.83301 88.5 20.5 131.5s32.5 83.333 56.5 121s52.5 72.334 85.5 104.001s68.5 58.834 106.5 81.501s78 40.334 120 53.001s84 19 126 19c48 0 91.833 -8.16699 131.5 -24.5s73.667 -38.666 102 -66.999
s50.333 -62 66 -101s23.5 -81.5 23.5 -127.5c0 -28.667 -3.66699 -60.334 -11 -95.001zM676.998 414.999c13.333 56 22.8311 104.169 28.498 144.502s8.5 74.833 8.5 103.5c0 28 -2.5 50.833 -7.5 68.5s-12.167 31.667 -21.5 42s-20.5 17.333 -33.5 21
s-27.167 5.5 -42.5 5.5c-26 0 -49.333 -5.16699 -70 -15.5s-40.167 -29.833 -58.5 -58.5s-36.166 -68.5 -53.499 -119.5s-35.333 -116.833 -54 -197.5c-15.333 -66 -26.666 -122.167 -33.999 -168.5s-11 -85.5 -11 -117.5c0 -28 3 -51 9 -69
c0 17.333 3.33301 33.166 10 47.499s15.334 26.666 26.001 36.999s22.667 18.333 36 24s26.333 8.5 39 8.5c20.667 0 35.167 -4.5 43.5 -13.5s13.666 -20.333 15.999 -34s3.33301 -28.667 3 -45s1.16699 -31.833 4.5 -46.5c14.667 12 29 28.167 43 48.5s27.667 46 41 77
s26.5 67.667 39.5 110s25.833 91.5 38.5 147.5zM764.996 89.001c0.666992 3.33301 1.16895 6.6709 1.50195 10.0039s0.5 6.66602 0.5 9.99902c0 7.33301 -1.66699 13.666 -5 18.999c-34 -32 -71.333 -59 -112 -81s-83 -38.333 -127 -49
c5.33301 -10.667 13.666 -19.334 24.999 -26.001s27.666 -10 48.999 -10c20.667 0 40.334 3.66699 59.001 11s35.5 17 50.5 29s27.667 25.667 38 41s17.166 30.666 20.499 45.999zM477.998 109.006c0.666992 2.66699 1.00098 6.66699 1.00098 12c0 22.667 -13.333 34 -40 34
c-11.333 0 -22.166 -2.83301 -32.499 -8.5s-19.833 -13.5 -28.5 -23.5s-15.5 -21.333 -20.5 -34s-7.5 -26 -7.5 -40c0 -16.667 5.5 -28.5 16.5 -35.5s24.5 -11.167 40.5 -12.5c13.333 16.667 27.166 33 41.499 49s24.166 35.667 29.499 59z" />
    <glyph glyph-name="R" unicode="R" horiz-adv-x="854" 
d="M898 246c-10.667 -46 -21.668 -85.3311 -33.001 -117.998s-25.333 -59.334 -42 -80.001s-37.334 -35.834 -62.001 -45.501s-55.667 -14.5 -93 -14.5c-25.333 0 -47.166 3.16699 -65.499 9.5s-33.166 15 -44.499 26s-19.666 23.833 -24.999 38.5s-8 30.334 -8 47.001
c0 15.333 1.33301 30.166 4 44.499s6.33398 29.166 11.001 44.499l14.5 48.5c5 17 10.167 36.167 15.5 57.5c4 18 6 33.667 6 47c0 20.667 -5.33301 35.667 -16 45s-27.667 14 -51 14h-72l-79 -343c-2 -9.33301 -3 -16.666 -3 -21.999c0 -12 3 -20.5 9 -25.5
s14.333 -7.5 25 -7.5h47l-2 -12h-413l2 12h42c36 0 58.667 19 68 57l152 655c2 10.667 3 19.667 3 27c0 13.333 -3.33301 22.666 -10 27.999s-16 8 -28 8h-49l3 12h386c56 0 103.5 -3.83301 142.5 -11.5s70.667 -18.167 95 -31.5s42 -29.333 53 -48
s16.5 -39.334 16.5 -62.001c0 -34.667 -8.66699 -64.834 -26 -90.501s-38.833 -47.667 -64.5 -66s-53.5 -33.333 -83.5 -45s-57.667 -20.5 -83 -26.5l-1 -4c14 -3.33301 30.333 -8 49 -14s36.5 -14.167 53.5 -24.5s31.5 -23.666 43.5 -39.999s18 -36.833 18 -61.5
c0 -13.333 -1.33301 -25.666 -4 -36.999l-33 -144c-1.33301 -5.33301 -2.33301 -10 -3 -14s-1 -7.66699 -1 -11c0 -17.333 7.66699 -26 23 -26c10 0 19.667 5.5 29 16.5s18.166 25.833 26.499 44.5s16.166 40.334 23.499 65.001s14 50.667 20 78h14zM658.999 603.002
c10 46 14.999 81.3301 14.999 105.997c0 16.667 -2 30.167 -6 40.5s-9.5 18.333 -16.5 24s-15.667 9.33398 -26 11.001s-21.5 2.5 -33.5 2.5h-68l-84 -364h70c20.667 0 38.334 2.16699 53.001 6.5s27.667 12.833 39 25.5s21.333 30.834 30 54.501s17.667 54.834 27 93.501z
" />
    <glyph glyph-name="S" unicode="S" horiz-adv-x="734" 
d="M759 246c-8.66699 -37.333 -24.6631 -72.1641 -47.9961 -104.497s-52 -60.5 -86 -84.5s-72.333 -43 -115 -57s-87.667 -21 -135 -21c-32 0 -59.333 3 -82 9s-43.334 12.833 -62.001 20.5s-37 14.5 -55 20.5s-38.333 9 -61 9c-10.667 0 -19.834 -1.5 -27.501 -4.5
s-14.167 -6.66699 -19.5 -11s-9.5 -8.83301 -12.5 -13.5s-4.83301 -8.33398 -5.5 -11.001l-10 -1l80 348h11c0 -14 1.5 -32.333 4.5 -55s8.16699 -47.167 15.5 -73.5s16.833 -52.833 28.5 -79.5s26.167 -50.667 43.5 -72s38 -38.833 62 -52.5s51.333 -20.5 82 -20.5
c22 0 43.5 3.83301 64.5 11.5s39.667 18.667 56 33s29.5 31.666 39.5 51.999s15 43.166 15 68.499c0 30.667 -9.33301 55.167 -28 73.5s-42 33.666 -70 45.999s-58.5 23.5 -91.5 33.5s-63.5 22.5 -91.5 37.5s-51.333 34.167 -70 57.5s-28 54 -28 92
c0 40 9.83301 79.167 29.5 117.5s46.5 72.5 80.5 102.5s73.5 54.167 118.5 72.5s93.167 27.5 144.5 27.5c24.667 0 45.667 -2.33301 63 -7s32.833 -9.66699 46.5 -15l38.5 -15c12 -4.66699 25.333 -7 40 -7c28.667 0 49.5 5.33301 62.5 16s20.833 20.667 23.5 30l8 -1
l-69 -301l-11 1c2 12 3 24.667 3 38c0 26 -3.66699 53.5 -11 82.5s-18.5 55.833 -33.5 80.5s-34.5 45 -58.5 61s-52.333 24 -85 24c-20.667 0 -40.334 -3.66699 -59.001 -11s-35.167 -17.833 -49.5 -31.5s-25.666 -30.167 -33.999 -49.5s-12.5 -41 -12.5 -65
c0 -22 5.33301 -40 16 -54s24.667 -25.667 42 -35s37.166 -17.333 59.499 -24l68 -20c23 -6.66699 45.667 -14.5 68 -23.5s42.166 -20.5 59.499 -34.5s31.333 -31.5 42 -52.5s16 -47.167 16 -78.5c0 -11.333 -0.833008 -23.666 -2.5 -36.999s-4.16699 -27.333 -7.5 -42z" />
    <glyph glyph-name="T" unicode="T" horiz-adv-x="825" 
d="M899 457l-9.99707 0.00195312l8 36c3.33301 16.667 5 32.667 5 48c0 28.667 -4.5 57.5 -13.5 86.5s-21.333 55.333 -37 79s-33.667 43 -54 58s-41.833 22.5 -64.5 22.5h-15l-164 -713c-2 -8 -3 -15 -3 -21c0 -12.667 3.16699 -22.5 9.5 -29.5s14.166 -10.5 23.499 -10.5
h62l-3 -13h-462l3 13h78c12 0 23.333 5.83301 34 17.5s17.667 25.5 21 41.5l165 715h-12c-14.667 0 -31.834 -4.16699 -51.501 -12.5s-39.834 -19.833 -60.501 -34.5s-41.5 -31.834 -62.5 -51.501s-40.5 -40.667 -58.5 -63s-33.5 -45.333 -46.5 -69
s-22.167 -46.834 -27.5 -69.501l-7 -30h-11l79 343h754z" />
    <glyph glyph-name="U" unicode="U" horiz-adv-x="851" 
d="M1022 787l-16.999 0.000976562c-14.667 0 -30.334 -3.33301 -47.001 -10s-32.834 -17.334 -48.501 -32.001s-30 -33.667 -43 -57s-23.5 -51.666 -31.5 -84.999l-97 -417c-16 -68 -50.167 -119.167 -102.5 -153.5s-127.5 -51.5 -225.5 -51.5
c-41.333 0 -78.333 4.5 -111 13.5s-60.334 21.167 -83.001 36.5s-40 33.166 -52 53.499s-18 41.833 -18 64.5c0 5.33301 0.333008 10.333 1 15s1.66699 9.66699 3 15l127 550c0.666992 3.33301 1.16699 6.33301 1.5 9s0.5 5.33398 0.5 8.00098c0 27.333 -15.667 41 -47 41
h-26l3 12h415l-3 -12h-24c-21.333 0 -40.166 -5.33301 -56.499 -16s-26.833 -25.667 -31.5 -45l-130 -563c-4 -16 -6 -30.333 -6 -43c0 -18.667 3.66699 -34.167 11 -46.5s17.5 -22.333 30.5 -30s28.833 -13.167 47.5 -16.5s39.334 -5 62.001 -5c46.667 0 88 13.667 124 41
s60.667 69.666 74 126.999l95 410c3.33301 12.667 5.5 24.667 6.5 36s1.5 22.333 1.5 33c0 38.667 -8.83301 68 -26.5 88s-40.5 30 -68.5 30h-31l3 12h323z" />
    <glyph glyph-name="V" unicode="V" horiz-adv-x="803" 
d="M974 787l-25 -0.000976562c-25.333 0 -49.5 -13.5 -72.5 -40.5s-47.5 -66.167 -73.5 -117.5l-322 -629h-186l-52 725c-1.33301 20 -6 35.333 -14 46s-20.667 16 -38 16h-28l3 12h442l-3 -12h-30c-25.333 0 -43.333 -5.16699 -54 -15.5s-16 -27.166 -16 -50.499l26 -584
l233 451c12 23.333 20.833 44.833 26.5 64.5s8.5 37.167 8.5 52.5c0 28 -7 48.667 -21 62s-31 20 -51 20h-45l3 12h292z" />
    <glyph glyph-name="W" unicode="W" horiz-adv-x="1042" 
d="M1217 787l-13.998 0.00195312c-26 0 -53.833 -18 -83.5 -54s-60.834 -87 -93.501 -153l-50 -104l-85 -176l-144 -300h-122c-2 110 -3.5 204 -4.5 282s-2.16699 144 -3.5 198l-236 -480h-113c-2.66699 90 -5.16699 169.833 -7.5 239.5s-4.16602 130.5 -5.49902 182.5
s-2.66602 96.333 -3.99902 133s-2.33301 67 -3 91c-2 56.667 -3.33301 91 -4 103c-0.666992 25.333 -12 38 -34 38h-21l3 13h343l-3 -13h-14c-14.667 0 -26.167 -4.5 -34.5 -13.5s-12.5 -21.167 -12.5 -36.5c0 -10.667 1 -34.667 3 -72l2.5 -59.5
c1 -23.667 2.33301 -52 4 -85s3.5 -71.333 5.5 -115l7 -149.5l124 257c-0.666992 50 -1.16699 89.333 -1.5 118s-0.5 50.667 -0.5 66v34c-0.666992 20 -3.83398 34.333 -9.50098 43s-12.834 13 -21.501 13h-16l3 13h345l-3 -13h-20c-8 0 -14.333 -0.833008 -19 -2.5
s-8.5 -4 -11.5 -7s-5.5 -7 -7.5 -12s-4.33301 -10.5 -7 -16.5c-0.666992 -2 -1 -6 -1 -12v-60v-60.5c0 -24.333 0.166992 -53.833 0.5 -88.5s0.666016 -74.834 0.999023 -120.501s0.833008 -97.834 1.5 -156.501l69.5 141.5l49.5 101.5l39 82c30 60.667 45 109.667 45 147
c0 21.333 -4.5 37.333 -13.5 48s-21.167 16 -36.5 16h-29l3 13h243z" />
    <glyph glyph-name="X" unicode="X" horiz-adv-x="922" 
d="M904 0l-479.002 -0.000976562l3 13h49c17.333 0 31.833 2.33301 43.5 7s17.5 13.667 17.5 27c0 7.33301 -1.33301 14.666 -4 21.999l-109 290l-101 -119c-22 -26 -38 -50.667 -48 -74s-15 -44.666 -15 -63.999c0 -27.333 8 -49 24 -65s36 -24 60 -24h23l-3 -13h-351l3 13
h9c18 0 36.333 4.16699 55 12.5s39.667 22.833 63 43.5s50.833 48.334 82.5 83.001l113.5 129l80 93l-135 359c-5.33301 14 -13.166 26.5 -23.499 37.5s-22.833 16.5 -37.5 16.5h-18l3 13h419l-3 -13h-38c-11.333 0 -21.166 -3.83301 -29.499 -11.5
s-12.5 -17.167 -12.5 -28.5c0 -3.33301 0.666992 -7.66602 2 -12.999l90 -227l85 100c15.333 17.333 26.333 35.666 33 54.999s10 37.666 10 54.999c0 20 -4.5 36.667 -13.5 50s-21.167 20 -36.5 20h-25l3 13h322l-3 -13h-22c-18 0 -36 -3.83301 -54 -11.5
s-35.667 -17.5 -53 -29.5s-34 -25.333 -50 -40s-30.833 -29.167 -44.5 -43.5s-25.834 -27.666 -36.501 -39.999l-25 -29.5l-85 -99l172 -438c6 -16 15.333 -27.167 28 -33.5s27.334 -9.5 44.001 -9.5h21z" />
    <glyph glyph-name="Y" unicode="Y" horiz-adv-x="853" 
d="M1024 787l-26 -0.000976562c-16.667 0 -34.167 -5 -52.5 -15s-36.833 -23 -55.5 -39s-36.834 -34 -54.501 -54s-34.167 -40.333 -49.5 -61l-141 -186l-86 -363c-1.33301 -3.33301 -2 -6.66602 -2 -9.99902v-10c0 -24.667 11.333 -37 34 -37h50l-3 -13h-423l3 13h47
c15.333 0 29.5 6.33301 42.5 19s21.5 27.334 25.5 44.001l78 340l-136 327c-5.33301 13.333 -13.666 24.166 -24.999 32.499s-23.333 12.5 -36 12.5h-21l3 13h447l-3 -13h-41c-14 0 -26.167 -2.33301 -36.5 -7s-15.5 -13.667 -15.5 -27c0 -4.66699 1 -10 3 -16l89 -290
l139 182c15.333 19.333 26 37.333 32 54s9 31.334 9 44.001c0 19.333 -6.5 34.166 -19.5 44.499s-28.167 15.5 -45.5 15.5h-21l3 13h291z" />
    <glyph glyph-name="Z" unicode="Z" horiz-adv-x="806" 
d="M926 799l-578.001 -787.001h54c22 0 46.667 5.66699 74 17s55 26.333 83 45s55.667 40.167 83 64.5s52.166 49.5 74.499 75.5s41.333 51.667 57 77s25.834 48.666 30.501 69.999h8l-84 -362h-673l571 788h-55c-19.333 0 -41 -4.66699 -65 -14
s-48.667 -22.166 -74 -38.499s-50.5 -35.333 -75.5 -57s-48 -44.667 -69 -69s-39.167 -49.666 -54.5 -75.999s-25.666 -51.833 -30.999 -76.5h-9l79 343h654z" />
    <glyph glyph-name="bracketleft" unicode="[" horiz-adv-x="295" 
d="M235 -127h-224l195 843h224l-6 -24h-57c-16 0 -27.833 -3 -35.5 -9s-13.5 -18 -17.5 -36l-162 -703c-1.33301 -3.33301 -2 -6.33301 -2 -9v-8c0 -20 10.667 -30 32 -30h59z" />
    <glyph glyph-name="backslash" unicode="\" horiz-adv-x="500" 
d="M392 -36h-39l-81 791h39z" />
    <glyph glyph-name="bracketright" unicode="]" horiz-adv-x="284" 
d="M227 -127h-223.998l6 24h59c27.333 0 44.666 15.667 51.999 47l162 703c2 8 3 14.667 3 20c0 9.33301 -2.83301 15.833 -8.5 19.5s-14.834 5.5 -27.501 5.5h-57l6 24h224z" />
    <glyph glyph-name="asciicircum" unicode="^" horiz-adv-x="665" 
d="M752 522h-68l-180 220l-283 -220h-65l322 277h80z" />
    <glyph glyph-name="underscore" unicode="_" horiz-adv-x="490" 
d="M469 -89h-489l11 46h489z" />
    <glyph glyph-name="grave" unicode="`" horiz-adv-x="171" 
d="M152 648l-8.99902 -6.99902l-11 15c-6 8 -15.333 14.833 -28 20.5l-38 17c-12.667 5.66699 -23.834 12.5 -33.501 20.5s-14.5 18.667 -14.5 32c0 12.667 4.83301 24.834 14.5 36.501s21.5 17.5 35.5 17.5c16 0 27.5 -5.5 34.5 -16.5s12.333 -23.833 16 -38.5
s6.66699 -29.834 9 -45.501s6.83301 -27.834 13.5 -36.501z" />
    <glyph glyph-name="a" unicode="a" horiz-adv-x="678" 
d="M707 120c-4 -12 -10.8301 -25.501 -20.4971 -40.501s-22 -29.333 -37 -43s-32.833 -25 -53.5 -34s-44.334 -13.5 -71.001 -13.5c-14 0 -27.833 1.83301 -41.5 5.5s-25.834 9.5 -36.501 17.5s-19.334 18.5 -26.001 31.5s-10 28.833 -10 47.5
c0 7.33301 0.166992 14.666 0.5 21.999s1.5 15.333 3.5 24c-9.33301 -22 -19 -42.167 -29 -60.5s-22 -34.333 -36 -48s-30.833 -24.167 -50.5 -31.5s-43.167 -11 -70.5 -11c-20 0 -39.333 3.5 -58 10.5s-35.167 17.5 -49.5 31.5s-25.833 31.833 -34.5 53.5
s-13 47.5 -13 77.5c0 49.333 10.333 97.333 31 144s47 88 79 124s67 65 105 87s74.333 33 109 33c28.667 0 51.667 -4.5 69 -13.5s30 -24.167 38 -45.5l17 54h213l-110 -421c-3.33301 -11.333 -5.5 -21.166 -6.5 -29.499s-1.5 -15.166 -1.5 -20.499
c0 -8 1.66699 -14.167 5 -18.5s7 -6.5 11 -6.5c5.33301 0 11.333 2.66699 18 8s13 11.833 19 19.5s11.5 16 16.5 25s8.83301 17.5 11.5 25.5zM492.003 450.999c0 19.333 -4.16895 36.499 -12.502 51.499s-19.5 22.5 -33.5 22.5c-14.667 0 -29 -7.66699 -43 -23
s-27.5 -35.333 -40.5 -60s-25 -52.5 -36 -83.5s-20.5 -61.667 -28.5 -92s-14.333 -59 -19 -86s-7 -49.167 -7 -66.5c0 -27.333 4.5 -46.833 13.5 -58.5s20.5 -17.5 34.5 -17.5c12 0 24.5 8.33301 37.5 25s25.833 38 38.5 64s24.834 55 36.501 87s21.834 63.333 30.501 94
s15.667 58.834 21 84.501s8 45.167 8 58.5z" />
    <glyph glyph-name="b" unicode="b" horiz-adv-x="682" 
d="M712 374c0 -55.333 -9.83398 -106.501 -29.501 -153.501s-46.334 -88 -80.001 -123s-73.334 -62.333 -119.001 -82s-94.5 -29.5 -146.5 -29.5c-47.333 0 -86.5 5.33301 -117.5 16s-55.667 25 -74 43s-31.166 38.833 -38.499 62.5s-11 48.834 -11 75.501
c0 9.33301 0.833008 19 2.5 29s3.83398 19.667 6.50098 29l124 485c1.33301 3.33301 2 6.66602 2 9.99902v10c0 11.333 -3.16699 21 -9.5 29s-16.166 12 -29.499 12h-22v13h257c8 0 13.833 -0.333008 17.5 -1s5.5 -2.66699 5.5 -6c0 -2.66699 -0.333008 -5 -1 -7l-81 -330
c13.333 20.667 26.833 37.334 40.5 50.001s27.5 22.334 41.5 29.001s28.333 11 43 13s30 3 46 3c23.333 0 45.5 -4.5 66.5 -13.5s39.333 -21.333 55 -37s28.167 -34.334 37.5 -56.001s14 -45.167 14 -70.5zM516.999 449.999c0 51.333 -13.667 77.001 -41 77.001
c-11.333 0 -23.5 -4 -36.5 -12s-25.667 -19.833 -38 -35.5s-23.833 -34.5 -34.5 -56.5s-19 -47 -25 -75l-53 -237c-2.66699 -10 -4.5 -20 -5.5 -30s-1.5 -19.333 -1.5 -28c0 -15.333 3 -28 9 -38s15.667 -15 29 -15c19.333 0 37.666 8.5 54.999 25.5s33.333 39 48 66
s27.834 57.167 39.501 90.5s21.5 66.666 29.5 99.999s14.167 64.833 18.5 94.5s6.5 54.167 6.5 73.5z" />
    <glyph glyph-name="c" unicode="c" horiz-adv-x="607" 
d="M606 165c-27.333 -57.333 -63.0029 -101.332 -107.003 -131.999s-96.667 -46 -158 -46c-32 0 -63.667 5.16699 -95 15.5s-59.5 25.5 -84.5 45.5s-45.167 45.167 -60.5 75.5s-23 65.5 -23 105.5c0 42 9.83301 82.333 29.5 121s46.834 72.834 81.501 102.501
s75.667 53.167 123 70.5s99 26 155 26c58.667 0 104.334 -13.333 137.001 -40s49 -60.334 49 -101.001c0 -16 -2.83301 -30.167 -8.5 -42.5s-13.334 -22.5 -23.001 -30.5s-20.834 -14 -33.501 -18s-25.667 -6 -39 -6s-26.666 2 -39.999 6s-25.166 10.167 -35.499 18.5
s-18.833 18.666 -25.5 30.999s-10 26.5 -10 42.5c0 12.667 2.5 24.834 7.5 36.501s11.833 22 20.5 31s19 16.167 31 21.5s24.667 8 38 8c7.33301 0 18 -1 32 -3c1.33301 1.33301 2 2.66602 2 3.99902c0 4.66699 -6 10 -18 16s-26.333 9 -43 9
c-32 0 -61.5 -12.167 -88.5 -36.5s-50.5 -55.333 -70.5 -93s-35.5 -79.334 -46.5 -125.001s-16.5 -90.167 -16.5 -133.5c0 -25.333 2.83301 -46.666 8.5 -63.999s13.167 -31.333 22.5 -42s20.333 -18.334 33 -23.001s25.667 -7 39 -7c18 0 37 4.33301 57 13
s39.333 20.334 58 35.001s35.834 32 51.501 52s28.167 41.333 37.5 64z" />
    <glyph glyph-name="d" unicode="d" horiz-adv-x="710" 
d="M655 118c-2 -8 -3.00488 -16.002 -3.00488 -24.002c0 -12 2.66699 -22.167 8 -30.5s13.666 -12.5 24.999 -12.5c6 0 12.667 1.66699 20 5s14.5 7.33301 21.5 12s13.5 9.66699 19.5 15s10.667 10 14 14l11 -8c-8 -9.33301 -19.5 -19.833 -34.5 -31.5
s-32.833 -22.667 -53.5 -33s-44 -19 -70 -26s-54 -10.5 -84 -10.5c-12.667 0 -24.667 2.16699 -36 6.5s-21.5 10.666 -30.5 18.999s-16.167 19.166 -21.5 32.499s-8 29 -8 47c-15.333 -30.667 -40.166 -56.167 -74.499 -76.5s-77.166 -30.5 -128.499 -30.5
c-21.333 0 -41.833 4.33301 -61.5 13s-37.167 20.834 -52.5 36.501s-27.666 34.334 -36.999 56.001s-14 45.834 -14 72.501c0 42 9.16699 85.667 27.5 131s44 86.833 77 124.5s72 68.667 117 93s94.167 36.5 147.5 36.5c8.66699 0 17.834 -1.16699 27.501 -3.5
s18.5 -6.5 26.5 -12.5s14.833 -14.167 20.5 -24.5s8.83398 -23.5 9.50098 -39.5l60 252c0.666992 3.33301 1.16699 6.33301 1.5 9s0.5 5.33398 0.5 8.00098c0 13.333 -3.66699 25 -11 35s-18.666 15 -33.999 15h-25v12h283c5.33301 0 10 -0.5 14 -1.5s6 -4.16699 6 -9.5
c0 -1.33301 -0.166992 -2.5 -0.5 -3.5s-0.5 -2.16699 -0.5 -3.5zM511.995 444.998c-2 22.667 -6.33301 42.666 -13 59.999s-18.334 26 -35.001 26c-14 0 -27.833 -8 -41.5 -24s-26.667 -36.667 -39 -62s-23.666 -53.666 -33.999 -84.999s-19.333 -62.333 -27 -93
s-13.667 -59 -18 -85s-6.5 -46.667 -6.5 -62c0 -33.333 4 -56.5 12 -69.5s19.667 -19.5 35 -19.5c12 0 26.167 8.16699 42.5 24.5s31.5 35.5 45.5 57.5z" />
    <glyph glyph-name="e" unicode="e" horiz-adv-x="580" 
d="M511 464c0 22 -3.83203 38.833 -11.499 50.5s-17.834 17.5 -30.501 17.5c-16 0 -33.333 -8.16699 -52 -24.5s-36.5 -37.833 -53.5 -64.5s-31.833 -57 -44.5 -91s-21.334 -68.667 -26.001 -104c4 -1.33301 7.33301 -2 10 -2c16.667 0 36.834 2.66699 60.501 8
s46.5 16 68.5 32s40.667 38.167 56 66.5s23 65.5 23 111.5zM292.001 227c-1.33301 -13.333 -2.33105 -26.167 -2.99805 -38.5s-1 -23.833 -1 -34.5c0 -51.333 6.5 -88.5 19.5 -111.5s30.167 -34.5 51.5 -34.5c18 0 37.5 4.33301 58.5 13s41.667 20.334 62 35.001
s39.5 32 57.5 52s33.333 41.333 46 64l11 -7c-34 -57.333 -74.833 -101.333 -122.5 -132s-102.167 -46 -163.5 -46c-30.667 0 -59.834 4.66699 -87.501 14s-52 23 -73 41s-37.667 40.667 -50 68s-18.5 59 -18.5 95c0 51.333 12.167 98.166 36.5 140.499
s55.833 78.833 94.5 109.5s82 54.334 130 71.001s95.667 25 143 25c26.667 0 49.667 -3.33301 69 -10s35.166 -15.667 47.499 -27s21.333 -24.5 27 -39.5s8.5 -30.5 8.5 -46.5c0 -20 -5.5 -38.333 -16.5 -55s-25.5 -31.834 -43.5 -45.501s-38.833 -26 -62.5 -37
s-48.167 -20.5 -73.5 -28.5s-50.833 -15 -76.5 -21s-49.167 -10.667 -70.5 -14z" />
    <glyph glyph-name="f" unicode="f" horiz-adv-x="439" 
d="M682 684c-3.33301 -13.333 -8.83203 -26.1689 -16.499 -38.502s-17.167 -23.333 -28.5 -33s-24.333 -17.334 -39 -23.001s-30.334 -8.5 -47.001 -8.5c-23.333 0 -44 6.16699 -62 18.5s-27 30.5 -27 54.5c0 17.333 3.66699 33.333 11 48s17 27.334 29 38.001
s25.667 19 41 25s30.666 9 45.999 9h23.5c7 0 10.833 0.666992 11.5 2c0 2.66699 -5.66699 6.5 -17 11.5s-27.666 7.5 -48.999 7.5c-28.667 0 -53.667 -8.16699 -75 -24.5s-35.666 -39.833 -42.999 -70.5l-36 -158h116l-4 -14h-116l-118 -513
c-2.66699 -10 -8.33398 -15 -17.001 -15h-181c-6 0 -9 3 -9 9c0 2.66699 0.333008 5 1 7l118 512h-58l4 14h58l20 90c6 27.333 19.5 52 40.5 74s46 40.667 75 56s60.5 27 94.5 35s67 12 99 12c28 0 52 -2.83301 72 -8.5s36.333 -13.167 49 -22.5s22 -20.166 28 -32.499
s9 -25.166 9 -38.499c0 -7.33301 -1 -15 -3 -23z" />
    <glyph glyph-name="g" unicode="g" horiz-adv-x="667" 
d="M420 137c-9.33301 -22 -19.0049 -42.166 -29.0049 -60.499s-22 -34.333 -36 -48s-30.833 -24.167 -50.5 -31.5s-43.167 -11 -70.5 -11c-20 0 -39.333 3.5 -58 10.5s-35.167 17.5 -49.5 31.5s-25.833 31.833 -34.5 53.5s-13 47.5 -13 77.5c0 49.333 10.333 97.333 31 144
s47 88 79 124s67 65 105 87s74.333 33 109 33c32.667 0 57.667 -6.33301 75 -19s28 -29.334 32 -50.001l17 64h209l-117 -476c-10 -40.667 -25.833 -82.167 -47.5 -124.5s-50.667 -81 -87 -116s-80.666 -63.667 -132.999 -86s-113.833 -33.5 -184.5 -33.5
c-41.333 0 -73.333 8.5 -96 25.5s-34 40.167 -34 69.5c0 16.667 3.66699 32.5 11 47.5s16.833 28.167 28.5 39.5s25 20.333 40 27s30.5 10 46.5 10c24 0 43.667 -7 59 -21s23 -31.667 23 -53c0 -16.667 -3.5 -32 -10.5 -46s-16.167 -26 -27.5 -36
s-24.166 -17.833 -38.499 -23.5s-28.5 -8.5 -42.5 -8.5c-7.33301 0 -11 -1.66699 -11 -5c0 -4 4.16699 -7.5 12.5 -10.5s19.833 -4.5 34.5 -4.5c30 0 55.833 6 77.5 18s40.334 29 56.001 51s29.334 48.333 41.001 79s22.834 64.667 33.501 102zM496.995 451.001
c-1.33301 19.333 -5.83496 36.499 -13.502 51.499s-18.5 22.5 -32.5 22.5c-14.667 0 -29 -7.66699 -43 -23s-27.5 -35.333 -40.5 -60s-25 -52.5 -36 -83.5s-20.5 -61.667 -28.5 -92s-14.333 -59 -19 -86s-7 -49.167 -7 -66.5c0 -27.333 4.5 -46.833 13.5 -58.5
s20.5 -17.5 34.5 -17.5c12 0 24.5 8.33301 37.5 25s25.833 38 38.5 64s24.834 55 36.501 87s21.834 63.333 30.501 94s15.667 58.834 21 84.501s8 45.167 8 58.5z" />
    <glyph glyph-name="h" unicode="h" horiz-adv-x="700" 
d="M224 728c2 8 3.00293 15.332 3.00293 21.999c0 24.667 -13.333 37 -40 37h-21v13h257c8 0 13.833 -0.333008 17.5 -1s5.5 -2.66699 5.5 -6c0 -2.66699 -0.333008 -5 -1 -7l-105 -441c20.667 41.333 41.167 75.5 61.5 102.5s40.833 48.333 61.5 64
s41.334 26.667 62.001 33s42 9.5 64 9.5c21.333 0 39.5 -3.33301 54.5 -10s27.167 -15.334 36.5 -26.001s16.166 -22.5 20.499 -35.5s6.5 -25.833 6.5 -38.5c0 -11.333 -2 -27.333 -6 -48s-9 -43.5 -15 -68.5s-12.667 -51 -20 -78l-20 -76c-6 -23.667 -11 -44.5 -15 -62.5
s-6 -30.667 -6 -38c1.33301 -9.33301 4.5 -16.666 9.5 -21.999s12.5 -8 22.5 -8c8.66699 0 16.334 2.66699 23.001 8s12.834 11.5 18.501 18.5s10.5 14.333 14.5 22s8 13.5 12 17.5l11 -4c-6.66699 -14 -15 -28.167 -25 -42.5s-22.5 -27.333 -37.5 -39
s-32.833 -21 -53.5 -28s-45.334 -10.5 -74.001 -10.5c-36.667 0 -67.334 8.5 -92.001 25.5s-37 40.5 -37 70.5c0 11.333 2.16699 27.666 6.5 48.999s9.66602 44.833 15.999 70.5l20.5 80l20.5 77c6.33301 23.667 11.666 44.334 15.999 62.001s6.5 29.834 6.5 36.501
c-1.33301 10.667 -3.83301 19.5 -7.5 26.5s-10.167 10.5 -19.5 10.5c-7.33301 0 -16.833 -5.66699 -28.5 -17s-24 -26 -37 -44s-26.333 -38.167 -40 -60.5s-25.834 -44.5 -36.501 -66.5l-73 -305h-207z" />
    <glyph glyph-name="i" unicode="i" horiz-adv-x="402" 
d="M191 463c0.666992 3.33301 1.16699 6.33105 1.5 8.99805s0.5 5.33398 0.5 8.00098c0 13.333 -3.66699 25 -11 35s-18.666 15 -33.999 15h-25v12h283c5.33301 0 10 -0.5 14 -1.5s6 -4.16699 6 -9.5c0 -1.33301 -0.166992 -2.5 -0.5 -3.5s-0.5 -2.16699 -0.5 -3.5l-99 -406
c-2 -8 -3 -16 -3 -24c0 -12 2.66699 -22.167 8 -30.5s13.666 -12.5 24.999 -12.5c6 0 12.667 1.66699 20 5s14.5 7.33301 21.5 12s13.5 9.66699 19.5 15s10.667 10 14 14l11 -8c-8 -9.33301 -19.333 -19.833 -34 -31.5s-32 -22.667 -52 -33s-42 -19 -66 -26
s-49 -10.5 -75 -10.5c-15.333 0 -30 1.83301 -44 5.5s-26.333 9.33398 -37 17.001s-19 17.167 -25 28.5s-9 25 -9 41c0 11.333 1.33301 22.333 4 33zM453 678.998c-3.33301 -14 -9.49902 -27.3359 -18.499 -40.0029s-19.667 -23.5 -32 -32.5s-26.166 -16.167 -41.499 -21.5
s-31 -8 -47 -8c-28.667 0 -51.834 7.83301 -69.501 23.5s-26.5 35.167 -26.5 58.5c0 16 4 31.333 12 46s18.667 27.5 32 38.5s28.666 19.833 45.999 26.5s35 10 53 10c28 0 50.667 -7.66699 68 -23s26 -34.666 26 -57.999c0 -3.33301 -0.166992 -6.66602 -0.5 -9.99902
s-0.833008 -6.66602 -1.5 -9.99902z" />
    <glyph glyph-name="j" unicode="j" horiz-adv-x="358" 
d="M453 679c-3.33301 -14 -9.50098 -27.3359 -18.501 -40.0029s-19.667 -23.5 -32 -32.5s-26.166 -16.167 -41.499 -21.5s-31 -8 -47 -8c-28 0 -50.833 7.66699 -68.5 23s-26.5 34.666 -26.5 57.999c0 16.667 4 32.334 12 47.001s18.667 27.5 32 38.5s28.5 19.833 45.5 26.5
s34.5 10 52.5 10c28 0 50.667 -7.66699 68 -23s26 -34.666 26 -57.999c0 -3.33301 -0.166992 -6.66602 -0.5 -9.99902s-0.833008 -6.66602 -1.5 -9.99902zM284.999 -16.0029c-9.33301 -40.667 -25.5029 -76.168 -48.5029 -106.501s-50.167 -55.5 -81.5 -75.5
s-65.666 -34.833 -102.999 -44.5s-75.333 -14.5 -114 -14.5c-41.333 0 -73.333 8.5 -96 25.5s-34 40.167 -34 69.5c0 16.667 3.66699 32.5 11 47.5s16.833 28.167 28.5 39.5s25 20.333 40 27s30.5 10 46.5 10c24 0 43.667 -7 59 -21s23 -31.667 23 -53
c0 -16.667 -3.5 -32 -10.5 -46s-16.167 -26 -27.5 -36s-24.166 -17.833 -38.499 -23.5s-28.5 -8.5 -42.5 -8.5c-7.33301 0 -11 -1.66699 -11 -5c0 -4 4.16699 -7.5 12.5 -10.5s19.833 -4.5 34.5 -4.5c24.667 0 47.5 6.83301 68.5 20.5s35.167 37.834 42.5 72.501l145 620
c1.33301 6.66699 2 11.667 2 15c0 8 -1.66699 15 -5 21s-7.16602 11 -11.499 15s-9 6.83301 -14 8.5s-9.5 2.5 -13.5 2.5h-34l4 13h299z" />
    <glyph glyph-name="k" unicode="k" horiz-adv-x="635" 
d="M224 728c2 8 3 15.332 3 21.999c0 24.667 -13.333 37 -40 37h-21v13h257c8 0 13.833 -0.333008 17.5 -1s5.5 -2.66699 5.5 -6c0 -2.66699 -0.333008 -5 -1 -7l-114 -484h11c15.333 0 28.833 5.83301 40.5 17.5s22.834 26.334 33.501 44.001s21.5 36.834 32.5 57.501
s23.333 39.834 37 57.501s29.167 32.334 46.5 44.001s38 17.5 62 17.5c16.667 0 31.667 -3.16699 45 -9.5s24.333 -14.5 33 -24.5s15.334 -21.5 20.001 -34.5s7 -26.5 7 -40.5c0 -12 -1.83301 -23.833 -5.5 -35.5s-9.33398 -22 -17.001 -31s-17.334 -16.167 -29.001 -21.5
s-25.5 -8 -41.5 -8c-26.667 0 -48.834 8.33301 -66.501 25s-26.5 37.667 -26.5 63s9 45.666 27 60.999s38.667 23 62 23c6 0 14 -0.833008 24 -2.5s19 -3.5 27 -5.5c-11.333 19.333 -32 29 -62 29c-19.333 0 -36.333 -4.83301 -51 -14.5s-28 -22.167 -40 -37.5
s-23.167 -32 -33.5 -50l-30 -52c-9.66699 -16.667 -19.5 -31.667 -29.5 -45s-20.667 -22.333 -32 -27c6.66699 0.666992 13.334 1.16699 20.001 1.5s13.334 0.5 20.001 0.5c24 0 46.833 -2.16699 68.5 -6.5s40.667 -11 57 -20s29.166 -20 38.499 -33s14 -28.167 14 -45.5
c0 -16 -1.66699 -31.167 -5 -45.5s-7 -27.833 -11 -40.5l-11 -35.5c-3.33301 -11 -5 -21.5 -5 -31.5c0 -8.66699 2.33301 -14.834 7 -18.501s9 -5.5 13 -5.5c6 0 12.667 2.83301 20 8.5s14.333 13 21 22s12.334 19.167 17.001 30.5s7.66699 22.666 9 33.999l11 -2
c-8 -45.333 -26.833 -77.833 -56.5 -97.5s-73.834 -29.5 -132.501 -29.5c-37.333 0 -64.833 7 -82.5 21s-26.5 34 -26.5 60c0 14.667 2 30 6 46s8.5 31.833 13.5 47.5l14 45.5c4.33301 14.667 6.5 28 6.5 40c0 18 -6.5 29.333 -19.5 34s-30.5 7.66699 -52.5 9l-68 -291h-207
z" />
    <glyph glyph-name="l" unicode="l" horiz-adv-x="382" 
d="M234 721c0.666992 3.33301 1.16699 6.33105 1.5 8.99805s0.5 5.33398 0.5 8.00098c0 13.333 -3.66699 25 -11 35s-18.666 15 -33.999 15h-25v12h283c5.33301 0 10 -0.5 14 -1.5s6 -4.16699 6 -9.5c0 -1.33301 -0.166992 -2.5 -0.5 -3.5s-0.5 -2.16699 -0.5 -3.5
l-157 -664c-2 -8 -3 -16 -3 -24c0 -12 2.66699 -22.167 8 -30.5s13.666 -12.5 24.999 -12.5c6 0 12.667 1.66699 20 5s14.5 7.33301 21.5 12s13.5 9.66699 19.5 15s10.667 10 14 14l11 -8c-8 -9.33301 -19.333 -19.833 -34 -31.5s-32 -22.667 -52 -33s-42 -19 -66 -26
s-49 -10.5 -75 -10.5c-15.333 0 -30 1.83301 -44 5.5s-26.333 9.33398 -37 17.001s-19 17.167 -25 28.5s-9 25 -9 41c0 11.333 1.33301 22.333 4 33z" />
    <glyph glyph-name="m" unicode="m" horiz-adv-x="1052" 
d="M438 0l93.999 427.001c2.66699 10.667 4 21 4 31c0 12.667 -2.33301 21.667 -7 27s-10.334 8 -17.001 8c-7.33301 0 -16.333 -5.66699 -27 -17s-22.167 -26 -34.5 -44s-24.833 -38.167 -37.5 -60.5s-24.334 -44.5 -35.001 -66.5l-73 -305h-207l88 384c2 10 3 19.667 3 29
c0 13.333 -2 23.833 -6 31.5s-9.66699 11.5 -17 11.5c-6.66699 0 -14 -4.33301 -22 -13s-15.667 -18.667 -23 -30s-14 -22.333 -20 -33s-10 -18.334 -12 -23.001l-11 8c6.66699 14 15.834 31.5 27.501 52.5s26.5 41.333 44.5 61s39.333 36.334 64 50.001
s53.667 20.5 87 20.5c18.667 0 34.334 -2.83301 47.001 -8.5s23 -13.5 31 -23.5s13.667 -21.5 17 -34.5s5 -26.833 5 -41.5c0 -9.33301 -0.833008 -19 -2.5 -29s-3.5 -19.333 -5.5 -28l-5.5 -23.5c-1.66699 -7 -2.83398 -12.167 -3.50098 -15.5
c20.667 41.333 40.834 75.5 60.501 102.5s39.167 48.333 58.5 64s39 26.667 59 33s41 9.5 63 9.5c18.667 0 35.167 -3.33301 49.5 -10s26.333 -15.167 36 -25.5s17 -22.333 22 -36s7.5 -27.5 7.5 -41.5c0 -8 -1 -16 -3 -24l-8 -38c18.667 34.667 36.834 63.167 54.501 85.5
s35.334 40.166 53.001 53.499s35.834 22.666 54.501 27.999s38 8 58 8c21.333 0 39.5 -3.33301 54.5 -10s27.167 -15.334 36.5 -26.001s16.166 -22.5 20.499 -35.5s6.5 -25.833 6.5 -38.5c0 -11.333 -2 -27.333 -6 -48s-9 -43.5 -15 -68.5s-12.667 -51 -20 -78l-20 -76
c-6 -23.667 -11 -44.5 -15 -62.5s-6 -30.667 -6 -38c0 -9.33301 3 -16.666 9 -21.999s13.667 -8 23 -8c8.66699 0 16.334 2.66699 23.001 8s12.834 11.5 18.501 18.5s10.5 14.333 14.5 22s8 13.5 12 17.5l11 -4c-6.66699 -14 -15 -28.167 -25 -42.5s-22.5 -27.333 -37.5 -39
s-32.833 -21 -53.5 -28s-45.334 -10.5 -74.001 -10.5c-36.667 0 -67.334 8.5 -92.001 25.5s-37 40.5 -37 70.5c0 11.333 2.16699 27.666 6.5 48.999s9.66602 44.833 15.999 70.5l20.5 80l20.5 77c6.33301 23.667 11.666 44.334 15.999 62.001s6.5 29.834 6.5 36.501
c0 10.667 -2.16699 19.5 -6.5 26.5s-11.166 10.5 -20.499 10.5c-6.66699 0 -14.5 -4.66699 -23.5 -14s-18.833 -21.5 -29.5 -36.5s-21.5 -32.333 -32.5 -52l-32.5 -59.5l-72 -331h-208z" />
    <glyph glyph-name="n" unicode="n" horiz-adv-x="736" 
d="M780 105c-6.66699 -14 -14.999 -28.168 -24.999 -42.501s-22.5 -27.333 -37.5 -39s-32.833 -21 -53.5 -28s-45.334 -10.5 -74.001 -10.5c-36.667 0 -67.334 8.5 -92.001 25.5s-37 40.5 -37 70.5c0 11.333 2.16699 27.666 6.5 48.999s9.66602 44.833 15.999 70.5l20.5 80
l20.5 77c6.33301 23.667 11.666 44.334 15.999 62.001s6.5 29.834 6.5 36.501c0 10.667 -2.16699 19.5 -6.5 26.5s-11.166 10.5 -20.499 10.5c-7.33301 0 -16.833 -5.66699 -28.5 -17s-24 -26 -37 -44s-26.333 -38.167 -40 -60.5s-25.834 -44.5 -36.501 -66.5l-73 -305h-207
l88 384c2 10 3 19.667 3 29c0 13.333 -2 23.833 -6 31.5s-9.66699 11.5 -17 11.5c-6.66699 0 -14 -4.33301 -22 -13s-15.667 -18.667 -23 -30s-14 -22.333 -20 -33s-10 -18.334 -12 -23.001l-11 8c6.66699 14 15.834 31.5 27.501 52.5s26.5 41.333 44.5 61
s39.333 36.334 64 50.001s53.667 20.5 87 20.5c18.667 0 34.334 -2.83301 47.001 -8.5s23 -13.5 31 -23.5s13.667 -21.5 17 -34.5s5 -26.833 5 -41.5c0 -9.33301 -0.833008 -19 -2.5 -29s-3.5 -19.333 -5.5 -28l-5.5 -23.5c-1.66699 -7 -2.83398 -12.167 -3.50098 -15.5
c20.667 41.333 41.167 75.5 61.5 102.5s40.833 48.333 61.5 64s41.334 26.667 62.001 33s42 9.5 64 9.5c21.333 0 39.5 -3.33301 54.5 -10s27.167 -15.334 36.5 -26.001s16.166 -22.5 20.499 -35.5s6.5 -25.833 6.5 -38.5c0 -11.333 -2 -27.333 -6 -48s-9 -43.5 -15 -68.5
s-12.667 -51 -20 -78l-20 -76c-6 -23.667 -11 -44.5 -15 -62.5s-6 -30.667 -6 -38c0 -9.33301 2.83301 -16.666 8.5 -21.999s13.5 -8 23.5 -8c8.66699 0 16.334 2.66699 23.001 8s12.834 11.5 18.501 18.5s10.5 14.333 14.5 22s8 13.5 12 17.5z" />
    <glyph glyph-name="o" unicode="o" horiz-adv-x="627" 
d="M660 271c-9.33301 -40 -25.332 -77.667 -47.999 -113s-50 -66 -82 -92s-67.333 -46.667 -106 -62s-78.667 -23 -120 -23c-36 0 -68.167 5.66699 -96.5 17s-52.333 27.166 -72 47.499s-34.834 44.333 -45.501 72s-16 57.5 -16 89.5c0 46.667 10.333 91.334 31 134.001
s48 80.167 82 112.5s72.833 58.166 116.5 77.499s88.5 29 134.5 29c35.333 0 67.166 -5.66699 95.499 -17s52.333 -27.166 72 -47.499s34.834 -44.333 45.501 -72s16 -57.5 16 -89.5c0 -21.333 -2.33301 -42.333 -7 -63zM441.001 264l30.998 134.004
c8.66699 37.333 13 67.666 13 90.999c0 20 -3.66699 34.833 -11 44.5s-19.666 14.5 -36.999 14.5c-15.333 0 -28.5 -4 -39.5 -12s-21.5 -22.333 -31.5 -43s-20.167 -49.334 -30.5 -86.001s-22.166 -83.334 -35.499 -140.001c-12.667 -54.667 -22.167 -99.667 -28.5 -135
s-9.5 -63 -9.5 -83c0 -23.333 4 -38.5 12 -45.5s19.333 -10.5 34 -10.5c14 0 26.333 3.66699 37 11s21 21 31 41s20.167 47.667 30.5 83s21.833 80.666 34.5 135.999z" />
    <glyph glyph-name="p" unicode="p" horiz-adv-x="684" 
d="M222 -296l-206.001 -0.000976562l166 680c1.33301 5.33301 2.33301 10.333 3 15s1 9.33398 1 14.001c0 13.333 -2.16699 23.833 -6.5 31.5s-10.166 11.5 -17.499 11.5c-6.66699 0 -14.167 -4.33301 -22.5 -13s-16.166 -18.667 -23.499 -30s-14 -22.333 -20 -33
s-10 -18.334 -12 -23.001l-11 8c7.33301 14 17 31.5 29 52.5s27 41.333 45 61s39.5 36.334 64.5 50.001s54.167 20.5 87.5 20.5c20.667 0 37.5 -2.66699 50.5 -8s23.167 -12.333 30.5 -21s12.5 -19 15.5 -31s4.5 -24.333 4.5 -37v-9
c0 -2.66699 -0.333008 -5.33398 -1 -8.00098c12 23.333 24.5 42.5 37.5 57.5s26.333 26.667 40 35s27.167 14 40.5 17s26 4.5 38 4.5c24 0 46.167 -5.66699 66.5 -17s37.666 -26.333 51.999 -45s25.5 -40 33.5 -64s12 -48.667 12 -74c0 -37.333 -6.83301 -77 -20.5 -119
s-34 -80.667 -61 -116s-60.5 -64.666 -100.5 -87.999s-86.333 -35 -139 -35c-41.333 0 -73 11 -95 33zM306.999 41.999c5.33301 -7.33301 12.0049 -14.0039 20.0049 -20.0039s19.667 -9 35 -9c16.667 0 32.167 9.16699 46.5 27.5s27.5 41.333 39.5 69
s22.833 58.334 32.5 92.001s17.667 65.834 24 96.501s11.166 57.834 14.499 81.501s5 39.834 5 48.501c0 25.333 -4 43.5 -12 54.5s-18.667 16.5 -32 16.5c-8.66699 0 -17.834 -4 -27.501 -12s-18.834 -18.833 -27.501 -32.5s-16.834 -29.5 -24.501 -47.5
s-13.834 -37 -18.501 -57z" />
    <glyph glyph-name="q" unicode="q" horiz-adv-x="667" 
d="M297 -299l91.0039 378.001c-10.667 -19.333 -22.334 -34.833 -35.001 -46.5s-25.834 -21 -39.501 -28s-27.667 -11.667 -42 -14s-28.5 -3.5 -42.5 -3.5c-26.667 0 -49.834 5.5 -69.501 16.5s-36 25.667 -49 44s-22.667 39.666 -29 63.999s-9.5 49.5 -9.5 75.5
c0 44 9.16699 87.5 27.5 130.5s42.5 81.5 72.5 115.5s64 61.5 102 82.5s76.667 31.5 116 31.5c15.333 0 32.666 -4.16699 51.999 -12.5s34.333 -22.833 45 -43.5l12 50h209l-195 -840h-216zM307.004 24.001c7.33301 0 15.832 3.83105 25.499 11.498s19.334 17.667 29.001 30
s18.5 26.5 26.5 42.5s14 32 18 48l76 313c-3.33301 10.667 -8 19.334 -14 26.001s-14.667 10 -26 10c-15.333 0 -30.5 -7.66699 -45.5 -23s-29.167 -35.166 -42.5 -59.499s-25.833 -51.666 -37.5 -81.999s-21.667 -60.333 -30 -90s-14.833 -57.334 -19.5 -83.001
s-7 -46.167 -7 -61.5c0 -24.667 3.83301 -44.5 11.5 -59.5s19.5 -22.5 35.5 -22.5z" />
    <glyph glyph-name="r" unicode="r" horiz-adv-x="582" 
d="M299 0h-201.003l88 384c2 10 3 19.667 3 29c0 13.333 -2.16699 24 -6.5 32s-10.166 12 -17.499 12c-6.66699 0 -14 -4.33301 -22 -13s-15.667 -18.667 -23 -30s-14 -22.333 -20 -33s-10 -18.334 -12 -23.001l-10 7c6.66699 14 15.834 31.5 27.501 52.5
s26.5 41.333 44.5 61s39.333 36.334 64 50.001s53.667 20.5 87 20.5c19.333 0 35.5 -3.33301 48.5 -10s23.333 -15.5 31 -26.5s13 -23.833 16 -38.5s4.5 -30.334 4.5 -47.001c21.333 42 47 75.667 77 101s62 38 96 38c25.333 0 46.166 -8.16699 62.499 -24.5
s24.5 -38.166 24.5 -65.499c0 -22.667 -4.33301 -43 -13 -61s-19.5 -33.167 -32.5 -45.5s-27.167 -21.833 -42.5 -28.5s-30 -10 -44 -10c-20.667 0 -38.834 6.66699 -54.501 20s-23.5 31.333 -23.5 54c0 17.333 3.83301 33.333 11.5 48s17.334 27.167 29.001 37.5
s24.334 18.5 38.001 24.5s26.834 9 39.501 9c18 0 30.833 -2.5 38.5 -7.5s13.167 -7.5 16.5 -7.5c4 0 6 3 6 9c0 7.33301 -5.33301 15.333 -16 24s-25.667 13 -45 13c-12 0 -26.667 -3.83301 -44 -11.5s-35.166 -20.667 -53.499 -39s-35.833 -42.333 -52.5 -72
s-30.334 -66.5 -41.001 -110.5z" />
    <glyph glyph-name="s" unicode="s" horiz-adv-x="500" 
d="M94 47c3.33301 -6 9.66504 -11.8262 18.998 -17.4932s20.166 -10.834 32.499 -15.501s25.333 -8.5 39 -11.5s26.5 -4.5 38.5 -4.5c40 0 69.167 6.16699 87.5 18.5s27.5 30.166 27.5 53.499c0 17.333 -5.33301 33 -16 47s-24.167 27.167 -40.5 39.5
s-33.833 24.833 -52.5 37.5s-36.167 26.5 -52.5 41.5s-29.833 31.833 -40.5 50.5s-16 40.334 -16 65.001c0 27.333 6.33301 53.166 19 77.499s30.334 45.5 53.001 63.5s50 32.333 82 43s67 16 105 16c25.333 0 48.333 -3.33301 69 -10s38.5 -15.5 53.5 -26.5
s26.667 -23.667 35 -38s12.5 -29.5 12.5 -45.5c0 -20.667 -7.66699 -39.167 -23 -55.5s-34.666 -24.5 -57.999 -24.5c-12 0 -23.333 2 -34 6s-20.167 9.5 -28.5 16.5s-15 15.167 -20 24.5s-7.5 19.666 -7.5 30.999s2.33301 21.666 7 30.999s11 17.5 19 24.5s17 12.333 27 16
s20.333 5.5 31 5.5c16 0 30 -3.66699 42 -11c-27.333 29.333 -64.333 44 -111 44c-16.667 0 -31.5 -2.5 -44.5 -7.5s-24 -11.333 -33 -19s-15.833 -16.167 -20.5 -25.5s-7 -18.666 -7 -27.999c0 -16 5.66699 -30.667 17 -44s25.333 -26.333 42 -39
s34.834 -25.667 54.501 -39s37.834 -27.833 54.501 -43.5s30.667 -32.834 42 -51.501s17 -40 17 -64c0 -28 -7 -53.833 -21 -77.5s-33 -44 -57 -61s-52.333 -30.167 -85 -39.5s-67.667 -14 -105 -14c-28 0 -53.667 2.66699 -77 8s-43.5 13.166 -60.5 23.499
s-30.333 23.333 -40 39s-14.5 33.5 -14.5 53.5c0 11.333 2.16699 22.166 6.5 32.499s10.166 19.5 17.499 27.5s16 14.333 26 19s21 7 33 7c25.333 0 46.333 -8 63 -24s25 -36 25 -60c0 -18.667 -7.5 -36.167 -22.5 -52.5s-35.167 -24.5 -60.5 -24.5
c-7.33301 0 -15.333 1.16699 -24 3.5s-17 5.16602 -25 8.49902z" />
    <glyph glyph-name="t" unicode="t" horiz-adv-x="386" 
d="M396 529l-100.001 -421.999c-2 -9.33301 -3.66699 -18.166 -5 -26.499s-2 -15.5 -2 -21.5c0 -14 2.66699 -24 8 -30s13 -9 23 -9c10.667 0 20.834 2.5 30.501 7.5s18.5 11 26.5 18s15 14.167 21 21.5l14 17l12 -6l-26.5 -30
c-9.66699 -10.667 -21.5 -20.334 -35.5 -29.001s-30.5 -15.834 -49.5 -21.501s-41.5 -8.5 -67.5 -8.5c-27.333 0 -50.166 4.16699 -68.499 12.5s-33 19.666 -44 33.999s-19 30.833 -24 49.5s-7.5 38.667 -7.5 60c0 13.333 0.833008 26.5 2.5 39.5s4.16699 26.167 7.5 39.5
l76 305h-76l1 13h54c25.333 0 52.166 5.16699 80.499 15.5s55.333 24.333 81 42s48 38.334 67 62.001s31.5 49.167 37.5 76.5h13l-45 -196h102l-1 -13h-105z" />
    <glyph glyph-name="u" unicode="u" horiz-adv-x="702" 
d="M68 434c6.66699 14 14.998 28.166 24.998 42.499s22.5 27.333 37.5 39s32.833 21 53.5 28s45.334 10.5 74.001 10.5c36.667 0 67.334 -8.5 92.001 -25.5s37 -40.5 37 -70.5c0 -12 -2 -28.333 -6 -49s-9.16699 -43.5 -15.5 -68.5l-20 -77.5l-20 -75
c-6.33301 -23.333 -11.5 -43.666 -15.5 -60.999s-6 -29 -6 -35c0 -10.667 2.16699 -20 6.5 -28s11.166 -12 20.499 -12c7.33301 0 15.833 5.16699 25.5 15.5s20 24 31 41s22.167 36.333 33.5 58s22.333 44.167 33 67.5l73 305h207l-88 -384c-2 -10 -3 -19.667 -3 -29
c0 -13.333 2 -23.833 6 -31.5s9.66699 -11.5 17 -11.5c6.66699 0 14 4.33301 22 13s15.667 18.667 23 30s14 22.333 20 33s10 18.334 12 23.001l11 -8l-28 -52.5c-11.333 -21 -26 -41.333 -44 -61s-39.333 -36.334 -64 -50.001s-53.667 -20.5 -87 -20.5
c-18.667 0 -34.334 2.83301 -47.001 8.5s-23 13.5 -31 23.5s-13.667 21.5 -17 34.5s-5 26.833 -5 41.5c0 9.33301 0.833008 19 2.5 29s3.5 19.333 5.5 28l5.5 23.5c1.66699 7 2.83398 12.167 3.50098 15.5c-18 -40 -36.167 -73.5 -54.5 -100.5s-37 -48.5 -56 -64.5
s-38.667 -27.333 -59 -34s-41.5 -10 -63.5 -10c-21.333 0 -39.5 3.33301 -54.5 10s-27.167 15.334 -36.5 26.001s-16.166 22.5 -20.499 35.5s-6.5 25.833 -6.5 38.5c0 11.333 2 27.333 6 48s9 43.5 15 68.5s12.667 51 20 78l20 76c6 23.667 11 44.5 15 62.5s6 30.667 6 38
c0 9.33301 -2.83301 16.666 -8.5 21.999s-13.5 8 -23.5 8c-8.66699 0 -16.667 -2.66699 -24 -8s-14 -11.5 -20 -18.5s-11 -14.333 -15 -22l-9 -17.5z" />
    <glyph glyph-name="v" unicode="v" horiz-adv-x="602" 
d="M345 30c21.333 0 43.002 5.99512 65.002 17.9951s43.167 27.833 63.5 47.5s39.666 42.5 57.999 68.5s34.166 52.667 47.499 80s23.833 54.5 31.5 81.5s11.5 51.833 11.5 74.5c-25.333 -28 -55.333 -42 -90 -42c-13.333 0 -26 2.66699 -38 8s-22.5 12.5 -31.5 21.5
s-16.167 19.333 -21.5 31s-8 24.167 -8 37.5s2.5 26 7.5 38s12 22.5 21 31.5s19.5 16 31.5 21s25 7.5 39 7.5c32 0 57.5 -12 76.5 -36s28.5 -54.667 28.5 -92c0 -32 -4.5 -65 -13.5 -99s-21.667 -67.167 -38 -99.5s-36 -63.166 -59 -92.499s-48.667 -54.833 -77 -76.5
s-59 -39 -92 -52s-67.5 -19.5 -103.5 -19.5c-44 0 -78.5 11.5 -103.5 34.5s-37.5 50.833 -37.5 83.5c0 10.667 1.83301 25.334 5.5 44.001s8.33398 39.334 14.001 62.001l18.5 71.5l18.5 71.5c5.66699 22.667 10.334 43.334 14.001 62.001s5.5 33 5.5 43
c0 9.33301 -2.83301 17.666 -8.5 24.999s-13.5 11 -23.5 11c-6.66699 0 -13.834 -1.83301 -21.501 -5.5s-15.167 -8.16699 -22.5 -13.5s-14.333 -11 -21 -17s-12.334 -11.333 -17.001 -16l-6 11c6.66699 6.66699 17.167 15.5 31.5 26.5s31.166 21.833 50.499 32.5
s40.666 20 63.999 28s47 12 71 12c34.667 0 61.5 -8.33301 80.5 -25s28.5 -41 28.5 -73c0 -21.333 -4.66699 -48.166 -14 -80.499s-19.666 -66.166 -30.999 -101.499s-21.666 -70 -30.999 -104s-14 -62.667 -14 -86c0 -16.667 3 -29.667 9 -39s16.333 -14 31 -14z" />
    <glyph glyph-name="w" unicode="w" horiz-adv-x="906" 
d="M649 30c21.333 0 43.001 5.99609 65.001 17.9961s43.167 27.833 63.5 47.5s39.666 42.5 57.999 68.5s34.166 52.667 47.499 80s23.833 54.5 31.5 81.5s11.5 51.833 11.5 74.5c-25.333 -28 -55.333 -42 -90 -42c-13.333 0 -26 2.66699 -38 8s-22.5 12.5 -31.5 21.5
s-16.167 19.333 -21.5 31s-8 24.167 -8 37.5s2.5 26 7.5 38s12 22.5 21 31.5s19.5 16 31.5 21s25 7.5 39 7.5c32 0 57.5 -12 76.5 -36s28.5 -54.667 28.5 -92c0 -32 -4.5 -65 -13.5 -99s-21.667 -67.167 -38 -99.5s-36 -63.166 -59 -92.499s-48.667 -54.833 -77 -76.5
s-59 -39 -92 -52s-67.5 -19.5 -103.5 -19.5c-19.333 0 -37.333 2.66699 -54 8s-31.167 13.166 -43.5 23.499s-22 22.833 -29 37.5s-10.5 31 -10.5 49v12c0 4 0.666992 8.33301 2 13c-19.333 -44 -42.833 -78.833 -70.5 -104.5s-60.5 -38.5 -98.5 -38.5
c-44 0 -78.5 11.5 -103.5 34.5s-37.5 50.833 -37.5 83.5c0 10.667 1.83301 25.334 5.5 44.001s8.33398 39.334 14.001 62.001l18.5 71.5l18.5 71.5c5.66699 22.667 10.334 43.334 14.001 62.001s5.5 33 5.5 43c0 9.33301 -2.83301 17.666 -8.5 24.999s-13.5 11 -23.5 11
c-6.66699 0 -13.834 -1.83301 -21.501 -5.5s-15.167 -8.16699 -22.5 -13.5s-14.333 -11 -21 -17s-12.334 -11.333 -17.001 -16l-6 11c6.66699 6.66699 17.167 15.5 31.5 26.5s31.166 21.833 50.499 32.5s40.666 20 63.999 28s47 12 71 12c34.667 0 61.5 -8.33301 80.5 -25
s28.5 -41 28.5 -73c0 -21.333 -4.66699 -48.166 -14 -80.499s-19.666 -66.166 -30.999 -101.499s-21.666 -70 -30.999 -104s-14 -62.667 -14 -86c0 -12.667 2.5 -23 7.5 -31s12.167 -12 21.5 -12c8.66699 0 18.667 6.66699 30 20s22.833 31.833 34.5 55.5
s23.334 51.834 35.001 84.501s22.167 68.667 31.5 108l56 233h201l-105 -427c-3.33301 -14.667 -5 -26.334 -5 -35.001c0 -16 3.33301 -28.167 10 -36.5s15.667 -12.5 27 -12.5z" />
    <glyph glyph-name="x" unicode="x" horiz-adv-x="638" 
d="M729 493c0 -12.667 -2.33301 -25.1719 -7 -37.5049s-11.167 -23.333 -19.5 -33s-18.333 -17.5 -30 -23.5s-24.834 -9 -39.501 -9c-16.667 0 -31.167 2.66699 -43.5 8s-23 12 -32 20s-16.333 16.333 -22 25s-10.167 16.334 -13.5 23.001
c-5.33301 -5.33301 -11 -12.5 -17 -21.5l-18.5 -28.5l-18 -29c-5.66699 -9.33301 -10.834 -17 -15.501 -23c2 -12.667 5 -28.334 9 -47.001s8.83301 -38.334 14.5 -59.001s11.834 -41.167 18.501 -61.5s13.834 -38.666 21.501 -54.999s15.667 -29.666 24 -39.999
s16.5 -15.5 24.5 -15.5c10 0 19.333 2 28 6s16.5 8.5 23.5 13.5s13.333 10 19 15s10.5 8.83301 14.5 11.5l3 -13c-6.66699 -8 -19.5 -19.333 -38.5 -34s-40.167 -29.5 -63.5 -44.5s-47.166 -28 -71.499 -39s-44.833 -16.5 -61.5 -16.5s-31.5 5.33301 -44.5 16
s-24.5 24.667 -34.5 42s-18.667 37 -26 59s-13.333 44.333 -18 67c-16 -21.333 -30.167 -43 -42.5 -65s-25.166 -42 -38.499 -60s-28.5 -32.833 -45.5 -44.5s-38.167 -17.5 -63.5 -17.5c-10.667 0 -21 2.16699 -31 6.5s-19 10.333 -27 18s-14.333 16.834 -19 27.501
s-7 22.334 -7 35.001c0 12 2.66699 24.167 8 36.5s12.5 23.333 21.5 33s19.5 17.5 31.5 23.5s24.667 9 38 9c25.333 0 46.833 -8.5 64.5 -25.5s28.167 -40.5 31.5 -70.5c4 2.66699 8.66699 8.33398 14 17.001l18 29.5l21 33.5c7.33301 11.333 15 21.333 23 30
c-4.66699 27.333 -10.167 58 -16.5 92s-13.5 65.833 -21.5 95.5s-17 54.667 -27 75s-21 30.5 -33 30.5c-8.66699 0 -17 -1.83301 -25 -5.5s-15.333 -7.83398 -22 -12.501s-12.334 -9.16699 -17.001 -13.5s-8.33398 -7.16602 -11.001 -8.49902l-10 10
c4.66699 5.33301 15.167 14.333 31.5 27s35.166 25.334 56.499 38.001s43.666 23.834 66.999 33.501s44 14.5 62 14.5c20 0 37 -5.66699 51 -17s25.833 -25.833 35.5 -43.5s17.334 -37.167 23.001 -58.5s10.5 -41.666 14.5 -60.999l49 83c14.667 24 29.5 44.167 44.5 60.5
s30.833 28.666 47.5 36.999s35.667 12.5 57 12.5c22.667 0 41.834 -7.33301 57.501 -22s23.5 -34.334 23.5 -59.001z" />
    <glyph glyph-name="y" unicode="y" horiz-adv-x="659" 
d="M406 126c-30.667 -53.333 -62.334 -90.168 -95.001 -110.501s-67.334 -30.5 -104.001 -30.5c-21.333 0 -39.5 3.33301 -54.5 10s-27.167 15.334 -36.5 26.001s-16.166 22.5 -20.499 35.5s-6.5 25.833 -6.5 38.5c0 11.333 2.16699 27.333 6.5 48s9.83301 43.5 16.5 68.5
l21 78l21 76c6.66699 23.667 12.167 44.5 16.5 62.5s6.5 30.667 6.5 38c0 9.33301 -2.83301 16.666 -8.5 21.999s-13.5 8 -23.5 8c-8.66699 0 -16.334 -2.66699 -23.001 -8s-12.834 -11.5 -18.501 -18.5s-10.5 -14.333 -14.5 -22s-8 -13.5 -12 -17.5l-11 4
c6.66699 14 15 28.167 25 42.5s22.5 27.333 37.5 39s32.833 21 53.5 28s45.334 10.5 74.001 10.5c36.667 0 67.334 -8.5 92.001 -25.5s37 -40.5 37 -70.5c0 -11.333 -2.16699 -27.5 -6.5 -48.5s-9.83301 -44 -16.5 -69l-21.5 -77.5l-21.5 -75
c-6.66699 -23.333 -12.167 -43.666 -16.5 -60.999s-6.5 -29 -6.5 -35c0 -10.667 2.16699 -20 6.5 -28s11.166 -12 20.499 -12c6 0 14 5.16699 24 15.5s20.5 23.666 31.5 39.999s21.5 34.5 31.5 54.5s17.667 40 23 60l87 320h209l-117 -476
c-10 -40.667 -25.833 -82.167 -47.5 -124.5s-50.667 -81 -87 -116s-80.666 -63.667 -132.999 -86s-113.833 -33.5 -184.5 -33.5c-41.333 0 -73.333 8.5 -96 25.5s-34 40.167 -34 69.5c0 16.667 3.66699 32.5 11 47.5s16.833 28.167 28.5 39.5s25 20.333 40 27
s30.5 10 46.5 10c24 0 43.667 -7 59 -21s23 -31.667 23 -53c0 -16.667 -3.5 -32 -10.5 -46s-16.167 -26 -27.5 -36s-24.166 -17.833 -38.499 -23.5s-28.5 -8.5 -42.5 -8.5c-7.33301 0 -11 -1.66699 -11 -5c0 -4 4.16699 -7.5 12.5 -10.5s19.833 -4.5 34.5 -4.5
c30 0 55.833 6 77.5 18s40.5 28.833 56.5 50.5s29.833 47.834 41.5 78.501s22.5 65 32.5 103z" />
    <glyph glyph-name="z" unicode="z" horiz-adv-x="595" 
d="M645 533c0 -0.666992 -8.66895 -9.33594 -26.002 -26.0029l-65 -62l-84 -80l-84 -80.5l-65 -62.5c-17.333 -16.667 -26 -25.667 -26 -27c0 -3.33301 0.833008 -5.83301 2.5 -7.5s6.16699 -2.5 13.5 -2.5c8.66699 0 18.5 -1.33301 29.5 -4l37.5 -9
c14 -3.33301 29.5 -6.33301 46.5 -9s35.833 -4 56.5 -4c34 0 60.5 2.83301 79.5 8.5s33.667 12.834 44 21.501s17.5 17.834 21.5 27.501s8 18.167 12 25.5l15 -9l-16 -34.5c-7.33301 -15.667 -16.333 -33 -27 -52s-22.834 -38.5 -36.501 -58.5s-28.5 -38.333 -44.5 -55
s-33 -30.334 -51 -41.001s-36.667 -16 -56 -16c-15.333 0 -33.5 1.5 -54.5 4.5l-67 10c-23.667 3.66699 -47.5 7 -71.5 10s-46.333 4.5 -67 4.5c-30 0 -55.167 -1.83301 -75.5 -5.5s-32.166 -5.5 -35.499 -5.5c-8.66699 0 -13 1.33301 -13 4c0 1.33301 0.333008 2 1 2
c13.333 6.66699 32.5 20.167 57.5 40.5l82 70l91 83.5l84.5 81l62 61.5c16 16.333 24 25.166 24 26.499c0 2 -1 3.66699 -3 5s-8.33301 2 -19 2c-5.33301 0 -14.166 0.833008 -26.499 2.5s-26.333 3.33398 -42 5.00098s-32.167 3.33398 -49.5 5.00098s-33.333 2.5 -48 2.5
c-35.333 0 -62.666 -2.5 -81.999 -7.5s-34 -11 -44 -18s-16.667 -14.667 -20 -23s-7 -15.833 -11 -22.5l-14 7c2 6.66699 5.33301 17 10 31s11 29.5 19 46.5s17.833 34.5 29.5 52.5s25.5 34.333 41.5 49s34.5 26.834 55.5 36.501s44.833 14.5 71.5 14.5
c30 0 63.5 -3.33301 100.5 -10s75.167 -10 114.5 -10c36 0 63.5 1.66699 82.5 5s29.833 5 32.5 5c4.66699 0 7 -2.66699 7 -8z" />
    <glyph glyph-name="braceleft" unicode="{" horiz-adv-x="500" 
d="M396 -67c-27.333 0 -53.501 0.166992 -78.501 0.5s-47.167 3.33301 -66.5 9s-34.666 15.167 -45.999 28.5s-17 33 -17 59c-0.666992 9.33301 0 20 2 32s4.66699 25 8 39l24 105c2.66699 12 4.83398 23 6.50098 33s2.5 19.667 2.5 29c0 22.667 -8.33301 40.167 -25 52.5
s-46.667 21.166 -90 26.499l6 27c20 2.66699 38.667 5.33398 56 8.00098s33.166 8.16699 47.499 16.5s27.166 21.5 38.499 39.5s21 43.667 29 77l25 105c9.33301 40 21 71.167 35 93.5s31.833 39 53.5 50s47.667 17.833 78 20.5s66.833 4.66699 109.5 6l-5 -23
c-30.667 -2 -55 -6.16699 -73 -12.5s-32.333 -15.5 -43 -27.5s-19 -27.333 -25 -46s-12 -41.334 -18 -68.001l-11 -47l-18.5 -73.5c-5.66699 -21.667 -14.667 -40.834 -27 -57.501s-29.666 -31 -51.999 -43s-53.5 -22.333 -93.5 -31c19.333 -4.66699 36 -9.66699 50 -15
s25.5 -12.166 34.5 -20.499s15.5 -18.666 19.5 -30.999s6 -27.5 6 -45.5c-0.666992 -26 -6 -60 -16 -102l-11 -48c-4 -17.333 -7.33301 -32.666 -10 -45.999s-4 -25 -4 -35c0 -21.333 7.5 -36.833 22.5 -46.5s42.167 -14.834 81.5 -15.501z" />
    <glyph glyph-name="bar" unicode="|" horiz-adv-x="500" 
d="M222 -234h-52l231 998h52z" />
    <glyph glyph-name="braceright" unicode="}" horiz-adv-x="500" 
d="M562 348c-33.333 -4 -60.1621 -9.66602 -80.4951 -16.999s-36.5 -16.666 -48.5 -27.999s-21 -25 -27 -41s-11.333 -34.333 -16 -55l-24 -105c-10 -44 -23.5 -77.5 -40.5 -100.5s-37.333 -39.5 -61 -49.5s-50.167 -15.5 -79.5 -16.5s-61 -1.5 -95 -1.5l6 23
c30 0.666992 54 3.83398 72 9.50098s32.167 14.167 42.5 25.5s18.333 25.833 24 43.5s11.5 39.167 17.5 64.5l11 48c9.33301 40 19 72.5 29 97.5s22.333 45 37 60s32.167 26.5 52.5 34.5s45.166 15.333 74.499 22c-22.667 5.33301 -41.334 11.5 -56.001 18.5
s-26.334 14.667 -35.001 23s-14.834 17.5 -18.501 27.5s-5.5 21 -5.5 33c0 14 1.66699 29.5 5 46.5s7.66602 35.833 12.999 56.5l11 47c4.66699 18 8.33398 34.167 11.001 48.5s4 27.166 4 38.499c0 22 -7.5 38 -22.5 48s-41.5 16.333 -79.5 19l5 23
c30.667 -1.33301 58.667 -2.66602 84 -3.99902s47.166 -4.83301 65.499 -10.5s32.666 -14.834 42.999 -27.501s15.5 -30.334 15.5 -53.001c0 -21.333 -3.33301 -46.333 -10 -75l-24 -105c-3.33301 -12 -5.5 -23 -6.5 -33s-1.5 -19 -1.5 -27
c0 -18.667 3.16699 -32.834 9.5 -42.501s14.833 -17 25.5 -22s22.834 -8.5 36.501 -10.5l42.5 -6z" />
    <glyph glyph-name="asciitilde" unicode="~" horiz-adv-x="647" 
d="M628 752c-7.33301 -12 -16.834 -24.3359 -28.501 -37.0029s-25.167 -24.167 -40.5 -34.5s-32.333 -18.833 -51 -25.5s-39 -10 -61 -10c-23.333 0 -46.166 3.16699 -68.499 9.5s-44.5 13.333 -66.5 21s-44 14.667 -66 21s-44.333 9.5 -67 9.5
c-49.333 0 -96.666 -25.667 -141.999 -77l-24 15c34 42 65.667 71.667 95 89s61.666 26 96.999 26c24 0 46.833 -3.16699 68.5 -9.5s43 -13.166 64 -20.499s42.167 -14.166 63.5 -20.499s44 -9.5 68 -9.5c24.667 0 48 5.33301 70 16s44.667 28.334 68 53.001z" />
    <glyph glyph-name="exclamdown" unicode="&#xa1;" horiz-adv-x="360" 
d="M469 680c-3.33301 -16 -9.66699 -31 -19 -45s-20.5 -26.167 -33.5 -36.5s-27.333 -18.5 -43 -24.5s-31.5 -9 -47.5 -9c-28.667 0 -51.667 8.5 -69 25.5s-26 38.5 -26 64.5c0 18.667 4.33301 36.5 13 53.5s20 31.833 34 44.5s29.833 22.834 47.5 30.501
s35.5 11.5 53.5 11.5c28 0 50.5 -8.5 67.5 -25.5s25.5 -38.167 25.5 -63.5c0 -8.66699 -1 -17.334 -3 -26.001zM349.999 138c-4 -18 -10.998 -35.8359 -20.998 -53.5029s-22.333 -33.334 -37 -47.001s-31.167 -24.667 -49.5 -33s-37.833 -12.5 -58.5 -12.5
c-37.333 0 -64.666 9.83301 -81.999 29.5s-26 44.834 -26 75.501c0 7.33301 0.333008 14.666 1 21.999s2 14.666 4 21.999c5.33301 24 13.666 45.5 24.999 64.5s24.166 37.167 38.499 54.5s29.5 34.333 45.5 51s31.5 34.834 46.5 54.501s28.667 41.334 41 65.001
s22.166 50.834 29.499 81.501c2 12 5 18 9 18c2 0 3 -2.66699 3 -8c0 -16.667 -1.83301 -32.334 -5.5 -47.001s-5.5 -28.667 -5.5 -42c0 -24.667 2.5 -47.167 7.5 -67.5s10.5 -39.666 16.5 -57.999s11.5 -36.666 16.5 -54.999s7.5 -38.166 7.5 -59.499
c0 -16.667 -2 -35 -6 -55z" />
    <glyph glyph-name="cent" unicode="&#xa2;" horiz-adv-x="616" 
d="M682 379c-8 -34 -21.1699 -66.335 -39.5029 -97.002s-41.166 -57.667 -68.499 -81s-58.666 -41.833 -93.999 -55.5s-73.666 -20.5 -114.999 -20.5c-33.333 0 -63.666 5.33301 -90.999 16l-83 -141h-14l85 145c-42.667 19.333 -75.334 48.833 -98.001 88.5
s-34 84.167 -34 133.5c0 48 11 95.833 33 143.5s51.5 90.667 88.5 129s79.5 69.333 127.5 93s98.333 35.5 151 35.5c36 0 66.667 -5 92 -15l76 128h16l-79 -133c26.667 -13.333 46.834 -30.666 60.501 -51.999s20.5 -45 20.5 -71c0 -28.667 -5.5 -53.5 -16.5 -74.5
s-24.833 -38.5 -41.5 -52.5s-34.667 -24.333 -54 -31s-37.333 -10 -54 -10c-15.333 0 -28.833 2.5 -40.5 7.5s-22.167 11.833 -31.5 20.5l-153 -259c2.66699 -28.667 10.167 -49.167 22.5 -61.5s31.166 -18.5 56.499 -18.5c27.333 0 54.833 5.66699 82.5 17
s53.5 27.333 77.5 48s45 45.334 63 74.001s31 60 39 94h16zM674.997 669.998c0 1.33301 0.167969 2.33301 0.500977 3s0.5 1.66699 0.5 3c0 9.33301 -4 19.5 -12 30.5s-20.333 20.167 -37 27.5l-26 -42c12 -0.666992 22 -2.66699 30 -6s14.5 -7 19.5 -11
s8.83301 -7.5 11.5 -10.5s4.66699 -4.5 6 -4.5c2.66699 0 4.16699 0.5 4.5 1.5s1.16602 3.83301 2.49902 8.5zM613.998 738.998c-6.66699 2 -13.6699 3.66602 -21.0029 4.99902s-15.666 2 -24.999 2c-26 0 -49.333 -5.83301 -70 -17.5s-39.5 -29.667 -56.5 -54
s-32.5 -55.833 -46.5 -94.5s-27.333 -85 -40 -139c-9.33301 -42 -16.666 -78.5 -21.999 -109.5s-8.33301 -58.167 -9 -81.5l146 245c-5.33301 7.33301 -9.66602 15.833 -12.999 25.5s-5 19.5 -5 29.5c0 18.667 4.16699 36.334 12.5 53.001s19 31.167 32 43.5
s27.5 22.333 43.5 30s31.333 12.5 46 14.5z" />
    <glyph glyph-name="sterling" unicode="&#xa3;" horiz-adv-x="630" 
d="M643 268c-3.33301 -15.333 -8.50098 -32.9951 -15.501 -52.9951s-15.667 -40.667 -26 -62s-22.333 -42.166 -36 -62.499s-28.667 -38.5 -45 -54.5s-34 -29 -53 -39s-39.167 -15 -60.5 -15c-17.333 0 -32.5 2.66699 -45.5 8s-24.667 12.166 -35 20.499
s-20.166 17.666 -29.499 27.999s-18.333 20.833 -27 31.5c-27.333 -25.333 -54.833 -45.166 -82.5 -59.499s-54.167 -21.5 -79.5 -21.5c-26 0 -46 6.5 -60 19.5s-21 28.167 -21 45.5c0 13.333 4 26.666 12 39.999s20.167 25.333 36.5 36s36.833 19.334 61.5 26.001
s53.667 10 87 10h17c5.33301 0 10.666 -0.333008 15.999 -1c2 18 3 35.667 3 53c0 29.333 -1.83301 57.333 -5.5 84s-6.83398 54 -9.50098 82h-86l4 15h81c-0.666992 6 -1.16699 12.167 -1.5 18.5s-0.5 12.833 -0.5 19.5c0 49.333 9 96.166 27 140.499
s42.167 83.333 72.5 117s65.5 60.334 105.5 80.001s82 29.5 126 29.5c46.667 0 81 -10 103 -30s33 -46 33 -78c0 -17.333 -3.16699 -34.5 -9.5 -51.5s-15.166 -32.333 -26.499 -46s-24.666 -24.834 -39.999 -33.501s-32.333 -13 -51 -13
c-23.333 0 -42.166 7.16699 -56.499 21.5s-21.5 31.5 -21.5 51.5c0 14 3.16699 27.667 9.5 41s14.833 25.166 25.5 35.499s22.834 18.666 36.501 24.999s28.167 9.5 43.5 9.5c13.333 0 24.166 -2.66699 32.499 -8s13.833 -8 16.5 -8c6 0 9 4.33301 9 13
c0 10.667 -6.83301 21.667 -20.5 33s-31.834 17 -54.501 17c-14.667 0 -29.167 -3 -43.5 -9s-27.666 -14.667 -39.999 -26s-23.333 -25.333 -33 -42s-16.834 -35.667 -21.501 -57c-4.66699 -19.333 -7.66699 -39 -9 -59s-2.33301 -40.333 -3 -61s-1.5 -41.834 -2.5 -63.501
s-3.5 -43.834 -7.5 -66.501h149l-4 -15h-148c-11.333 -44 -25 -85.333 -41 -124s-35.667 -74.667 -59 -108c15.333 -3.33301 31.833 -6.5 49.5 -9.5s41.167 -4.5 70.5 -4.5c42 0 78.5 10 109.5 30s51.833 53 62.5 99zM241.999 100.005
c-12.667 10.667 -26.332 19.502 -40.999 26.502s-32.334 10.5 -53.001 10.5c-32 0 -57.5 -8.33301 -76.5 -25s-28.5 -35.667 -28.5 -57c0 -14.667 5.66699 -26.834 17 -36.501s28.333 -14.5 51 -14.5c12 0 24.167 1.5 36.5 4.5s24.333 8.16699 36 15.5
s22.5 17.166 32.5 29.499s18.667 27.833 26 46.5z" />
    <glyph glyph-name="yen" unicode="&#xa5;" horiz-adv-x="854" 
d="M1022 776h-26c-16 0 -33 -5 -51 -15s-36.167 -22.667 -54.5 -38s-36.333 -33 -54 -53s-34.167 -40 -49.5 -60l-137 -182l-15 -67h138l-4 -15h-138l-18 -80h138l-4 -15h-138l-42 -182c-1.33301 -3.33301 -2 -6.66602 -2 -9.99902v-10c0 -24 11.333 -36 34 -36h49l-3 -13
h-425l3 13h46c14.667 0 28.5 6.16699 41.5 18.5s21.5 26.833 25.5 43.5l40 176h-146l4 15h146l18 80h-146l4 15h146l11 50l-135 320c-5.33301 13.333 -13.166 24.166 -23.499 32.499s-21.833 12.5 -34.5 12.5h-21l2 12h458l-2 -12h-40c-13.333 0 -25.333 -2.5 -36 -7.5
s-16 -13.833 -16 -26.5c0 -4.66699 1 -10 3 -16l78 -283l135 178c14.667 18.667 25.167 35.834 31.5 51.501s9.5 30.167 9.5 43.5c0 19.333 -6.33301 34.166 -19 44.499s-27.334 15.5 -44.001 15.5h-20l2 12h283z" />
    <glyph glyph-name="section" unicode="&#xa7;" horiz-adv-x="398" 
d="M458 375c-3.33301 -13.333 -9.16699 -27.166 -17.5 -41.499s-19.5 -27.333 -33.5 -39s-31.167 -21.167 -51.5 -28.5s-43.833 -11 -70.5 -11c44.667 -42 67 -82 67 -120c0 -14.667 -3.66699 -30.667 -11 -48s-18.666 -33.333 -33.999 -48s-35 -26.834 -59 -36.501
s-52.667 -14.5 -86 -14.5c-20 0 -37.167 2.16699 -51.5 6.5s-25.833 10.166 -34.5 17.499s-15 15.833 -19 25.5s-6 19.5 -6 29.5c0 2 0.666992 7 2 15s4.16602 16.5 8.49902 25.5s10.5 17.167 18.5 24.5s18.667 11 32 11c2.66699 0 6.16699 -0.333008 10.5 -1
s8.5 -2 12.5 -4s7.5 -5 10.5 -9s4.5 -9.33301 4.5 -16c0 -10 -2.33301 -18.833 -7 -26.5s-9.66699 -14.5 -15 -20.5s-10.333 -11.167 -15 -15.5s-7 -8.5 -7 -12.5c0 -6 5.5 -12.5 16.5 -19.5s27.167 -10.5 48.5 -10.5c8 0 18.5 1.16699 31.5 3.5s25.667 6.83301 38 13.5
s22.833 16.167 31.5 28.5s13 28.833 13 49.5c0.666992 14 -3.5 28.333 -12.5 43s-24.833 34.667 -47.5 60l-70 77c-12 13.333 -24.5 30.333 -37.5 51s-19.5 42.667 -19.5 66c0 12.667 3.5 27.334 10.5 44.001s17.5 32.5 31.5 47.5s32 27.5 54 37.5s48 15 78 15
c-19.333 21.333 -35.166 40.833 -47.499 58.5s-18.5 37.167 -18.5 58.5c0 24 5.33301 45.667 16 65s24.667 35.5 42 48.5s36.5 23 57.5 30s42.167 10.5 63.5 10.5c14 0 27.5 -2 40.5 -6s24.5 -9.66699 34.5 -17s18 -16.166 24 -26.499s9 -21.5 9 -33.5
c0 -19.333 -6.5 -36.166 -19.5 -50.499s-29.167 -21.5 -48.5 -21.5c-10.667 0 -19.334 3 -26.001 9s-10 13 -10 21c0 8.66699 2.16699 15.5 6.5 20.5s9.33301 9.66699 15 14s11.167 9.33301 16.5 15s9.33301 13.5 12 23.5v3c0 7.33301 -6.66699 13.666 -20 18.999
s-27.333 8 -42 8c-10 0 -21 -1.33301 -33 -4s-23 -7.83398 -33 -15.501s-18.5 -17.834 -25.5 -30.501s-10.5 -29 -10.5 -49c0 -12.667 4 -26.667 12 -42s24.333 -35.666 49 -60.999l71 -72c36.667 -38 54.667 -76.333 54 -115c0 -9.33301 -1 -19 -3 -29zM396.999 357
c0 1.33301 0.168945 2.83203 0.501953 4.49902s0.5 3.16699 0.5 4.5c0 16 -4.33301 32.333 -13 49s-18.834 32.167 -30.501 46.5s-23.334 27 -35.001 38s-20.5 18.833 -26.5 23.5c-17.333 0 -33.666 -1.83301 -48.999 -5.5s-28.833 -8.66699 -40.5 -15
s-20.834 -14.166 -27.501 -23.499s-10 -20 -10 -32s4.16699 -26.833 12.5 -44.5s18.166 -35 29.499 -52s22.833 -32.333 34.5 -46s20.834 -22.5 27.501 -26.5c9.33301 0 20.5 1 33.5 3s25.833 6 38.5 12s24 14.167 34 24.5s17 23.5 21 39.5z" />
    <glyph glyph-name="dieresis" unicode="&#xa8;" horiz-adv-x="318" 
d="M279 743c-3.33301 -12.667 -10.834 -23.501 -22.501 -32.501s-24.5 -13.5 -38.5 -13.5c-11.333 0 -20.666 3.33301 -27.999 10s-11 15.334 -11 26.001c0 14.667 6.33301 27.667 19 39s26.667 17 42 17c12 0 21.667 -3.5 29 -10.5s11 -15.5 11 -25.5
c0 -4.66699 -0.333008 -8 -1 -10zM136.999 742.999c-3.33301 -12.667 -10.833 -23.501 -22.5 -32.501s-24.167 -13.5 -37.5 -13.5c-11.333 0 -20.666 3.33301 -27.999 10s-11 15.334 -11 26.001c0 14.667 6.33301 27.667 19 39s26.667 17 42 17
c11.333 0 20.666 -3.5 27.999 -10.5s11 -15.5 11 -25.5c0 -4.66699 -0.333008 -8 -1 -10z" />
    <glyph glyph-name="copyright" unicode="&#xa9;" horiz-adv-x="914" 
d="M951 394c-12.667 -55.333 -35.1689 -107.334 -67.502 -156.001s-70.833 -91 -115.5 -127s-93.667 -64.5 -147 -85.5s-107.666 -31.5 -162.999 -31.5c-47.333 0 -90.666 7.83301 -129.999 23.5s-73 37.334 -101 65.001s-49.667 60.334 -65 98.001s-23 78.834 -23 123.501
c0 43.333 6.66699 85.5 20 126.5s31.833 79.667 55.5 116s51.5 69.666 83.5 99.999s66.667 56.5 104 78.5s76.5 39.167 117.5 51.5s82.167 18.5 123.5 18.5c47.333 0 90.5 -7.83301 129.5 -23.5s72.5 -37.334 100.5 -65.001s49.667 -60.5 65 -98.5s23 -79.333 23 -124
c0 -30.667 -3.33301 -60.667 -10 -90zM933.998 393.999c6.66699 28.667 10.0039 57.666 10.0039 86.999c0 42.667 -7.33301 82 -22 118s-35.334 67.333 -62.001 94s-58.834 47.5 -96.501 62.5s-79.167 22.5 -124.5 22.5c-40 0 -79.5 -5.83301 -118.5 -17.5
s-76.333 -28 -112 -49s-68.834 -46 -99.501 -75s-57.334 -61 -80.001 -96s-40.334 -72.167 -53.001 -111.5s-19 -79.666 -19 -120.999c0 -42.667 7.33301 -82.167 22 -118.5s35.334 -67.666 62.001 -93.999s58.667 -47 96 -62s79 -22.5 125 -22.5
c52.667 0 104.667 10 156 30s98.5 47.333 141.5 82s79.833 75.167 110.5 121.5s52 96.166 64 149.499zM767.002 333.998c-6 -24.667 -16.165 -50.002 -30.498 -76.002s-32.5 -49.667 -54.5 -71s-47.833 -38.833 -77.5 -52.5s-62.5 -20.5 -98.5 -20.5
c-38 0 -72 5.16699 -102 15.5s-55.5 24.666 -76.5 42.999s-37 40.333 -48 66s-16.5 53.834 -16.5 84.501c0 30 5.16699 59.5 15.5 88.5s24.166 56.333 41.499 82s37.833 49.334 61.5 71.001s48.5 40.5 74.5 56.5s52.833 28.333 80.5 37s54.5 13 80.5 13
c18.667 0 34 -2.16699 46 -6.5s23 -9.16602 33 -14.499s20 -10.166 30 -14.499s21.667 -6.5 35 -6.5c10 0 18.5 1.83301 25.5 5.5s13.167 7.83398 18.5 12.501c5.33301 5.33301 10 11.333 14 18h4l-59 -255h-10l4 15c0.666992 2.66699 1.16699 5.66699 1.5 9
s0.5 7.66602 0.5 12.999c0 16 -2 36 -6 60s-11.167 47.5 -21.5 70.5s-24.333 42.667 -42 59s-39.834 24.5 -66.501 24.5c-18.667 0 -36.5 -6.83301 -53.5 -20.5s-33 -33 -48 -58s-28.667 -54.833 -41 -89.5s-23.5 -73.334 -33.5 -116.001
c-6 -25.333 -10.333 -48.333 -13 -69s-4 -39.667 -4 -57c0 -42 7.83301 -73.333 23.5 -94s38.167 -31 67.5 -31c26 0 51.5 5.66699 76.5 17s48 26.5 69 45.5s39.167 41 54.5 66s26.333 51.5 33 79.5h12z" />
    <glyph glyph-name="ordfeminine" unicode="&#xaa;" horiz-adv-x="653" 
d="M597 490c-3.33301 -8.66699 -8.33301 -18.498 -15 -29.498s-15.5 -21.333 -26.5 -31s-24.167 -17.834 -39.5 -24.501s-32.666 -10 -51.999 -10c-10 0 -20 1.33301 -30 4s-18.833 7 -26.5 13s-14 13.667 -19 23s-7.5 20.666 -7.5 33.999
c0 5.33301 0.166992 10.666 0.5 15.999s1.16602 11.333 2.49902 18c-6.66699 -16 -13.667 -30.667 -21 -44s-16.166 -25 -26.499 -35s-22.5 -17.667 -36.5 -23s-31 -8 -51 -8c-14.667 0 -28.834 2.5 -42.501 7.5s-25.667 12.667 -36 23s-18.666 23.333 -24.999 39
s-9.5 34.5 -9.5 56.5c0 36 7.5 70.833 22.5 104.5s34.167 63.667 57.5 90s48.833 47.5 76.5 63.5s54.167 24 79.5 24c20.667 0 37.334 -3.33301 50.001 -10s22 -17.667 28 -33l12 39h155l-80 -306c-2.66699 -8 -4.33398 -15 -5.00098 -21s-1 -11 -1 -15
c0 -6 1.16699 -10.667 3.5 -14s5.16602 -5 8.49902 -5c4 0 8.33301 2 13 6s9.16699 8.83301 13.5 14.5s8.33301 11.834 12 18.501s6.5 12.667 8.5 18zM440 731.002c0 14.667 -3.00195 27.334 -9.00195 38.001s-14 16 -24 16c-10.667 0 -21.167 -5.66699 -31.5 -17
s-20.166 -26 -29.499 -44s-18 -38 -26 -60s-15 -44.167 -21 -66.5s-10.667 -43.333 -14 -63s-5 -35.834 -5 -48.501c0 -19.333 3.33301 -33.333 10 -42s15 -13 25 -13c8.66699 0 17.834 6 27.501 18s19 27.5 28 46.5s17.833 40.167 26.5 63.5s16.167 46 22.5 68
s11.333 42.333 15 61s5.5 33 5.5 43zM92.998 348.002h464v12h-464v-12z" />
    <glyph glyph-name="guillemotleft" unicode="&#xab;" horiz-adv-x="471" 
d="M560 538l-147 -154l71 -159l-189 162zM391 538l-147 -151l71 -162l-189 162z" />
    <glyph glyph-name="registered" unicode="&#xae;" horiz-adv-x="516" 
d="M621 577c-7.33301 -32 -20.3301 -62 -38.9971 -90s-40.834 -52.5 -66.501 -73.5s-53.834 -37.5 -84.501 -49.5s-62 -18 -94 -18c-27.333 0 -52.333 4.5 -75 13.5s-42 21.333 -58 37s-28.333 34.334 -37 56.001s-13 45.5 -13 71.5c0 37.333 8.33301 73.166 25 107.499
s38.5 64.5 65.5 90.5s58 46.667 93 62s70.5 23 106.5 23c27.333 0 52.166 -4.5 74.499 -13.5s41.5 -21.5 57.5 -37.5s28.5 -34.833 37.5 -56.5s13.5 -45.5 13.5 -71.5c0 -16 -2 -33 -6 -51zM601.003 577c1.33301 8 2.50195 15.833 3.50195 23.5s1.5 15.167 1.5 22.5
c0 23.333 -4 45 -12 65s-19.333 37.333 -34 52s-32.334 26.167 -53.001 34.5s-43.334 12.5 -68.001 12.5c-33.333 0 -65.833 -7 -97.5 -21s-60 -33 -85 -57s-45 -51.5 -60 -82.5s-22.5 -63.5 -22.5 -97.5c0 -23.333 4 -45 12 -65s19.333 -37.333 34 -52
s32.334 -26 53.001 -34s43.667 -12 69 -12c28.667 0 57.167 5.5 85.5 16.5s54.166 26 77.499 45s43.5 41.333 60.5 67s28.833 53.167 35.5 82.5zM527.005 538c-7.33301 -32.667 -16.167 -56.666 -26.5 -71.999s-28.833 -23 -55.5 -23c-18 0 -31 4.33301 -39 13
s-12 19 -12 31c0 11.333 2.83301 22.833 8.5 34.5s8.5 26.167 8.5 43.5c0 10 -6 15 -18 15h-18l-24 -105c-0.666992 -1.33301 -1 -3.33301 -1 -6c0 -4.66699 2.33301 -7 7 -7h21l-3 -15h-145l3 15h19c8 0 13 4.33301 15 13l49 213c0.666992 2.66699 1 5.66699 1 9
c0 4 -2.33301 6 -7 6h-22l3 15h131c37.333 0 64 -4.83301 80 -14.5s24 -22.834 24 -39.501c0 -10.667 -2.33301 -20.167 -7 -28.5s-10.5 -15.5 -17.5 -21.5s-14.667 -11.167 -23 -15.5s-16.5 -7.83301 -24.5 -10.5c10 -3.33301 19.5 -8.33301 28.5 -15
s13.5 -16.667 13.5 -30v-6.5c0 -2.33301 -0.333008 -4.5 -1 -6.5l-11 -47c-0.666992 -2.66699 -1 -5.33398 -1 -8.00098c0 -2 0.666992 -3 2 -3c6 0 11 6.33301 15 19s8.33301 28.334 13 47.001h14zM438.004 649.001l3.49902 18.999c1 5.33301 1.5 10 1.5 14
c0 10 -2.16699 16 -6.5 18s-9.5 3 -15.5 3h-17l-25 -107h17c5.33301 0 10 0.333008 14 1s7.66699 2.83398 11 6.50098s6.33301 9 9 16s5.33398 16.833 8.00098 29.5z" />
    <glyph glyph-name="macron" unicode="&#xaf;" horiz-adv-x="333" 
d="M283 735h-244l12 52h244z" />
    <glyph glyph-name="degree" unicode="&#xb0;" horiz-adv-x="410" 
d="M531 616c-6 -24.667 -16.167 -47.835 -30.5 -69.502s-31.5 -40.667 -51.5 -57s-42 -29.166 -66 -38.499s-48.333 -14 -73 -14c-21.333 0 -40.666 3.5 -57.999 10.5s-32.333 16.667 -45 29s-22.334 26.833 -29.001 43.5s-10 35 -10 55c0 29.333 6.5 57.333 19.5 84
s30 50 51 70s45 36 72 48s54.5 18 82.5 18c21.333 0 40.833 -3.5 58.5 -10.5s32.667 -16.667 45 -29s22 -27 29 -44s10.5 -35.5 10.5 -55.5c0 -11.333 -1.66699 -24.666 -5 -39.999zM484 614.999c2 10 3.00195 19.999 3.00195 29.999c0 30 -9.5 54.667 -28.5 74
s-44.5 29 -76.5 29c-20.667 0 -40.834 -4.5 -60.501 -13.5s-37.334 -21 -53.001 -36s-28.334 -32.167 -38.001 -51.5s-14.5 -39.666 -14.5 -60.999c0 -30 9.5 -54.667 28.5 -74s44.5 -29 76.5 -29c18 0 36 3.5 54 10.5s34.333 16.5 49 28.5s27.334 26 38.001 42s18 33 22 51
z" />
    <glyph glyph-name="twosuperior" unicode="&#xb2;" horiz-adv-x="362" 
d="M396 603c-5.33301 -21.333 -12.1689 -41.5 -20.502 -60.5s-18.333 -35.833 -30 -50.5s-25 -26.167 -40 -34.5s-31.5 -12.5 -49.5 -12.5c-18.667 0 -32.834 3.66699 -42.501 11s-18 15.333 -25 24s-14.167 16.667 -21.5 24s-17.666 11 -30.999 11
s-25.833 -5.33301 -37.5 -16s-17.5 -23.667 -17.5 -39v-2h-8c0 0.666992 -0.166992 1.5 -0.5 2.5s-0.5 2.5 -0.5 4.5c0 20.667 3.83301 39.5 11.5 56.5s17 32.333 28 46s23 25.334 36 35.001s25.167 17.167 36.5 22.5l28 12.5c12.667 5.66699 26 13.667 40 24
s27.167 24 39.5 41s21.5 38.5 27.5 64.5c1.33301 7.33301 2.5 14.166 3.5 20.499s1.5 12.166 1.5 17.499c0 19.333 -4.5 32.833 -13.5 40.5s-20.167 11.5 -33.5 11.5c-8.66699 0 -18.334 -2 -29.001 -6s-20.667 -9.16699 -30 -15.5s-17.166 -13.333 -23.499 -21
s-9.5 -15.167 -9.5 -22.5c0 -2 0.666992 -3 2 -3s5.83301 2.16699 13.5 6.5s16.5 6.5 26.5 6.5c13.333 0 23.333 -3.83301 30 -11.5s10 -17.167 10 -28.5c0 -17.333 -6.83301 -32.5 -20.5 -45.5s-30.167 -19.5 -49.5 -19.5c-15.333 0 -26.666 4.5 -33.999 13.5
s-11 20.167 -11 33.5c0 12.667 3.33301 26.167 10 40.5s16.667 27.666 30 39.999s29.666 22.666 48.999 30.999s42 12.5 68 12.5c38 0 67.333 -8 88 -24s31 -36.667 31 -62c0 -19.333 -4 -36.166 -12 -50.499s-18.333 -26.666 -31 -36.999s-26.667 -19 -42 -26
s-30.166 -12.667 -44.499 -17s-27.5 -7.66602 -39.5 -9.99902s-20.667 -4.16602 -26 -5.49902c-40 -11.333 -72.833 -29.333 -98.5 -54s-42.167 -52.334 -49.5 -83.001c0 -1.33301 -0.166992 -2.33301 -0.5 -3s-0.5 -1.66699 -0.5 -3c0 -0.666992 0.333008 -1 1 -1
c0.666992 1.33301 3.66699 5.5 9 12.5s13.333 14.333 24 22s24.334 14.667 41.001 21s36.334 9.5 59.001 9.5c12.667 0 23 -0.333008 31 -1s15.5 -1.5 22.5 -2.5s13.833 -1.83301 20.5 -2.5s15 -1 25 -1c22 0 39.167 5.33301 51.5 16s20.166 23 23.499 37h4z" />
    <glyph glyph-name="threesuperior" unicode="&#xb3;" horiz-adv-x="367" 
d="M392 569c-4.66699 -19.333 -13.3281 -36.8301 -25.9951 -52.4971s-27.834 -29 -45.501 -40s-37 -19.5 -58 -25.5s-42.167 -9 -63.5 -9c-20.667 0 -38.167 2.33301 -52.5 7s-26 10.834 -35 18.501s-15.5 16.5 -19.5 26.5s-6 20 -6 30c0 10.667 2 21.167 6 31.5
s9.5 19.5 16.5 27.5s15.333 14.5 25 19.5s20.5 7.5 32.5 7.5c13.333 0 23.666 -4 30.999 -12s11 -17.667 11 -29c0 -18.667 -6.83301 -34.5 -20.5 -47.5s-29.167 -19.5 -46.5 -19.5c-8.66699 0 -15.334 1.33301 -20.001 4s-7.33398 4 -8.00098 4
c-1.33301 0 -2.5 -0.5 -3.5 -1.5s-1.5 -3.83301 -1.5 -8.5c0 -10.667 6.16699 -21.667 18.5 -33s31.166 -17 56.499 -17c12 0 23 1.33301 33 4s18.833 8 26.5 16s14.667 19.167 21 33.5s12.166 33.166 17.499 56.499c2.66699 11.333 4.66699 21.666 6 30.999
s2 17.666 2 24.999c0 23.333 -5.16699 38.5 -15.5 45.5s-21.833 10.5 -34.5 10.5c-5.33301 0 -10.333 -0.5 -15 -1.5s-7.66699 -1.5 -9 -1.5s-2 1.33301 -2 4c0 4.66699 1.66699 7 5 7s6.33301 -0.5 9 -1.5s7.66699 -1.5 15 -1.5c18.667 0 32.5 6.66699 41.5 20
s17.5 37.666 25.5 72.999c4 14.667 6 28 6 40c0 30.667 -12 46 -36 46c-8 0 -16 -1.33301 -24 -4s-15.167 -5.83398 -21.5 -9.50098s-11.5 -7.5 -15.5 -11.5s-6 -7.33301 -6 -10c0 -2 1 -3 3 -3c1.33301 0 3.83301 0.666992 7.5 2s7.83398 2 12.501 2
c11.333 0 20.166 -3.5 26.499 -10.5s9.5 -16.167 9.5 -27.5c0 -8.66699 -1.83301 -16.834 -5.5 -24.501s-8.66699 -14.5 -15 -20.5s-13.5 -10.667 -21.5 -14s-16 -5 -24 -5c-14 0 -24.5 4 -31.5 12s-10.5 18 -10.5 30c0 10.667 2.83301 21.834 8.5 33.501s14 22.5 25 32.5
s24.833 18.333 41.5 25s36 10 58 10c35.333 0 63.333 -7.5 84 -22.5s31 -33.5 31 -55.5c0 -16 -4.33301 -30.167 -13 -42.5s-18.834 -23 -30.501 -32s-23.167 -16.167 -34.5 -21.5s-19.666 -8.66602 -24.999 -9.99902l-1 -3c8.66699 -2.66699 18.167 -6.33398 28.5 -11.001
s19.833 -10.5 28.5 -17.5s15.834 -15.333 21.501 -25s8.5 -20.834 8.5 -33.501c0 -3.33301 -0.166992 -6.66602 -0.5 -9.99902s-0.833008 -6.66602 -1.5 -9.99902z" />
    <glyph glyph-name="acute" unicode="&#xb4;" horiz-adv-x="205" 
d="M193 759c-4 -16 -12.498 -28.8301 -25.498 -38.4971s-27.667 -17.834 -44 -24.501s-32.833 -12.834 -49.5 -18.501s-30.334 -12.834 -41.001 -21.501l-19 -15l-5 7l19 15c11.333 8.66699 21.666 20.667 30.999 36l29 45.5c10 15 21 28 33 39s26 16.5 42 16.5
c9.33301 0 16.833 -3.16699 22.5 -9.5s8.5 -13.833 8.5 -22.5c0 -4 -0.333008 -7 -1 -9z" />
    <glyph glyph-name="paragraph" unicode="&#xb6;" horiz-adv-x="500" 
d="M617 688h-63l-158 -688h-39l158 688h-91l-158 -688h-41l88 383c-48.667 0.666992 -86 11.5 -112 32.5s-39 50.833 -39 89.5c0 20.667 4.16699 43.667 12.5 69s21.833 49 40.5 71s43 40.5 73 55.5s66.667 22.5 110 22.5h227z" />
    <glyph glyph-name="periodcentered" unicode="&#xb7;" horiz-adv-x="312" 
d="M375 419c-4 -16 -10.667 -31.167 -20 -45.5s-20.833 -26.833 -34.5 -37.5s-28.5 -19.167 -44.5 -25.5s-32.333 -9.5 -49 -9.5c-29.333 0 -52.833 8.66699 -70.5 26s-26.5 39.333 -26.5 66c0 18.667 4.33301 36.834 13 54.501s20.167 33 34.5 46s30.5 23.5 48.5 31.5
s36.333 12 55 12c29.333 0 52.833 -8.83301 70.5 -26.5s26.5 -39.5 26.5 -65.5c0 -8.66699 -1 -17.334 -3 -26.001z" />
    <glyph glyph-name="cedilla" unicode="&#xb8;" horiz-adv-x="275" 
d="M251 -115c-2.66699 -11.333 -8.99902 -21.833 -18.999 -31.5s-22.167 -18 -36.5 -25s-29.833 -12.667 -46.5 -17s-32.334 -6.5 -47.001 -6.5c-15.333 0 -28.333 1.33301 -39 4s-19.5 5.5 -26.5 8.5s-12 6 -15 9s-4.83301 5.16699 -5.5 6.5l7 11
c4 -4 12.333 -9.33301 25 -16s28.667 -10 48 -10s36.333 3.66699 51 11s22 18 22 32c0 11.333 -7.16699 19.666 -21.5 24.999s-30.833 8 -49.5 8c-20 0 -33.667 -0.666992 -41 -2s-11.666 -2 -12.999 -2c-2 0 -3 1.66699 -3 5c1.33301 2.66699 2.33301 4.33398 3 5.00098
l100 100h16l-51 -51c6.66699 0.666992 13.167 1 19.5 1h20.5c14 0 27.167 -1.33301 39.5 -4s23.166 -6.5 32.499 -11.5s16.833 -11 22.5 -18s8.5 -14.5 8.5 -22.5c0 -4 -0.333008 -7 -1 -9z" />
    <glyph glyph-name="onesuperior" unicode="&#xb9;" horiz-adv-x="260" 
d="M255 459h-187.001l1 6h15c8.66699 0 15.334 2.66699 20.001 8s8 12 10 20l63 272c1.33301 6.66699 2 10.667 2 12c0 7.33301 -2 12.333 -6 15s-8.66699 4 -14 4h-14l1 6c8 0 19.5 2.5 34.5 7.5s30.5 11 46.5 18s30.833 14.333 44.5 22s23.167 14.167 28.5 19.5l-86 -370
c-0.666992 -2.66699 -1 -6 -1 -10c0 -8 2 -14 6 -18s8.33301 -6 13 -6h24z" />
    <glyph glyph-name="ordmasculine" unicode="&#xba;" horiz-adv-x="593" 
d="M561 609c-6.66699 -28.667 -18.168 -55.498 -34.501 -80.498s-35.666 -46.833 -57.999 -65.5s-47.333 -33.334 -75 -44.001s-55.834 -16 -84.501 -16c-25.333 0 -48.166 4 -68.499 12s-37.5 19.167 -51.5 33.5s-24.667 31.333 -32 51s-11 40.834 -11 63.501
c0 33.333 7.16699 65 21.5 95s33.5 56.5 57.5 79.5s51.5 41.333 82.5 55s62.833 20.5 95.5 20.5c25.333 0 48 -4 68 -12s37 -19.167 51 -33.5s24.833 -31.333 32.5 -51s11.5 -40.834 11.5 -63.501c0 -12.667 -1.66699 -27.334 -5 -44.001zM405.999 604.002l21.999 94.501
c6 26.333 9 47.833 9 64.5c0 28 -11.333 42 -34 42c-10.667 0 -20 -2.83301 -28 -8.5s-15.5 -15.834 -22.5 -30.501s-14.167 -35 -21.5 -61s-15.666 -59 -24.999 -99c-9.33301 -38.667 -16.166 -70.5 -20.499 -95.5s-6.5 -44.5 -6.5 -58.5
c0 -17.333 2.83301 -28.333 8.5 -33s13.5 -7 23.5 -7s18.833 2.66699 26.5 8s15 15 22 29s14.167 33.5 21.5 58.5s15.666 57.167 24.999 96.5zM98.998 348.003h444v12h-444v-12z" />
    <glyph glyph-name="guillemotright" unicode="&#xbb;" horiz-adv-x="464" 
d="M515 376l-265 -151l147 153l-71 160zM346 376l-265 -151l147 153l-71 160z" />
    <glyph glyph-name="onequarter" unicode="&#xbc;" horiz-adv-x="772" 
d="M782 799l-659 -799h-19l657 799h21zM798 222l-37 -68.998h-70l-26 -113c-0.666992 -2.66699 -1.16699 -4.83398 -1.5 -6.50098s-0.5 -3.5 -0.5 -5.5c0 -13.333 9.33301 -20 28 -20h21l-1 -7h-258l1 7h31c26 0 42 12.333 48 37l25 108h-178l293 360h101l-78 -337h39
c8.66699 0 17.5 2.66699 26.5 8s16.5 13.666 22.5 24.999l6 14zM623 437.002l-214 -261h154zM327 339.002l-217.998 0.000976562l1 7h18c9.33301 0 17.166 3.16699 23.499 9.5s10.5 14.166 12.5 23.499l73 318c1.33301 6.66699 2 11.334 2 14.001
c0 8 -2.16699 13.667 -6.5 17s-9.83301 5 -16.5 5h-17l1 6c9.33301 0 22.833 2.83301 40.5 8.5s35.667 12.667 54 21s35.5 17 51.5 26s27.333 16.833 34 23.5l-99 -432c-1.33301 -6.66699 -2 -11.334 -2 -14.001c0 -8.66699 2.16699 -15.167 6.5 -19.5
s9.16602 -6.5 14.499 -6.5h28z" />
    <glyph glyph-name="onehalf" unicode="&#xbd;" horiz-adv-x="893" 
d="M824 799l-659 -799h-19l657 799h21zM354 339l-217.998 0.000976562l1 7h18c9.33301 0 17.166 3.16699 23.499 9.5s10.5 14.166 12.5 23.499l73 318c1.33301 6.66699 2 11.334 2 14.001c0 8 -2.16699 13.667 -6.5 17s-9.83301 5 -16.5 5h-17l1 6
c9.33301 0 22.833 2.83301 40.5 8.5s35.667 12.667 54 21s35.5 17 51.5 26s27.333 16.833 34 23.5l-99 -432c-1.33301 -6.66699 -2 -11.334 -2 -14.001c0 -8.66699 2.16699 -15.167 6.5 -19.5s9.16602 -6.5 14.499 -6.5h28zM869.002 174.001
c-6 -27.333 -14.3359 -53.002 -25.0029 -77.002s-23.5 -45.333 -38.5 -64s-32.167 -33.334 -51.5 -44.001s-40.333 -16 -63 -16c-24 0 -42.167 4.66699 -54.5 14s-23 19.5 -32 30.5s-18 21.167 -27 30.5s-22.167 14 -39.5 14c-8 0 -16.167 -1.83301 -24.5 -5.5
s-15.833 -8.66699 -22.5 -15s-12.167 -13.666 -16.5 -21.999s-6.5 -17.166 -6.5 -26.499c0 -1.33301 0.166992 -2.16602 0.5 -2.49902s0.5 -0.833008 0.5 -1.5h-11c-0.666992 1.33301 -1 4.66602 -1 9.99902c0 26 4.83301 49.833 14.5 71.5s21.5 41.167 35.5 58.5
s29.333 32 46 44s32 21.667 46 29c6.66699 3.33301 19.667 9.33301 39 18s39.333 21.667 60 39s39 39.833 55 67.5s24 62.167 24 103.5c0 24.667 -5.66699 42 -17 52s-25.666 15 -42.999 15c-11.333 0 -23.666 -2.5 -36.999 -7.5s-26 -11.5 -38 -19.5s-22 -17 -30 -27
s-12 -20 -12 -30c0 -1.33301 0.666992 -2 2 -2c2 0 7.83301 2.66699 17.5 8s21.167 8 34.5 8c17.333 0 30 -5.16699 38 -15.5s12 -22.5 12 -36.5c0 -10.667 -2.33301 -20.834 -7 -30.501s-11 -18.334 -19 -26.001s-17.5 -13.667 -28.5 -18s-22.5 -6.5 -34.5 -6.5
c-19.333 0 -33.5 5.5 -42.5 16.5s-13.5 24.833 -13.5 41.5c0 16 4.16699 33.333 12.5 52s20.833 35.834 37.5 51.501s37.334 28.834 62.001 39.501s53.667 16 87 16c48 0 85.333 -10.167 112 -30.5s40 -46.5 40 -78.5c0 -25.333 -5.16699 -47.166 -15.5 -65.499
s-23.5 -34 -39.5 -47s-33.833 -23.833 -53.5 -32.5s-38.667 -15.667 -57 -21s-35 -9.5 -50 -12.5s-26.167 -5.5 -33.5 -7.5c-25.333 -6.66699 -48.333 -16 -69 -28s-39 -25.667 -55 -41s-29.333 -32 -40 -50s-18.334 -36.333 -23.001 -55c0 -2.66699 -0.333008 -4.5 -1 -5.5
s-1 -1.83301 -1 -2.5s0.333008 -1 1 -1c0.666992 1.33301 4.5 6.5 11.5 15.5s17.333 18.5 31 28.5s31 19 52 27s45.833 12 74.5 12c16 0 29.333 -0.5 40 -1.5s20.334 -2 29.001 -3l26 -3c8.66699 -1 19 -1.5 31 -1.5c28 0 50 6.83301 66 20.5s26 29.167 30 46.5h5z" />
    <glyph glyph-name="threequarters" unicode="&#xbe;" horiz-adv-x="862" 
d="M872 799l-659 -799h-19l657 799h21zM888 222l-37 -68.998h-70l-26 -113c-0.666992 -2.66699 -1.16699 -4.83398 -1.5 -6.50098s-0.5 -3.5 -0.5 -5.5c0 -13.333 9.33301 -20 28 -20h21l-1 -7h-258l1 7h31c26 0 42 12.333 48 37l25 108h-178l293 360h101l-78 -337h39
c8.66699 0 17.5 2.66699 26.5 8s16.5 13.666 22.5 24.999l6 14zM713 437.002l-214 -261h154zM487 478.002c-5.33301 -22.667 -15.3301 -43.0039 -29.9971 -61.0039s-32.167 -33.333 -52.5 -46s-42.666 -22.334 -66.999 -29.001s-48.5 -10 -72.5 -10s-44.167 2.66699 -60.5 8
s-29.833 12.5 -40.5 21.5s-18.334 19 -23.001 30s-7 22.5 -7 34.5s2.33301 24 7 36s11 22.667 19 32s17.667 16.833 29 22.5s23.666 8.5 36.999 8.5c15.333 0 27.166 -4.66699 35.499 -14s12.5 -20.666 12.5 -33.999c0 -21.333 -7.83301 -39.5 -23.5 -54.5
s-33.167 -22.5 -52.5 -22.5c-10 0 -17.667 1.66699 -23 5s-8.66602 5 -9.99902 5s-2.66602 -0.666992 -3.99902 -2s-2 -4.66602 -2 -9.99902c0 -12.667 7.16699 -25.334 21.5 -38.001s36.166 -19 65.499 -19c14 0 26.667 1.5 38 4.5s21.5 9 30.5 18s17.167 21.833 24.5 38.5
s14 38.334 20 65.001s9 48.334 9 65.001c0 27.333 -5.83301 44.833 -17.5 52.5s-24.834 11.5 -39.501 11.5c-6 0 -11.833 -0.5 -17.5 -1.5s-9.16699 -1.5 -10.5 -1.5c-2 0 -3 1.33301 -3 4c0 5.33301 2 8 6 8s7.5 -0.333008 10.5 -1s8.83301 -1 17.5 -1
c10.667 0 19.834 1.83301 27.501 5.5s14.5 9.5 20.5 17.5s11.333 18.833 16 32.5s9.33398 30.5 14.001 50.5c4 18 6 33.333 6 46c0 35.333 -14 53 -42 53c-8 0 -16.167 -1.33301 -24.5 -4s-16.333 -5.83398 -24 -9.50098s-14.167 -7.66699 -19.5 -12
s-8.33301 -8.16602 -9 -11.499c0 -4 1.33301 -6 4 -6c2 0 5.16699 0.666992 9.5 2s9.16602 2 14.499 2c12 0 21.667 -4 29 -12s11 -18.333 11 -31c0 -20.667 -7.83301 -38.167 -23.5 -52.5s-32.834 -21.5 -51.501 -21.5c-16.667 0 -29 4.66699 -37 14s-12 21 -12 35
c0 12 3.16699 24.833 9.5 38.5s16 26.167 29 37.5s29.167 20.666 48.5 27.999s41.666 11 66.999 11c40 0 72 -8.66699 96 -26s36 -38.666 36 -63.999c0 -18 -5 -34.167 -15 -48.5s-21.667 -26.666 -35 -36.999s-26.5 -18.5 -39.5 -24.5s-22.833 -10 -29.5 -12l-1 -3
c10 -3.33301 20.833 -7.66602 32.5 -12.999s22.5 -12 32.5 -20s18.333 -17.667 25 -29s10 -24.333 10 -39v-10.5c0 -3.66699 -0.666992 -7.5 -2 -11.5z" />
    <glyph glyph-name="questiondown" unicode="&#xbf;" horiz-adv-x="647" 
d="M646 688c-3.33301 -16 -9.66699 -30.835 -19 -44.502s-20.666 -25.667 -33.999 -36s-27.833 -18.5 -43.5 -24.5s-31.834 -9 -48.501 -9c-28.667 0 -51.667 8.5 -69 25.5s-26 38.5 -26 64.5c0 18.667 4.33301 36.334 13 53.001s20 31.334 34 44.001
s29.833 22.834 47.5 30.501s35.5 11.5 53.5 11.5c28.667 0 51.667 -8.5 69 -25.5s26 -38.167 26 -63.5c0 -8.66699 -1 -17.334 -3 -26.001zM683.999 203.998c-6 -24.667 -17.668 -50.001 -35.001 -76.001s-40.333 -49.5 -69 -70.5s-63 -38.167 -103 -51.5
s-85.333 -20 -136 -20c-38 0 -73.5 4.16699 -106.5 12.5s-61.833 20 -86.5 35s-44 33.167 -58 54.5s-21 45 -21 71c0 32.667 6.33301 60.334 19 83.001s29.5 42.167 50.5 58.5s44.833 30.166 71.5 41.499s53.834 21.5 81.501 30.5l81.5 26.5
c26.667 8.66699 50.5 18.334 71.5 29.001s37.833 23.5 50.5 38.5s19 33.5 19 55.5v11c0 4.66699 1.66699 7 5 7c6.66699 0 10 -5.66699 10 -17c0 -19.333 -5.33301 -37.833 -16 -55.5s-23.834 -36 -39.501 -55l-51.5 -59.5c-18.667 -20.667 -35.834 -43.5 -51.501 -68.5
s-28.834 -52.5 -39.501 -82.5s-16 -63.667 -16 -101c0 -35.333 8.5 -60 25.5 -74s38.833 -21 65.5 -21c16 0 32.833 2.5 50.5 7.5s34.167 11.167 49.5 18.5s28 15.666 38 24.999s15 18.666 15 27.999c0 2 -2.33301 3 -7 3c-3.33301 0 -7.66602 -0.166992 -12.999 -0.5
s-11.666 -0.5 -18.999 -0.5c-31.333 0 -54.166 8.5 -68.499 25.5s-21.5 37.5 -21.5 61.5c0 18 3.66699 36.333 11 55s17.833 35.834 31.5 51.501s30.167 28.334 49.5 38.001s41.333 14.5 66 14.5c34 0 59.167 -9 75.5 -27s24.5 -40.667 24.5 -68
c0 -12 -1.33301 -23.333 -4 -34z" />
    <glyph glyph-name="Agrave" unicode="&#xc0;" horiz-adv-x="886" 
d="M696 848l-9.99805 -8l-11 15c-6 8.66699 -15.333 15.667 -28 21s-25.334 11 -38.001 17s-23.834 13 -33.501 21s-14.5 18.667 -14.5 32s5 25.5 15 36.5s21.667 16.5 35 16.5c16 0 27.667 -5.5 35 -16.5s12.666 -23.833 15.999 -38.5s6.33301 -29.667 9 -45
s7.33398 -27.333 14.001 -36zM881.002 0l-447.998 0.000976562l3 13h59c15.333 0 27.833 5.5 37.5 16.5s14.5 25.833 14.5 44.5v8l-21 254h-214l-60 -114c-13.333 -24.667 -23.166 -46.834 -29.499 -66.501s-9.5 -38.167 -9.5 -55.5c0 -29.333 8.16699 -51.166 24.5 -65.499
s36.166 -21.5 59.499 -21.5h35l-3 -13h-335l3 13h19c20.667 0 41.5 7.16699 62.5 21.5s41.5 32.666 61.5 54.999s38.833 47 56.5 74s33.5 53.5 47.5 79.5l302 557h176l76 -748c1.33301 -14 6.16602 -24 14.499 -30s19.166 -9 32.499 -9h39zM525.004 350.001l-29 322
l-177 -322h206z" />
    <glyph glyph-name="Aacute" unicode="&#xc1;" horiz-adv-x="886" 
d="M799 972c-3.33301 -16 -11.668 -28.8301 -25.001 -38.4971s-28.166 -17.834 -44.499 -24.501s-32.833 -12.834 -49.5 -18.501s-30.334 -12.834 -41.001 -21.501l-18 -15l-6 8l18 15c10.667 8.66699 20.834 20.667 30.501 36s19.667 30.333 30 45s21.5 27.5 33.5 38.5
s26 16.5 42 16.5c9.33301 0 16.833 -3 22.5 -9s8.5 -13.667 8.5 -23c0 -4 -0.333008 -7 -1 -9zM880.998 0.00292969l-447.998 0.000976562l3 13h59c15.333 0 27.833 5.5 37.5 16.5s14.5 25.833 14.5 44.5v8l-21 254h-214l-60 -114
c-13.333 -24.667 -23.166 -46.834 -29.499 -66.501s-9.5 -38.167 -9.5 -55.5c0 -29.333 8.16699 -51.166 24.5 -65.499s36.166 -21.5 59.499 -21.5h35l-3 -13h-335l3 13h19c20.667 0 41.5 7.16699 62.5 21.5s41.5 32.666 61.5 54.999s38.833 47 56.5 74s33.5 53.5 47.5 79.5
l302 557h176l76 -748c1.33301 -14 6.16602 -24 14.499 -30s19.166 -9 32.499 -9h39zM525 350.004l-29 322l-177 -322h206z" />
    <glyph glyph-name="Acircumflex" unicode="&#xc2;" horiz-adv-x="886" 
d="M782 843l-117 61l-149 -58l169 134zM881 0l-447.998 0.000976562l3 13h59c15.333 0 27.833 5.5 37.5 16.5s14.5 25.833 14.5 44.5v8l-21 254h-214l-60 -114c-13.333 -24.667 -23.166 -46.834 -29.499 -66.501s-9.5 -38.167 -9.5 -55.5
c0 -29.333 8.16699 -51.166 24.5 -65.499s36.166 -21.5 59.499 -21.5h35l-3 -13h-335l3 13h19c20.667 0 41.5 7.16699 62.5 21.5s41.5 32.666 61.5 54.999s38.833 47 56.5 74s33.5 53.5 47.5 79.5l302 557h176l76 -748c1.33301 -14 6.16602 -24 14.499 -30
s19.166 -9 32.499 -9h39zM525.002 350.001l-29 322l-177 -322h206z" />
    <glyph glyph-name="Atilde" unicode="&#xc3;" horiz-adv-x="886" 
d="M828 974c-2 -9.33301 -6.16895 -19.332 -12.502 -29.999s-14.666 -20.834 -24.999 -30.501s-23.166 -17.667 -38.499 -24s-33 -9.5 -53 -9.5c-21.333 0 -40.333 2 -57 6s-33 6 -49 6s-29 -2.5 -39 -7.5s-16 -12.167 -18 -21.5h-10
c2.66699 10.667 7.33398 21.667 14.001 33s15.5 21.666 26.5 30.999s23.667 17 38 23s30.166 9 47.499 9c25.333 0 46.333 -2 63 -6s33.667 -6 51 -6s30 3.33301 38 10s13.333 12.334 16 17.001h8zM880.998 0.000976562l-447.998 0.000976562l3 13h59
c15.333 0 27.833 5.5 37.5 16.5s14.5 25.833 14.5 44.5v8l-21 254h-214l-60 -114c-13.333 -24.667 -23.166 -46.834 -29.499 -66.501s-9.5 -38.167 -9.5 -55.5c0 -29.333 8.16699 -51.166 24.5 -65.499s36.166 -21.5 59.499 -21.5h35l-3 -13h-335l3 13h19
c20.667 0 41.5 7.16699 62.5 21.5s41.5 32.666 61.5 54.999s38.833 47 56.5 74s33.5 53.5 47.5 79.5l302 557h176l76 -748c1.33301 -14 6.16602 -24 14.499 -30s19.166 -9 32.499 -9h39zM525 350.002l-29 322l-177 -322h206z" />
    <glyph glyph-name="Adieresis" unicode="&#xc4;" horiz-adv-x="886" 
d="M793 922c-2.66699 -12.667 -9.83203 -23.5 -21.499 -32.5s-24.167 -13.5 -37.5 -13.5c-12 0 -21.667 3.5 -29 10.5s-11 15.833 -11 26.5c0 14.667 6.33301 27.5 19 38.5s26.667 16.5 42 16.5c11.333 0 20.666 -3.5 27.999 -10.5s11 -15.5 11 -25.5
c0 -4.66699 -0.333008 -8 -1 -10zM652.002 922c-2.66699 -12.667 -9.83203 -23.5 -21.499 -32.5s-24.167 -13.5 -37.5 -13.5c-12.667 0 -22.667 3.5 -30 10.5s-11 15.833 -11 26.5c0 14.667 6.5 27.5 19.5 38.5s27.167 16.5 42.5 16.5c11.333 0 20.666 -3.5 27.999 -10.5
s11 -15.5 11 -25.5c0 -4.66699 -0.333008 -8 -1 -10zM881.004 0l-447.998 0.000976562l3 13h59c15.333 0 27.833 5.5 37.5 16.5s14.5 25.833 14.5 44.5v8l-21 254h-214l-60 -114c-13.333 -24.667 -23.166 -46.834 -29.499 -66.501s-9.5 -38.167 -9.5 -55.5
c0 -29.333 8.16699 -51.166 24.5 -65.499s36.166 -21.5 59.499 -21.5h35l-3 -13h-335l3 13h19c20.667 0 41.5 7.16699 62.5 21.5s41.5 32.666 61.5 54.999s38.833 47 56.5 74s33.5 53.5 47.5 79.5l302 557h176l76 -748c1.33301 -14 6.16602 -24 14.499 -30
s19.166 -9 32.499 -9h39zM525.006 350.001l-29 322l-177 -322h206z" />
    <glyph glyph-name="Aring" unicode="&#xc5;" horiz-adv-x="886" 
d="M778 940c-4 -15.333 -10.332 -29.667 -18.999 -43s-19.167 -25 -31.5 -35s-25.833 -17.833 -40.5 -23.5s-29.667 -8.5 -45 -8.5c-26 0 -47 8 -63 24s-24 36 -24 60c0 18 4 35.167 12 51.5s18.5 30.833 31.5 43.5s27.667 22.667 44 30s33.166 11 50.499 11
c26 0 47.167 -8 63.5 -24s24.5 -36.333 24.5 -61c0 -8.66699 -1 -17 -3 -25zM723.001 939.999c0.666992 2.66699 1.00098 6.33398 1.00098 11.001c0 12.667 -3.83301 23 -11.5 31s-17.834 12 -30.501 12c-17.333 0 -33 -6.66699 -47 -20s-21 -29 -21 -47
c0 -12 3.83301 -21.833 11.5 -29.5s18.167 -11.5 31.5 -11.5c14.667 0 28.5 5.16699 41.5 15.5s21.167 23.166 24.5 38.499zM881.002 -0.000976562l-447.998 0.000976562l3 13h59c15.333 0 27.833 5.5 37.5 16.5s14.5 25.833 14.5 44.5v8l-21 254h-214l-60 -114
c-13.333 -24.667 -23.166 -46.834 -29.499 -66.501s-9.5 -38.167 -9.5 -55.5c0 -29.333 8.16699 -51.166 24.5 -65.499s36.166 -21.5 59.499 -21.5h35l-3 -13h-335l3 13h19c20.667 0 41.5 7.16699 62.5 21.5s41.5 32.666 61.5 54.999s38.833 47 56.5 74s33.5 53.5 47.5 79.5
l302 557h176l76 -748c1.33301 -14 6.16602 -24 14.499 -30s19.166 -9 32.499 -9h39zM525.004 350l-29 322l-177 -322h206z" />
    <glyph glyph-name="AE" unicode="&#xc6;" horiz-adv-x="1194" 
d="M1145 0l-721.997 0.00488281l3 13h63c19.333 0 35.666 7.16699 48.999 21.5s22 30.166 26 47.499l59 254h-207l-99 -114c-11.333 -13.333 -22.5 -27.166 -33.5 -41.499s-20.833 -28.666 -29.5 -42.999s-15.667 -28.333 -21 -42s-8 -25.834 -8 -36.501
c0 -14 5 -25.167 15 -33.5s27.333 -12.5 52 -12.5h30l-3 -13h-337l4 13h22c42 0 86.667 19.5 134 58.5s104 96.167 170 171.5l488 557h492l-71 -310h-9l3 27c2 12 3 24 3 36c0 28 -4.66699 56 -14 84s-22.833 53 -40.5 75s-39.5 40 -65.5 54s-56 21 -90 21h-53l-81 -353h39
c18 0 36.667 4.33301 56 13s37.666 20.5 54.999 35.5s32.5 32.667 45.5 53s22.5 42.166 28.5 65.499l7 28h13l-98 -424h-13l7 31c3.33301 16.667 5 32 5 46c0 18.667 -2.5 36.167 -7.5 52.5s-12.167 30.666 -21.5 42.999s-20.5 22.166 -33.5 29.499s-27.833 11 -44.5 11h-42
l-86 -374c0 -0.666992 -0.166992 -1.33398 -0.5 -2.00098s-0.5 -1.33398 -0.5 -2.00098c0 -6 2.66699 -12 8 -18s13.666 -9 24.999 -9h82c17.333 0 36.5 5.33301 57.5 16s42.167 24.5 63.5 41.5s42.333 36.5 63 58.5s39.5 44.333 56.5 67s31.5 44.667 43.5 66
s20.333 40 25 56l10 37h9zM626.003 350.005l71 306l-270 -306h199z" />
    <glyph glyph-name="Ccedilla" unicode="&#xc7;" horiz-adv-x="820" 
d="M855 307c-8 -36.667 -22.833 -74.3301 -44.5 -112.997s-49.167 -74 -82.5 -106s-72.166 -58.333 -116.499 -79s-93.5 -31 -147.5 -31c-9.33301 0 -18.166 0.166992 -26.499 0.5s-16.833 0.833008 -25.5 1.5l-42 -41c7.33301 0.666992 14.333 1 21 1h20
c28 0 52.167 -5.16699 72.5 -15.5s30.5 -24.166 30.5 -41.499c0 -12 -4.83301 -23.333 -14.5 -34s-22 -20 -37 -28s-31.333 -14.333 -49 -19s-34.167 -7 -49.5 -7s-28.5 1.33301 -39.5 4s-19.833 5.5 -26.5 8.5s-11.667 6 -15 9s-5.33301 5.16699 -6 6.5l8 11
c3.33301 -4 11.5 -9.33301 24.5 -16s29.167 -10 48.5 -10s36.333 3.66699 51 11s22 18 22 32c0 11.333 -7.16699 19.666 -21.5 24.999s-30.833 8 -49.5 8c-20 0 -33.667 -0.666992 -41 -2s-11.666 -2 -12.999 -2c-2 0 -3 1 -3 3c0 2.66699 1 5 3 7l91 92
c-46.667 6 -88.5 17.833 -125.5 35.5s-68.333 40 -94 67s-45.334 58.333 -59.001 94s-20.5 74.167 -20.5 115.5c0 45.333 7.83301 89.666 23.5 132.999s36.834 84.5 63.501 123.5s57.667 74.667 93 107s72.666 60.333 111.999 84s79.666 42.167 120.999 55.5
s81.333 20 120 20c28 0 51.167 -3.33301 69.5 -10s35 -14 50 -22s29.833 -15.333 44.5 -22s32 -10 52 -10c15.333 0 28.833 2.66699 40.5 8s21.167 11.666 28.5 18.999c8.66699 8 15.667 17.333 21 28h5l-88 -383h-13l5 22c0.666992 3.33301 1.16699 7.66602 1.5 12.999
s0.5 11.666 0.5 18.999c0 16 -1.33301 35 -4 57s-7 45.167 -13 69.5s-14 48.333 -24 72s-22.667 44.834 -38 63.501s-33.5 33.834 -54.5 45.501s-45.167 17.5 -72.5 17.5c-28.667 0 -56 -10.333 -82 -31s-50.333 -49.834 -73 -87.501s-43.5 -83 -62.5 -136
s-35.833 -111.5 -50.5 -175.5c-8.66699 -38 -15.167 -72.667 -19.5 -104s-6.5 -60.333 -6.5 -87c0 -64.667 12 -112.5 36 -143.5s58.333 -46.5 103 -46.5c38.667 0 77.167 8.5 115.5 25.5s73.5 40 105.5 69s59.667 62.333 83 100s39.666 77.5 48.999 119.5h15z" />
    <glyph glyph-name="Egrave" unicode="&#xc8;" horiz-adv-x="767" 
d="M639 848l-10 -8l-11 15c-6 8 -15.333 14.833 -28 20.5l-37.5 17.5c-12.333 6 -23.333 13 -33 21s-14.5 18.667 -14.5 32s4.83301 25.5 14.5 36.5s21.5 16.5 35.5 16.5c16 0 27.5 -5.5 34.5 -16.5s12.333 -23.833 16 -38.5s6.66699 -29.667 9 -45
s6.83301 -27.333 13.5 -36zM718 0l-734.001 0.00585938l4 13h68c21.333 0 39 5.83301 53 17.5s24.667 33.167 32 64.5l144 623c3.33301 14.667 5 25.667 5 33c0 13.333 -3.83301 22.666 -11.5 27.999s-19.167 8 -34.5 8h-45l3 12h662l-71 -309h-9l4 27c1.33301 6 2 12 2 18
v18c0 28 -4.66699 56 -14 84s-22.833 53 -40.5 75s-39.5 40 -65.5 54s-55.667 21 -89 21h-54l-81 -353h39c18 0 36.667 4.33301 56 13s37.666 20.5 54.999 35.5s32.666 32.667 45.999 53s23 42.166 29 65.499l7 28h12l-98 -424h-12l7 31c3.33301 16.667 5 32 5 46
c0 18.667 -2.5 36.167 -7.5 52.5s-12.167 30.666 -21.5 42.999s-20.666 22.166 -33.999 29.499s-28.333 11 -45 11h-42l-86 -374c0 -0.666992 -0.166992 -1.33398 -0.5 -2.00098s-0.5 -1.33398 -0.5 -2.00098c0 -6 2.83301 -12 8.5 -18s13.834 -9 24.501 -9h82
c17.333 0 36.5 5.33301 57.5 16s42.333 24.5 64 41.5s42.834 36.5 63.501 58.5s39.5 44.333 56.5 67s31.5 44.667 43.5 66s20.333 40 25 56l10 37h9z" />
    <glyph glyph-name="Eacute" unicode="&#xc9;" horiz-adv-x="767" 
d="M713 972c-3.33301 -16 -11.668 -28.8301 -25.001 -38.4971s-28.166 -17.834 -44.499 -24.501s-32.833 -12.834 -49.5 -18.501s-30.334 -12.834 -41.001 -21.501l-18 -15l-6 8l18 15c10.667 8.66699 20.834 20.667 30.501 36s19.667 30.333 30 45s21.5 27.5 33.5 38.5
s26 16.5 42 16.5c9.33301 0 16.833 -3 22.5 -9s8.5 -13.667 8.5 -23c0 -4 -0.333008 -7 -1 -9zM717.998 0.00292969l-734.001 0.00585938l4 13h68c21.333 0 39 5.83301 53 17.5s24.667 33.167 32 64.5l144 623c3.33301 14.667 5 25.667 5 33
c0 13.333 -3.83301 22.666 -11.5 27.999s-19.167 8 -34.5 8h-45l3 12h662l-71 -309h-9l4 27c1.33301 6 2 12 2 18v18c0 28 -4.66699 56 -14 84s-22.833 53 -40.5 75s-39.5 40 -65.5 54s-55.667 21 -89 21h-54l-81 -353h39c18 0 36.667 4.33301 56 13
s37.666 20.5 54.999 35.5s32.666 32.667 45.999 53s23 42.166 29 65.499l7 28h12l-98 -424h-12l7 31c3.33301 16.667 5 32 5 46c0 18.667 -2.5 36.167 -7.5 52.5s-12.167 30.666 -21.5 42.999s-20.666 22.166 -33.999 29.499s-28.333 11 -45 11h-42l-86 -374
c0 -0.666992 -0.166992 -1.33398 -0.5 -2.00098s-0.5 -1.33398 -0.5 -2.00098c0 -6 2.83301 -12 8.5 -18s13.834 -9 24.501 -9h82c17.333 0 36.5 5.33301 57.5 16s42.333 24.5 64 41.5s42.834 36.5 63.501 58.5s39.5 44.333 56.5 67s31.5 44.667 43.5 66s20.333 40 25 56
l10 37h9z" />
    <glyph glyph-name="Ecircumflex" unicode="&#xca;" horiz-adv-x="767" 
d="M722 843l-117 61l-149 -58l169 134zM718 0l-734.001 0.00585938l4 13h68c21.333 0 39 5.83301 53 17.5s24.667 33.167 32 64.5l144 623c3.33301 14.667 5 25.667 5 33c0 13.333 -3.83301 22.666 -11.5 27.999s-19.167 8 -34.5 8h-45l3 12h662l-71 -309h-9l4 27
c1.33301 6 2 12 2 18v18c0 28 -4.66699 56 -14 84s-22.833 53 -40.5 75s-39.5 40 -65.5 54s-55.667 21 -89 21h-54l-81 -353h39c18 0 36.667 4.33301 56 13s37.666 20.5 54.999 35.5s32.666 32.667 45.999 53s23 42.166 29 65.499l7 28h12l-98 -424h-12l7 31
c3.33301 16.667 5 32 5 46c0 18.667 -2.5 36.167 -7.5 52.5s-12.167 30.666 -21.5 42.999s-20.666 22.166 -33.999 29.499s-28.333 11 -45 11h-42l-86 -374c0 -0.666992 -0.166992 -1.33398 -0.5 -2.00098s-0.5 -1.33398 -0.5 -2.00098c0 -6 2.83301 -12 8.5 -18
s13.834 -9 24.501 -9h82c17.333 0 36.5 5.33301 57.5 16s42.333 24.5 64 41.5s42.834 36.5 63.501 58.5s39.5 44.333 56.5 67s31.5 44.667 43.5 66s20.333 40 25 56l10 37h9z" />
    <glyph glyph-name="Edieresis" unicode="&#xcb;" horiz-adv-x="767" 
d="M740 922c-2.66699 -12.667 -9.83203 -23.5 -21.499 -32.5s-24.167 -13.5 -37.5 -13.5c-12 0 -21.667 3.5 -29 10.5s-11 15.833 -11 26.5c0 14.667 6.33301 27.5 19 38.5s26.667 16.5 42 16.5c11.333 0 20.666 -3.5 27.999 -10.5s11 -15.5 11 -25.5
c0 -4.66699 -0.333008 -8 -1 -10zM599.002 922c-2.66699 -12.667 -9.83203 -23.5 -21.499 -32.5s-24.167 -13.5 -37.5 -13.5c-12.667 0 -22.667 3.5 -30 10.5s-11 15.833 -11 26.5c0 14.667 6.5 27.5 19.5 38.5s27.167 16.5 42.5 16.5c11.333 0 20.666 -3.5 27.999 -10.5
s11 -15.5 11 -25.5c0 -4.66699 -0.333008 -8 -1 -10zM718.004 0l-734.001 0.00585938l4 13h68c21.333 0 39 5.83301 53 17.5s24.667 33.167 32 64.5l144 623c3.33301 14.667 5 25.667 5 33c0 13.333 -3.83301 22.666 -11.5 27.999s-19.167 8 -34.5 8h-45l3 12h662l-71 -309
h-9l4 27c1.33301 6 2 12 2 18v18c0 28 -4.66699 56 -14 84s-22.833 53 -40.5 75s-39.5 40 -65.5 54s-55.667 21 -89 21h-54l-81 -353h39c18 0 36.667 4.33301 56 13s37.666 20.5 54.999 35.5s32.666 32.667 45.999 53s23 42.166 29 65.499l7 28h12l-98 -424h-12l7 31
c3.33301 16.667 5 32 5 46c0 18.667 -2.5 36.167 -7.5 52.5s-12.167 30.666 -21.5 42.999s-20.666 22.166 -33.999 29.499s-28.333 11 -45 11h-42l-86 -374c0 -0.666992 -0.166992 -1.33398 -0.5 -2.00098s-0.5 -1.33398 -0.5 -2.00098c0 -6 2.83301 -12 8.5 -18
s13.834 -9 24.501 -9h82c17.333 0 36.5 5.33301 57.5 16s42.333 24.5 64 41.5s42.834 36.5 63.501 58.5s39.5 44.333 56.5 67s31.5 44.667 43.5 66s20.333 40 25 56l10 37h9z" />
    <glyph glyph-name="Igrave" unicode="&#xcc;" horiz-adv-x="505" 
d="M503 848l-10 -8l-11 15c-6 8 -15.333 14.833 -28 20.5l-37.5 17.5c-12.333 6 -23.333 13 -33 21s-14.5 18.667 -14.5 32s4.83301 25.5 14.5 36.5s21.5 16.5 35.5 16.5c16 0 27.5 -5.5 34.5 -16.5s12.333 -23.833 16 -38.5s6.66699 -29.667 9 -45
s6.83301 -27.333 13.5 -36zM487 0h-467l3 13h42c6 0 13.5 1.16699 22.5 3.5s18 6.33301 27 12s17.333 13.167 25 22.5s13.167 21 16.5 35l144 621c2 8 3 16 3 24c0 17.333 -5 31 -15 41s-24.333 15 -43 15h-44l3 13h467l-3 -13h-43c-20 0 -38.5 -7.5 -55.5 -22.5
s-28.167 -34.167 -33.5 -57.5l-144 -622c-2 -8 -3 -15.333 -3 -22c0 -18.667 5.5 -31.667 16.5 -39s22.833 -11 35.5 -11h49z" />
    <glyph glyph-name="Iacute" unicode="&#xcd;" horiz-adv-x="505" 
d="M613 972c-3.33301 -16 -11.668 -28.8301 -25.001 -38.4971s-28.166 -17.834 -44.499 -24.501s-32.833 -12.834 -49.5 -18.501s-30.334 -12.834 -41.001 -21.501l-18 -15l-6 8l18 15c10.667 8.66699 20.834 20.667 30.501 36s19.667 30.333 30 45s21.5 27.5 33.5 38.5
s26 16.5 42 16.5c9.33301 0 16.833 -3 22.5 -9s8.5 -13.667 8.5 -23c0 -4 -0.333008 -7 -1 -9zM486.998 0.00292969h-467l3 13h42c6 0 13.5 1.16699 22.5 3.5s18 6.33301 27 12s17.333 13.167 25 22.5s13.167 21 16.5 35l144 621c2 8 3 16 3 24c0 17.333 -5 31 -15 41
s-24.333 15 -43 15h-44l3 13h467l-3 -13h-43c-20 0 -38.5 -7.5 -55.5 -22.5s-28.167 -34.167 -33.5 -57.5l-144 -622c-2 -8 -3 -15.333 -3 -22c0 -18.667 5.5 -31.667 16.5 -39s22.833 -11 35.5 -11h49z" />
    <glyph glyph-name="Icircumflex" unicode="&#xce;" horiz-adv-x="505" 
d="M578 843l-117 61l-149 -58l169 134zM487 0h-467l3 13h42c6 0 13.5 1.16699 22.5 3.5s18 6.33301 27 12s17.333 13.167 25 22.5s13.167 21 16.5 35l144 621c2 8 3 16 3 24c0 17.333 -5 31 -15 41s-24.333 15 -43 15h-44l3 13h467l-3 -13h-43c-20 0 -38.5 -7.5 -55.5 -22.5
s-28.167 -34.167 -33.5 -57.5l-144 -622c-2 -8 -3 -15.333 -3 -22c0 -18.667 5.5 -31.667 16.5 -39s22.833 -11 35.5 -11h49z" />
    <glyph glyph-name="Idieresis" unicode="&#xcf;" horiz-adv-x="505" 
d="M589 922c-2.66699 -12.667 -9.83203 -23.5 -21.499 -32.5s-24.167 -13.5 -37.5 -13.5c-12 0 -21.667 3.5 -29 10.5s-11 15.833 -11 26.5c0 14.667 6.33301 27.5 19 38.5s26.667 16.5 42 16.5c11.333 0 20.666 -3.5 27.999 -10.5s11 -15.5 11 -25.5
c0 -4.66699 -0.333008 -8 -1 -10zM448.002 922c-2.66699 -12.667 -9.83203 -23.5 -21.499 -32.5s-24.167 -13.5 -37.5 -13.5c-12.667 0 -22.667 3.5 -30 10.5s-11 15.833 -11 26.5c0 14.667 6.5 27.5 19.5 38.5s27.167 16.5 42.5 16.5c11.333 0 20.666 -3.5 27.999 -10.5
s11 -15.5 11 -25.5c0 -4.66699 -0.333008 -8 -1 -10zM487.004 0h-467l3 13h42c6 0 13.5 1.16699 22.5 3.5s18 6.33301 27 12s17.333 13.167 25 22.5s13.167 21 16.5 35l144 621c2 8 3 16 3 24c0 17.333 -5 31 -15 41s-24.333 15 -43 15h-44l3 13h467l-3 -13h-43
c-20 0 -38.5 -7.5 -55.5 -22.5s-28.167 -34.167 -33.5 -57.5l-144 -622c-2 -8 -3 -15.333 -3 -22c0 -18.667 5.5 -31.667 16.5 -39s22.833 -11 35.5 -11h49z" />
    <glyph glyph-name="Eth" unicode="&#xd0;" horiz-adv-x="874" 
d="M942 402c-16 -70 -40.168 -130.332 -72.501 -180.999s-69.333 -92.334 -111 -125.001s-86.167 -56.834 -133.5 -72.501s-94.333 -23.5 -141 -23.5h-496l3 12h57c24 0 43.667 4.66699 59 14s25.333 24 30 44l72 313h-90l3 13h90l75 325c2 8 3 15 3 21
c0 16 -5 27.5 -15 34.5s-22.667 10.5 -38 10.5h-29l3 13h461c42 0 80.333 -7.83301 115 -23.5s64.334 -37.167 89.001 -64.5s43.667 -59.5 57 -96.5s20 -76.833 20 -119.5c0 -29.333 -3.66699 -60.666 -11 -93.999zM681.999 406.001
c13.333 57.333 23.0029 106.499 29.0029 147.499s9 75.833 9 104.5c0 26 -2.16699 47.333 -6.5 64s-10.333 29.834 -18 39.501s-16.834 16.334 -27.501 20.001s-22 5.5 -34 5.5h-103l-90 -391h136l-3 -13h-136l-72 -311c-1.33301 -3.33301 -2 -6.5 -2 -9.5v-8.5
c0 -13.333 3.5 -23.666 10.5 -30.999s18.167 -11 33.5 -11h63c12.667 0 25 1.5 37 4.5s23.5 9.16699 34.5 18.5s21.833 22.666 32.5 39.999s21.667 40.666 33 69.999s23.166 65.333 35.499 108s25.166 93.667 38.499 153z" />
    <glyph glyph-name="Ntilde" unicode="&#xd1;" horiz-adv-x="854" 
d="M820 974c-2 -9.33301 -6.16895 -19.332 -12.502 -29.999s-14.666 -20.834 -24.999 -30.501s-23.166 -17.667 -38.499 -24s-33 -9.5 -53 -9.5c-21.333 0 -40.333 2 -57 6s-33 6 -49 6s-29 -2.5 -39 -7.5s-16 -12.167 -18 -21.5h-10
c2.66699 10.667 7.33398 21.667 14.001 33s15.5 21.666 26.5 30.999s23.667 17 38 23s30.166 9 47.499 9c25.333 0 46.333 -2 63 -6s33.667 -6 51 -6s30 3.33301 38 10s13.333 12.334 16 17.001h8zM1021 786.001l-17.999 -0.00195312c-12 0 -25 -2.5 -39 -7.5
s-27.833 -13.167 -41.5 -24.5s-26.334 -26.333 -38.001 -45s-20.5 -41.667 -26.5 -69l-147 -640h-191l-208 683l-115 -493c-6 -26 -9 -49.333 -9 -70c0 -34.667 7.5 -61.167 22.5 -79.5s36.833 -27.5 65.5 -27.5h28l-3 -13h-283l3 13h32c10 0 21 4 33 12
s24.167 19.833 36.5 35.5s23.833 34.834 34.5 57.501s19.334 48.667 26.001 78l114 494c2 8.66699 3 16.667 3 24c0 12 -2.16699 22.5 -6.5 31.5s-9.83301 16.667 -16.5 23s-14 11 -22 14s-16 4.5 -24 4.5h-17l3 13h365l167 -565l93 406c4 16.667 6 32.334 6 47.001
c0 30.667 -7.33301 54.667 -22 72s-32.334 26 -53.001 26h-44l3 14h292z" />
    <glyph glyph-name="Ograve" unicode="&#xd2;" 
d="M708 848l-9.99805 -8l-11 15c-6 8.66699 -15.333 15.667 -28 21s-25.334 11 -38.001 17s-23.834 13 -33.501 21s-14.5 18.667 -14.5 32s5 25.5 15 36.5s21.667 16.5 35 16.5c16 0 27.667 -5.5 35 -16.5s12.666 -23.833 15.999 -38.5s6.33301 -29.667 9 -45
s7.33398 -27.333 14.001 -36zM932.002 400c-13.333 -57.333 -36.5 -111.172 -69.5 -161.505s-72.333 -94.166 -118 -131.499s-95.834 -66.833 -150.501 -88.5s-110 -32.5 -166 -32.5c-48 0 -91.833 8 -131.5 24s-73.667 38.333 -102 67s-50.333 62.334 -66 101.001
s-23.5 81 -23.5 127c0 44.667 6.83301 88.5 20.5 131.5s32.5 83.333 56.5 121s52.333 72.334 85 104.001s68.167 58.834 106.5 81.501s78.333 40.334 120 53.001s83.834 19 126.501 19c48 0 91.833 -8.16699 131.5 -24.5s73.667 -38.666 102 -66.999s50.333 -62 66 -101
s23.5 -81.5 23.5 -127.5c0 -28.667 -3.66699 -60.334 -11 -95.001zM684.002 414.994c13.333 56 22.8311 104.168 28.498 144.501s8.5 74.833 8.5 103.5c0 28 -2.5 50.833 -7.5 68.5s-12.167 31.667 -21.5 42s-20.5 17.333 -33.5 21s-27.167 5.5 -42.5 5.5
c-26 0 -49.333 -5.16699 -70 -15.5s-40.167 -29.833 -58.5 -58.5s-36.166 -68.5 -53.499 -119.5s-35.333 -116.833 -54 -197.5c-15.333 -65.333 -26.666 -121.166 -33.999 -167.499s-11 -85.5 -11 -117.5c0 -46.667 7.83301 -79 23.5 -97s39.5 -27 71.5 -27
c26 0 50.333 6.16699 73 18.5s44.167 34.166 64.5 65.499s40 73.666 59 126.999s38.167 121.333 57.5 204z" />
    <glyph glyph-name="Oacute" unicode="&#xd3;" 
d="M785 972c-3.33301 -16 -11.668 -28.8301 -25.001 -38.4971s-28.166 -17.834 -44.499 -24.501s-32.833 -12.834 -49.5 -18.501s-30.334 -12.834 -41.001 -21.501l-18 -15l-6 8l18 15c10.667 8.66699 20.834 20.667 30.501 36s19.667 30.333 30 45s21.5 27.5 33.5 38.5
s26 16.5 42 16.5c9.33301 0 16.833 -3 22.5 -9s8.5 -13.667 8.5 -23c0 -4 -0.333008 -7 -1 -9zM931.998 400.003c-13.333 -57.333 -36.5 -111.172 -69.5 -161.505s-72.333 -94.166 -118 -131.499s-95.834 -66.833 -150.501 -88.5s-110 -32.5 -166 -32.5
c-48 0 -91.833 8 -131.5 24s-73.667 38.333 -102 67s-50.333 62.334 -66 101.001s-23.5 81 -23.5 127c0 44.667 6.83301 88.5 20.5 131.5s32.5 83.333 56.5 121s52.333 72.334 85 104.001s68.167 58.834 106.5 81.501s78.333 40.334 120 53.001s83.834 19 126.501 19
c48 0 91.833 -8.16699 131.5 -24.5s73.667 -38.666 102 -66.999s50.333 -62 66 -101s23.5 -81.5 23.5 -127.5c0 -28.667 -3.66699 -60.334 -11 -95.001zM683.998 414.997c13.333 56 22.8311 104.168 28.498 144.501s8.5 74.833 8.5 103.5c0 28 -2.5 50.833 -7.5 68.5
s-12.167 31.667 -21.5 42s-20.5 17.333 -33.5 21s-27.167 5.5 -42.5 5.5c-26 0 -49.333 -5.16699 -70 -15.5s-40.167 -29.833 -58.5 -58.5s-36.166 -68.5 -53.499 -119.5s-35.333 -116.833 -54 -197.5c-15.333 -65.333 -26.666 -121.166 -33.999 -167.499
s-11 -85.5 -11 -117.5c0 -46.667 7.83301 -79 23.5 -97s39.5 -27 71.5 -27c26 0 50.333 6.16699 73 18.5s44.167 34.166 64.5 65.499s40 73.666 59 126.999s38.167 121.333 57.5 204z" />
    <glyph glyph-name="Ocircumflex" unicode="&#xd4;" 
d="M761 843l-117 61l-149 -58l169 134zM932 400c-13.333 -57.333 -36.5 -111.172 -69.5 -161.505s-72.333 -94.166 -118 -131.499s-95.834 -66.833 -150.501 -88.5s-110 -32.5 -166 -32.5c-48 0 -91.833 8 -131.5 24s-73.667 38.333 -102 67s-50.333 62.334 -66 101.001
s-23.5 81 -23.5 127c0 44.667 6.83301 88.5 20.5 131.5s32.5 83.333 56.5 121s52.333 72.334 85 104.001s68.167 58.834 106.5 81.501s78.333 40.334 120 53.001s83.834 19 126.501 19c48 0 91.833 -8.16699 131.5 -24.5s73.667 -38.666 102 -66.999s50.333 -62 66 -101
s23.5 -81.5 23.5 -127.5c0 -28.667 -3.66699 -60.334 -11 -95.001zM684 414.994c13.333 56 22.8311 104.168 28.498 144.501s8.5 74.833 8.5 103.5c0 28 -2.5 50.833 -7.5 68.5s-12.167 31.667 -21.5 42s-20.5 17.333 -33.5 21s-27.167 5.5 -42.5 5.5
c-26 0 -49.333 -5.16699 -70 -15.5s-40.167 -29.833 -58.5 -58.5s-36.166 -68.5 -53.499 -119.5s-35.333 -116.833 -54 -197.5c-15.333 -65.333 -26.666 -121.166 -33.999 -167.499s-11 -85.5 -11 -117.5c0 -46.667 7.83301 -79 23.5 -97s39.5 -27 71.5 -27
c26 0 50.333 6.16699 73 18.5s44.167 34.166 64.5 65.499s40 73.666 59 126.999s38.167 121.333 57.5 204z" />
    <glyph glyph-name="Otilde" unicode="&#xd5;" 
d="M805 974c-2 -9.33301 -6.16895 -19.332 -12.502 -29.999s-14.666 -20.834 -24.999 -30.501s-23.166 -17.667 -38.499 -24s-33 -9.5 -53 -9.5c-21.333 0 -40.333 2 -57 6s-33 6 -49 6s-29 -2.5 -39 -7.5s-16 -12.167 -18 -21.5h-10
c2.66699 10.667 7.33398 21.667 14.001 33s15.5 21.666 26.5 30.999s23.667 17 38 23s30.166 9 47.499 9c25.333 0 46.333 -2 63 -6s33.667 -6 51 -6s30 3.33301 38 10s13.333 12.334 16 17.001h8zM931.998 400.001c-13.333 -57.333 -36.5 -111.172 -69.5 -161.505
s-72.333 -94.166 -118 -131.499s-95.834 -66.833 -150.501 -88.5s-110 -32.5 -166 -32.5c-48 0 -91.833 8 -131.5 24s-73.667 38.333 -102 67s-50.333 62.334 -66 101.001s-23.5 81 -23.5 127c0 44.667 6.83301 88.5 20.5 131.5s32.5 83.333 56.5 121
s52.333 72.334 85 104.001s68.167 58.834 106.5 81.501s78.333 40.334 120 53.001s83.834 19 126.501 19c48 0 91.833 -8.16699 131.5 -24.5s73.667 -38.666 102 -66.999s50.333 -62 66 -101s23.5 -81.5 23.5 -127.5c0 -28.667 -3.66699 -60.334 -11 -95.001z
M683.998 414.995c13.333 56 22.8311 104.168 28.498 144.501s8.5 74.833 8.5 103.5c0 28 -2.5 50.833 -7.5 68.5s-12.167 31.667 -21.5 42s-20.5 17.333 -33.5 21s-27.167 5.5 -42.5 5.5c-26 0 -49.333 -5.16699 -70 -15.5s-40.167 -29.833 -58.5 -58.5
s-36.166 -68.5 -53.499 -119.5s-35.333 -116.833 -54 -197.5c-15.333 -65.333 -26.666 -121.166 -33.999 -167.499s-11 -85.5 -11 -117.5c0 -46.667 7.83301 -79 23.5 -97s39.5 -27 71.5 -27c26 0 50.333 6.16699 73 18.5s44.167 34.166 64.5 65.499s40 73.666 59 126.999
s38.167 121.333 57.5 204z" />
    <glyph glyph-name="Odieresis" unicode="&#xd6;" 
d="M770 922c-2.66699 -12.667 -9.83203 -23.5 -21.499 -32.5s-24.167 -13.5 -37.5 -13.5c-12 0 -21.667 3.5 -29 10.5s-11 15.833 -11 26.5c0 14.667 6.33301 27.5 19 38.5s26.667 16.5 42 16.5c11.333 0 20.666 -3.5 27.999 -10.5s11 -15.5 11 -25.5
c0 -4.66699 -0.333008 -8 -1 -10zM629.002 922c-2.66699 -12.667 -9.83203 -23.5 -21.499 -32.5s-24.167 -13.5 -37.5 -13.5c-12.667 0 -22.667 3.5 -30 10.5s-11 15.833 -11 26.5c0 14.667 6.5 27.5 19.5 38.5s27.167 16.5 42.5 16.5c11.333 0 20.666 -3.5 27.999 -10.5
s11 -15.5 11 -25.5c0 -4.66699 -0.333008 -8 -1 -10zM932.004 400c-13.333 -57.333 -36.5 -111.172 -69.5 -161.505s-72.333 -94.166 -118 -131.499s-95.834 -66.833 -150.501 -88.5s-110 -32.5 -166 -32.5c-48 0 -91.833 8 -131.5 24s-73.667 38.333 -102 67
s-50.333 62.334 -66 101.001s-23.5 81 -23.5 127c0 44.667 6.83301 88.5 20.5 131.5s32.5 83.333 56.5 121s52.333 72.334 85 104.001s68.167 58.834 106.5 81.501s78.333 40.334 120 53.001s83.834 19 126.501 19c48 0 91.833 -8.16699 131.5 -24.5
s73.667 -38.666 102 -66.999s50.333 -62 66 -101s23.5 -81.5 23.5 -127.5c0 -28.667 -3.66699 -60.334 -11 -95.001zM684.004 414.994c13.333 56 22.8311 104.168 28.498 144.501s8.5 74.833 8.5 103.5c0 28 -2.5 50.833 -7.5 68.5s-12.167 31.667 -21.5 42
s-20.5 17.333 -33.5 21s-27.167 5.5 -42.5 5.5c-26 0 -49.333 -5.16699 -70 -15.5s-40.167 -29.833 -58.5 -58.5s-36.166 -68.5 -53.499 -119.5s-35.333 -116.833 -54 -197.5c-15.333 -65.333 -26.666 -121.166 -33.999 -167.499s-11 -85.5 -11 -117.5
c0 -46.667 7.83301 -79 23.5 -97s39.5 -27 71.5 -27c26 0 50.333 6.16699 73 18.5s44.167 34.166 64.5 65.499s40 73.666 59 126.999s38.167 121.333 57.5 204z" />
    <glyph glyph-name="multiply" unicode="&#xd7;" horiz-adv-x="362" 
d="M310 233l-55 70l-86 -70l-20 25l85 71l-55 70l31 26l56 -71l85 71l20 -26l-86 -70l56 -71z" />
    <glyph glyph-name="Oslash" unicode="&#xd8;" 
d="M932 400c-13.333 -57.333 -36.501 -111.168 -69.501 -161.501s-72.333 -94.166 -118 -131.499s-95.834 -66.833 -150.501 -88.5s-110 -32.5 -166 -32.5c-56.667 0 -106.834 10.5 -150.501 31.5s-79.5 50.167 -107.5 87.5l-135 -113l5 22l121 102
c-18 26 -32 54.833 -42 86.5s-15 65.5 -15 101.5c0 44.667 6.83301 88.5 20.5 131.5s32.5 83.333 56.5 121s52.5 72.334 85.5 104.001s68.667 59 107 82s78.333 40.833 120 53.5s83.834 19 126.501 19c52.667 0 99.834 -9.33301 141.501 -28s76.834 -44.667 105.501 -78
l107 89l-5 -22l-93 -77c21.333 -28 37.833 -59 49.5 -93s17.5 -71 17.5 -111c0 -15.333 -1 -30.833 -3 -46.5s-4.66699 -31.834 -8 -48.501zM714.999 580.998c4 30.667 5.99805 58 5.99805 82c0 28 -2.66699 50.833 -8 68.5s-12.666 31.667 -21.999 42
s-20.333 17.333 -33 21s-26.667 5.5 -42 5.5c-26 0 -49.333 -5.16699 -70 -15.5s-40.167 -29.833 -58.5 -58.5s-36.166 -68.5 -53.499 -119.5s-35.333 -116.833 -54 -197.5l-15.5 -70c-5 -22 -9.16699 -42.667 -12.5 -62zM683.997 414.998
c6.66699 28 12.332 54.1689 16.999 78.502s8.33398 46.833 11.001 67.5l-363 -305c-4.66699 -27.333 -8.16699 -51.833 -10.5 -73.5s-3.5 -41.167 -3.5 -58.5c0 -46.667 7.83301 -79 23.5 -97s39.5 -27 71.5 -27c26 0 50.333 6.16699 73 18.5s44.167 34.166 64.5 65.499
s40 73.666 59 126.999s38.167 121.333 57.5 204z" />
    <glyph glyph-name="Ugrave" unicode="&#xd9;" horiz-adv-x="851" 
d="M712 848l-10 -8l-11 15c-6 8 -15.333 14.833 -28 20.5l-37.5 17.5c-12.333 6 -23.333 13 -33 21s-14.5 18.667 -14.5 32s4.83301 25.5 14.5 36.5s21.5 16.5 35.5 16.5c16 0 27.5 -5.5 34.5 -16.5s12.333 -23.833 16 -38.5s6.66699 -29.667 9 -45
s6.83301 -27.333 13.5 -36zM1022 787l-16.999 0.000976562c-14.667 0 -30.334 -3.33301 -47.001 -10s-32.834 -17.334 -48.501 -32.001s-30 -33.667 -43 -57s-23.5 -51.666 -31.5 -84.999l-97 -417c-16 -68 -50.167 -119.167 -102.5 -153.5s-127.5 -51.5 -225.5 -51.5
c-41.333 0 -78.333 4.5 -111 13.5s-60.334 21.167 -83.001 36.5s-40 33.166 -52 53.499s-18 41.833 -18 64.5c0 5.33301 0.333008 10.333 1 15s1.66699 9.66699 3 15l127 550c0.666992 3.33301 1.16699 6.33301 1.5 9s0.5 5.33398 0.5 8.00098c0 27.333 -15.667 41 -47 41
h-26l3 12h415l-3 -12h-24c-21.333 0 -40.166 -5.33301 -56.499 -16s-26.833 -25.667 -31.5 -45l-130 -563c-4 -16 -6 -30.333 -6 -43c0 -18.667 3.66699 -34.167 11 -46.5s17.5 -22.333 30.5 -30s28.833 -13.167 47.5 -16.5s39.334 -5 62.001 -5c46.667 0 88 13.667 124 41
s60.667 69.666 74 126.999l95 410c3.33301 12.667 5.5 24.667 6.5 36s1.5 22.333 1.5 33c0 38.667 -8.83301 68 -26.5 88s-40.5 30 -68.5 30h-31l3 12h323z" />
    <glyph glyph-name="Uacute" unicode="&#xda;" horiz-adv-x="851" 
d="M818 972c-4 -16 -12.6689 -28.8301 -26.002 -38.4971s-28.166 -17.834 -44.499 -24.501s-32.833 -12.834 -49.5 -18.501s-30 -12.834 -40 -21.501l-18 -15l-6 8l18 15c10.667 8.66699 20.834 20.667 30.501 36s19.667 30.333 30 45s21.5 27.5 33.5 38.5s26 16.5 42 16.5
c9.33301 0 16.833 -3 22.5 -9s8.5 -13.667 8.5 -23c0 -4 -0.333008 -7 -1 -9zM1022 787.003l-16.999 0.000976562c-14.667 0 -30.334 -3.33301 -47.001 -10s-32.834 -17.334 -48.501 -32.001s-30 -33.667 -43 -57s-23.5 -51.666 -31.5 -84.999l-97 -417
c-16 -68 -50.167 -119.167 -102.5 -153.5s-127.5 -51.5 -225.5 -51.5c-41.333 0 -78.333 4.5 -111 13.5s-60.334 21.167 -83.001 36.5s-40 33.166 -52 53.499s-18 41.833 -18 64.5c0 5.33301 0.333008 10.333 1 15s1.66699 9.66699 3 15l127 550
c0.666992 3.33301 1.16699 6.33301 1.5 9s0.5 5.33398 0.5 8.00098c0 27.333 -15.667 41 -47 41h-26l3 12h415l-3 -12h-24c-21.333 0 -40.166 -5.33301 -56.499 -16s-26.833 -25.667 -31.5 -45l-130 -563c-4 -16 -6 -30.333 -6 -43c0 -18.667 3.66699 -34.167 11 -46.5
s17.5 -22.333 30.5 -30s28.833 -13.167 47.5 -16.5s39.334 -5 62.001 -5c46.667 0 88 13.667 124 41s60.667 69.666 74 126.999l95 410c3.33301 12.667 5.5 24.667 6.5 36s1.5 22.333 1.5 33c0 38.667 -8.83301 68 -26.5 88s-40.5 30 -68.5 30h-31l3 12h323z" />
    <glyph glyph-name="Ucircumflex" unicode="&#xdb;" horiz-adv-x="851" 
d="M802 843l-117 61l-149 -58l169 134zM1022 787l-16.999 0.000976562c-14.667 0 -30.334 -3.33301 -47.001 -10s-32.834 -17.334 -48.501 -32.001s-30 -33.667 -43 -57s-23.5 -51.666 -31.5 -84.999l-97 -417c-16 -68 -50.167 -119.167 -102.5 -153.5
s-127.5 -51.5 -225.5 -51.5c-41.333 0 -78.333 4.5 -111 13.5s-60.334 21.167 -83.001 36.5s-40 33.166 -52 53.499s-18 41.833 -18 64.5c0 5.33301 0.333008 10.333 1 15s1.66699 9.66699 3 15l127 550c0.666992 3.33301 1.16699 6.33301 1.5 9s0.5 5.33398 0.5 8.00098
c0 27.333 -15.667 41 -47 41h-26l3 12h415l-3 -12h-24c-21.333 0 -40.166 -5.33301 -56.499 -16s-26.833 -25.667 -31.5 -45l-130 -563c-4 -16 -6 -30.333 -6 -43c0 -18.667 3.66699 -34.167 11 -46.5s17.5 -22.333 30.5 -30s28.833 -13.167 47.5 -16.5s39.334 -5 62.001 -5
c46.667 0 88 13.667 124 41s60.667 69.666 74 126.999l95 410c3.33301 12.667 5.5 24.667 6.5 36s1.5 22.333 1.5 33c0 38.667 -8.83301 68 -26.5 88s-40.5 30 -68.5 30h-31l3 12h323z" />
    <glyph glyph-name="Udieresis" unicode="&#xdc;" horiz-adv-x="851" 
d="M793 922c-2.66699 -12.667 -9.83301 -23.5 -21.5 -32.5s-24.5 -13.5 -38.5 -13.5c-12 0 -21.667 3.5 -29 10.5s-11 15.833 -11 26.5c0 14.667 6.33301 27.5 19 38.5s26.667 16.5 42 16.5c12 0 21.667 -3.5 29 -10.5s11 -15.5 11 -25.5c0 -4.66699 -0.333008 -8 -1 -10z
M652.001 922c-2.66699 -12.667 -10 -23.5 -22 -32.5s-24.667 -13.5 -38 -13.5c-12 0 -21.667 3.5 -29 10.5s-11 15.833 -11 26.5c0 14.667 6.33301 27.5 19 38.5s26.667 16.5 42 16.5c11.333 0 20.833 -3.5 28.5 -10.5s11.5 -15.833 11.5 -26.5c0 -4 -0.333008 -7 -1 -9z
M1022 787l-16.999 0.000976562c-14.667 0 -30.334 -3.33301 -47.001 -10s-32.834 -17.334 -48.501 -32.001s-30 -33.667 -43 -57s-23.5 -51.666 -31.5 -84.999l-97 -417c-16 -68 -50.167 -119.167 -102.5 -153.5s-127.5 -51.5 -225.5 -51.5c-41.333 0 -78.333 4.5 -111 13.5
s-60.334 21.167 -83.001 36.5s-40 33.166 -52 53.499s-18 41.833 -18 64.5c0 5.33301 0.333008 10.333 1 15s1.66699 9.66699 3 15l127 550c0.666992 3.33301 1.16699 6.33301 1.5 9s0.5 5.33398 0.5 8.00098c0 27.333 -15.667 41 -47 41h-26l3 12h415l-3 -12h-24
c-21.333 0 -40.166 -5.33301 -56.499 -16s-26.833 -25.667 -31.5 -45l-130 -563c-4 -16 -6 -30.333 -6 -43c0 -18.667 3.66699 -34.167 11 -46.5s17.5 -22.333 30.5 -30s28.833 -13.167 47.5 -16.5s39.334 -5 62.001 -5c46.667 0 88 13.667 124 41s60.667 69.666 74 126.999
l95 410c3.33301 12.667 5.5 24.667 6.5 36s1.5 22.333 1.5 33c0 38.667 -8.83301 68 -26.5 88s-40.5 30 -68.5 30h-31l3 12h323z" />
    <glyph glyph-name="Yacute" unicode="&#xdd;" horiz-adv-x="863" 
d="M818 972c-4 -16 -12.6689 -28.8301 -26.002 -38.4971s-28.166 -17.834 -44.499 -24.501s-32.833 -12.834 -49.5 -18.501s-30 -12.834 -40 -21.501l-18 -15l-6 8l18 15c10.667 8.66699 20.834 20.667 30.501 36s19.667 30.333 30 45s21.5 27.5 33.5 38.5s26 16.5 42 16.5
c9.33301 0 16.833 -3 22.5 -9s8.5 -13.667 8.5 -23c0 -4 -0.333008 -7 -1 -9zM1034 787.003l-26 -0.000976562c-16.667 0 -34.167 -5 -52.5 -15s-36.833 -23 -55.5 -39s-36.834 -34 -54.501 -54s-34.167 -40.333 -49.5 -61l-141 -186l-86 -363
c-1.33301 -3.33301 -2 -6.66602 -2 -9.99902v-10c0 -24.667 11.333 -37 34 -37h50l-3 -13h-423l3 13h47c15.333 0 29.5 6.33301 42.5 19s21.5 27.334 25.5 44.001l78 340l-136 327c-5.33301 13.333 -13.666 24.166 -24.999 32.499s-23.333 12.5 -36 12.5h-21l3 13h447
l-3 -13h-41c-14 0 -26.167 -2.33301 -36.5 -7s-15.5 -13.667 -15.5 -27c0 -4.66699 1 -10 3 -16l89 -290l139 182c15.333 19.333 26 37.333 32 54s9 31.334 9 44.001c0 19.333 -6.5 34.166 -19.5 44.499s-28.167 15.5 -45.5 15.5h-21l3 13h291z" />
    <glyph glyph-name="Thorn" unicode="&#xde;" horiz-adv-x="757" 
d="M840 408c-7.33301 -32 -20.3311 -61.834 -38.998 -89.501s-41.834 -51.834 -69.501 -72.501s-59.334 -36.834 -95.001 -48.501s-74.5 -17.5 -116.5 -17.5h-107l-22 -95c-2 -8 -3 -15 -3 -21c0 -19.333 5.66699 -32.666 17 -39.999s23 -11 35 -11h49l-3 -13h-466l3 13h41
c6 0 13.667 1.16699 23 3.5s18.5 6.33301 27.5 12s17.333 13.167 25 22.5s13.167 21 16.5 35l144 621c2 8 3 16 3 24c0 17.333 -5 31 -15 41s-24.333 15 -43 15h-44l3 13h466l-3 -13h-42c-20 0 -38.667 -7.5 -56 -22.5s-28.666 -34.167 -33.999 -57.5l-15 -64h107
c36 0 67.667 -4.33301 95 -13s50.166 -21 68.499 -37s32.333 -35 42 -57s14.5 -46 14.5 -72c0 -9.33301 -0.666992 -18.666 -2 -27.999s-3 -18.666 -5 -27.999zM610.002 411.999c14.667 64.667 21.999 113 21.999 145c0 18 -1.83301 31.833 -5.5 41.5s-8.5 17 -14.5 22
s-12.833 8 -20.5 9s-15.5 1.5 -23.5 1.5h-51l-101 -439h51c12 0 23.833 1.5 35.5 4.5s23.334 11.5 35.001 25.5s23.5 35.833 35.5 65.5s24.333 71.167 37 124.5z" />
    <glyph glyph-name="germandbls" unicode="&#xdf;" horiz-adv-x="836" 
d="M863 179c-8.66699 -37.333 -23.502 -68.6621 -44.502 -93.9951s-44.333 -45.833 -70 -61.5s-52 -26.834 -79 -33.501s-50.5 -10 -70.5 -10c-22 0 -42 2.33301 -60 7s-34.5 9.66699 -49.5 15l-41.5 15c-12.667 4.66699 -25.334 7 -38.001 7c-22 0 -37.5 -4 -46.5 -12
s-14.833 -14 -17.5 -18h-9l58 252h8c0 -16.667 3.5 -39.167 10.5 -67.5s18 -56.333 33 -84s34.333 -51.667 58 -72s51.834 -30.5 84.501 -30.5c13.333 0 26.333 2 39 6s24 10 34 18s18 18 24 30s9 26 9 42c0 18 -6.66699 32.667 -20 44s-29.833 21.333 -49.5 30
s-41.167 17.167 -64.5 25.5s-44.833 18.333 -64.5 30s-36.167 26.167 -49.5 43.5s-20 39 -20 65c0 28.667 6.33301 55 19 79s28.667 46.667 48 68s40 41.666 62 60.999s42.667 38.666 62 57.999s35.333 39.166 48 59.499s19 42.166 19 65.499c0 22.667 -7 40.334 -21 53.001
s-35.667 19 -65 19c-14 0 -28.333 -2.16699 -43 -6.5s-28.5 -11.333 -41.5 -21s-24.5 -22.167 -34.5 -37.5s-17.667 -34.333 -23 -57l-153 -667h-297l3 13h45c12.667 0 24 2.5 34 7.5s16.667 15.167 20 30.5l103 443h-58l3 14h58l21 91c8 34 22.833 64 44.5 90
s47.5 47.833 77.5 65.5s62.833 31.167 98.5 40.5s71.5 14 107.5 14c26.667 0 48.834 -2.5 66.501 -7.5s31.834 -11.833 42.501 -20.5s18.167 -18.5 22.5 -29.5s6.5 -22.833 6.5 -35.5c0 -20.667 -3.66699 -40 -11 -58s-16 -36.167 -26 -54.5l-30 -56
c-10 -19 -17.667 -39.833 -23 -62.5c-2 -8 -3 -15.333 -3 -22c0 -19.333 6.5 -34.5 19.5 -45.5s29 -20.333 48 -28s39.833 -14.834 62.5 -21.501s43.5 -15.5 62.5 -26.5s35 -25.167 48 -42.5s19.5 -40.333 19.5 -69c0 -15.333 -2 -32.333 -6 -51z" />
    <glyph glyph-name="agrave" unicode="&#xe0;" horiz-adv-x="678" 
d="M707 120c-4 -12 -10.8301 -25.501 -20.4971 -40.501s-22 -29.333 -37 -43s-32.833 -25 -53.5 -34s-44.334 -13.5 -71.001 -13.5c-14 0 -27.833 1.83301 -41.5 5.5s-25.834 9.5 -36.501 17.5s-19.334 18.5 -26.001 31.5s-10 28.833 -10 47.5
c0 7.33301 0.166992 14.666 0.5 21.999s1.5 15.333 3.5 24c-9.33301 -22 -19 -42.167 -29 -60.5s-22 -34.333 -36 -48s-30.833 -24.167 -50.5 -31.5s-43.167 -11 -70.5 -11c-20 0 -39.333 3.5 -58 10.5s-35.167 17.5 -49.5 31.5s-25.833 31.833 -34.5 53.5
s-13 47.5 -13 77.5c0 49.333 10.333 97.333 31 144s47 88 79 124s67 65 105 87s74.333 33 109 33c28.667 0 51.667 -4.5 69 -13.5s30 -24.167 38 -45.5l17 54h213l-110 -421c-3.33301 -11.333 -5.5 -21.166 -6.5 -29.499s-1.5 -15.166 -1.5 -20.499
c0 -8 1.66699 -14.167 5 -18.5s7 -6.5 11 -6.5c5.33301 0 11.333 2.66699 18 8s13 11.833 19 19.5s11.5 16 16.5 25s8.83301 17.5 11.5 25.5zM492.003 450.999c0 19.333 -4.16895 36.499 -12.502 51.499s-19.5 22.5 -33.5 22.5c-14.667 0 -29 -7.66699 -43 -23
s-27.5 -35.333 -40.5 -60s-25 -52.5 -36 -83.5s-20.5 -61.667 -28.5 -92s-14.333 -59 -19 -86s-7 -49.167 -7 -66.5c0 -27.333 4.5 -46.833 13.5 -58.5s20.5 -17.5 34.5 -17.5c12 0 24.5 8.33301 37.5 25s25.833 38 38.5 64s24.834 55 36.501 87s21.834 63.333 30.501 94
s15.667 58.834 21 84.501s8 45.167 8 58.5zM570.001 601.998l-8.99902 -6.99902l-11 15c-6 8 -15.333 14.833 -28 20.5l-38 17c-12.667 5.66699 -23.834 12.5 -33.501 20.5s-14.5 18.667 -14.5 32c0 12.667 4.83301 24.834 14.5 36.501s21.5 17.5 35.5 17.5
c16 0 27.5 -5.5 34.5 -16.5s12.333 -23.833 16 -38.5s6.66699 -29.834 9 -45.501s6.83301 -27.834 13.5 -36.501z" />
    <glyph glyph-name="aacute" unicode="&#xe1;" horiz-adv-x="678" 
d="M707 120c-4 -12 -10.8301 -25.501 -20.4971 -40.501s-22 -29.333 -37 -43s-32.833 -25 -53.5 -34s-44.334 -13.5 -71.001 -13.5c-14 0 -27.833 1.83301 -41.5 5.5s-25.834 9.5 -36.501 17.5s-19.334 18.5 -26.001 31.5s-10 28.833 -10 47.5
c0 7.33301 0.166992 14.666 0.5 21.999s1.5 15.333 3.5 24c-9.33301 -22 -19 -42.167 -29 -60.5s-22 -34.333 -36 -48s-30.833 -24.167 -50.5 -31.5s-43.167 -11 -70.5 -11c-20 0 -39.333 3.5 -58 10.5s-35.167 17.5 -49.5 31.5s-25.833 31.833 -34.5 53.5
s-13 47.5 -13 77.5c0 49.333 10.333 97.333 31 144s47 88 79 124s67 65 105 87s74.333 33 109 33c28.667 0 51.667 -4.5 69 -13.5s30 -24.167 38 -45.5l17 54h213l-110 -421c-3.33301 -11.333 -5.5 -21.166 -6.5 -29.499s-1.5 -15.166 -1.5 -20.499
c0 -8 1.66699 -14.167 5 -18.5s7 -6.5 11 -6.5c5.33301 0 11.333 2.66699 18 8s13 11.833 19 19.5s11.5 16 16.5 25s8.83301 17.5 11.5 25.5zM492.003 450.999c0 19.333 -4.16895 36.499 -12.502 51.499s-19.5 22.5 -33.5 22.5c-14.667 0 -29 -7.66699 -43 -23
s-27.5 -35.333 -40.5 -60s-25 -52.5 -36 -83.5s-20.5 -61.667 -28.5 -92s-14.333 -59 -19 -86s-7 -49.167 -7 -66.5c0 -27.333 4.5 -46.833 13.5 -58.5s20.5 -17.5 34.5 -17.5c12 0 24.5 8.33301 37.5 25s25.833 38 38.5 64s24.834 55 36.501 87s21.834 63.333 30.501 94
s15.667 58.834 21 84.501s8 45.167 8 58.5zM637.001 718.998c-4 -16 -12.498 -28.8301 -25.498 -38.4971s-27.667 -17.834 -44 -24.501s-32.833 -12.834 -49.5 -18.501s-30.334 -12.834 -41.001 -21.501l-19 -15l-5 7l19 15c11.333 8.66699 21.666 20.667 30.999 36l29 45.5
c10 15 21 28 33 39s26 16.5 42 16.5c9.33301 0 16.833 -3.16699 22.5 -9.5s8.5 -13.833 8.5 -22.5c0 -4 -0.333008 -7 -1 -9z" />
    <glyph glyph-name="acircumflex" unicode="&#xe2;" horiz-adv-x="678" 
d="M707 120c-4 -12 -10.8301 -25.501 -20.4971 -40.501s-22 -29.333 -37 -43s-32.833 -25 -53.5 -34s-44.334 -13.5 -71.001 -13.5c-14 0 -27.833 1.83301 -41.5 5.5s-25.834 9.5 -36.501 17.5s-19.334 18.5 -26.001 31.5s-10 28.833 -10 47.5
c0 7.33301 0.166992 14.666 0.5 21.999s1.5 15.333 3.5 24c-9.33301 -22 -19 -42.167 -29 -60.5s-22 -34.333 -36 -48s-30.833 -24.167 -50.5 -31.5s-43.167 -11 -70.5 -11c-20 0 -39.333 3.5 -58 10.5s-35.167 17.5 -49.5 31.5s-25.833 31.833 -34.5 53.5
s-13 47.5 -13 77.5c0 49.333 10.333 97.333 31 144s47 88 79 124s67 65 105 87s74.333 33 109 33c28.667 0 51.667 -4.5 69 -13.5s30 -24.167 38 -45.5l17 54h213l-110 -421c-3.33301 -11.333 -5.5 -21.166 -6.5 -29.499s-1.5 -15.166 -1.5 -20.499
c0 -8 1.66699 -14.167 5 -18.5s7 -6.5 11 -6.5c5.33301 0 11.333 2.66699 18 8s13 11.833 19 19.5s11.5 16 16.5 25s8.83301 17.5 11.5 25.5zM492.003 450.999c0 19.333 -4.16895 36.499 -12.502 51.499s-19.5 22.5 -33.5 22.5c-14.667 0 -29 -7.66699 -43 -23
s-27.5 -35.333 -40.5 -60s-25 -52.5 -36 -83.5s-20.5 -61.667 -28.5 -92s-14.333 -59 -19 -86s-7 -49.167 -7 -66.5c0 -27.333 4.5 -46.833 13.5 -58.5s20.5 -17.5 34.5 -17.5c12 0 24.5 8.33301 37.5 25s25.833 38 38.5 64s24.834 55 36.501 87s21.834 63.333 30.501 94
s15.667 58.834 21 84.501s8 45.167 8 58.5zM658.001 602.998l-117 60l-150 -58l169 134z" />
    <glyph glyph-name="atilde" unicode="&#xe3;" horiz-adv-x="678" 
d="M707 120c-4 -12 -10.8301 -25.501 -20.4971 -40.501s-22 -29.333 -37 -43s-32.833 -25 -53.5 -34s-44.334 -13.5 -71.001 -13.5c-14 0 -27.833 1.83301 -41.5 5.5s-25.834 9.5 -36.501 17.5s-19.334 18.5 -26.001 31.5s-10 28.833 -10 47.5
c0 7.33301 0.166992 14.666 0.5 21.999s1.5 15.333 3.5 24c-9.33301 -22 -19 -42.167 -29 -60.5s-22 -34.333 -36 -48s-30.833 -24.167 -50.5 -31.5s-43.167 -11 -70.5 -11c-20 0 -39.333 3.5 -58 10.5s-35.167 17.5 -49.5 31.5s-25.833 31.833 -34.5 53.5
s-13 47.5 -13 77.5c0 49.333 10.333 97.333 31 144s47 88 79 124s67 65 105 87s74.333 33 109 33c28.667 0 51.667 -4.5 69 -13.5s30 -24.167 38 -45.5l17 54h213l-110 -421c-3.33301 -11.333 -5.5 -21.166 -6.5 -29.499s-1.5 -15.166 -1.5 -20.499
c0 -8 1.66699 -14.167 5 -18.5s7 -6.5 11 -6.5c5.33301 0 11.333 2.66699 18 8s13 11.833 19 19.5s11.5 16 16.5 25s8.83301 17.5 11.5 25.5zM492.003 450.999c0 19.333 -4.16895 36.499 -12.502 51.499s-19.5 22.5 -33.5 22.5c-14.667 0 -29 -7.66699 -43 -23
s-27.5 -35.333 -40.5 -60s-25 -52.5 -36 -83.5s-20.5 -61.667 -28.5 -92s-14.333 -59 -19 -86s-7 -49.167 -7 -66.5c0 -27.333 4.5 -46.833 13.5 -58.5s20.5 -17.5 34.5 -17.5c12 0 24.5 8.33301 37.5 25s25.833 38 38.5 64s24.834 55 36.501 87s21.834 63.333 30.501 94
s15.667 58.834 21 84.501s8 45.167 8 58.5zM660.001 723.998c-2 -9.33301 -6.16504 -19.332 -12.498 -29.999s-14.666 -20.834 -24.999 -30.501s-23 -17.667 -38 -24s-32.5 -9.5 -52.5 -9.5c-21.333 0 -40.333 2 -57 6s-33 6 -49 6c-34 0 -53 -9.33301 -57 -28h-10
c2.66699 10.667 7.33398 21.667 14.001 33s15.5 21.5 26.5 30.5s23.667 16.5 38 22.5s30.166 9 47.499 9c25.333 0 46.166 -1.83301 62.499 -5.5s33.166 -5.5 50.499 -5.5c18 0 31.167 3.33301 39.5 10s13.166 12 14.499 16h8z" />
    <glyph glyph-name="adieresis" unicode="&#xe4;" horiz-adv-x="678" 
d="M707 120c-4 -12 -10.8301 -25.501 -20.4971 -40.501s-22 -29.333 -37 -43s-32.833 -25 -53.5 -34s-44.334 -13.5 -71.001 -13.5c-14 0 -27.833 1.83301 -41.5 5.5s-25.834 9.5 -36.501 17.5s-19.334 18.5 -26.001 31.5s-10 28.833 -10 47.5
c0 7.33301 0.166992 14.666 0.5 21.999s1.5 15.333 3.5 24c-9.33301 -22 -19 -42.167 -29 -60.5s-22 -34.333 -36 -48s-30.833 -24.167 -50.5 -31.5s-43.167 -11 -70.5 -11c-20 0 -39.333 3.5 -58 10.5s-35.167 17.5 -49.5 31.5s-25.833 31.833 -34.5 53.5
s-13 47.5 -13 77.5c0 49.333 10.333 97.333 31 144s47 88 79 124s67 65 105 87s74.333 33 109 33c28.667 0 51.667 -4.5 69 -13.5s30 -24.167 38 -45.5l17 54h213l-110 -421c-3.33301 -11.333 -5.5 -21.166 -6.5 -29.499s-1.5 -15.166 -1.5 -20.499
c0 -8 1.66699 -14.167 5 -18.5s7 -6.5 11 -6.5c5.33301 0 11.333 2.66699 18 8s13 11.833 19 19.5s11.5 16 16.5 25s8.83301 17.5 11.5 25.5zM492.003 450.999c0 19.333 -4.16895 36.499 -12.502 51.499s-19.5 22.5 -33.5 22.5c-14.667 0 -29 -7.66699 -43 -23
s-27.5 -35.333 -40.5 -60s-25 -52.5 -36 -83.5s-20.5 -61.667 -28.5 -92s-14.333 -59 -19 -86s-7 -49.167 -7 -66.5c0 -27.333 4.5 -46.833 13.5 -58.5s20.5 -17.5 34.5 -17.5c12 0 24.5 8.33301 37.5 25s25.833 38 38.5 64s24.834 55 36.501 87s21.834 63.333 30.501 94
s15.667 58.834 21 84.501s8 45.167 8 58.5zM654.001 658.998c-3.33301 -12.667 -10.834 -23.501 -22.501 -32.501s-24.5 -13.5 -38.5 -13.5c-11.333 0 -20.666 3.33301 -27.999 10s-11 15.334 -11 26.001c0 14.667 6.33301 27.667 19 39s26.667 17 42 17
c12 0 21.667 -3.5 29 -10.5s11 -15.5 11 -25.5c0 -4.66699 -0.333008 -8 -1 -10zM512 658.997c-3.33301 -12.667 -10.833 -23.501 -22.5 -32.501s-24.167 -13.5 -37.5 -13.5c-11.333 0 -20.666 3.33301 -27.999 10s-11 15.334 -11 26.001c0 14.667 6.33301 27.667 19 39
s26.667 17 42 17c11.333 0 20.666 -3.5 27.999 -10.5s11 -15.5 11 -25.5c0 -4.66699 -0.333008 -8 -1 -10z" />
    <glyph glyph-name="aring" unicode="&#xe5;" horiz-adv-x="678" 
d="M707 120c-4 -12 -10.8301 -25.501 -20.4971 -40.501s-22 -29.333 -37 -43s-32.833 -25 -53.5 -34s-44.334 -13.5 -71.001 -13.5c-14 0 -27.833 1.83301 -41.5 5.5s-25.834 9.5 -36.501 17.5s-19.334 18.5 -26.001 31.5s-10 28.833 -10 47.5
c0 7.33301 0.166992 14.666 0.5 21.999s1.5 15.333 3.5 24c-9.33301 -22 -19 -42.167 -29 -60.5s-22 -34.333 -36 -48s-30.833 -24.167 -50.5 -31.5s-43.167 -11 -70.5 -11c-20 0 -39.333 3.5 -58 10.5s-35.167 17.5 -49.5 31.5s-25.833 31.833 -34.5 53.5
s-13 47.5 -13 77.5c0 49.333 10.333 97.333 31 144s47 88 79 124s67 65 105 87s74.333 33 109 33c28.667 0 51.667 -4.5 69 -13.5s30 -24.167 38 -45.5l17 54h213l-110 -421c-3.33301 -11.333 -5.5 -21.166 -6.5 -29.499s-1.5 -15.166 -1.5 -20.499
c0 -8 1.66699 -14.167 5 -18.5s7 -6.5 11 -6.5c5.33301 0 11.333 2.66699 18 8s13 11.833 19 19.5s11.5 16 16.5 25s8.83301 17.5 11.5 25.5zM492.003 450.999c0 19.333 -4.16895 36.499 -12.502 51.499s-19.5 22.5 -33.5 22.5c-14.667 0 -29 -7.66699 -43 -23
s-27.5 -35.333 -40.5 -60s-25 -52.5 -36 -83.5s-20.5 -61.667 -28.5 -92s-14.333 -59 -19 -86s-7 -49.167 -7 -66.5c0 -27.333 4.5 -46.833 13.5 -58.5s20.5 -17.5 34.5 -17.5c12 0 24.5 8.33301 37.5 25s25.833 38 38.5 64s24.834 55 36.501 87s21.834 63.333 30.501 94
s15.667 58.834 21 84.501s8 45.167 8 58.5zM649.001 700.998c-3.33301 -15.333 -9.49805 -29.665 -18.498 -42.998s-19.5 -25 -31.5 -35s-25.333 -17.833 -40 -23.5s-29.667 -8.5 -45 -8.5c-26 0 -47.167 8 -63.5 24s-24.5 36.333 -24.5 61c0 18 4 35.167 12 51.5
s18.667 30.666 32 42.999s28.166 22.166 44.499 29.499s33.166 11 50.499 11c26 0 47 -8 63 -24s24 -36.333 24 -61c0 -8 -1 -16.333 -3 -25zM595.003 700.999c0.666992 2 0.998047 4.16602 0.998047 6.49902v6.5c0 11.333 -3.66699 21 -11 29s-17.666 12 -30.999 12
c-8.66699 0 -17.167 -1.83301 -25.5 -5.5s-15.666 -8.5 -21.999 -14.5s-11.5 -13 -15.5 -21s-6 -16.333 -6 -25c0 -12 4 -22 12 -30s18.667 -12 32 -12c15.333 0 29.333 5.33301 42 16s20.667 23.334 24 38.001z" />
    <glyph glyph-name="ae" unicode="&#xe6;" horiz-adv-x="956" 
d="M668 227c-1.33301 -13.333 -2.33105 -26.167 -2.99805 -38.5s-1 -23.833 -1 -34.5c0 -51.333 6.5 -88.5 19.5 -111.5s30.167 -34.5 51.5 -34.5c18 0 37.5 4.33301 58.5 13s41.667 20.334 62 35.001s39.5 32 57.5 52s33.333 41.333 46 64l11 -7
c-34 -57.333 -74.833 -101.333 -122.5 -132s-102.167 -46 -163.5 -46c-30.667 0 -59.834 4.66699 -87.501 14s-52 23 -73 41s-37.667 40.667 -50 68s-18.5 59 -18.5 95v10c-23.333 -75.333 -52.5 -132.333 -87.5 -171s-79.5 -58 -133.5 -58c-20 0 -39.333 3.5 -58 10.5
s-35.167 17.5 -49.5 31.5s-25.833 31.833 -34.5 53.5s-13 47.5 -13 77.5c0 49.333 10.333 97.333 31 144s47 88 79 124s67 65 105 87s74.333 33 109 33c28.667 0 51.667 -4.5 69 -13.5s30 -24.167 38 -45.5l17 54h213l-3 -10c20 6 40.333 10.667 61 14s41 5 61 5
c26.667 0 49.667 -3.33301 69 -10s35.166 -15.667 47.499 -27s21.333 -24.5 27 -39.5s8.5 -30.5 8.5 -46.5c0 -20 -5.5 -38.333 -16.5 -55s-25.5 -31.834 -43.5 -45.501s-38.833 -26 -62.5 -37s-48.167 -20.5 -73.5 -28.5s-50.833 -15 -76.5 -21s-49.167 -10.667 -70.5 -14z
M497.002 450.999c0 19.333 -4.16895 36.499 -12.502 51.499s-19.5 22.5 -33.5 22.5c-14.667 0 -29 -7.66699 -43 -23s-27.5 -35.333 -40.5 -60s-25 -52.5 -36 -83.5s-20.5 -61.667 -28.5 -92s-14.333 -59 -19 -86s-7 -49.167 -7 -66.5c0 -27.333 4.5 -46.833 13.5 -58.5
s20.5 -17.5 34.5 -17.5c12 0 24.5 7.83301 37.5 23.5s25.833 35.834 38.5 60.501s24.834 52.5 36.501 83.5s21.834 61.833 30.501 92.5s15.667 59.5 21 86.5s8 49.167 8 66.5zM887 463.998c0 22 -3.83203 38.833 -11.499 50.5s-17.834 17.5 -30.501 17.5
c-16 0 -33.333 -8.16699 -52 -24.5s-36.5 -37.833 -53.5 -64.5s-31.833 -57 -44.5 -91s-21.334 -68.667 -26.001 -104c4 -1.33301 7.33301 -2 10 -2c16.667 0 36.834 2.66699 60.501 8s46.5 16 68.5 32s40.667 38.167 56 66.5s23 65.5 23 111.5z" />
    <glyph glyph-name="ccedilla" unicode="&#xe7;" horiz-adv-x="607" 
d="M416 -127c-2.66699 -11.333 -9.00293 -21.8311 -19.0029 -31.498s-22.167 -18 -36.5 -25s-29.833 -12.667 -46.5 -17s-32.334 -6.5 -47.001 -6.5c-15.333 0 -28.333 1.33301 -39 4s-19.5 5.5 -26.5 8.5s-12 6 -15 9s-4.83301 5.16699 -5.5 6.5l7 11
c4 -4 12.333 -9.33301 25 -16s28.667 -10 48 -10s36.333 3.66699 51 11s22 18 22 32c0 11.333 -7.16699 19.666 -21.5 24.999s-30.833 8 -49.5 8c-20 0 -33.667 -0.666992 -41 -2s-11.666 -2 -12.999 -2c-2 0 -3 1.66699 -3 5l3 5l100 100h8
c-30 2.66699 -59.333 9.66699 -88 21s-54.167 27 -76.5 47s-40.333 44.5 -54 73.5s-20.5 62.167 -20.5 99.5c0 42 9.83301 82.333 29.5 121s46.834 72.834 81.501 102.501s75.667 53.167 123 70.5s99 26 155 26c58.667 0 104.334 -13.333 137.001 -40
s49 -60.334 49 -101.001c0 -16 -2.83301 -30.167 -8.5 -42.5s-13.334 -22.5 -23.001 -30.5s-20.834 -14 -33.501 -18s-25.667 -6 -39 -6s-26.666 2 -39.999 6s-25.166 10.167 -35.499 18.5s-18.833 18.666 -25.5 30.999s-10 26.5 -10 42.5c0 12.667 2.5 24.834 7.5 36.501
s11.833 22 20.5 31s19 16.167 31 21.5s24.667 8 38 8c7.33301 0 18 -1 32 -3c1.33301 1.33301 2 2.66602 2 3.99902c0 4.66699 -6 10 -18 16s-26.333 9 -43 9c-32 0 -61.5 -12.167 -88.5 -36.5s-50.5 -55.333 -70.5 -93s-35.5 -79.334 -46.5 -125.001
s-16.5 -90.167 -16.5 -133.5c0 -25.333 2.83301 -46.666 8.5 -63.999s13.167 -31.333 22.5 -42s20.333 -18.334 33 -23.001s25.667 -7 39 -7c18 0 37 4.33301 57 13s39.333 20.334 58 35.001s35.834 32 51.501 52s28.167 41.333 37.5 64l13 -7
c-27.333 -57.333 -63 -101.333 -107 -132s-96.667 -46 -158 -46h-8.5c-2.33301 0 -5.16602 0.333008 -8.49902 1l-50 -51c6.66699 0.666992 13.167 1 19.5 1h20.5c14 0 27.167 -1.33301 39.5 -4s23.166 -6.5 32.499 -11.5s16.833 -11 22.5 -18s8.5 -14.5 8.5 -22.5
c0 -4 -0.333008 -7 -1 -9z" />
    <glyph glyph-name="egrave" unicode="&#xe8;" horiz-adv-x="580" 
d="M511 464c0 22 -3.83203 38.833 -11.499 50.5s-17.834 17.5 -30.501 17.5c-16 0 -33.333 -8.16699 -52 -24.5s-36.5 -37.833 -53.5 -64.5s-31.833 -57 -44.5 -91s-21.334 -68.667 -26.001 -104c4 -1.33301 7.33301 -2 10 -2c16.667 0 36.834 2.66699 60.501 8
s46.5 16 68.5 32s40.667 38.167 56 66.5s23 65.5 23 111.5zM292.001 227c-1.33301 -13.333 -2.33105 -26.167 -2.99805 -38.5s-1 -23.833 -1 -34.5c0 -51.333 6.5 -88.5 19.5 -111.5s30.167 -34.5 51.5 -34.5c18 0 37.5 4.33301 58.5 13s41.667 20.334 62 35.001
s39.5 32 57.5 52s33.333 41.333 46 64l11 -7c-34 -57.333 -74.833 -101.333 -122.5 -132s-102.167 -46 -163.5 -46c-30.667 0 -59.834 4.66699 -87.501 14s-52 23 -73 41s-37.667 40.667 -50 68s-18.5 59 -18.5 95c0 51.333 12.167 98.166 36.5 140.499
s55.833 78.833 94.5 109.5s82 54.334 130 71.001s95.667 25 143 25c26.667 0 49.667 -3.33301 69 -10s35.166 -15.667 47.499 -27s21.333 -24.5 27 -39.5s8.5 -30.5 8.5 -46.5c0 -20 -5.5 -38.333 -16.5 -55s-25.5 -31.834 -43.5 -45.501s-38.833 -26 -62.5 -37
s-48.167 -20.5 -73.5 -28.5s-50.833 -15 -76.5 -21s-49.167 -10.667 -70.5 -14zM511.003 601.999l-8.99902 -6.99902l-11 15c-6 8 -15.333 14.833 -28 20.5l-38 17c-12.667 5.66699 -23.834 12.5 -33.501 20.5s-14.5 18.667 -14.5 32c0 12.667 4.83301 24.834 14.5 36.501
s21.5 17.5 35.5 17.5c16 0 27.5 -5.5 34.5 -16.5s12.333 -23.833 16 -38.5s6.66699 -29.834 9 -45.501s6.83301 -27.834 13.5 -36.501z" />
    <glyph glyph-name="eacute" unicode="&#xe9;" horiz-adv-x="580" 
d="M511 464c0 22 -3.83203 38.833 -11.499 50.5s-17.834 17.5 -30.501 17.5c-16 0 -33.333 -8.16699 -52 -24.5s-36.5 -37.833 -53.5 -64.5s-31.833 -57 -44.5 -91s-21.334 -68.667 -26.001 -104c4 -1.33301 7.33301 -2 10 -2c16.667 0 36.834 2.66699 60.501 8
s46.5 16 68.5 32s40.667 38.167 56 66.5s23 65.5 23 111.5zM292.001 227c-1.33301 -13.333 -2.33105 -26.167 -2.99805 -38.5s-1 -23.833 -1 -34.5c0 -51.333 6.5 -88.5 19.5 -111.5s30.167 -34.5 51.5 -34.5c18 0 37.5 4.33301 58.5 13s41.667 20.334 62 35.001
s39.5 32 57.5 52s33.333 41.333 46 64l11 -7c-34 -57.333 -74.833 -101.333 -122.5 -132s-102.167 -46 -163.5 -46c-30.667 0 -59.834 4.66699 -87.501 14s-52 23 -73 41s-37.667 40.667 -50 68s-18.5 59 -18.5 95c0 51.333 12.167 98.166 36.5 140.499
s55.833 78.833 94.5 109.5s82 54.334 130 71.001s95.667 25 143 25c26.667 0 49.667 -3.33301 69 -10s35.166 -15.667 47.499 -27s21.333 -24.5 27 -39.5s8.5 -30.5 8.5 -46.5c0 -20 -5.5 -38.333 -16.5 -55s-25.5 -31.834 -43.5 -45.501s-38.833 -26 -62.5 -37
s-48.167 -20.5 -73.5 -28.5s-50.833 -15 -76.5 -21s-49.167 -10.667 -70.5 -14zM606.003 720.999c-4 -16 -12.498 -28.8301 -25.498 -38.4971s-27.667 -17.834 -44 -24.501s-32.833 -12.834 -49.5 -18.501s-30.334 -12.834 -41.001 -21.501l-19 -15l-5 7l19 15
c11.333 8.66699 21.666 20.667 30.999 36l29 45.5c10 15 21 28 33 39s26 16.5 42 16.5c9.33301 0 16.833 -3.16699 22.5 -9.5s8.5 -13.833 8.5 -22.5c0 -4 -0.333008 -7 -1 -9z" />
    <glyph glyph-name="ecircumflex" unicode="&#xea;" horiz-adv-x="580" 
d="M511 464c0 22 -3.83203 38.833 -11.499 50.5s-17.834 17.5 -30.501 17.5c-16 0 -33.333 -8.16699 -52 -24.5s-36.5 -37.833 -53.5 -64.5s-31.833 -57 -44.5 -91s-21.334 -68.667 -26.001 -104c4 -1.33301 7.33301 -2 10 -2c16.667 0 36.834 2.66699 60.501 8
s46.5 16 68.5 32s40.667 38.167 56 66.5s23 65.5 23 111.5zM292.001 227c-1.33301 -13.333 -2.33105 -26.167 -2.99805 -38.5s-1 -23.833 -1 -34.5c0 -51.333 6.5 -88.5 19.5 -111.5s30.167 -34.5 51.5 -34.5c18 0 37.5 4.33301 58.5 13s41.667 20.334 62 35.001
s39.5 32 57.5 52s33.333 41.333 46 64l11 -7c-34 -57.333 -74.833 -101.333 -122.5 -132s-102.167 -46 -163.5 -46c-30.667 0 -59.834 4.66699 -87.501 14s-52 23 -73 41s-37.667 40.667 -50 68s-18.5 59 -18.5 95c0 51.333 12.167 98.166 36.5 140.499
s55.833 78.833 94.5 109.5s82 54.334 130 71.001s95.667 25 143 25c26.667 0 49.667 -3.33301 69 -10s35.166 -15.667 47.499 -27s21.333 -24.5 27 -39.5s8.5 -30.5 8.5 -46.5c0 -20 -5.5 -38.333 -16.5 -55s-25.5 -31.834 -43.5 -45.501s-38.833 -26 -62.5 -37
s-48.167 -20.5 -73.5 -28.5s-50.833 -15 -76.5 -21s-49.167 -10.667 -70.5 -14zM582.003 592.999l-117 60l-150 -58l169 134z" />
    <glyph glyph-name="edieresis" unicode="&#xeb;" horiz-adv-x="580" 
d="M511 464c0 22 -3.83203 38.833 -11.499 50.5s-17.834 17.5 -30.501 17.5c-16 0 -33.333 -8.16699 -52 -24.5s-36.5 -37.833 -53.5 -64.5s-31.833 -57 -44.5 -91s-21.334 -68.667 -26.001 -104c4 -1.33301 7.33301 -2 10 -2c16.667 0 36.834 2.66699 60.501 8
s46.5 16 68.5 32s40.667 38.167 56 66.5s23 65.5 23 111.5zM292.001 227c-1.33301 -13.333 -2.33105 -26.167 -2.99805 -38.5s-1 -23.833 -1 -34.5c0 -51.333 6.5 -88.5 19.5 -111.5s30.167 -34.5 51.5 -34.5c18 0 37.5 4.33301 58.5 13s41.667 20.334 62 35.001
s39.5 32 57.5 52s33.333 41.333 46 64l11 -7c-34 -57.333 -74.833 -101.333 -122.5 -132s-102.167 -46 -163.5 -46c-30.667 0 -59.834 4.66699 -87.501 14s-52 23 -73 41s-37.667 40.667 -50 68s-18.5 59 -18.5 95c0 51.333 12.167 98.166 36.5 140.499
s55.833 78.833 94.5 109.5s82 54.334 130 71.001s95.667 25 143 25c26.667 0 49.667 -3.33301 69 -10s35.166 -15.667 47.499 -27s21.333 -24.5 27 -39.5s8.5 -30.5 8.5 -46.5c0 -20 -5.5 -38.333 -16.5 -55s-25.5 -31.834 -43.5 -45.501s-38.833 -26 -62.5 -37
s-48.167 -20.5 -73.5 -28.5s-50.833 -15 -76.5 -21s-49.167 -10.667 -70.5 -14zM593.003 656.999c-3.33301 -12.667 -10.834 -23.501 -22.501 -32.501s-24.5 -13.5 -38.5 -13.5c-11.333 0 -20.666 3.33301 -27.999 10s-11 15.334 -11 26.001c0 14.667 6.33301 27.667 19 39
s26.667 17 42 17c12 0 21.667 -3.5 29 -10.5s11 -15.5 11 -25.5c0 -4.66699 -0.333008 -8 -1 -10zM451.002 656.998c-3.33301 -12.667 -10.833 -23.501 -22.5 -32.501s-24.167 -13.5 -37.5 -13.5c-11.333 0 -20.666 3.33301 -27.999 10s-11 15.334 -11 26.001
c0 14.667 6.33301 27.667 19 39s26.667 17 42 17c11.333 0 20.666 -3.5 27.999 -10.5s11 -15.5 11 -25.5c0 -4.66699 -0.333008 -8 -1 -10z" />
    <glyph glyph-name="igrave" unicode="&#xec;" horiz-adv-x="500" 
d="M363 591l-9 -7.00098l-11 15c-6.66699 8.66699 -17 15.834 -31 21.501s-27.667 11.834 -41 18.501s-24.333 14.834 -33 24.501s-11 22.5 -7 38.5c2.66699 10.667 8.5 20.167 17.5 28.5s19.167 12.5 30.5 12.5c16 0 27.5 -5.5 34.5 -16.5s12.333 -23.833 16 -38.5
s6.66699 -29.834 9 -45.501s6.83301 -27.834 13.5 -36.501zM186 462.999c0.666992 3.33301 1.16699 6.33105 1.5 8.99805s0.5 5.33398 0.5 8.00098c0 13.333 -3.66699 25 -11 35s-18.666 15 -33.999 15h-25v12h283c5.33301 0 10 -0.5 14 -1.5s6 -4.16699 6 -9.5
c0 -1.33301 -0.166992 -2.5 -0.5 -3.5s-0.5 -2.16699 -0.5 -3.5l-99 -406c-2 -8 -3 -16 -3 -24c0 -12 2.66699 -22.167 8 -30.5s13.666 -12.5 24.999 -12.5c6 0 12.667 1.66699 20 5s14.5 7.33301 21.5 12s13.5 9.66699 19.5 15s10.667 10 14 14l11 -8
c-8 -9.33301 -19.333 -19.833 -34 -31.5s-32 -22.667 -52 -33s-42 -19 -66 -26s-49 -10.5 -75 -10.5c-15.333 0 -30 1.83301 -44 5.5s-26.333 9.33398 -37 17.001s-19 17.167 -25 28.5s-9 25 -9 41c0 11.333 1.33301 22.333 4 33z" />
    <glyph glyph-name="iacute" unicode="&#xed;" horiz-adv-x="500" 
d="M435 714c-4 -16 -12.498 -28.832 -25.498 -38.499s-27.667 -17.834 -44 -24.501s-32.833 -12.834 -49.5 -18.501s-30.334 -12.834 -41.001 -21.501l-19 -15l-5 7l19 15c10.667 8.66699 20.667 20.834 30 36.501s19.166 30.834 29.499 45.501s21.5 27.5 33.5 38.5
s26 16.5 42 16.5c11.333 0 19.833 -4.16699 25.5 -12.5s7.16699 -17.833 4.5 -28.5zM186.002 463.001c0.666992 3.33301 1.16699 6.33105 1.5 8.99805s0.5 5.33398 0.5 8.00098c0 13.333 -3.66699 25 -11 35s-18.666 15 -33.999 15h-25v12h283c5.33301 0 10 -0.5 14 -1.5
s6 -4.16699 6 -9.5c0 -1.33301 -0.166992 -2.5 -0.5 -3.5s-0.5 -2.16699 -0.5 -3.5l-99 -406c-2 -8 -3 -16 -3 -24c0 -12 2.66699 -22.167 8 -30.5s13.666 -12.5 24.999 -12.5c6 0 12.667 1.66699 20 5s14.5 7.33301 21.5 12s13.5 9.66699 19.5 15s10.667 10 14 14l11 -8
c-8 -9.33301 -19.333 -19.833 -34 -31.5s-32 -22.667 -52 -33s-42 -19 -66 -26s-49 -10.5 -75 -10.5c-15.333 0 -30 1.83301 -44 5.5s-26.333 9.33398 -37 17.001s-19 17.167 -25 28.5s-9 25 -9 41c0 11.333 1.33301 22.333 4 33z" />
    <glyph glyph-name="icircumflex" unicode="&#xee;" horiz-adv-x="500" 
d="M437 600l-117 60l-150 -58l169 134zM186 463c0.666992 3.33301 1.16699 6.33105 1.5 8.99805s0.5 5.33398 0.5 8.00098c0 13.333 -3.66699 25 -11 35s-18.666 15 -33.999 15h-25v12h283c5.33301 0 10 -0.5 14 -1.5s6 -4.16699 6 -9.5
c0 -1.33301 -0.166992 -2.5 -0.5 -3.5s-0.5 -2.16699 -0.5 -3.5l-99 -406c-2 -8 -3 -16 -3 -24c0 -12 2.66699 -22.167 8 -30.5s13.666 -12.5 24.999 -12.5c6 0 12.667 1.66699 20 5s14.5 7.33301 21.5 12s13.5 9.66699 19.5 15s10.667 10 14 14l11 -8
c-8 -9.33301 -19.333 -19.833 -34 -31.5s-32 -22.667 -52 -33s-42 -19 -66 -26s-49 -10.5 -75 -10.5c-15.333 0 -30 1.83301 -44 5.5s-26.333 9.33398 -37 17.001s-19 17.167 -25 28.5s-9 25 -9 41c0 11.333 1.33301 22.333 4 33z" />
    <glyph glyph-name="idieresis" unicode="&#xef;" horiz-adv-x="500" 
d="M429 654c-3.33301 -12.667 -10.833 -23.5 -22.5 -32.5s-24.5 -13.5 -38.5 -13.5c-13.333 0 -23.833 4.5 -31.5 13.5s-9.83398 19.833 -6.50098 32.5s10.833 23.5 22.5 32.5s24.167 13.5 37.5 13.5c14 0 24.833 -4.5 32.5 -13.5s9.83398 -19.833 6.50098 -32.5zM287 654
c-3.33301 -12.667 -10.833 -23.5 -22.5 -32.5s-24.167 -13.5 -37.5 -13.5s-23.833 4.5 -31.5 13.5s-9.83398 19.833 -6.50098 32.5s10.833 23.5 22.5 32.5s24.167 13.5 37.5 13.5s23.833 -4.5 31.5 -13.5s9.83398 -19.833 6.50098 -32.5zM186 463
c0.666992 3.33301 1.16699 6.33105 1.5 8.99805s0.5 5.33398 0.5 8.00098c0 13.333 -3.66699 25 -11 35s-18.666 15 -33.999 15h-25v12h283c5.33301 0 10 -0.5 14 -1.5s6 -4.16699 6 -9.5c0 -1.33301 -0.166992 -2.5 -0.5 -3.5s-0.5 -2.16699 -0.5 -3.5l-99 -406
c-2 -8 -3 -16 -3 -24c0 -12 2.66699 -22.167 8 -30.5s13.666 -12.5 24.999 -12.5c6 0 12.667 1.66699 20 5s14.5 7.33301 21.5 12s13.5 9.66699 19.5 15s10.667 10 14 14l11 -8c-8 -9.33301 -19.333 -19.833 -34 -31.5s-32 -22.667 -52 -33s-42 -19 -66 -26
s-49 -10.5 -75 -10.5c-15.333 0 -30 1.83301 -44 5.5s-26.333 9.33398 -37 17.001s-19 17.167 -25 28.5s-9 25 -9 41c0 11.333 1.33301 22.333 4 33z" />
    <glyph glyph-name="eth" unicode="&#xf0;" horiz-adv-x="636" 
d="M685 303c-10 -43.333 -25.167 -84.5 -45.5 -123.5s-46 -73.167 -77 -102.5s-67.167 -52.666 -108.5 -69.999s-88 -26 -140 -26c-36 0 -68.667 5.66699 -98 17s-54.5 27.166 -75.5 47.499s-37.333 44.333 -49 72s-17.5 57.5 -17.5 89.5
c0 46.667 10.833 91.334 32.5 134.001s50 80.167 85 112.5s75 58.166 120 77.499s90.5 29 136.5 29c14.667 0 29 -1 43 -3c-2.66699 23.333 -7.16699 44.833 -13.5 64.5s-14.166 37.5 -23.499 53.5l-122 -69l-4 11l120 68c-21.333 34.667 -48 60.334 -80 77.001
s-64 25 -96 25h-27l3 13h240c14.667 -6 28.667 -13 42 -21s25.666 -16.667 36.999 -26l89 49l4 -11l-83 -47c40.667 -38 71.167 -84.833 91.5 -140.5s30.5 -114.167 30.5 -175.5c0 -21.333 -1 -42.333 -3 -63s-5.66699 -41.334 -11 -62.001zM451 264
c13.333 56.667 23 102.666 29 137.999s9 63.333 9 84c0 24 -3.83301 39.833 -11.5 47.5s-18.5 11.5 -32.5 11.5c-15.333 0 -28.333 -3.83301 -39 -11.5s-21 -21.667 -31 -42s-20 -48.666 -30 -84.999s-21.667 -82.833 -35 -139.5c-12.667 -54.667 -22 -99.167 -28 -133.5
s-9 -61.5 -9 -81.5c0 -23.333 4 -38.5 12 -45.5s19.333 -10.5 34 -10.5c14 0 26.333 3.5 37 10.5s21 20.333 31 40s20 47 30 82s21.333 80.167 34 135.5z" />
    <glyph glyph-name="ntilde" unicode="&#xf1;" horiz-adv-x="736" 
d="M780 105c-6.66699 -14 -14.999 -28.168 -24.999 -42.501s-22.5 -27.333 -37.5 -39s-32.833 -21 -53.5 -28s-45.334 -10.5 -74.001 -10.5c-36.667 0 -67.334 8.5 -92.001 25.5s-37 40.5 -37 70.5c0 11.333 2.16699 27.666 6.5 48.999s9.66602 44.833 15.999 70.5l20.5 80
l20.5 77c6.33301 23.667 11.666 44.334 15.999 62.001s6.5 29.834 6.5 36.501c0 10.667 -2.16699 19.5 -6.5 26.5s-11.166 10.5 -20.499 10.5c-7.33301 0 -16.833 -5.66699 -28.5 -17s-24 -26 -37 -44s-26.333 -38.167 -40 -60.5s-25.834 -44.5 -36.501 -66.5l-73 -305h-207
l88 384c2 10 3 19.667 3 29c0 13.333 -2 23.833 -6 31.5s-9.66699 11.5 -17 11.5c-6.66699 0 -14 -4.33301 -22 -13s-15.667 -18.667 -23 -30s-14 -22.333 -20 -33s-10 -18.334 -12 -23.001l-11 8c6.66699 14 15.834 31.5 27.501 52.5s26.5 41.333 44.5 61
s39.333 36.334 64 50.001s53.667 20.5 87 20.5c18.667 0 34.334 -2.83301 47.001 -8.5s23 -13.5 31 -23.5s13.667 -21.5 17 -34.5s5 -26.833 5 -41.5c0 -9.33301 -0.833008 -19 -2.5 -29s-3.5 -19.333 -5.5 -28l-5.5 -23.5c-1.66699 -7 -2.83398 -12.167 -3.50098 -15.5
c20.667 41.333 41.167 75.5 61.5 102.5s40.833 48.333 61.5 64s41.334 26.667 62.001 33s42 9.5 64 9.5c21.333 0 39.5 -3.33301 54.5 -10s27.167 -15.334 36.5 -26.001s16.166 -22.5 20.499 -35.5s6.5 -25.833 6.5 -38.5c0 -11.333 -2 -27.333 -6 -48s-9 -43.5 -15 -68.5
s-12.667 -51 -20 -78l-20 -76c-6 -23.667 -11 -44.5 -15 -62.5s-6 -30.667 -6 -38c0 -9.33301 2.83301 -16.666 8.5 -21.999s13.5 -8 23.5 -8c8.66699 0 16.334 2.66699 23.001 8s12.834 11.5 18.501 18.5s10.5 14.333 14.5 22s8 13.5 12 17.5zM655.001 707.999
c-2 -9.33301 -6.16504 -19.332 -12.498 -29.999s-14.666 -20.834 -24.999 -30.501s-23 -17.667 -38 -24s-32.5 -9.5 -52.5 -9.5c-21.333 0 -40.333 2 -57 6s-33 6 -49 6c-34 0 -53 -9.33301 -57 -28h-10c2.66699 10.667 7.33398 21.667 14.001 33s15.5 21.5 26.5 30.5
s23.667 16.5 38 22.5s30.166 9 47.499 9c25.333 0 46.166 -1.83301 62.499 -5.5s33.166 -5.5 50.499 -5.5c18 0 31.167 3.33301 39.5 10s13.166 12 14.499 16h8z" />
    <glyph glyph-name="ograve" unicode="&#xf2;" horiz-adv-x="641" 
d="M670 271c-9.33301 -40 -25.332 -77.667 -47.999 -113s-50 -66 -82 -92s-67.333 -46.667 -106 -62s-78.667 -23 -120 -23c-36 0 -68.167 5.66699 -96.5 17s-52.333 27.166 -72 47.499s-34.834 44.333 -45.501 72s-16 57.5 -16 89.5c0 46.667 10.333 91.334 31 134.001
s48 80.167 82 112.5s72.833 58.166 116.5 77.499s88.5 29 134.5 29c35.333 0 67.166 -5.66699 95.499 -17s52.333 -27.166 72 -47.499s34.834 -44.333 45.501 -72s16 -57.5 16 -89.5c0 -21.333 -2.33301 -42.333 -7 -63zM451.001 264l30.998 134.004
c8.66699 37.333 13 67.666 13 90.999c0 20 -3.66699 34.833 -11 44.5s-19.666 14.5 -36.999 14.5c-15.333 0 -28.5 -4 -39.5 -12s-21.5 -22.333 -31.5 -43s-20.167 -49.334 -30.5 -86.001s-22.166 -83.334 -35.499 -140.001c-12.667 -54.667 -22.167 -99.667 -28.5 -135
s-9.5 -63 -9.5 -83c0 -23.333 4 -38.5 12 -45.5s19.333 -10.5 34 -10.5c14 0 26.333 3.66699 37 11s21 21 31 41s20.167 47.667 30.5 83s21.833 80.666 34.5 135.999zM491.999 612.004l-8.99902 -6.99902l-11 15c-6 8 -15.333 14.833 -28 20.5l-38 17
c-12.667 5.66699 -23.834 12.5 -33.501 20.5s-14.5 18.667 -14.5 32c0 12.667 4.83301 24.834 14.5 36.501s21.5 17.5 35.5 17.5c16 0 27.5 -5.5 34.5 -16.5s12.333 -23.833 16 -38.5s6.66699 -29.834 9 -45.501s6.83301 -27.834 13.5 -36.501z" />
    <glyph glyph-name="oacute" unicode="&#xf3;" horiz-adv-x="641" 
d="M670 271c-9.33301 -40 -25.332 -77.667 -47.999 -113s-50 -66 -82 -92s-67.333 -46.667 -106 -62s-78.667 -23 -120 -23c-36 0 -68.167 5.66699 -96.5 17s-52.333 27.166 -72 47.499s-34.834 44.333 -45.501 72s-16 57.5 -16 89.5c0 46.667 10.333 91.334 31 134.001
s48 80.167 82 112.5s72.833 58.166 116.5 77.499s88.5 29 134.5 29c35.333 0 67.166 -5.66699 95.499 -17s52.333 -27.166 72 -47.499s34.834 -44.333 45.501 -72s16 -57.5 16 -89.5c0 -21.333 -2.33301 -42.333 -7 -63zM451.001 264l30.998 134.004
c8.66699 37.333 13 67.666 13 90.999c0 20 -3.66699 34.833 -11 44.5s-19.666 14.5 -36.999 14.5c-15.333 0 -28.5 -4 -39.5 -12s-21.5 -22.333 -31.5 -43s-20.167 -49.334 -30.5 -86.001s-22.166 -83.334 -35.499 -140.001c-12.667 -54.667 -22.167 -99.667 -28.5 -135
s-9.5 -63 -9.5 -83c0 -23.333 4 -38.5 12 -45.5s19.333 -10.5 34 -10.5c14 0 26.333 3.66699 37 11s21 21 31 41s20.167 47.667 30.5 83s21.833 80.666 34.5 135.999zM598.999 721.004c-4 -16 -12.498 -28.8301 -25.498 -38.4971s-27.667 -17.834 -44 -24.501
s-32.833 -12.834 -49.5 -18.501s-30.334 -12.834 -41.001 -21.501l-19 -15l-5 7l19 15c11.333 8.66699 21.666 20.667 30.999 36l29 45.5c10 15 21 28 33 39s26 16.5 42 16.5c9.33301 0 16.833 -3.16699 22.5 -9.5s8.5 -13.833 8.5 -22.5c0 -4 -0.333008 -7 -1 -9z" />
    </font>
</defs>
</svg>
