<svg viewBox="0 0 496 496" xmlns="http://www.w3.org/2000/svg"><path d="m439.023438 203.433594c15.535156-18.175782 24.976562-41.707032 24.976562-67.433594 0-57.34375-46.65625-104-104-104-25.726562 0-49.257812 9.441406-67.433594 24.976562-17.566406-34.480468-53.375-56.976562-92.566406-56.976562-57.34375 0-104 46.65625-104 104 0 2.886719.199219 5.726562.433594 8.558594-60.441406 38.441406-96.433594 103.59375-96.433594 175.441406 0 114.695312 93.304688 208 208 208 71.847656 0 137-35.992188 175.441406-96.433594 2.832032.234375 5.671875.433594 8.558594.433594 57.34375 0 104-46.65625 104-104 0-39.191406-22.496094-75-56.976562-92.566406zm-79.023438-155.433594c48.519531 0 88 39.480469 88 88s-39.480469 88-88 88-88-39.480469-88-88 39.480469-88 88-88zm-104 272h-48c-4.414062 0-8-3.585938-8-8s3.585938-8 8-8h40c13.230469 0 24-10.769531 24-24s-10.769531-24-24-24h-72c-4.414062 0-8-3.585938-8-8s3.585938-8 8-8h128.535156c-10.703125 16.550781-16.535156 35.742188-16.535156 56 0 37.0625 19.558594 69.574219 48.832031 88h-88.832031c-4.414062 0-8-3.585938-8-8s3.585938-8 8-8h8c13.230469 0 24-10.769531 24-24s-10.769531-24-24-24zm-56-304c34.9375 0 66.710938 21.128906 80.585938 53-15.3125 18.121094-24.585938 41.480469-24.585938 67 0 10.902344 1.703125 21.414062 4.832031 31.304688-16.480469 15.894531-37.863281 24.695312-60.832031 24.695312-48.519531 0-88-39.480469-88-88s39.480469-88 88-88zm-177.984375 224h89.984375c4.414062 0 8 3.585938 8 8s-3.585938 8-8 8h-40c-13.230469 0-24 10.769531-24 24s10.769531 24 24 24h72c4.414062 0 8 3.585938 8 8s-3.585938 8-8 8h-125.28125c-1.757812-10.414062-2.71875-21.097656-2.71875-32 0-16.480469 2.089844-32.558594 6.015625-48zm19.816406 144h142.167969c4.414062 0 8 3.585938 8 8s-3.585938 8-8 8h-32c-13.230469 0-24 10.769531-24 24s10.769531 24 24 24h96c4.414062 0 8 3.585938 8 8v17.984375c-15.441406 3.925781-31.519531 6.015625-48 6.015625-70.910156 0-132.921875-38.671875-166.167969-96zm230.167969 85.113281v-13.113281c0-13.230469-10.769531-24-24-24h-96c-4.414062 0-8-3.585938-8-8s3.585938-8 8-8h32c13.230469 0 24-10.769531 24-24s-10.769531-24-24-24h-150.472656c-4.710938-10.222656-8.582032-20.902344-11.457032-32h121.929688c13.230469 0 24-10.769531 24-24s-10.769531-24-24-24h-72c-4.414062 0-8-3.585938-8-8s3.585938-8 8-8h40c13.230469 0 24-10.769531 24-24s-10.769531-24-24-24h-85.113281c13.289062-37.878906 38.289062-70.863281 72.464843-94.28125 11.496094 44.921875 52.199219 78.28125 100.648438 78.28125 25.078125 0 48.59375-8.808594 67.382812-24.9375 8.578126 16.800781 21.5625 30.9375 37.449219 40.9375h-128.832031c-13.230469 0-24 10.769531-24 24s10.769531 24 24 24h72c4.414062 0 8 3.585938 8 8s-3.585938 8-8 8h-40c-13.230469 0-24 10.769531-24 24s10.769531 24 24 24h48c4.414062 0 8 3.585938 8 8s-3.585938 8-8 8h-8c-13.230469 0-24 10.769531-24 24s10.769531 24 24 24h115.878906c-23.246094 32.449219-55.253906 56.273438-91.878906 69.113281zm120-85.113281c-48.519531 0-88-39.480469-88-88 0-22.96875 8.800781-44.351562 24.695312-60.832031 9.890626 3.128906 20.402344 4.832031 31.304688 4.832031 25.519531 0 48.878906-9.273438 67-24.585938 31.871094 13.875 53 45.648438 53 80.585938 0 48.519531-39.480469 88-88 88zm0 0"/><path d="m360 176c-8.824219 0-16-7.175781-16-16h-16c0 14.871094 10.230469 27.289062 24 30.863281v17.136719h16v-16h24v-32c0-17.648438-14.351562-32-32-32-8.824219 0-16-7.175781-16-16v-16h16c8.824219 0 16 7.175781 16 16h16c0-14.871094-10.230469-27.289062-24-30.863281v-17.136719h-16v16h-24v32c0 17.648438 14.351562 32 32 32 8.824219 0 16 7.175781 16 16v16zm0 0"/><path d="m400 128h16v16h-16zm0 0"/><path d="m304 128h16v16h-16zm0 0"/><path d="m160 136c0 22.054688 17.945312 40 40 40s40-17.945312 40-40h-16c0 13.230469-10.769531 24-24 24s-24-10.769531-24-24v-8h32v-16h-32v-16h32v-16h-32v-8c0-13.230469 10.769531-24 24-24s24 10.769531 24 24h16c0-22.054688-17.945312-40-40-40s-40 17.945312-40 40v8h-32v16h32v16h-32v16h32zm0 0"/><path d="m438.152344 253.128906-12.304688-10.257812-33.847656 40.632812-33.847656-40.632812-12.304688 10.257812 38.152344 45.773438v5.097656h-32v16h32v16h-32v16h32v16h16v-16h32v-16h-32v-16h32v-16h-32v-5.097656zm0 0"/></svg>