<svg height="50" viewBox="0 0 64 64" width="50" fill="#fff" xmlns="http://www.w3.org/2000/svg"><g id="Smartphone-Notification-Email-Online-Mobilephone"><path d="m48 56.016a3.99 3.99 0 0 1 -3.984 3.984h-24.032a3.99 3.99 0 0 1 -3.984-3.984v-12.016h-2v12.016a5.992 5.992 0 0 0 5.984 5.984h24.032a5.992 5.992 0 0 0 5.984-5.984v-4.016h-2z"/><path d="m16 7.984a3.99 3.99 0 0 1 3.984-3.984h24.032a3.99 3.99 0 0 1 3.984 3.984v20.016h2v-20.016a5.992 5.992 0 0 0 -5.984-5.984h-24.032a5.992 5.992 0 0 0 -5.984 5.984v4.016h2z"/><path d="m23 6h2v2h-2z"/><path d="m27 6h10v2h-10z"/><path d="m27 55a3 3 0 0 0 3 3h4a3 3 0 0 0 0-6h-4a3 3 0 0 0 -3 3zm3-1h4a1 1 0 0 1 0 2h-4a1 1 0 0 1 0-2z"/><path d="m19 35h.3c2.4 0 3.464-1.293 3.66-2.5a2.99 2.99 0 0 0 -1.46-3.1.9.9 0 0 1 -.5-.709v-2.691a4.992 4.992 0 0 0 -2.15-4.1 3 3 0 1 0 -5.7 0 4.992 4.992 0 0 0 -2.15 4.1v2.6a.812.812 0 0 1 -.364.73 3 3 0 0 0 -1.595 3.17 3.082 3.082 0 0 0 3.066 2.5h.893a3 3 0 0 0 6 0zm-4-14a1 1 0 0 1 2 0 .821.821 0 0 1 -.018.1 4.92 4.92 0 0 0 -1.964 0 .821.821 0 0 1 -.018-.1zm-2.893 12a1.085 1.085 0 0 1 -1.093-.825 1 1 0 0 1 .532-1.067 2.77 2.77 0 0 0 1.454-2.508v-2.6a3 3 0 0 1 6 0v2.693a2.84 2.84 0 0 0 1.5 2.44 1.008 1.008 0 0 1 .486 1.042c-.122.744-1.22.825-1.687.825zm2.893 2h2a1 1 0 0 1 -2 0z"/><path d="m30 28a14 14 0 1 0 -14 14 14.015 14.015 0 0 0 14-14zm-26 0a12 12 0 1 1 12 12 12.013 12.013 0 0 1 -12-12z"/><path d="m59 30h-24a3 3 0 0 0 -3 3v14a3 3 0 0 0 3 3h24a3 3 0 0 0 3-3v-14a3 3 0 0 0 -3-3zm-24 2h24a.982.982 0 0 1 .8.428l-12.4 5.315a1.007 1.007 0 0 1 -.788 0l-12.412-5.315a.982.982 0 0 1 .8-.428zm24 16h-24a1 1 0 0 1 -1-1v-12.483l11.819 5.065a3.017 3.017 0 0 0 2.363 0l11.818-5.065v12.483a1 1 0 0 1 -1 1z"/><path d="m32 14h2v2h-2z"/><path d="m36 14h8v2h-8z"/><path d="m32 18h12v2h-12z"/><path d="m32 22h12v2h-12z"/></g></svg>