<svg id="Layer_3" enable-background="new 0 0 64 64"  width="15" height="15" viewBox="0 0 64 64" xmlns="http://www.w3.org/2000/svg"><g><path d="m12 18v2c0 2.118 1.105 3.978 2.767 5.046-.49.593-1.209.954-2.003.954h-.146c-2.546 0-4.618 2.071-4.618 4.618v5.382c0 .553.448 1 1 1h18c.552 0 1-.447 1-1v-3h8v3c0 .553.448 1 1 1h18c.552 0 1-.447 1-1v-5.382c0-2.547-2.072-4.618-4.618-4.618h-.146c-.794 0-1.512-.361-2.002-.954 1.661-1.068 2.766-2.928 2.766-5.046v-2c0-3.309-2.691-6-6-6s-6 2.691-6 6v2c0 2.118 1.105 3.978 2.767 5.046-.3.363-.687.63-1.127.786-.7-1.662-2.345-2.832-4.258-2.832h-.146c-.794 0-1.512-.361-2.002-.954 1.661-1.068 2.766-2.928 2.766-5.046v-2c0-3.309-2.691-6-6-6s-6 2.691-6 6v2c0 2.118 1.105 3.978 2.767 5.046-.49.593-1.209.954-2.003.954h-.146c-1.914 0-3.558 1.17-4.258 2.833-.44-.156-.827-.423-1.127-.786 1.662-1.069 2.767-2.929 2.767-5.047v-2c0-3.309-2.691-6-6-6s-6 2.691-6 6zm14 17h-16v-4.382c0-1.443 1.174-2.618 2.618-2.618h.146c.257 0 .508-.027.755-.067l.36.36c1.1 1.101 2.564 1.707 4.121 1.707 1.502 0 2.914-.569 4-1.597v3.597c0 .553.448 1 1 1h3zm25.382-7c1.444 0 2.618 1.175 2.618 2.618v4.382h-16v-2h3c.552 0 1-.447 1-1v-3.597c1.086 1.028 2.498 1.597 4 1.597 1.557 0 3.021-.606 4.121-1.707l.36-.36c.247.04.498.067.755.067zm-9.382-10c0-2.206 1.794-4 4-4s4 1.794 4 4v2c0 2.206-1.794 4-4 4s-4-1.794-4-4zm4 8c.461 0 .908-.057 1.34-.156.304.483.686.895 1.128 1.228-1.393 1.167-3.544 1.167-4.936 0 .442-.333.825-.745 1.128-1.228.432.099.879.156 1.34.156zm-18-11c0-2.206 1.794-4 4-4s4 1.794 4 4v2c0 2.206-1.794 4-4 4s-4-1.794-4-4zm4 8c.461 0 .908-.057 1.34-.156.304.483.686.895 1.128 1.228-1.393 1.167-3.544 1.167-4.936 0 .442-.333.825-.745 1.128-1.228.432.099.879.156 1.34.156zm-8 4.618c0-1.443 1.174-2.618 2.618-2.618h.146c.257 0 .508-.027.755-.067l.36.36c1.1 1.101 2.564 1.707 4.121 1.707s3.021-.606 4.121-1.707l.36-.36c.247.04.498.067.755.067h.146c1.444 0 2.618 1.175 2.618 2.618v3.382h-16zm-3.532-.547c-1.393 1.167-3.544 1.167-4.936 0 .442-.333.825-.745 1.128-1.228.432.1.879.157 1.34.157s.908-.057 1.34-.156c.303.483.686.895 1.128 1.227zm1.532-9.071v2c0 2.206-1.794 4-4 4s-4-1.794-4-4v-2c0-2.206 1.794-4 4-4s4 1.794 4 4z"/><path d="m56.694 43.319-20.489 5.588c-.142-.217-.307-.424-.498-.615l-7-7c-.187-.187-.442-.292-.707-.292h-11v-1c0-.553-.448-1-1-1h-6-8c-.552 0-1 .447-1 1v22c0 .553.448 1 1 1h8c.552 0 1-.447 1-1v-1h5c.552 0 1-.447 1-1v-1h6.838l5.846 1.948c.103.034.209.052.316.052.11 0 .22-.019.325-.055l32-11c.404-.138.675-.518.675-.945v-1c0-.952-.269-1.879-.779-2.682-1.119-1.758-3.393-2.58-5.527-1.999zm-47.694 17.681h-6v-20h6zm6-2h-4v-18h4zm46-10.714-31.005 10.658-5.679-1.893c-.102-.033-.209-.051-.316-.051h-7v-14h10.586l6.707 6.707c.713.713.713 1.873 0 2.586s-1.873.713-2.586 0l-5-5-1.414 1.414 5 5c.746.746 1.727 1.119 2.707 1.119s1.961-.373 2.707-1.119c.793-.793 1.152-1.85 1.102-2.891l20.411-5.567c1.298-.355 2.661.115 3.313 1.143.306.48.467 1.037.467 1.608z"/><path d="m41.162 2.376c-.648-.199-1.304-.379-1.969-.537l-.464 1.945c.623.148 1.237.316 1.843.504z"/><path d="m61 32c0 .45-.01.899-.031 1.344l1.998.092c.022-.476.033-.955.033-1.436 0-.202-.002-.404-.006-.605l-2 .039c.004.189.006.378.006.566z"/><path d="m37.193 1.433c-.659-.111-1.339-.203-2.023-.273l-.203 1.99c.637.064 1.268.149 1.892.256z"/><path d="m60.326 25.752 1.953-.43c-.146-.664-.315-1.329-.503-1.978l-1.921.557c.176.61.333 1.227.471 1.851z"/><path d="m44.979 3.839c-.62-.286-1.254-.553-1.884-.794l-.715 1.867c.597.229 1.184.477 1.761.743z"/><path d="m60.896 29.526 1.993-.17c-.058-.682-.138-1.357-.239-2.026l-1.978.299c.096.626.17 1.259.224 1.897z"/><path d="m55.74 15.342 1.636-1.15c-.391-.557-.801-1.101-1.227-1.63l-1.559 1.254c.4.496.784 1.004 1.15 1.526z"/><path d="m59.262 22.087 1.88-.684c-.233-.64-.489-1.276-.76-1.892l-1.83.807c.255.58.492 1.17.71 1.769z"/><path d="m54.817 11.015c-.455-.495-.937-.985-1.431-1.456l-1.38 1.447c.46.439.907.893 1.338 1.362z"/><path d="m48.566 5.793c-.57-.361-1.163-.71-1.762-1.036l-.955 1.758c.56.305 1.109.627 1.646.968z"/><path d="m59.627 40.845 1.905.609c.208-.65.395-1.312.557-1.966l-1.941-.48c-.154.621-.328 1.233-.521 1.837z"/><path d="m62.808 35.471-1.988-.221c-.071.636-.163 1.266-.274 1.889l1.969.354c.119-.666.217-1.346.293-2.022z"/><path d="m51.864 8.199c-.522-.435-1.064-.859-1.609-1.257l-1.179 1.615c.515.376 1.017.769 1.505 1.177z"/><path d="m57.724 18.6 1.773-.926c-.313-.599-.65-1.196-1.003-1.775l-1.708 1.039c.331.542.644 1.097.938 1.662z"/><path d="m4.206 23.695-1.917-.572c-.194.653-.369 1.317-.518 1.976l1.95.443c.142-.624.304-1.239.485-1.847z"/><path d="m5.538 20.118-1.823-.82c-.277.614-.538 1.251-.776 1.891l1.874.697c.222-.599.464-1.189.725-1.768z"/><path d="m7.333 16.744-1.699-1.055c-.357.576-.7 1.172-1.019 1.771l1.765.94c.3-.563.617-1.115.953-1.656z"/><path d="m9.554 13.636-1.548-1.266c-.431.526-.845 1.066-1.241 1.62l1.626 1.164c.372-.518.76-1.025 1.163-1.518z"/><path d="m3.022 33.13c-.015-.375-.022-.753-.022-1.13 0-.262.003-.521.01-.78l-1.999-.055c-.008.276-.011.556-.011.836 0 .403.008.805.023 1.205z"/><path d="m3.36 27.417-1.976-.312c-.106.67-.191 1.351-.253 2.024l1.991.184c.059-.639.139-1.271.238-1.896z"/><path d="m1.167 35.243c.071.682.164 1.355.278 2.022l1.972-.338c-.107-.624-.194-1.255-.26-1.892z"/><path d="m15.111 8.421-1.168-1.623c-.552.397-1.092.812-1.617 1.243l1.271 1.545c.491-.404.997-.793 1.514-1.165z"/><path d="m21.822 4.837-.702-1.873c-.637.239-1.271.501-1.884.778l.824 1.822c.578-.261 1.166-.503 1.762-.727z"/><path d="m25.475 3.736-.446-1.949c-.66.151-1.325.327-1.975.523l.578 1.914c.606-.182 1.226-.346 1.843-.488z"/><path d="m29.243 3.13-.186-1.992c-.67.062-1.352.149-2.026.259l.319 1.975c.625-.101 1.256-.184 1.893-.242z"/><path d="m18.349 6.407-.942-1.764c-.6.32-1.194.663-1.767 1.021l1.059 1.697c.537-.336 1.088-.654 1.65-.954z"/><path d="m31.914 3c.38-.002.768.006 1.149.019l.069-1.998c-.375-.014-.753-.021-1.129-.021-.306-.001-.609.003-.912.012l.061 2c.252-.008.505-.012.762-.012z"/><path d="m12.161 10.85-1.366-1.461c-.489.457-.974.943-1.443 1.445l1.462 1.365c.437-.47.891-.924 1.347-1.349z"/></g></svg>