<?xml version="1.0" standalone="no"?>
<!DOCTYPE svg PUBLIC "-//W3C//DTD SVG 1.1//EN" "http://www.w3.org/Graphics/SVG/1.1/DTD/svg11.dtd" >
<svg>
<metadata>
Created by FontForge 20090914 at Fri Apr 24 13:38:39 2020
 By www-data
Digital Outlines Copyright (C) 2008 Jason Walcott/Jukebox. All Rights Reserved. 
</metadata>
<defs>
<font id="EloquentJFRegularPro" horiz-adv-x="886" >
  <font-face 
    font-family="EloquentJFRegularPro"
    font-weight="400"
    font-stretch="normal"
    units-per-em="1000"
    panose-1="0 0 0 0 0 0 0 0 0 0"
    ascent="776"
    descent="-224"
    x-height="540.998"
    cap-height="799.999"
    bbox="-309.002 -644.002 1879 1069"
    underline-thickness="20"
    underline-position="-133"
    unicode-range="U+000D-U+FB04"
  />
<missing-glyph horiz-adv-x="285" 
 />
    <glyph glyph-name="ellipsis" unicode="&#x2e;&#x2e;&#x2e;" horiz-adv-x="926" 
d="M876 103c0 -16 -3.16699 -31.167 -9.5 -45.5s-15 -26.833 -26 -37.5s-23.833 -19.167 -38.5 -25.5s-30.334 -9.5 -47.001 -9.5s-32.334 3.16699 -47.001 9.5s-27.5 14.833 -38.5 25.5s-19.667 23.167 -26 37.5s-9.5 29.5 -9.5 45.5s3.16699 31.167 9.5 45.5
s15 26.833 26 37.5s23.833 19.167 38.5 25.5s30.334 9.5 47.001 9.5s32.334 -3.16699 47.001 -9.5s27.5 -14.833 38.5 -25.5s19.667 -23.167 26 -37.5s9.5 -29.5 9.5 -45.5zM579 103c0 -16 -3.16699 -31.167 -9.5 -45.5s-15 -26.833 -26 -37.5s-23.833 -19.167 -38.5 -25.5
s-30.334 -9.5 -47.001 -9.5s-32.334 3.16699 -47.001 9.5s-27.5 14.833 -38.5 25.5s-19.667 23.167 -26 37.5s-9.5 29.5 -9.5 45.5s3.16699 31.167 9.5 45.5s15 26.833 26 37.5s23.833 19.167 38.5 25.5s30.334 9.5 47.001 9.5s32.334 -3.16699 47.001 -9.5
s27.5 -14.833 38.5 -25.5s19.667 -23.167 26 -37.5s9.5 -29.5 9.5 -45.5zM279 103c0 -16 -3.16699 -31.167 -9.5 -45.5s-15 -26.833 -26 -37.5s-23.833 -19.167 -38.5 -25.5s-30.334 -9.5 -47.001 -9.5s-32.334 3.16699 -47.001 9.5s-27.5 14.833 -38.5 25.5
s-19.667 23.167 -26 37.5s-9.5 29.5 -9.5 45.5s3.16699 31.167 9.5 45.5s15 26.833 26 37.5s23.833 19.167 38.5 25.5s30.334 9.5 47.001 9.5s32.334 -3.16699 47.001 -9.5s27.5 -14.833 38.5 -25.5s19.667 -23.167 26 -37.5s9.5 -29.5 9.5 -45.5z" />
    <glyph glyph-name="ff" unicode="ff" horiz-adv-x="785" 
d="M757 795c-28.667 0 -51.835 -8.83203 -69.502 -26.499s-26.5 -41.834 -26.5 -72.501v-154h116v-14h-116v-475c0 -13.333 3.83301 -23.333 11.5 -30s17.167 -10 28.5 -10h44v-13h-727v13h45c12 0 22.667 2.5 32 7.5s14 15.167 14 30.5v477h-58v14h58v90
c0 27.333 7.83301 52 23.5 74s36.334 40.667 62.001 56s54.5 27 86.5 35s64 12 96 12c38 0 69.667 -5 95 -15s45.333 -22.667 60 -38c26 17.333 55.833 30.5 89.5 39.5s67.5 13.5 101.5 13.5c32.667 0 60.5 -3.66699 83.5 -11s42 -16.833 57 -28.5s26 -25 33 -40
s10.5 -30.167 10.5 -45.5c0 -13.333 -2.5 -26.166 -7.5 -38.499s-12.167 -23.333 -21.5 -33s-20.666 -17.334 -33.999 -23.001s-28.333 -8.5 -45 -8.5c-13.333 0 -26.5 2 -39.5 6s-24.5 10 -34.5 18s-18.167 18 -24.5 30s-9.5 26 -9.5 42c0 28.667 10 52 30 70s44 27 72 27
h26c5.33301 0 8 0.666992 8 2c0 2.66699 -6.16699 6.5 -18.5 11.5s-29.5 7.5 -51.5 7.5zM314.999 528.001v-475c0 -13.333 3.83301 -23.333 11.5 -30s17.167 -10 28.5 -10h54c12 0 22.667 2.5 32 7.5s14 15.167 14 30.5v477h-140zM454.999 632.001
c0 25.333 6.16895 47.333 18.502 66s27.5 35.334 45.5 50.001c-5.33301 7.33301 -11.333 13 -18 17c-4.66699 3.33301 -14.334 8.66602 -29.001 15.999s-33 11 -55 11c-28.667 0 -52.834 -9.16699 -72.501 -27.5s-29.5 -42.833 -29.5 -73.5v-149h140v90z" />
    <glyph glyph-name="fi" unicode="fi" horiz-adv-x="721" 
d="M708 0l-367.003 -0.00292969h-334v13h40c12.667 0 23.834 3 33.501 9s14.5 17 14.5 33v473h-51v13h51v55c0 39.333 8.16699 73.333 24.5 102s39 52.167 68 70.5s63.333 31.833 103 40.5s82.5 13 128.5 13c41.333 0 76.5 -4.33301 105.5 -13s52.5 -20 70.5 -34
s31.167 -29.667 39.5 -47s12.5 -34.666 12.5 -51.999c0 -14 -2.5 -27.5 -7.5 -40.5s-12.333 -24.5 -22 -34.5s-21.167 -18 -34.5 -24s-28 -9 -44 -9c-14.667 0 -28.834 2.66699 -42.501 8s-25.667 12.5 -36 21.5s-18.5 19.833 -24.5 32.5s-9 26.334 -9 41.001
c0 14 2.66699 27.333 8 40s12.833 23.667 22.5 33s20.834 16.666 33.501 21.999s26.334 8 41.001 8c7.33301 0 14 -0.833008 20 -2.5s10.667 -2.5 14 -2.5c2 0 3 0.666992 3 2c0 2.66699 -2.83301 5.83398 -8.5 9.50098s-13.167 7.33398 -22.5 11.001
s-20.166 6.66699 -32.499 9s-24.833 3.5 -37.5 3.5c-24.667 0 -47 -3 -67 -9s-37 -15.5 -51 -28.5s-24.833 -30 -32.5 -51s-11.5 -46.5 -11.5 -76.5v-98h337v-481c0 -13.333 3 -24.5 9 -33.5s15 -13.5 27 -13.5h29v-13zM433.997 59.9971l-0.000976562 424
c0 13.333 -3.5 24 -10.5 32s-17.167 12 -30.5 12h-87v-469c0 -30.667 17.333 -46 52 -46h28c14.667 0 26.334 4.5 35.001 13.5s13 20.167 13 33.5z" />
    <glyph glyph-name="fl" unicode="fl" horiz-adv-x="698" 
d="M690 0h-683v13h44c11.333 0 22.166 3.66699 32.499 11s15.5 20.333 15.5 39v465h-63v13h63v100c0 30 7.16699 56.333 21.5 79s33.5 41.5 57.5 56.5s51.5 26.167 82.5 33.5s63.5 11 97.5 11c22.667 0 42.334 -1.5 59.001 -4.5s32.667 -6.5 48 -10.5s31 -7.5 47 -10.5
s34.667 -4.5 56 -4.5c10.667 0 19.5 0.666992 26.5 2l30.5 6v-739c0 -13.333 3 -24.5 9 -33.5s15 -13.5 27 -13.5h29v-13zM416 709c0 40 -5.33398 66.832 -16.001 80.499s-23.667 20.5 -39 20.5c-16.667 0 -30.5 -6.33301 -41.5 -19s-16.5 -35 -16.5 -67v-183h78v-13h-78
v-476c0 -13.333 3.5 -23.166 10.5 -29.499s16.5 -9.5 28.5 -9.5h26c14.667 0 26.334 4.5 35.001 13.5s13 20.167 13 33.5v649z" />
    <glyph glyph-name="ffi" unicode="ffi" horiz-adv-x="1089" 
d="M315 528l-0.000976562 -475c0 -13.333 3.83301 -23.333 11.5 -30s17.167 -10 28.5 -10h49c12.667 0 23.834 3.33301 33.501 10s14.5 18 14.5 34v471h-137zM790.999 484c0 13.333 -3.50098 24 -10.501 32s-17.167 12 -30.5 12h-87v-469c0 -30.667 17.333 -46 52 -46h28
c14.667 0 26.334 4.5 35.001 13.5s13 20.167 13 33.5v424zM451.998 596c0 36 5.66992 65.834 17.0029 89.501s26.666 44.5 45.999 62.5c-6 6.66699 -11.667 12 -17 16c-4.66699 3.33301 -14.334 8.66602 -29.001 15.999s-33 11 -55 11c-28.667 0 -52.334 -9 -71.001 -27
s-28 -42.333 -28 -73v-150h137v55zM776.001 822.001c41.333 0 76.4971 -4.50391 105.497 -13.5039s52.5 -20.5 70.5 -34.5s31.167 -29.667 39.5 -47s12.5 -34.666 12.5 -51.999c0 -14 -2.5 -27.5 -7.5 -40.5s-12.333 -24.5 -22 -34.5s-21.167 -18 -34.5 -24s-28 -9 -44 -9
c-14.667 0 -28.834 2.66699 -42.501 8s-25.667 12.5 -36 21.5s-18.5 19.833 -24.5 32.5s-9 26.334 -9 41.001c0 14 2.66699 27.333 8 40s12.833 23.667 22.5 33s20.834 16.666 33.501 21.999s26.334 8 41.001 8c7.33301 0 14 -0.833008 20 -2.5s10.667 -2.5 14 -2.5
c2 0 3 0.666992 3 2c0 2.66699 -2.83301 5.83398 -8.5 9.50098s-13.167 7.33398 -22.5 11.001s-20.166 6.66699 -32.499 9s-24.833 3.5 -37.5 3.5c-24.667 0 -47 -2.5 -67 -7.5s-37 -13.333 -51 -25s-24.833 -27.5 -32.5 -47.5s-11.5 -45 -11.5 -75v-107h337v-481
c0 -13.333 3 -24.5 9 -33.5s15 -13.5 27 -13.5h29v-13h-1047v13h45c12 0 22.667 2.5 32 7.5s14 15.167 14 30.5v477h-58v13h58v91c0 27.333 7.83301 52 23.5 74s36.334 40.667 62.001 56s54.5 27 86.5 35s64 12 96 12c38 0 69.5 -4.66699 94.5 -14
s44.5 -21.666 58.5 -36.999c30 21.333 66 37.333 108 48s88 16 138 16z" />
    <glyph glyph-name="ffl" unicode="ffl" horiz-adv-x="1063" 
d="M1044 0h-1026v13h45c12 0 22.667 2.5 32 7.5s14 15.167 14 30.5v477h-58v13h58v91c0 27.333 7.83301 52 23.5 74s36.334 40.667 62.001 56s54.5 27 86.5 35s64 12 96 12c33.333 0 61.666 -3.83301 84.999 -11.5s42.333 -17.5 57 -29.5c24.667 17.333 53.667 30.5 87 39.5
s68.666 13.5 105.999 13.5c22.667 0 42.334 -1.5 59.001 -4.5s32.667 -6.5 48 -10.5s31 -7.5 47 -10.5s34.667 -4.5 56 -4.5c10.667 0 19.5 0.666992 26.5 2l30.5 6v-739c0 -13.333 3 -24.5 9 -33.5s15 -13.5 27 -13.5h29v-13zM770 715
c0 20 -1.33398 36.168 -4.00098 48.501s-6.5 21.666 -11.5 27.999s-10.833 10.666 -17.5 12.999s-14 3.5 -22 3.5c-16.667 0 -30.5 -5 -41.5 -15s-16.5 -31 -16.5 -63v-189h78v-13h-78v-476c0 -13.333 3.5 -23.166 10.5 -29.499s16.5 -9.5 28.5 -9.5h26
c14.667 0 26.334 4.5 35.001 13.5s13 20.167 13 33.5v655zM314.999 528.001l0.000976562 -475c0 -13.333 3.83301 -23.333 11.5 -30s17.167 -10 28.5 -10h50c11.333 0 22.166 3.66699 32.499 11s15.5 20.333 15.5 39v465h-138zM453 641.001
c0 27.333 5.16895 50.334 15.502 69.001s23.166 35 38.499 49l-7 6c-4.66699 3.33301 -14.334 8.66602 -29.001 15.999s-33 11 -55 11c-28.667 0 -52.667 -9.16699 -72 -27.5s-29 -42.833 -29 -73.5v-150h138v100z" />
    <glyph glyph-name="ft.liga" unicode="ft" horiz-adv-x="733" 
d="M709 181c0 -37.333 -3.66797 -68.667 -11.001 -94s-17.666 -45.666 -30.999 -60.999s-29.5 -26.333 -48.5 -33s-40.167 -10 -63.5 -10c-21.333 0 -41.333 2.16699 -60 6.5s-34.834 11.333 -48.501 21s-24.5 21.667 -32.5 36s-12 31.5 -12 51.5v430h-98v-475
c0 -13.333 3.83301 -23.333 11.5 -30s17.167 -10 28.5 -10h44v-13h-381v13h45c12 0 22.667 2.5 32 7.5s14 15.167 14 30.5v477h-58v13h58v91c0 27.333 7.83301 52 23.5 74s36.334 40.667 62.001 56s54.5 27 86.5 35s64 12 96 12c32.667 0 60.5 -3.66699 83.5 -11
s42 -16.833 57 -28.5s26 -25 33 -40s10.5 -30.167 10.5 -45.5c0 -13.333 -2.5 -26.166 -7.5 -38.499s-12.167 -23.333 -21.5 -33s-20.666 -17.334 -33.999 -23.001s-28.333 -8.5 -45 -8.5c-13.333 0 -26.5 2 -39.5 6s-24.5 10 -34.5 18s-18.167 18 -24.5 30s-9.5 26 -9.5 42
c0 28.667 10 52 30 70s44 27 72 27h26c5.33301 0 8 0.666992 8 2c0 2.66699 -6.16699 6.5 -18.5 11.5s-29.5 7.5 -51.5 7.5c-28.667 0 -51.834 -8.16699 -69.501 -24.5s-26.5 -39.833 -26.5 -70.5v-159h108c37.333 0 68.166 5.16699 92.499 15.5s43.833 24.5 58.5 42.5
s24.834 39 30.501 63s8.5 49.667 8.5 77l13 -1v-197h92v-13h-92v-454c0 -19.333 2.5 -31.333 7.5 -36s11.167 -7 18.5 -7c13.333 0 25.833 12.667 37.5 38s17.5 62.666 17.5 111.999h13z" />
    <glyph glyph-name="fy.liga" unicode="fy" horiz-adv-x="939" 
d="M950 528l-13.0039 -0.00390625c-16 0 -30.667 -5 -44 -15s-25 -22.167 -35 -36.5s-18.5 -29.5 -25.5 -45.5s-12.5 -30.333 -16.5 -43l-158 -473c-28.667 -86.667 -83.334 -130 -164.001 -130c-18.667 0 -35.667 3.33301 -51 10s-28.5 15.5 -39.5 26.5
s-19.5 23.667 -25.5 38s-9 29.5 -9 45.5c0 15.333 2.83301 29.5 8.5 42.5s13.334 24.167 23.001 33.5s20.667 16.5 33 21.5s25.5 7.5 39.5 7.5c14.667 0 28 -2.83301 40 -8.5s22.333 -13 31 -22s15.334 -19.167 20.001 -30.5s7 -23 7 -35c0 -26 -8.5 -48.167 -25.5 -66.5
s-39.5 -27.5 -67.5 -27.5c-9.33301 0 -18.166 1.16699 -26.499 3.5s-14.5 3.5 -18.5 3.5c-2 0 -3 -0.666992 -3 -2c0 -7.33301 6.83301 -13.833 20.5 -19.5s29.167 -8.5 46.5 -8.5c12 0 25 1.66699 39 5s27.5 9.33301 40.5 18s25.167 20.334 36.5 35.001
s21 33.334 29 56.001l30 89h-80l-221 478c-8 17.333 -16.833 29.833 -26.5 37.5s-19.167 11.834 -28.5 12.501h-12v-475c0 -13.333 3.83301 -23.333 11.5 -30s17.167 -10 28.5 -10h44v-13h-381v13h45c12 0 22.667 2.5 32 7.5s14 15.167 14 30.5v477h-58v13h58v91
c0 27.333 7.83301 52 23.5 74s36.334 40.667 62.001 56s54.5 27 86.5 35s64 12 96 12c32.667 0 60.5 -3.66699 83.5 -11s42 -16.833 57 -28.5s26 -25 33 -40s10.5 -30.167 10.5 -45.5c0 -13.333 -2.5 -26.166 -7.5 -38.499s-12.167 -23.333 -21.5 -33
s-20.666 -17.334 -33.999 -23.001s-28.333 -8.5 -45 -8.5c-13.333 0 -26.5 2 -39.5 6s-24.5 10 -34.5 18s-18.167 18 -24.5 30s-9.5 26 -9.5 42c0 28.667 10 52 30 70s44 27 72 27h26c5.33301 0 8 0.666992 8 2c0 2.66699 -6.16699 6.5 -18.5 11.5s-29.5 7.5 -51.5 7.5
c-28.667 0 -51.834 -8.16699 -69.501 -24.5s-26.5 -39.833 -26.5 -70.5v-159h351v-13h-25c-7.33301 0 -13.5 -2 -18.5 -6s-7.5 -9.66699 -7.5 -17c0 -6.66699 1.33301 -13 4 -19l123 -310l61 185c6.66699 20 11.334 37.833 14.001 53.5s4 29.5 4 41.5
c0 26.667 -5.16699 45.334 -15.5 56.001s-21.5 16 -33.5 16h-17v13h206v-13z" />
    <glyph glyph-name=".notdef" horiz-adv-x="285" 
 />
    <glyph glyph-name=".null" horiz-adv-x="0" 
 />
    <glyph glyph-name=".null" horiz-adv-x="0" 
 />
    <glyph glyph-name="nonmarkingreturn" unicode="&#xd;" horiz-adv-x="285" 
 />
    <glyph glyph-name="space" unicode=" " horiz-adv-x="285" 
 />
    <glyph glyph-name="exclam" unicode="!" horiz-adv-x="360" 
d="M319 647c0 -24 -3.5 -45.4961 -10.5 -64.4961s-15.667 -37.167 -26 -54.5s-21.5 -34.333 -33.5 -51s-23.167 -34.834 -33.5 -54.501s-19 -41.334 -26 -65.001s-10.5 -50.834 -10.5 -81.501c0 -12.667 -1.66699 -19 -5 -19c-4 0 -6 6.33301 -6 19
c0 29.333 -3 55.666 -9 78.999s-13.333 44.833 -22 64.5s-18.167 38.167 -28.5 55.5s-19.833 35 -28.5 53s-16 36.667 -22 56s-9 41 -9 65c0 18.667 3 36.667 9 54s14.833 32.833 26.5 46.5s25.667 24.667 42 33s34.833 12.5 55.5 12.5c22.667 0 42.5 -3.83301 59.5 -11.5
s31.167 -18.167 42.5 -31.5s20 -29 26 -47s9 -37.333 9 -58zM290 107.004c0 -16 -3.16699 -30.833 -9.5 -44.5s-14.833 -25.834 -25.5 -36.501s-23.167 -19 -37.5 -25s-29.5 -9 -45.5 -9s-31.167 3 -45.5 9s-26.833 14.333 -37.5 25s-19 22.834 -25 36.501s-9 28.5 -9 44.5
s3 31 9 45s14.333 26.167 25 36.5s23.167 18.5 37.5 24.5s29.5 9 45.5 9s31.167 -3 45.5 -9s26.833 -14.167 37.5 -24.5s19.167 -22.5 25.5 -36.5s9.5 -29 9.5 -45z" />
    <glyph glyph-name="quotedbl" unicode="&#x22;" horiz-adv-x="578" 
d="M540 680c0 -30.667 -4.66797 -58.998 -14.001 -84.998s-22.5 -48.5 -39.5 -67.5s-37.5 -33.833 -61.5 -44.5s-51 -16 -81 -16v11c24 0 45.5 3.83301 64.5 11.5s35.333 17.667 49 30s24.167 26.166 31.5 41.499s11 31 11 47c0 7.33301 -1.33301 11 -4 11
c-2 0 -4.83301 -1.33301 -8.5 -4s-8.66699 -5.5 -15 -8.5s-14 -5.66699 -23 -8s-19.833 -3.5 -32.5 -3.5c-14.667 0 -29 2.83301 -43 8.5s-26.333 13.167 -37 22.5s-19.334 20.5 -26.001 33.5s-10 26.833 -10 41.5c0 16 3.16699 30.5 9.5 43.5s14.833 24.167 25.5 33.5
s22.834 16.5 36.501 21.5s27.834 7.5 42.501 7.5c18 0 34.667 -3.16699 50 -9.5s28.5 -15 39.5 -26s19.667 -24.333 26 -40s9.5 -32.834 9.5 -51.501zM272.999 680.002c0 -30.667 -4.66797 -58.998 -14.001 -84.998s-22.5 -48.5 -39.5 -67.5s-37.5 -33.833 -61.5 -44.5
s-51 -16 -81 -16v11c24 0 45.5 3.83301 64.5 11.5s35.333 17.667 49 30s24.167 26.166 31.5 41.499s11 31 11 47c0 7.33301 -1.33301 11 -4 11c-2 0 -4.83301 -1.33301 -8.5 -4s-8.66699 -5.5 -15 -8.5s-14 -5.66699 -23 -8s-19.833 -3.5 -32.5 -3.5
c-14.667 0 -28.834 2.83301 -42.501 8.5s-26 13.167 -37 22.5s-19.833 20.5 -26.5 33.5s-10 26.833 -10 41.5c0 16 3.16699 30.5 9.5 43.5s14.833 24.167 25.5 33.5s22.834 16.5 36.501 21.5s27.834 7.5 42.501 7.5c18 0 34.667 -3.16699 50 -9.5s28.5 -15 39.5 -26
s19.667 -24.333 26 -40s9.5 -32.834 9.5 -51.501z" />
    <glyph glyph-name="numbersign" unicode="#" horiz-adv-x="564" 
d="M531 503l-5 -20h-144l-40 -157h144l-5 -20h-144l-69 -272h-21l68 272h-133l-70 -272h-21l70 272h-144l5 20h144l40 157h-144l5 20h144l72 282h21l-72 -282h134l71 282h21l-71 -282h144zM361 483h-134l-40 -157h134z" />
    <glyph glyph-name="dollar" unicode="$" horiz-adv-x="660" 
d="M616 266c0 -30 -5.99902 -58.332 -17.999 -84.999s-28.667 -51 -50 -73s-47 -40.833 -77 -56.5s-63.333 -26.834 -100 -33.501v-106h-15v103l-35 -4c-12 -1.33301 -24.333 -1.66602 -37 -0.999023h-6v-98h-15v98c-34 2 -65.333 8.33301 -94 19s-53.667 24.334 -75 41.001
s-38 36 -50 58s-18 45 -18 69c0 16.667 3.16699 31.667 9.5 45s14.666 24.666 24.999 33.999s21.666 16.666 33.999 21.999s24.5 8 36.5 8c18 0 33.833 -3.33301 47.5 -10s25.167 -15.334 34.5 -26.001s16.5 -22.667 21.5 -36s7.5 -26.666 7.5 -39.999
c0 -30.667 -10.333 -56.167 -31 -76.5s-46.667 -30.5 -78 -30.5c-6 0 -9.66699 -0.5 -11 -1.5s-2 -2.5 -2 -4.5c0 -4 3.83301 -9 11.5 -15s18 -11.667 31 -17s28.167 -10.333 45.5 -15s35.666 -7.66699 54.999 -9v305l-77 36.5c-25.333 12.333 -48 26.5 -68 42.5
s-36.167 34 -48.5 54s-18.5 43.667 -18.5 71c0 26 5.33301 51.167 16 75.5s25.334 46.833 44.001 67.5s41 38.667 67 54s54.333 27 85 35v87h15v-84c10.667 2 21.334 3.66699 32.001 5s21.667 2 33 2c2 0 4.16699 -0.166992 6.5 -0.5s4.5 -0.5 6.5 -0.5v78h15v-78
c34 -2 63.5 -8 88.5 -18s45.667 -22 62 -36s28.333 -29.333 36 -46s11.5 -33 11.5 -49c0 -23.333 -8.5 -43.333 -25.5 -60s-38.833 -25 -65.5 -25c-12 0 -23.5 2 -34.5 6s-20.833 9.83301 -29.5 17.5s-15.667 17 -21 28s-8 23.5 -8 37.5c0 12 2.16699 23.5 6.5 34.5
s10 20.5 17 28.5s15.333 14.333 25 19s19.834 7 30.501 7c5.33301 0 8.5 0.833008 9.5 2.5s1.5 3.16699 1.5 4.5c0 5.33301 -9.83301 12 -29.5 20s-44.5 13.333 -74.5 16v-272l87 -38c29.333 -13.333 55.666 -28.5 78.999 -45.5s42.333 -36.833 57 -59.5s22 -49.667 22 -81z
M356.001 497.001v266c-3.33301 0.666992 -6.16602 1 -8.49902 1h-7.5c-21.333 0 -42 -2.66699 -62 -8v-222c11.333 -6.66699 23.666 -13 36.999 -19zM263.001 543.001v208.001c-23.333 -8 -41.5 -20.333 -54.5 -37s-19.5 -36.667 -19.5 -60
c0 -24.667 6.83301 -45.834 20.5 -63.501s31.5 -33.5 53.5 -47.5zM462.001 151.002c0 28.667 -8.5 53 -25.5 73s-38.833 37.667 -65.5 53v-242c30 10 52.667 25.167 68 45.5s23 43.833 23 70.5zM356.001 31.002v255c-12.667 6.66699 -25.5 13 -38.5 19l-39.5 18v-299
c1.33301 0 3 -0.166992 5 -0.5s3.66699 -0.5 5 -0.5c24 0 46.667 2.66699 68 8z" />
    <glyph glyph-name="percent" unicode="%" horiz-adv-x="648" 
d="M620 865l-558 -917.997h-16l506 833c-6.66699 -6 -15 -12 -25 -18s-21 -11.333 -33 -16s-24.333 -8.5 -37 -11.5s-25 -4.5 -37 -4.5c-18.667 0 -35.834 1.66699 -51.501 5s-29.834 7.66602 -42.501 12.999c10.667 -16.667 19 -35 25 -55s9 -41 9 -63
c0 -26.667 -4.16699 -51.5 -12.5 -74.5s-19.833 -43.167 -34.5 -60.5s-31.834 -31 -51.501 -41s-40.5 -15 -62.5 -15s-42.833 5 -62.5 15s-36.834 23.667 -51.501 41s-26.167 37.5 -34.5 60.5s-12.5 47.833 -12.5 74.5c0 26 4.16699 50.667 12.5 74
s19.833 43.666 34.5 60.999s31.834 31 51.501 41s40.5 15 62.5 15c21.333 0 39.333 -4 54 -12s29.334 -16.667 44.001 -26s31.334 -18 50.001 -26s43 -12 73 -12c22.667 0 44 4.16699 64 12.5s38.167 18.666 54.5 30.999s30.333 25.833 42 40.5s20.834 28 27.501 40z
M596 147.003c0 -26 -4.16699 -50.667 -12.5 -74s-19.833 -43.666 -34.5 -60.999s-31.834 -31 -51.501 -41s-40.5 -15 -62.5 -15s-42.833 5 -62.5 15s-36.834 23.667 -51.501 41s-26.167 37.666 -34.5 60.999s-12.5 48 -12.5 74c0 26.667 4.16699 51.5 12.5 74.5
s19.833 43.167 34.5 60.5s31.834 31 51.501 41s40.5 15 62.5 15s42.833 -5 62.5 -15s36.834 -23.667 51.501 -41s26.167 -37.5 34.5 -60.5s12.5 -47.833 12.5 -74.5zM249 627.003c0 40 -0.667969 72 -2.00098 96s-3.66602 42.167 -6.99902 54.5s-8 20.333 -14 24
s-13.667 5.5 -23 5.5c-10 0 -18.333 -2.16699 -25 -6.5s-12.167 -13 -16.5 -26s-7.33301 -31 -9 -54s-2.5 -53.5 -2.5 -91.5c0 -37.333 0.5 -67.666 1.5 -90.999s3.33301 -41.333 7 -54s8.66699 -21.167 15 -25.5s14.833 -6.5 25.5 -6.5s19.167 2.66699 25.5 8
s11.333 14.666 15 27.999s6.16699 31.333 7.5 54s2 51 2 85zM484.999 145.003c0 40 -0.666992 72 -2 96s-3.66602 42.167 -6.99902 54.5s-8 20.333 -14 24s-13.667 5.5 -23 5.5c-10 0 -18.333 -2.16699 -25 -6.5s-12 -13 -16 -26s-6.83301 -31 -8.5 -54
s-2.5 -53.5 -2.5 -91.5c0 -37.333 0.5 -67.666 1.5 -90.999s3.16699 -41.333 6.5 -54s8.16602 -21.167 14.499 -25.5s14.833 -6.5 25.5 -6.5s19.167 2.66699 25.5 8s11.333 14.666 15 27.999s6.16699 31.333 7.5 54s2 51 2 85z" />
    <glyph glyph-name="ampersand" unicode="&#x26;" horiz-adv-x="959" 
d="M926 429c0 -15.333 -2.83887 -29.999 -8.50586 -43.999s-13.667 -26.5 -24 -37.5s-22.5 -19.667 -36.5 -26s-29.333 -9.5 -46 -9.5c-18 0 -34.667 3 -50 9s-28.666 14.333 -39.999 25s-20.166 23.5 -26.499 38.5s-9.5 31.5 -9.5 49.5c0 16 3.16699 29.667 9.5 41
s9.5 18 9.5 20h-1c-6.66699 0 -19.5 -14 -38.5 -42s-39.833 -66.667 -62.5 -116c20.667 -24 41.5 -46.333 62.5 -67s41.5 -38.667 61.5 -54s39.167 -27.333 57.5 -36s35.5 -13 51.5 -13c10.667 0 20.5 2.33301 29.5 7s16.833 10.667 23.5 18s11.834 15.5 15.501 24.5
s5.5 17.833 5.5 26.5c0 6.66699 -0.833008 11.834 -2.5 15.501s-2.5 7.16699 -2.5 10.5c0 1.33301 0.666992 3 2 5s3 3 5 3c2.66699 0 5.33398 -2 8.00098 -6s4 -12 4 -24c0 -31.333 -6.5 -62.333 -19.5 -93s-30.167 -58.167 -51.5 -82.5s-46.333 -44 -75 -59
s-58.334 -22.5 -89.001 -22.5c-28 0 -59 10.5 -93 31.5s-69 48.5 -105 82.5c-30 -40.667 -63.667 -69.5 -101 -86.5s-82 -25.5 -134 -25.5c-32 0 -61.667 5.16699 -89 15.5s-51.166 24.5 -71.499 42.5s-36.333 39.167 -48 63.5s-17.5 50.166 -17.5 77.499
c0 34.667 6 65.167 18 91.5s27.833 49.666 47.5 69.999s42.334 37.833 68.001 52.5s52.167 27.667 79.5 39c-14 30 -25 57.833 -33 83.5s-12 48.5 -12 68.5c0 32 6.33301 61.333 19 88s30 49.5 52 68.5s47.833 33.667 77.5 44s61.834 15.5 96.501 15.5
c28 0 54.167 -3 78.5 -9s45.5 -14.5 63.5 -25.5s32.167 -24.5 42.5 -40.5s15.5 -34.333 15.5 -55c0 -21.333 -4.5 -40.5 -13.5 -57.5s-21.167 -32.333 -36.5 -46s-33 -26 -53 -37s-41.333 -20.833 -64 -29.5c17.333 -28 35.666 -55.5 54.999 -82.5
s39.666 -53.167 60.999 -78.5c12 26.667 24.667 52.5 38 77.5s28.5 47.167 45.5 66.5s36 34.833 57 46.5s44.833 17.5 71.5 17.5c14.667 0 29.334 -2.83301 44.001 -8.5s27.834 -14 39.501 -25s21.167 -24.667 28.5 -41s11 -34.833 11 -55.5zM511.994 573.001
c0 12 -3.5 30.332 -10.5 54.999s-16.167 49.667 -27.5 75s-24 47.5 -38 66.5s-27.667 28.5 -41 28.5c-7.33301 0 -14.333 -2.66699 -21 -8s-10 -12.666 -10 -21.999c0 -25.333 9.5 -59.833 28.5 -103.5s43.833 -90.5 74.5 -140.5c14 7.33301 25 14.833 33 22.5
s12 16.5 12 26.5zM477.994 116c-22 22 -43.834 45.832 -65.501 71.499s-42.5 52.167 -62.5 79.5s-38.5 54.833 -55.5 82.5s-32.167 54.834 -45.5 81.501c-15.333 -8 -27.5 -16.833 -36.5 -26.5s-13.5 -20.167 -13.5 -31.5c0 -14 3.5 -31.167 10.5 -51.5
s16.5 -41.833 28.5 -64.5s25.5 -45 40.5 -67s30.5 -42 46.5 -60s31.833 -32.5 47.5 -43.5s29.834 -16.5 42.501 -16.5c10.667 0 21.167 4 31.5 12s20.833 19.333 31.5 34z" />
    <glyph glyph-name="quotesingle" unicode="'" horiz-adv-x="274" 
d="M257 680c0 -30.667 -4.66797 -58.998 -14.001 -84.998s-22.5 -48.5 -39.5 -67.5s-37.5 -33.833 -61.5 -44.5s-51 -16 -81 -16v11c24 0 45.5 3.83301 64.5 11.5s35.333 17.667 49 30s24.167 26.166 31.5 41.499s11 31 11 47c0 7.33301 -1.33301 11 -4 11
c-2 0 -4.83301 -1.33301 -8.5 -4s-8.66699 -5.5 -15 -8.5s-14 -5.66699 -23 -8s-19.833 -3.5 -32.5 -3.5c-14.667 0 -28.834 2.83301 -42.501 8.5s-26 13.167 -37 22.5s-19.833 20.5 -26.5 33.5s-10 26.833 -10 41.5c0 16 3.16699 30.5 9.5 43.5s14.833 24.167 25.5 33.5
s22.834 16.5 36.501 21.5s27.834 7.5 42.501 7.5c18 0 34.667 -3.16699 50 -9.5s28.5 -15 39.5 -26s19.667 -24.333 26 -40s9.5 -32.834 9.5 -51.501z" />
    <glyph glyph-name="parenleft" unicode="(" horiz-adv-x="369" 
d="M337 -120l-6.99707 -12.0029c-15.333 7.33301 -33 18.5 -53 33.5s-40.667 33.5 -62 55.5s-42.166 47.167 -62.499 75.5s-38.5 59.833 -54.5 94.5s-29 72.5 -39 113.5s-15 84.833 -15 131.5c0 48.667 5.5 94.167 16.5 136.5s25 81.5 42 117.5s36.167 68.5 57.5 97.5
s42.5 54.167 63.5 75.5s40.667 39 59 53s33.166 23.667 44.499 29l3 -10c-12.667 -7.33301 -28.334 -22 -47.001 -44s-36.834 -53.167 -54.501 -93.5s-32.667 -90.166 -45 -149.499s-18.5 -130 -18.5 -212s5.66699 -152.167 17 -210.5s25.5 -107.166 42.5 -146.499
s35.667 -69.666 56 -90.999s39.166 -36 56.499 -44z" />
    <glyph glyph-name="parenright" unicode=")" horiz-adv-x="346" 
d="M334 378c0 -48.667 -5.50391 -94.1641 -16.5039 -136.497s-25 -81.5 -42 -117.5s-36.167 -68.5 -57.5 -97.5s-42.5 -54.333 -63.5 -76s-40.667 -39.5 -59 -53.5s-33.166 -23.667 -44.499 -29l-3 10c12.667 7.33301 28.334 22.166 47.001 44.499s36.834 53.5 54.501 93.5
s32.667 89.833 45 149.5s18.5 130.5 18.5 212.5s-5.66699 152.167 -17 210.5s-25.5 107.166 -42.5 146.499s-35.667 69.666 -56 90.999s-39.166 36 -56.499 44l7 11c23.333 -11.333 51.333 -30.833 84 -58.5s64 -62.667 94 -105s55.5 -92 76.5 -149s31.5 -120.5 31.5 -190.5
z" />
    <glyph glyph-name="asterisk" unicode="*" horiz-adv-x="371" 
d="M358 612c0 -12 -4.5 -21.499 -13.5 -28.499s-19.167 -10.5 -30.5 -10.5c-6.66699 0 -13.5 1.66699 -20.5 5s-15 6.83301 -24 10.5s-19.167 7.16699 -30.5 10.5s-24.666 5 -39.999 5l3 -3c10.667 -10.667 21 -18.667 31 -24s19.5 -9.33301 28.5 -12l24.5 -7
c7.33301 -2 13.333 -5.33301 18 -10c4 -4.66699 7.5 -9.5 10.5 -14.5s4.5 -10.833 4.5 -17.5c0 -10 -3.83301 -18.667 -11.5 -26s-16.834 -11 -27.501 -11c-12.667 0 -23 4.66699 -31 14c-4.66699 4 -8.33398 9.66699 -11.001 17s-5.83398 15.5 -9.50098 24.5
s-8 18.5 -13 28.5s-12.167 19.667 -21.5 29l-5 5v-5c0 -15.333 1.83301 -28.333 5.5 -39s7.66699 -20.167 12 -28.5l12 -22.5c3.66699 -6.66699 5.5 -13.334 5.5 -20.001c0 -12 -3.16699 -22.167 -9.5 -30.5s-16.166 -12.5 -29.499 -12.5c-12 0 -21.5 4.33301 -28.5 13
s-10.5 18.667 -10.5 30c0 6.66699 1.66699 13.5 5 20.5l10.5 23c3.66699 8.33301 7.16699 18 10.5 29s5 23.833 5 38.5c-10.667 -10.667 -18.834 -22.5 -24.501 -35.5l-16.5 -37c-5.33301 -11.667 -11.5 -21.334 -18.5 -29.001s-16.833 -11.5 -29.5 -11.5
c-10.667 0 -19.334 3.5 -26.001 10.5s-10 15.5 -10 25.5c0 13.333 4.16699 23.333 12.5 30s18.333 12.334 30 17.001s23.834 9.16699 36.501 13.5s23.667 11.166 33 20.499l7 7h-11c-12.667 0 -23.667 -1.5 -33 -4.5s-17.833 -6.5 -25.5 -10.5s-14.834 -7.5 -21.501 -10.5
s-14 -4.5 -22 -4.5c-11.333 0 -21.833 3.16699 -31.5 9.5s-14.5 15.833 -14.5 28.5s4.83301 22.334 14.5 29.001s20.167 10 31.5 10c8 0 15.333 -1.83301 22 -5.5l22 -12c8 -4.33301 17.333 -8.33301 28 -12s24 -5.5 40 -5.5l-8 8
c-9.33301 8.66699 -20.166 15.667 -32.499 21l-36 16c-11.667 5.33301 -21.5 11.5 -29.5 18.5s-12 16.833 -12 29.5c0 10 3.66699 18.333 11 25s16 10 26 10c13.333 0 23.333 -4.16699 30 -12.5s12.334 -18.333 17.001 -30s9.16699 -23.834 13.5 -36.501
s11.166 -23.667 20.499 -33l7 -6v11c0 12.667 -1.5 23.667 -4.5 33s-6.5 17.833 -10.5 25.5s-7.5 14.834 -10.5 21.501s-4.5 14 -4.5 22c0 11.333 3.16699 21.833 9.5 31.5s15.833 14.5 28.5 14.5s22.334 -4.83301 29.001 -14.5s10 -20.167 10 -31.5
c0 -8 -1.83301 -15.5 -5.5 -22.5l-12 -23c-4.33301 -8.33301 -8.33301 -18.166 -12 -29.499s-5.5 -25.333 -5.5 -42l7 7c10.667 10.667 18.5 21.167 23.5 31.5s9 20 12 29s5.5 17 7.5 24s5.33301 12.833 10 17.5c4 4 8.66699 7.5 14 10.5s11 4.5 17 4.5
c10.667 0 19.667 -3.83301 27 -11.5s11 -16.5 11 -26.5c0 -6.66699 -1.33301 -12.5 -4 -17.5s-6 -9.83301 -10 -14.5s-9.83301 -8.33398 -17.5 -11.001s-16 -5.83398 -25 -9.50098s-18.333 -8 -28 -13s-19.167 -12.167 -28.5 -21.5l-5 -5h5c14.667 0 27.5 1.83301 38.5 5.5
s20.5 7.66699 28.5 12l22 12c6.66699 3.66699 13.334 5.5 20.001 5.5c12.667 0 23.167 -3.16699 31.5 -9.5s12.5 -16.166 12.5 -29.499z" />
    <glyph glyph-name="plus" unicode="+" horiz-adv-x="362" 
d="M308 306h-100v-100h-36v100h-100v36h100v100h36v-100h100v-36z" />
    <glyph glyph-name="comma" unicode="," horiz-adv-x="307" 
d="M276 73c0 -30.667 -4.66797 -58.998 -14.001 -84.998s-22.5 -48.5 -39.5 -67.5s-37.5 -33.833 -61.5 -44.5s-51 -16 -81 -16v11c24 0 45.5 3.83301 64.5 11.5s35.333 17.667 49 30s24.167 26.166 31.5 41.499s11 31 11 47c0 7.33301 -1.33301 11 -4 11
c-2 0 -4.83301 -1.33301 -8.5 -4s-8.66699 -5.5 -15 -8.5s-14 -5.66699 -23 -8s-19.833 -3.5 -32.5 -3.5c-14.667 0 -28.834 2.83301 -42.501 8.5s-26 13.167 -37 22.5s-19.833 20.5 -26.5 33.5s-10 26.833 -10 41.5c0 16 3.16699 30.5 9.5 43.5s14.833 24.167 25.5 33.5
s22.834 16.5 36.501 21.5s27.834 7.5 42.501 7.5c18 0 34.667 -3.16699 50 -9.5s28.5 -15 39.5 -26s19.667 -24.333 26 -40s9.5 -32.834 9.5 -51.501z" />
    <glyph glyph-name="hyphen" unicode="-" horiz-adv-x="336" 
d="M287 261h-236v56h236v-56z" />
    <glyph glyph-name="period" unicode="." horiz-adv-x="312" 
d="M279 103c0 -16 -3.16699 -31.167 -9.5 -45.5s-15 -26.833 -26 -37.5s-23.833 -19.167 -38.5 -25.5s-30.334 -9.5 -47.001 -9.5s-32.334 3.16699 -47.001 9.5s-27.5 14.833 -38.5 25.5s-19.667 23.167 -26 37.5s-9.5 29.5 -9.5 45.5s3.16699 31.167 9.5 45.5
s15 26.833 26 37.5s23.833 19.167 38.5 25.5s30.334 9.5 47.001 9.5s32.334 -3.16699 47.001 -9.5s27.5 -14.833 38.5 -25.5s19.667 -23.167 26 -37.5s9.5 -29.5 9.5 -45.5z" />
    <glyph glyph-name="slash" unicode="/" horiz-adv-x="483" 
d="M552 817l-497 -837h-19l495 837h21z" />
    <glyph glyph-name="zero" unicode="0" horiz-adv-x="660" 
d="M634 398c0 -56.667 -8 -109.998 -24 -159.998s-37.667 -93.5 -65 -130.5s-59.5 -66.333 -96.5 -88s-76.5 -32.5 -118.5 -32.5s-81.5 10.833 -118.5 32.5s-69.167 51.167 -96.5 88.5s-49 81 -65 131s-24 103.333 -24 160s8 110.167 24 160.5s37.667 94.166 65 131.499
s59.5 66.833 96.5 88.5s76.5 32.5 118.5 32.5s81.5 -10.833 118.5 -32.5s69.167 -51.334 96.5 -89.001s49 -81.667 65 -132s24 -103.833 24 -160.5zM421 389.002c0 76.667 -0.501953 141.169 -1.50195 193.502s-4.16699 94.5 -9.5 126.5s-13.833 55 -25.5 69
s-28.5 21 -50.5 21c-19.333 0 -35 -6.83301 -47 -20.5s-21.333 -36.167 -28 -67.5s-11.167 -73 -13.5 -125s-3.5 -116 -3.5 -192c0 -80.667 0.833008 -146.5 2.5 -197.5s5.5 -90.833 11.5 -119.5s15 -48.334 27 -59.001s28 -16 48 -16c18 0 32.833 5 44.5 15
s20.834 29 27.501 57s11.334 67.167 14.001 117.5s4 116.166 4 197.499z" />
    <glyph glyph-name="one" unicode="1" horiz-adv-x="447" 
d="M420 0l-374.001 0.000976562v13h30c16.667 0 28.834 5.16699 36.501 15.5s11.5 23.833 11.5 40.5v544c0 23.333 -5 39.5 -15 48.5s-22 13.5 -36 13.5h-28v11c16 0 37.833 5 65.5 15s55.667 22 84 36s54.333 28.667 78 44s39.834 28.666 48.501 39.999v-740
c0 -23.333 5.66699 -40.5 17 -51.5s22.666 -16.5 33.999 -16.5h48v-13z" />
    <glyph glyph-name="two" unicode="2" horiz-adv-x="644" 
d="M616 289c0 -42.667 -4.00586 -83.1768 -12.0059 -121.51s-20.333 -72 -37 -101s-38 -52 -64 -69s-57 -25.5 -93 -25.5c-24.667 0 -46.167 3.5 -64.5 10.5s-34.5 15.667 -48.5 26s-26.833 21.5 -38.5 33.5s-23.5 23.167 -35.5 33.5s-24.833 19 -38.5 26
s-29.5 10.5 -47.5 10.5c-10.667 0 -21.167 -2.16699 -31.5 -6.5s-19.666 -10.166 -27.999 -17.499s-15 -16 -20 -26s-7.5 -21 -7.5 -33c0 -9.33301 0.333008 -16.333 1 -21s1.66699 -8 3 -10h-16c-3.33301 3.33301 -6 11.833 -8 25.5s-3 31.834 -3 54.501
c0 32.667 4.66699 62.5 14 89.5s21.5 51.167 36.5 72.5s31.667 39.666 50 54.999s36.5 28 54.5 38c7.33301 4 17.5 9 30.5 15s27 13.833 42 23.5s30.333 21.334 46 35.001s29.834 30.334 42.501 50.001s23 42.667 31 69s12 56.833 12 91.5c0 33.333 -3.33301 61.5 -10 84.5
s-15.667 41.5 -27 55.5s-24.666 24.167 -39.999 30.5s-31.333 9.5 -48 9.5c-17.333 0 -35 -3.66699 -53 -11s-34.667 -16.666 -50 -27.999s-27.833 -24.333 -37.5 -39s-14.5 -29 -14.5 -43c0 -10 2 -15 6 -15c1.33301 0 4.16602 1.33301 8.49902 4s9.66602 5.66699 15.999 9
s13.666 6.33301 21.999 9s17.5 4 27.5 4c16 0 30.333 -3 43 -9s23.334 -14 32.001 -24s15.334 -21.333 20.001 -34s7 -25.667 7 -39c0 -28.667 -10.167 -53.167 -30.5 -73.5s-48.166 -30.5 -83.499 -30.5c-18 0 -34.167 3.5 -48.5 10.5s-26.5 16.5 -36.5 28.5
s-17.5 26 -22.5 42s-7.5 32.667 -7.5 50c0 24 5.16699 48.333 15.5 73s26.166 47.167 47.499 67.5s48.5 37 81.5 50s72.167 19.5 117.5 19.5c42.667 0 81.334 -5.33301 116.001 -16s64.334 -25.667 89.001 -45s43.667 -42.166 57 -68.499s20 -54.833 20 -85.5
c0 -33.333 -6.5 -62 -19.5 -86s-29.833 -44.667 -50.5 -62s-43.667 -31.666 -69 -42.999s-50.166 -20.833 -74.499 -28.5s-46.666 -13.667 -66.999 -18s-36.166 -8.16602 -47.499 -11.499c-37.333 -10.667 -70.333 -25.167 -99 -43.5s-52.834 -39.5 -72.501 -63.5
s-34.667 -50.167 -45 -78.5s-15.5 -57.5 -15.5 -87.5v-8c0 -4.66699 1 -7 3 -7c0 2.66699 3.83301 11 11.5 25s20.5 28.833 38.5 44.5s42 29.834 72 42.501s67.667 19 113 19c25.333 0 46.5 -0.666992 63.5 -2s32.5 -3 46.5 -5s28 -3.66699 42 -5s30.667 -2 50 -2
c22 0 40.833 2.83301 56.5 8.5s28.5 13.334 38.5 23.001s17.5 20.834 22.5 33.501s7.5 26 7.5 40z" />
    <glyph glyph-name="three" unicode="3" horiz-adv-x="663" 
d="M621 231c0 -39.333 -9.00098 -74.665 -27.001 -105.998s-42.167 -58 -72.5 -80s-65.166 -38.833 -104.499 -50.5s-80 -17.5 -122 -17.5c-55.333 0 -101.666 8.33301 -138.999 25s-66.5 37.334 -87.5 62.001s-34.333 51.667 -40 81s-4.66699 56.333 3 81
s21.667 45.334 42 62.001s45.833 25 76.5 25c15.333 0 29.5 -3 42.5 -9s24.167 -13.833 33.5 -23.5s16.666 -21 21.999 -34s8 -26.5 8 -40.5c0 -31.333 -9.5 -57.5 -28.5 -78.5s-44.5 -31.5 -76.5 -31.5c-17.333 0 -31.5 2.83301 -42.5 8.5s-17.167 8.5 -18.5 8.5
s-2.66602 -0.5 -3.99902 -1.5s-2 -3.5 -2 -7.5c0 -10.667 4 -22.5 12 -35.5s19.5 -25.167 34.5 -36.5s33.333 -20.833 55 -28.5s46.167 -11.5 73.5 -11.5c24.667 0 46.167 2.66699 64.5 8s33.5 16 45.5 32s21 38.333 27 67s9 66.334 9 113.001c0 48.667 -4 87.667 -12 117
s-18.5 52 -31.5 68s-27.5 26.5 -43.5 31.5s-32.333 7.5 -49 7.5c-10.667 0 -20.334 -0.833008 -29.001 -2.5s-14.667 -2.5 -18 -2.5c-2 0 -3.66699 1.16699 -5 3.5s-2 5.16602 -2 8.49902c0 6 2.66699 9 8 9c6.66699 0 12.5 -0.833008 17.5 -2.5s15.167 -2.5 30.5 -2.5
c18.667 0 34 3.16699 46 9.5s21.5 16.666 28.5 30.999s11.833 33.333 14.5 57s4 52.834 4 87.501c0 56.667 -8.66699 99.5 -26 128.5s-42.333 43.5 -75 43.5c-14 0 -28 -2.33301 -42 -7s-26.667 -10.334 -38 -17.001s-20.5 -13.667 -27.5 -21s-10.5 -13.666 -10.5 -18.999
c0 -7.33301 2.33301 -11 7 -11c3.33301 0 8.5 1.16699 15.5 3.5s15.167 3.5 24.5 3.5c12.667 0 24.5 -2.5 35.5 -7.5s20.667 -12 29 -21s14.833 -19.333 19.5 -31s7 -24.5 7 -38.5c0 -15.333 -2.66699 -29.333 -8 -42s-12.666 -23.834 -21.999 -33.501
s-20.333 -17.167 -33 -22.5s-26.334 -8 -41.001 -8c-17.333 0 -32.5 3.16699 -45.5 9.5s-24.167 14.666 -33.5 24.999s-16.333 22.5 -21 36.5s-7 28.667 -7 44c0 20 4.33301 40.167 13 60.5s22 38.666 40 54.999s41 29.666 69 39.999s61.667 15.5 101 15.5
c38.667 0 74.5 -4.83301 107.5 -14.5s61.5 -23 85.5 -40s42.667 -37 56 -60s20 -47.5 20 -73.5c0 -26.667 -6.66699 -50.5 -20 -71.5s-28.833 -39 -46.5 -54s-35.5 -27.167 -53.5 -36.5s-31.667 -15.333 -41 -18v-5c20.667 -6 43.667 -14.5 69 -25.5s49 -25 71 -42
s40.5 -37.667 55.5 -62s22.5 -52.5 22.5 -84.5z" />
    <glyph glyph-name="four" unicode="4" horiz-adv-x="659" 
d="M639 346l-27 -108h-115v-177c0 -17.333 4.5 -29.833 13.5 -37.5s22.167 -11.5 39.5 -11.5h32v-12h-402v12h48c40.667 0 61 19 61 57v169h-278l328 562h158v-526h61c13.333 0 25.833 4.33301 37.5 13s20.167 21.667 25.5 39l6 21zM289 682l-240 -408h240v408z" />
    <glyph glyph-name="five" unicode="5" horiz-adv-x="636" 
d="M607 258c0 -42 -9.00098 -80.1602 -27.001 -114.493s-41.833 -63.666 -71.5 -87.999s-63.667 -43.166 -102 -56.499s-77.833 -20 -118.5 -20c-46.667 0 -86.5 6.16699 -119.5 18.5s-60.167 28.166 -81.5 47.499s-37 41 -47 65s-15 47.667 -15 71c0 18 2.66699 35 8 51
s13 30 23 42s22.333 21.667 37 29s31 11 49 11c31.333 0 57.333 -10.167 78 -30.5s31 -45.166 31 -74.499c0 -16 -2.66699 -30.667 -8 -44s-12.666 -25 -21.999 -35s-20.333 -17.667 -33 -23s-26 -8 -40 -8c-9.33301 0 -18.166 1.16699 -26.499 3.5s-15.666 5 -21.999 8
s-11.5 5.66699 -15.5 8s-6.33301 3.5 -7 3.5c-2.66699 0 -4 -2.66699 -4 -8c0 -13.333 4.83301 -27 14.5 -41s22.667 -26.667 39 -38s35.5 -20.833 57.5 -28.5s45.333 -11.5 70 -11.5s45 4.33301 61 13s28.833 22.667 38.5 42s16.5 44.666 20.5 75.999s6 69.666 6 114.999
s-3 83.833 -9 115.5s-15 57.5 -27 77.5s-27 34.5 -45 43.5s-39.333 13.5 -64 13.5c-19.333 0 -37.333 -4.33301 -54 -13s-31.334 -18.834 -44.001 -30.501s-23.334 -23.834 -32.001 -36.501s-14.334 -23 -17.001 -31l-15 6c4 10.667 8.83301 27.834 14.5 51.501
s11.5 50 17.5 79l18.5 90.5c6.33301 31.333 11.833 60.5 16.5 87.5l11.5 68.5c3 18.667 4.5 30 4.5 34c0.666992 6 2 9.83301 4 11.5s4.66699 2.5 8 2.5c2.66699 0 17.834 -3.33301 45.501 -10s70.167 -10 127.5 -10c28.667 0 55.167 1.16699 79.5 3.5
s45.5 4.66602 63.5 6.99902s32.167 4.66602 42.5 6.99902s16.166 3.5 17.499 3.5c5.33301 0 8 -3.66699 8 -11c0 -14.667 -4.66699 -31.834 -14 -51.501s-25 -38.334 -47 -56.001s-50.667 -32.667 -86 -45s-79 -18.5 -131 -18.5c-12 0 -25 0.5 -39 1.5s-27.167 2 -39.5 3
s-22.833 2 -31.5 3s-13.667 1.5 -15 1.5l-47 -204h6c6 8 14.333 16.667 25 26s24.334 18.166 41.001 26.499s36.667 15.333 60 21s50.333 8.5 81 8.5c38.667 0 75.5 -6 110.5 -18s66 -29.333 93 -52s48.5 -49.834 64.5 -81.501s24 -67.5 24 -107.5z" />
    <glyph glyph-name="six" unicode="6" horiz-adv-x="657" 
d="M628 263c0 -35.333 -6.99512 -69.833 -20.9951 -103.5s-33.333 -63.667 -58 -90s-54.167 -47.5 -88.5 -63.5s-71.833 -24 -112.5 -24s-80.334 8.33301 -119.001 25s-73 40.667 -103 72s-54.167 69.5 -72.5 114.5s-27.5 95.833 -27.5 152.5c0 70 10.5 133.667 31.5 191
s49.167 106.5 84.5 147.5s75.833 72.833 121.5 95.5s93.167 34 142.5 34c28 0 52.833 -4.83301 74.5 -14.5s39.667 -22 54 -37s25.333 -31.833 33 -50.5s11.5 -37 11.5 -55c0 -27.333 -9 -51 -27 -71s-44 -30 -78 -30c-16 0 -30.5 2.83301 -43.5 8.5s-24 13 -33 22
s-16 19.333 -21 31s-7.5 23.834 -7.5 36.501s2.5 25 7.5 37s11.667 22.333 20 31s18.333 15.667 30 21s24.167 8 37.5 8c8.66699 0 15.667 -0.833008 21 -2.5s9.66602 -2.5 12.999 -2.5c2 0 3 1 3 3c0 7.33301 -2.66699 14.5 -8 21.5s-12.333 13 -21 18
s-18.834 9 -30.501 12s-23.834 4.5 -36.501 4.5c-55.333 0 -97.333 -33.667 -126 -101s-43.334 -173.333 -44.001 -318c12.667 38 32.167 66.5 58.5 85.5s61.5 28.5 105.5 28.5c34 0 65.167 -5.83301 93.5 -17.5s52.5 -27.834 72.5 -48.501s35.5 -45.667 46.5 -75
s16.5 -61.333 16.5 -96zM432.005 240c0 40.667 -0.830078 76.168 -2.49707 106.501s-5.33398 55.166 -11.001 74.499s-13.5 33.833 -23.5 43.5s-23.333 14.5 -40 14.5c-27.333 0 -52 -13.167 -74 -39.5s-37.333 -65.166 -46 -116.499
c0.666992 -64 2.66699 -117.167 6 -159.5s8.66602 -76 15.999 -101s17.5 -42.667 30.5 -53s29.167 -15.5 48.5 -15.5c22.667 0 40.5 5.16699 53.5 15.5s22.667 25.666 29 45.999s10.166 45.833 11.499 76.5s2 66.667 2 108z" />
    <glyph glyph-name="seven" unicode="7" horiz-adv-x="568" 
d="M552 771c0 -35.333 -3.83496 -66.832 -11.502 -94.499s-17.834 -53.334 -30.501 -77.001s-27 -46.334 -43 -68.001l-48 -65.5c-14 -20 -27.833 -40.833 -41.5 -62.5s-25.667 -45.5 -36 -71.5s-18.666 -54.667 -24.999 -86s-9.5 -66.666 -9.5 -105.999
c0 -42 3.83301 -74.5 11.5 -97.5s14.167 -37.167 19.5 -42.5h-265c-7.33301 14.667 -11 32.667 -11 54c0 38 7.16699 74.333 21.5 109s32.5 67.334 54.5 98.001s46.667 58.667 74 84s54 47.666 80 66.999l73.5 56c26.333 20.667 51 43 74 67s42.167 49.333 57.5 76
s23 54 23 82c0 4 -1 6 -3 6c-1.33301 0 -6 -4.83301 -14 -14.5s-19.833 -20.167 -35.5 -31.5s-34.834 -21.833 -57.501 -31.5s-49 -14.5 -79 -14.5c-20 0 -38.167 1.83301 -54.5 5.5s-31.666 7.66699 -45.999 12s-28.5 8.33301 -42.5 12s-29 5.5 -45 5.5
c-20 0 -36.333 -4.5 -49 -13.5s-22.5 -20.667 -29.5 -35s-12.167 -30.333 -15.5 -48s-6 -35.5 -8 -53.5h-14c2 10 5 27.333 9 52s7.83301 51.5 11.5 80.5s6.83398 57.167 9.50098 84.5s4 49 4 65h13c0 -6 -0.166992 -13.333 -0.5 -22s1.16699 -13 4.5 -13
c2 0 7.16699 4 15.5 12s19.333 16.667 33 26s29.834 18 48.501 26s39.334 12 62.001 12s44 -2.83301 64 -8.5s39.333 -12 58 -19s37.167 -13.333 55.5 -19s37.5 -8.5 57.5 -8.5c14 0 25.333 1.33301 34 4s15.5 5.66699 20.5 9s8.66699 6.33301 11 9s4.16602 4 5.49902 4
c6 0 9 -5 9 -15z" />
    <glyph glyph-name="eight" unicode="8" horiz-adv-x="666" 
d="M640 262c0 -48 -9.49707 -89.668 -28.4971 -125.001s-44 -64.5 -75 -87.5s-65.833 -40.167 -104.5 -51.5s-78 -17 -118 -17c-36.667 0 -72.334 4.5 -107.001 13.5s-65.334 22.333 -92.001 40s-48.167 39.167 -64.5 64.5s-24.5 54.333 -24.5 87
c0 24.667 4.66699 47.334 14 68.001s21.833 39.167 37.5 55.5s33.5 30.833 53.5 43.5s41 23.667 63 33c-15.333 10 -29.333 21 -42 33s-23.834 25.667 -33.501 41s-17.167 32.666 -22.5 51.999s-8 41.333 -8 66c0 36 7.16699 68.833 21.5 98.5s33.5 55.334 57.5 77.001
s51.667 38.334 83 50.001s64 17.5 98 17.5c24.667 0 50.667 -3.5 78 -10.5s52.5 -17.833 75.5 -32.5s42 -32.834 57 -54.501s22.5 -47.167 22.5 -76.5c0 -17.333 -3.16699 -33.833 -9.5 -49.5s-14.833 -30.167 -25.5 -43.5s-23 -25.833 -37 -37.5s-28.667 -22.5 -44 -32.5
c22 -10 43.5 -21.167 64.5 -33.5s39.667 -27 56 -44s29.5 -37.167 39.5 -60.5s15 -51.333 15 -84zM467.003 628.999l0.00292969 9.99902c0 16.667 -1.33301 34.834 -4 54.501s-7.66699 38 -15 55s-18 31 -32 42s-32 16.5 -54 16.5c-17.333 0 -32.333 -3.83301 -45 -11.5
s-23.334 -17.834 -32.001 -30.501s-15 -26.667 -19 -42s-6 -30.333 -6 -45c0 -25.333 4.66699 -47.166 14 -65.499s21.666 -34.166 36.999 -47.499s33 -25.166 53 -35.499s41 -20.166 63 -29.499c10 6.66699 17.667 15.167 23 25.5s9.16602 21.166 11.499 32.499
s3.83301 23.166 4.5 35.499s1 24.166 1 35.499zM472.006 140.998c0 34.667 -7.66895 63.001 -23.002 85.001s-35 41 -59 57s-50.5 30.167 -79.5 42.5s-57.167 25.833 -84.5 40.5c-11.333 -8 -20.333 -17.667 -27 -29s-11.5 -23.833 -14.5 -37.5s-4.83301 -28.167 -5.5 -43.5
s-1 -31.333 -1 -48c0 -26.667 1.66699 -52.834 5 -78.501s10.333 -48.5 21 -68.5s25.834 -36 45.501 -48s45.834 -18 78.501 -18c50 0 86.5 12.333 109.5 37s34.5 61 34.5 109z" />
    <glyph glyph-name="nine" unicode="9" horiz-adv-x="651" 
d="M623 453c0 -70 -10.335 -133.996 -31.002 -191.996s-48.167 -107.667 -82.5 -149s-73.666 -73.5 -117.999 -96.5s-89.833 -34.5 -136.5 -34.5c-26 0 -51.333 4.16699 -76 12.5s-46.5 20 -65.5 35s-34.333 32.667 -46 53s-17.5 42.5 -17.5 66.5
c0 15.333 2.66699 29.666 8 42.999s12.833 24.833 22.5 34.5s20.834 17.167 33.501 22.5s26.667 8 42 8c16.667 0 31.5 -2.83301 44.5 -8.5s24 -13 33 -22s16 -19.333 21 -31s7.5 -23.834 7.5 -36.501c0 -14 -2.5 -26.833 -7.5 -38.5s-11.833 -21.834 -20.5 -30.501
s-18.5 -15.334 -29.5 -20.001s-22.833 -7 -35.5 -7c-8.66699 0 -16 0.833008 -22 2.5s-10.667 2.5 -14 2.5c-2.66699 0 -4 -1.33301 -4 -4c0 -8.66699 3.33301 -17 10 -25s15.5 -15.167 26.5 -21.5s24 -11.5 39 -15.5s30.833 -6 47.5 -6c28 0 52.167 8.5 72.5 25.5
s37 43 50 78s22.5 79.5 28.5 133.5s9 118.333 9 193v33c-7.33301 -47.333 -23 -84.333 -47 -111s-61 -40 -111 -40c-32.667 0 -62.667 5.83301 -90 17.5s-50.666 28 -69.999 49s-34.5 46 -45.5 75s-16.5 61.167 -16.5 96.5s7.16699 69.333 21.5 102s33.666 61.667 57.999 87
s52.5 45.5 84.5 60.5s66 22.5 102 22.5c40.667 0 80.5 -8.33301 119.5 -25s73.833 -40.667 104.5 -72s55.167 -69.5 73.5 -114.5s27.5 -95.833 27.5 -152.5zM404.998 578.004c0 18.667 -0.501953 40.999 -1.50195 66.999s-4.5 50.833 -10.5 74.5s-15.5 43.834 -28.5 60.501
s-31.167 25 -54.5 25c-19.333 0 -34.666 -5.16699 -45.999 -15.5s-20.166 -25.833 -26.499 -46.5s-10.5 -46.5 -12.5 -77.5s-3 -66.833 -3 -107.5c0 -41.333 0.833008 -76.333 2.5 -105s5 -52 10 -70s12.5 -31.167 22.5 -39.5s23.667 -12.5 41 -12.5
c19.333 0 35.833 6.33301 49.5 19s24.667 30.167 33 52.5s14.5 48.5 18.5 78.5s6 62.333 6 97z" />
    <glyph glyph-name="colon" unicode=":" horiz-adv-x="312" 
d="M279 436c0 -16 -3.16699 -31.167 -9.5 -45.5s-15 -26.833 -26 -37.5s-23.833 -19.167 -38.5 -25.5s-30.334 -9.5 -47.001 -9.5s-32.334 3.16699 -47.001 9.5s-27.5 14.833 -38.5 25.5s-19.667 23.167 -26 37.5s-9.5 29.5 -9.5 45.5s3.16699 31.167 9.5 45.5
s15 26.833 26 37.5s23.833 19.167 38.5 25.5s30.334 9.5 47.001 9.5s32.334 -3.16699 47.001 -9.5s27.5 -14.833 38.5 -25.5s19.667 -23.167 26 -37.5s9.5 -29.5 9.5 -45.5zM279 103c0 -16 -3.16699 -31.167 -9.5 -45.5s-15 -26.833 -26 -37.5s-23.833 -19.167 -38.5 -25.5
s-30.334 -9.5 -47.001 -9.5s-32.334 3.16699 -47.001 9.5s-27.5 14.833 -38.5 25.5s-19.667 23.167 -26 37.5s-9.5 29.5 -9.5 45.5s3.16699 31.167 9.5 45.5s15 26.833 26 37.5s23.833 19.167 38.5 25.5s30.334 9.5 47.001 9.5s32.334 -3.16699 47.001 -9.5
s27.5 -14.833 38.5 -25.5s19.667 -23.167 26 -37.5s9.5 -29.5 9.5 -45.5z" />
    <glyph glyph-name="semicolon" unicode=";" horiz-adv-x="307" 
d="M274 436c0 -16 -3.16699 -31.167 -9.5 -45.5s-15 -26.833 -26 -37.5s-23.833 -19.167 -38.5 -25.5s-30.334 -9.5 -47.001 -9.5s-32.334 3.16699 -47.001 9.5s-27.5 14.833 -38.5 25.5s-19.667 23.167 -26 37.5s-9.5 29.5 -9.5 45.5s3.16699 31.167 9.5 45.5
s15 26.833 26 37.5s23.833 19.167 38.5 25.5s30.334 9.5 47.001 9.5s32.334 -3.16699 47.001 -9.5s27.5 -14.833 38.5 -25.5s19.667 -23.167 26 -37.5s9.5 -29.5 9.5 -45.5zM276 73c0 -30.667 -4.66797 -58.998 -14.001 -84.998s-22.5 -48.5 -39.5 -67.5
s-37.5 -33.833 -61.5 -44.5s-51 -16 -81 -16v11c24 0 45.5 3.83301 64.5 11.5s35.333 17.667 49 30s24.167 26.166 31.5 41.499s11 31 11 47c0 7.33301 -1.33301 11 -4 11c-2 0 -4.83301 -1.33301 -8.5 -4s-8.66699 -5.5 -15 -8.5s-14 -5.66699 -23 -8
s-19.833 -3.5 -32.5 -3.5c-14.667 0 -28.834 2.83301 -42.501 8.5s-26 13.167 -37 22.5s-19.833 20.5 -26.5 33.5s-10 26.833 -10 41.5c0 16 3.16699 30.5 9.5 43.5s14.833 24.167 25.5 33.5s22.834 16.5 36.501 21.5s27.834 7.5 42.501 7.5c18 0 34.667 -3.16699 50 -9.5
s28.5 -15 39.5 -26s19.667 -24.333 26 -40s9.5 -32.834 9.5 -51.501z" />
    <glyph glyph-name="less" unicode="&#x3c;" horiz-adv-x="546" 
d="M476 43l-428 234v41l428 237v-98l-290 -160l290 -163v-91z" />
    <glyph glyph-name="equal" unicode="=" horiz-adv-x="336" 
d="M287 261h-236v46h236v-46zM287 352h-236v46h236v-46z" />
    <glyph glyph-name="greater" unicode="&#x3e;" horiz-adv-x="564" 
d="M499 290l-428 -237v98l290 160l-290 163v91l428 -234v-41z" />
    <glyph glyph-name="question" unicode="?" horiz-adv-x="647" 
d="M637 594c0 -26 -4.99902 -48.333 -14.999 -67s-23.167 -35 -39.5 -49s-35.166 -25.833 -56.499 -35.5s-43 -18.5 -65 -26.5c-23.333 -8.66699 -46.5 -16.834 -69.5 -24.501s-43.5 -16.5 -61.5 -26.5s-32.667 -21.5 -44 -34.5s-17 -29.167 -17 -48.5
c0 -6.66699 0.833008 -12.5 2.5 -17.5s2.5 -8.83301 2.5 -11.5s-1.33301 -4 -4 -4c-5.33301 0 -9.16602 3.33301 -11.499 10s-3.5 15.334 -3.5 26.001c0 24 6.5 47 19.5 69l43 71c15.667 25.333 30 53.333 43 84s19.5 66.667 19.5 108c0 32 -3 58.5 -9 79.5
s-14.5 38 -25.5 51s-23.833 22.167 -38.5 27.5s-30.334 8 -47.001 8s-33 -2.33301 -49 -7s-30.333 -10.834 -43 -18.501s-23 -16 -31 -25s-12 -17.833 -12 -26.5c0 -3.33301 2.66699 -5 8 -5c3.33301 0 7.66602 0.166992 12.999 0.5s11.666 0.5 18.999 0.5
c18.667 0 35 -3.33301 49 -10s25.833 -15.667 35.5 -27s16.834 -24.166 21.501 -38.499s7 -28.833 7 -43.5c0 -16 -2.5 -31.667 -7.5 -47s-12.833 -29 -23.5 -41s-23.834 -21.667 -39.501 -29s-33.834 -11 -54.501 -11c-20 0 -37.833 3.5 -53.5 10.5s-28.667 16.5 -39 28.5
s-18.333 25.833 -24 41.5s-8.5 32.167 -8.5 49.5c0 24.667 5.66699 50 17 76s29 49.5 53 70.5s54.333 38.167 91 51.5s80.334 20 131.001 20c42 0 82.167 -5 120.5 -15s72 -24.167 101 -42.5s52.167 -40.333 69.5 -66s26 -54.167 26 -85.5zM414.001 100
c0 -16 -3.16699 -30.833 -9.5 -44.5s-14.833 -25.667 -25.5 -36s-23.167 -18.5 -37.5 -24.5s-29.5 -9 -45.5 -9c-16.667 0 -32.167 3 -46.5 9s-26.833 14.167 -37.5 24.5s-19.167 22.333 -25.5 36s-9.5 28.5 -9.5 44.5s3.16699 31 9.5 45s14.833 26.167 25.5 36.5
s23.167 18.5 37.5 24.5s29.833 9 46.5 9c16 0 31.167 -3 45.5 -9s26.833 -14.167 37.5 -24.5s19.167 -22.5 25.5 -36.5s9.5 -29 9.5 -45z" />
    <glyph glyph-name="at" unicode="@" horiz-adv-x="893" 
d="M872 273c0 -40.667 -3.99609 -78.665 -11.9961 -113.998s-20.333 -66 -37 -92s-37.834 -46.333 -63.501 -61s-56.167 -22 -91.5 -22c-36 0 -67.5 12.5 -94.5 37.5s-44.5 63.167 -52.5 114.5c-8 -46.667 -21.833 -83 -41.5 -109s-47.5 -39 -83.5 -39
c-24 0 -47.167 7 -69.5 21s-42.166 33.167 -59.499 57.5s-31.333 52.833 -42 85.5s-16 67.667 -16 105s5.5 73.833 16.5 109.5s26 67.5 45 95.5s41.5 50.5 67.5 67.5s54 25.5 84 25.5c23.333 0 42.833 -5.83301 58.5 -17.5s27.834 -32.5 36.501 -62.5v67h174v-425
c0 -25.333 5 -44.166 15 -56.499s23.667 -18.5 41 -18.5c16 0 30.833 6.33301 44.5 19s25.167 29.167 34.5 49.5s16.666 43.666 21.999 69.999s8 53.5 8 81.5c0 45.333 -6.66699 92 -20 140s-35 91.833 -65 131.5s-69.167 72.334 -117.5 98.001s-107.5 38.5 -177.5 38.5
c-49.333 0 -97.5 -9 -144.5 -27s-89 -45.333 -126 -82s-66.833 -82.834 -89.5 -138.501s-34 -120.834 -34 -195.501c0 -66 12 -123.5 36 -172.5s54.667 -89.667 92 -122s79.166 -56.5 125.499 -72.5s92.166 -24 137.499 -24s87.166 8 125.499 24s68.166 39 89.499 69l11 -14
c-28.667 -32.667 -61.5 -56.667 -98.5 -72s-82.167 -23 -135.5 -23c-34 0 -68.5 4.33301 -103.5 13s-68.667 21.167 -101 37.5s-62.666 36.333 -90.999 60s-53 50.667 -74 81s-37.667 63.666 -50 99.999s-18.5 75.5 -18.5 117.5c0 72.667 13 137.167 39 193.5
s60.167 103.833 102.5 142.5s90.666 68 144.999 88s109.833 30 166.5 30c68 0 126.667 -12.5 176 -37.5s90 -57.167 122 -96.5s55.667 -83.333 71 -132s23 -96.667 23 -144zM515.004 284.002c0 47.333 -1.16797 86.666 -3.50098 117.999s-5.66602 56.333 -9.99902 75
s-10 31.834 -17 39.501s-14.833 11.5 -23.5 11.5c-20.667 0 -35.667 -20.833 -45 -62.5s-14 -109.834 -14 -204.501c0 -47.333 1 -86.666 3 -117.999s5 -56.333 9 -75s8.66699 -31.667 14 -39s11.333 -11 18 -11s14 5 22 15s15.5 25.667 22.5 47s12.833 48.833 17.5 82.5
s7 74.167 7 121.5z" />
    <glyph glyph-name="A" unicode="A" 
d="M891 0l-458 0.00292969v13h59c13.333 0 23.5 3.66699 30.5 11s10.5 17.666 10.5 30.999c0 9.33301 -1.33301 18.333 -4 27l-80 254h-214l-34 -114c-4.66699 -16 -8.16699 -30.833 -10.5 -44.5s-3.5 -26.834 -3.5 -39.501c0 -20.667 3 -38.834 9 -54.501
s13.833 -28.667 23.5 -39s21 -18.166 34 -23.499s26.5 -8 40.5 -8h35v-13h-332v13h19c20.667 0 39.834 7.16699 57.501 21.5s33.834 32.666 48.501 54.999s27.667 47 39 74s21 53.5 29 79.5l175 557h183l248 -748c5.33301 -14 12.666 -24 21.999 -30s20.666 -9 33.999 -9h39
v-13zM445 350.003l-104 322l-102 -322h206z" />
    <glyph glyph-name="B" unicode="B" horiz-adv-x="855" 
d="M813 210c0 -30 -6.50195 -57.9971 -19.502 -83.9971s-31.667 -48.333 -56 -67s-54.333 -33.334 -90 -44.001s-76.167 -16 -121.5 -16h-528v14h62c18 0 33.167 6.5 45.5 19.5s18.5 28.833 18.5 47.5v666c0 27.333 -15.667 41 -47 41h-54v13h444
c38.667 0 75.334 -4 110.001 -12s65 -19.667 91 -35s46.667 -34.5 62 -57.5s23 -49.5 23 -79.5c0 -24 -5.33301 -46 -16 -66s-25 -37.667 -43 -53s-39.167 -28.333 -63.5 -39s-50.166 -18.667 -77.499 -24l1 -7c32.667 -4.66699 64.667 -12.834 96 -24.501
s59 -26.667 83 -45s43.333 -39.833 58 -64.5s22 -52.334 22 -83.001zM515.998 620.003c0 32 -1.83105 58.667 -5.49805 80s-8.83398 38.5 -15.501 51.5s-14.834 22.167 -24.501 27.5s-20.167 8 -31.5 8h-85v-349h86c16.667 0 30 3.5 40 10.5s17.667 17.833 23 32.5
s8.83301 33.5 10.5 56.5s2.5 50.5 2.5 82.5zM543 216.003c0 68 -8.66699 119.33 -26 153.997s-44.333 52 -81 52h-82v-343c0 -12 0.5 -22.167 1.5 -30.5s3.83301 -15.166 8.5 -20.499s11.834 -9.16602 21.501 -11.499s23.5 -3.5 41.5 -3.5c24.667 0 44.667 2.66699 60 8
s27.166 15.333 35.499 30s13.833 35.334 16.5 62.001s4 61 4 103z" />
    <glyph glyph-name="C" unicode="C" horiz-adv-x="820" 
d="M785 307c0 -36.667 -6.33203 -74.3311 -18.999 -112.998s-32 -74 -58 -106s-58.833 -58.333 -98.5 -79s-86.5 -31 -140.5 -31c-66 0 -126.5 10.333 -181.5 31s-102.333 49.334 -142 86.001s-70.5 80 -92.5 130s-33 104 -33 162c0 38.667 5.83301 76.334 17.5 113.001
s27.5 70.834 47.5 102.501s43.667 60.667 71 87s56.666 49 87.999 68s64 33.667 98 44s67.667 15.5 101 15.5c28 0 52 -3.33301 72 -10s38.333 -14 55 -22s33.167 -15.333 49.5 -22s34.5 -10 54.5 -10c15.333 0 28 2.66699 38 8s18 11.666 24 18.999
c6.66699 8 11.667 17.333 15 28h4v-383h-12v22c0 8.66699 -2.66699 23.5 -8 44.5s-13.333 44.833 -24 71.5s-24 54.167 -40 82.5s-34.667 54.166 -56 77.499s-45.166 42.666 -71.499 57.999s-55.5 23 -87.5 23c-28.667 0 -53.5 -10.333 -74.5 -31
s-38.5 -49.834 -52.5 -87.501s-24.333 -83 -31 -136s-10 -111.5 -10 -175.5c0 -128.667 17.667 -224.334 53 -287.001s84.666 -94 147.999 -94c38.667 0 75.167 8.5 109.5 25.5s64 40 89 69s44.833 62.333 59.5 100s22 77.5 22 119.5h16z" />
    <glyph glyph-name="D" unicode="D" horiz-adv-x="874" 
d="M850 402c0 -70 -10.333 -130.331 -31 -180.998s-48 -92.334 -82 -125.001s-73 -56.834 -117 -72.501s-89.333 -23.5 -136 -23.5h-496v12h58c50 0 75 19.333 75 58v651c0 23.333 -6 40.166 -18 50.499s-27.667 15.5 -47 15.5h-29v13h461c50 0 96.833 -10.833 140.5 -32.5
s82 -50.667 115 -87s59 -78.666 78 -126.999s28.5 -98.833 28.5 -151.5zM589 406.002c0 79.333 -3.50098 143.834 -10.501 193.501s-16.5 88.334 -28.5 116.001s-26.333 46.5 -43 56.5s-34.667 15 -54 15h-103v-715c0 -18 4.83301 -32.5 14.5 -43.5s23.5 -16.5 41.5 -16.5
h63c12.667 0 24.5 1.5 35.5 4.5s21 9.16699 30 18.5s16.833 22.666 23.5 39.999s12.334 40.666 17.001 69.999s8.16699 65.333 10.5 108s3.5 93.667 3.5 153z" />
    <glyph glyph-name="E" unicode="E" horiz-adv-x="767" 
d="M718 0l-733.996 0.000976562v13h69c21.333 0 37.833 5.83301 49.5 17.5s17.5 33.167 17.5 64.5v623c0 27.333 -4.33301 45.666 -13 54.999s-23.334 14 -44.001 14h-45v12h662v-309h-9l-2 27c-2.66699 30 -11.167 61 -25.5 93s-33.333 61.167 -57 87.5
s-51.334 47.833 -83.001 64.5s-66.167 25 -103.5 25h-54v-353h39c17.333 0 34.833 4.33301 52.5 13s33.5 20.5 47.5 35.5s25.5 32.667 34.5 53s13.5 42.166 13.5 65.499v28h12v-424h-12v31c0 22.667 -3.83301 45 -11.5 67s-18 41.5 -31 58.5s-28.333 30.667 -46 41
s-36.5 15.5 -56.5 15.5h-42v-374c0 -6 3.66699 -12.667 11 -20s16.666 -11 27.999 -11h82c18 0 36.333 5.33301 55 16s36.667 24.667 54 42s33.666 36.833 48.999 58.5s29 43.834 41 66.501s21.5 44.667 28.5 66s11.167 40 12.5 56l2 37h9v-355z" />
    <glyph glyph-name="F" unicode="F" horiz-adv-x="716" 
d="M680 490l-9.00098 -0.000976562l-2 27c-2.66699 30 -11.167 61 -25.5 93s-33.333 61 -57 87s-51.5 47.333 -83.5 64s-66.667 25 -104 25h-53v-352h39c17.333 0 34.833 3.16699 52.5 9.5s33.5 15.833 47.5 28.5s25.333 28 34 46s13 38.667 13 62v16h13v-361h-13v23
c0 22.667 -3.83301 43.834 -11.5 63.501s-18 36.667 -31 51s-28.167 25.5 -45.5 33.5s-36 12 -56 12h-42v-331c0 -24.667 4.16699 -43.167 12.5 -55.5s23.166 -18.5 44.499 -18.5h36v-13h-430v13h43c10.667 0 20.334 1 29.001 3s15.834 5.66699 21.501 11s10 12.833 13 22.5
s4.5 22.167 4.5 37.5v631c0 27.333 -4.33301 45.5 -13 54.5s-23.667 13.5 -45 13.5h-44v13h662v-309z" />
    <glyph glyph-name="G" unicode="G" horiz-adv-x="911" 
d="M890 394h-34.9971c-12.667 0 -25 -4.5 -37 -13.5s-18 -23.167 -18 -42.5v-338h-12v17c0 5.33301 -1.33301 11.666 -4 18.999s-7.33398 14.166 -14.001 20.499s-15.834 11.833 -27.501 16.5s-26.5 7 -44.5 7c-21.333 0 -38.833 -2.33301 -52.5 -7
s-26.167 -10.667 -37.5 -18s-22.333 -15 -33 -23s-23.167 -15.667 -37.5 -23s-31.666 -13.333 -51.999 -18s-45.833 -7 -76.5 -7c-50 0 -98.167 10.833 -144.5 32.5s-87.333 50.834 -123 87.501s-64.167 79 -85.5 127s-32 98.333 -32 151c0 62 13.167 119.5 39.5 172.5
s60.5 99 102.5 138s89.167 69.667 141.5 92s104.833 33.5 157.5 33.5c24.667 0 46.334 -3 65.001 -9s36 -12.5 52 -19.5l46 -19.5c14.667 -6 31 -9 49 -9c13.333 0 24.666 2 33.999 6s16.833 8.66699 22.5 14s9.66699 10.833 12 16.5s3.5 10.167 3.5 13.5h9l-1 -322l-8 1
c-2 12.667 -6.33301 29.334 -13 50.001s-15.667 42.667 -27 66s-24.833 46.666 -40.5 69.999s-33.667 44.5 -54 63.5s-42.833 34.5 -67.5 46.5s-51.334 18 -80.001 18c-59.333 0 -104.333 -36.333 -135 -109s-46 -178 -46 -316c0 -68.667 3 -127.167 9 -175.5
s15.167 -87.666 27.5 -117.999s27.666 -52.5 45.999 -66.5s39.833 -21 64.5 -21c44.667 0 78.167 11.5 100.5 34.5s33.5 59.5 33.5 109.5v196c0 19.333 -7 33.5 -21 42.5s-29.667 13.5 -47 13.5h-54v13h445v-13z" />
    <glyph glyph-name="H" unicode="H" horiz-adv-x="958" 
d="M937 0l-426 -0.00195312v13h21c6 0 13.333 1.16699 22 3.5s17 6.33301 25 12s14.833 13.167 20.5 22.5s8.5 21 8.5 35v343h-255v-344c0 -13.333 2 -24.666 6 -33.999s9.16699 -16.833 15.5 -22.5s13.333 -9.66699 21 -12s15.167 -3.5 22.5 -3.5h29v-13h-427v13h22
c6 0 13.333 1.16699 22 3.5s17 6.33301 25 12s14.667 13.167 20 22.5s8 21 8 35v621c0 24 -6.5 43.333 -19.5 58s-30.833 22 -53.5 22h-24v13h427v-13h-23c-19.333 0 -36 -7.5 -50 -22.5s-21 -34.167 -21 -57.5v-262h255v262c0 24 -6.5 43.333 -19.5 58s-30.833 22 -53.5 22
h-24v13h426v-13h-22c-19.333 0 -36.166 -7.5 -50.499 -22.5s-21.5 -34.167 -21.5 -57.5v-622c0 -13.333 2 -24.666 6 -33.999s9.33301 -16.833 16 -22.5s13.667 -9.66699 21 -12s14.666 -3.5 21.999 -3.5h29v-13z" />
    <glyph glyph-name="I" unicode="I" horiz-adv-x="505" 
d="M487 0l-467 -0.000976562v13h42c6 0 13.333 1.16699 22 3.5s17 6.33301 25 12s14.667 13.167 20 22.5s8 21 8 35v621c0 24 -6.5 43.333 -19.5 58s-30.833 22 -53.5 22h-44v13h467v-13h-43c-19.333 0 -36 -7.5 -50 -22.5s-21 -34.167 -21 -57.5v-622
c0 -13.333 2 -24.666 6 -33.999s9.16699 -16.833 15.5 -22.5s13.333 -9.66699 21 -12s15.167 -3.5 22.5 -3.5h49v-13z" />
    <glyph glyph-name="J" unicode="J" horiz-adv-x="719" 
d="M703 787l-44.0039 0.00195312c-13.333 0 -26 -3.83301 -38 -11.5s-18 -20.834 -18 -39.501v-539c0 -35.333 -9.33301 -66.833 -28 -94.5s-43.167 -51 -73.5 -70s-64.666 -33.5 -102.999 -43.5s-76.833 -15 -115.5 -15c-34.667 0 -68.334 4.16699 -101.001 12.5
s-61.667 21 -87 38s-45.666 38.333 -60.999 64s-23 56.167 -23 91.5c0 20.667 4 40.167 12 58.5s18.833 34 32.5 47s29 23.333 46 31s34.5 11.5 52.5 11.5c19.333 0 37.5 -3.66699 54.5 -11s31.667 -17.166 44 -29.499s22 -26.5 29 -42.5s10.5 -32.667 10.5 -50
s-3.33301 -33.833 -10 -49.5s-15.667 -29.167 -27 -40.5s-24.666 -20.333 -39.999 -27s-31.666 -10 -48.999 -10c-16 0 -29.667 1.83301 -41 5.5s-19.333 5.5 -24 5.5c-2.66699 0 -4 -1 -4 -3c0 -8 3.16699 -16.667 9.5 -26s15.5 -18.333 27.5 -27
s26.333 -15.834 43 -21.501s35 -8.5 55 -8.5c40 0 72.333 13 97 39s37 63 37 111v578c0 25.333 -5.66699 42.666 -17 51.999s-27.666 14 -48.999 14h-47v13h450v-13z" />
    <glyph glyph-name="K" unicode="K" horiz-adv-x="873" 
d="M946 -1l-467.001 0.000976562v14h17c11.333 0 22 3 32 9s15 15.333 15 28c0 8.66699 -3.66699 19.334 -11 32.001l-171 288v-285c0 -13.333 2 -24.666 6 -33.999s9.33301 -16.833 16 -22.5s13.667 -9.66699 21 -12s14.666 -3.5 21.999 -3.5h24v-13h-424v13h24
c6 0 13.333 1.16699 22 3.5s17 6.33301 25 12s14.833 13.167 20.5 22.5s8.5 21 8.5 35v621c0 24 -6.5 43.333 -19.5 58s-31.167 22 -54.5 22h-26v13h424v-13h-17c-19.333 0 -36.166 -7.5 -50.499 -22.5s-21.5 -34.167 -21.5 -57.5v-255l194 176
c15.333 13.333 26.166 27.666 32.499 42.999s9.5 30 9.5 44c0 20 -5.66699 37 -17 51s-26.333 21 -45 21h-33v13h351v-13h-26c-9.33301 0 -18.5 -0.5 -27.5 -1.5s-19 -3.83301 -30 -8.5s-23.667 -11.834 -38 -21.501s-31.166 -22.834 -50.499 -39.501l-174 -151l324 -498
c7.33301 -11.333 13.833 -20.5 19.5 -27.5s11.834 -12.5 18.501 -16.5s14 -6.83301 22 -8.5s18 -2.5 30 -2.5h25v-13z" />
    <glyph glyph-name="L" unicode="L" horiz-adv-x="754" 
d="M718 0l-694.999 0.000976562v12h40c25.333 0 43.833 7.33301 55.5 22s17.5 32.667 17.5 54v620c0 23.333 -5.83301 42.333 -17.5 57s-30.834 22 -57.501 22h-40v12h468v-12h-58c-18 0 -32.333 -5.5 -43 -16.5s-16 -24.833 -16 -41.5v-654c0 -26 5.66699 -43 17 -51
s31 -12 59 -12c25.333 0 49.5 6 72.5 18s44.167 27.5 63.5 46.5s36.666 40.5 51.999 64.5s28.333 48.167 39 72.5s18.834 47.666 24.501 69.999s8.5 41.5 8.5 57.5h10v-341z" />
    <glyph glyph-name="M" unicode="M" horiz-adv-x="1012" 
d="M997 -1l-450.999 -0.000976562v13h39c19.333 0 33.666 7.16699 42.999 21.5s14 30.833 14 49.5v585l-172 -669h-132l-194 665v-489c0 -25.333 2.83301 -48 8.5 -68s13.167 -37 22.5 -51s19.666 -24.833 30.999 -32.5s23 -11.5 35 -11.5h38v-13h-283v13h35
c11.333 0 22.833 3.5 34.5 10.5s22.334 17.5 32.001 31.5s17.5 31.167 23.5 51.5s9 43.833 9 70.5v505c0 19.333 -2.66699 35.833 -8 49.5s-12.333 24.667 -21 33s-19 14.333 -31 18s-24.333 5.5 -37 5.5h-27v12h353l158 -559l145 559h331v-12h-41
c-30.667 0 -51.667 -4 -63 -12s-17 -22.667 -17 -44v-662c0 -19.333 5.5 -33.666 16.5 -42.999s24.5 -14 40.5 -14h68v-13z" />
    <glyph glyph-name="N" unicode="N" horiz-adv-x="854" 
d="M838 786l-17.999 -0.00195312c-12 0 -24.5 -2.5 -37.5 -7.5s-25 -13.167 -36 -24.5s-20 -26.333 -27 -45s-10.5 -41.667 -10.5 -69v-640h-189l-365 683v-243v-90c0 -29.333 -0.166992 -55.666 -0.5 -78.999s-0.5 -42.5 -0.5 -57.5v-23.5
c0 -56.667 10.5 -100.334 31.5 -131.001s50.167 -46 87.5 -46h28v-13h-280v13h32c10 0 20.167 4 30.5 12s19.666 19.833 27.999 35.5s15.333 34.834 21 57.501s8.5 48.667 8.5 78v494c0 16 -2.83301 30 -8.5 42s-13 22.167 -22 30.5s-18.667 14.5 -29 18.5
s-19.833 6 -28.5 6h-17v13h362l297 -565v406c0 22 -3 42 -9 60s-13.833 33.333 -23.5 46s-20.667 22.334 -33 29.001s-24.833 10 -37.5 10h-44v14h290v-14z" />
    <glyph glyph-name="O" unicode="O" horiz-adv-x="864" 
d="M840 400c0 -57.333 -10.667 -111.166 -32 -161.499s-50.5 -94.166 -87.5 -131.499s-80.333 -66.833 -130 -88.5s-102.5 -32.5 -158.5 -32.5s-108.833 10.833 -158.5 32.5s-93 51.167 -130 88.5s-66.167 81.166 -87.5 131.499s-32 104.166 -32 161.499
s10.667 111.166 32 161.499s50.5 94.333 87.5 132s80.333 67.334 130 89.001s102.5 32.5 158.5 32.5s108.833 -10.833 158.5 -32.5s93 -51.334 130 -89.001s66.167 -81.667 87.5 -132s32 -104.166 32 -161.499zM589 415c0 82 -3.83398 148.337 -11.501 199.004
s-18.334 89.667 -32.001 117s-30.167 45.666 -49.5 54.999s-40.666 14 -63.999 14c-26 0 -48.167 -5.16699 -66.5 -15.5s-33.333 -29.833 -45 -58.5s-20.334 -68.5 -26.001 -119.5s-8.5 -116.833 -8.5 -197.5s2.5 -147.334 7.5 -200.001s13.333 -94.5 25 -125.5
s26.667 -52.667 45 -65s40.5 -18.5 66.5 -18.5s48.833 6.16699 68.5 18.5s36.334 34.166 50.001 65.499s23.834 73.666 30.501 126.999s10 121.333 10 204z" />
    <glyph glyph-name="P" unicode="P" horiz-adv-x="760" 
d="M733 578c0 -36 -6.99902 -68.501 -20.999 -97.501s-34.167 -54 -60.5 -75s-58.333 -37.167 -96 -48.5s-80.167 -17 -127.5 -17c-15.333 0 -29 1.16699 -41 3.5s-22.333 5.16602 -31 8.49902v-271c0 -23.333 6.16699 -40.666 18.5 -51.999s33.166 -17 62.499 -17h41v-13
h-457v13h34c23.333 0 40.5 6.33301 51.5 19s16.5 30.667 16.5 54v643c0 22.667 -6 38.167 -18 46.5s-25 12.5 -39 12.5h-45v12h444c42 0 79.5 -6.33301 112.5 -19s61 -29.5 84 -50.5s40.667 -44.667 53 -71s18.5 -53.166 18.5 -80.499zM501.001 568.999
c0 53.333 -2.49805 94.665 -7.49805 123.998s-11.833 51 -20.5 65s-18.5 22.333 -29.5 25s-22.5 4 -34.5 4h-53v-420c6 -4 13.333 -7.33301 22 -10s19.667 -4 33 -4c16 0 29.667 2.16699 41 6.5s20.666 13.833 27.999 28.5s12.666 36.334 15.999 65.001s5 67.334 5 116.001z
" />
    <glyph glyph-name="Q" unicode="Q" horiz-adv-x="849" 
d="M833 400c0 -50 -8.00098 -97.166 -24.001 -141.499s-38.667 -84.5 -68 -120.5c17.333 -20.667 26 -49.334 26 -86.001c0 -40.667 -6.5 -75.334 -19.5 -104.001s-30 -52.167 -51 -70.5s-44.333 -31.666 -70 -39.999s-51.5 -12.5 -77.5 -12.5
c-21.333 0 -41.666 2.66699 -60.999 8s-36.333 12.833 -51 22.5s-26.5 21.5 -35.5 35.5s-13.5 30 -13.5 48c0 17.333 3.66699 33.333 11 48c-53.333 3.33301 -103.166 16.333 -149.499 39s-86.833 52.5 -121.5 89.5s-61.834 79.833 -81.501 128.5s-29.5 100.667 -29.5 156
c0 57.333 10.667 111.166 32 161.499s50.5 94.333 87.5 132s80.333 67.334 130 89.001s102.5 32.5 158.5 32.5s108.833 -10.833 158.5 -32.5s93 -51.334 130 -89.001s66.167 -81.667 87.5 -132s32 -104.166 32 -161.499zM581.999 415.001
c0 82 -3.82812 148.332 -11.4951 198.999s-18.334 89.667 -32.001 117s-30.167 45.666 -49.5 54.999s-40.666 14 -63.999 14c-26 0 -48.167 -5.16699 -66.5 -15.5s-33.333 -29.833 -45 -58.5s-20.334 -68.5 -26.001 -119.5s-8.5 -116.833 -8.5 -197.5
c0 -95.333 3.66699 -171.166 11 -227.499s19 -98.833 35 -127.5c-0.666992 3.33301 -1.16699 6.33301 -1.5 9s-0.5 5.66699 -0.5 9c0 30 8.66699 53.5 26 70.5s38.666 25.5 63.999 25.5c18 0 32 -3.66699 42 -11s18 -16.666 24 -27.999s10.5 -24.333 13.5 -39
s6.5 -29 10.5 -43c1.33301 -2.66699 2.16602 -5.16699 2.49902 -7.5s1.16602 -4.83301 2.49902 -7.5c12 12 22.667 28.167 32 48.5s17.166 46 23.499 77s11 67.667 14 110s4.5 91.5 4.5 147.5zM745.004 89c0 18 -4.00195 31.002 -12.002 39.002
c-27.333 -32 -58.666 -59 -93.999 -81s-73.666 -38.333 -114.999 -49c7.33301 -10.667 17.5 -19.334 30.5 -26.001s30.167 -10 51.5 -10c20.667 0 39.5 3.66699 56.5 11s31.667 17 44 29s21.833 25.667 28.5 41s10 30.666 10 45.999zM453.002 109.002
c0 30.667 -16.333 46 -49 46c-17.333 0 -32.833 -7.5 -46.5 -22.5s-20.5 -33.5 -20.5 -55.5c0 -21.333 3.66699 -38.333 11 -51c16 -14.667 35.667 -23 59 -25c4.66699 8 9.66699 16 15 24s10.333 16.167 15 24.5s8.5 17.333 11.5 27s4.5 20.5 4.5 32.5z" />
    <glyph glyph-name="R" unicode="R" horiz-adv-x="854" 
d="M839 246c0 -46 -1.83301 -85.333 -5.5 -118s-11.334 -59.334 -23.001 -80.001s-28.5 -35.834 -50.5 -45.501s-51.667 -14.5 -89 -14.5c-30.667 0 -57.167 4.66699 -79.5 14s-40.666 21.5 -54.999 36.5s-24.833 32.333 -31.5 52s-10 40.167 -10 61.5
c0 23.333 0.833008 46 2.5 68s2.5 50 2.5 84c0 38 -6.33301 65.167 -19 81.5s-34.667 24.5 -66 24.5h-72v-343c0 -20 4 -34.167 12 -42.5s18.667 -12.5 32 -12.5h47v-12h-413v12h42c36.667 0 55 19 55 57v655c0 24.667 -4.33301 41.334 -13 50.001s-20.667 13 -36 13h-49v12
h386c64 0 118 -4.83301 162 -14.5s79.667 -23 107 -40s47 -37.333 59 -61s18 -49.167 18 -76.5c0 -28 -6.83301 -52.5 -20.5 -73.5s-30.834 -39.167 -51.501 -54.5s-43.167 -27.833 -67.5 -37.5s-47.166 -17.5 -68.499 -23.5v-4c16.667 -4 36.5 -9.33301 59.5 -16
s45 -16.667 66 -30s38.833 -30.5 53.5 -51.5s22 -47.5 22 -79.5v-144c0 -34 10.333 -51 31 -51c10 0 18.333 5.5 25 16.5s12 25.833 16 44.5s6.83301 40.334 8.5 65.001s2.5 50.667 2.5 78h11zM520 603c0 41.333 -2.49902 74.1641 -7.49902 98.4971
s-12.167 42.833 -21.5 55.5s-20.833 20.834 -34.5 24.501s-28.834 5.5 -45.501 5.5h-68v-364h70c20.667 0 37.834 2.16699 51.501 6.5s24.667 12.833 33 25.5s14.166 30.834 17.499 54.501s5 54.834 5 93.501z" />
    <glyph glyph-name="S" unicode="S" horiz-adv-x="734" 
d="M703 246c0 -37.333 -8.00293 -72.1689 -24.0029 -104.502s-38.167 -60.5 -66.5 -84.5s-62.333 -43 -102 -57s-83.167 -21 -130.5 -21c-32 0 -60 3 -84 9s-46.167 12.833 -66.5 20.5s-40.166 14.5 -59.499 20.5s-40.333 9 -63 9c-10.667 0 -19.5 -1.5 -26.5 -4.5
s-12.667 -6.66699 -17 -11s-7.5 -8.83301 -9.5 -13.5s-3 -8.33398 -3 -11.001l-10 -1v348h11c2.66699 -14 8.16699 -32.333 16.5 -55s19.166 -47.167 32.499 -73.5s29 -52.833 47 -79.5s38.333 -50.667 61 -72s47.334 -38.833 74.001 -52.5s55.334 -20.5 86.001 -20.5
c19.333 0 37.5 2.83301 54.5 8.5s32 14 45 25s23.167 24.333 30.5 40s11 33.5 11 53.5c0 31.333 -6.66699 57.333 -20 78s-31 37.834 -53 51.501s-47 25.334 -75 35.001l-86 28.5c-29.333 9.33301 -58 19.833 -86 31.5s-53 26.834 -75 45.501s-39.667 41.5 -53 68.5
s-20 60.833 -20 101.5c0 34 7.83301 66.5 23.5 97.5s37.334 58.5 65.001 82.5s60 43 97 57s77.167 21 120.5 21c24.667 0 46.167 -2.33301 64.5 -7s35 -9.66699 50 -15l42 -15c13 -4.66699 26.833 -7 41.5 -7c28.667 0 48.334 5.33301 59.001 16s16 20.667 16 30l9 -1v-301
l-11 1c-2 26 -9.16699 55.5 -21.5 88.5s-29.333 64.167 -51 93.5s-47.5 54 -77.5 74s-63.667 30 -101 30s-67 -10.667 -89 -32s-33 -51 -33 -89c0 -30.667 6.5 -55.334 19.5 -74.001s30.333 -33.834 52 -45.501s46.167 -21.167 73.5 -28.5l83.5 -23.5
c28.333 -8.33301 56.166 -18.166 83.499 -29.499s51.833 -26.666 73.5 -45.999s39 -44.333 52 -75s19.5 -69 19.5 -115z" />
    <glyph glyph-name="T" unicode="T" horiz-adv-x="825" 
d="M794 457l-10.001 0.00195312v36c0 30 -7.16699 62.167 -21.5 96.5s-32.833 66.166 -55.5 95.499s-47.667 53.666 -75 72.999s-54 29 -80 29h-15v-713c0 -18.667 4.33301 -33.5 13 -44.5s19 -16.5 31 -16.5h62v-13h-462v13h78c12 0 22 5.83301 30 17.5s12 25.5 12 41.5
v715h-12c-22 0 -46.833 -9.16699 -74.5 -27.5s-53.667 -42 -78 -71s-44.666 -61.333 -60.999 -97s-24.5 -70.5 -24.5 -104.5v-30h-11v343h754v-343z" />
    <glyph glyph-name="U" unicode="U" horiz-adv-x="851" 
d="M838 787l-17.002 0.000976562c-14.667 0 -29.667 -3.33301 -45 -10s-29.166 -17.334 -41.499 -32.001s-22.333 -33.667 -30 -57s-11.5 -51.666 -11.5 -84.999v-417c0 -136.667 -92.667 -205 -278 -205c-46 0 -87.667 5.5 -125 16.5s-69.5 25.5 -96.5 43.5
s-47.833 39 -62.5 63s-22 49 -22 75v550c0 38.667 -19.333 58 -58 58h-26v12h415v-12h-24c-21.333 0 -39 -5.33301 -53 -16s-21 -25.667 -21 -45v-563c0 -27.333 4.16699 -50 12.5 -68s20.333 -32.333 36 -43s34.334 -18.334 56.001 -23.001s45.834 -7 72.501 -7
c23.333 0 44.833 3.33301 64.5 10s36.5 17 50.5 31s25 31.5 33 52.5s12 45.833 12 74.5v410c0 30.667 -3.5 57.667 -10.5 81s-16.333 42.833 -28 58.5s-25.334 27.5 -41.001 35.5s-32.5 12 -50.5 12h-31v12h320v-12z" />
    <glyph glyph-name="V" unicode="V" horiz-adv-x="840" 
d="M827 787l-24.999 0.000976562c-25.333 0 -46.333 -13.5 -63 -40.5s-32.334 -66.167 -47.001 -117.5l-177 -629h-195l-219 725c-6.66699 20 -15 35.333 -25 46s-23.667 16 -41 16h-28v12h454v-12h-30c-39.333 0 -59 -14 -59 -42c0 -3.33301 0.333008 -7 1 -11
s1.66699 -8.33301 3 -13l161 -584l129 451c4.66699 14 7.83398 27.5 9.50098 40.5s2.5 25.167 2.5 36.5c0 20 -2.66699 37.667 -8 53s-12.333 28.166 -21 38.499s-18.834 18 -30.501 23s-23.5 7.5 -35.5 7.5h-45v12h289v-12z" />
    <glyph glyph-name="W" unicode="W" horiz-adv-x="1062" 
d="M1052 787l-14 0.000976562c-26 0 -49.667 -18 -71 -54s-40.666 -87 -57.999 -153l-26 -104l-45 -176l-75 -300h-128l-69.5 282l-48.5 198l-126 -480h-123l-62.5 239.5l-48 182.5l-35 133l-23.5 91c-15.333 56.667 -24.333 91 -27 103c-6.66699 25.333 -21 38 -43 38h-21
v13h353v-13h-14c-11.333 0 -20.5 -3 -27.5 -9s-10.5 -14.667 -10.5 -26c0 -3.33301 0.666992 -8.33301 2 -15c2.66699 -10.667 9.33398 -34.667 20.001 -72l16.5 -59.5l23.5 -85l32 -115l41 -149.5l65 257l-28.5 118c-7 28.667 -12.167 50.667 -15.5 66
c-4 17.333 -6.66699 28.666 -8 33.999c-5.33301 20 -11.833 34.333 -19.5 43s-15.834 13 -24.501 13h-16v13h355v-13h-20c-24 0 -36 -10.333 -36 -31v-7c2 -10 7.33301 -34 16 -72l14.5 -60.5l20.5 -88.5l28.5 -120.5l37.5 -156.5l36.5 141.5l26.5 101.5l20 82
c10 38.667 15 72.667 15 102c0 36 -6.33301 63.167 -19 81.5s-29.334 27.5 -50.001 27.5h-29v13h239v-13z" />
    <glyph glyph-name="X" unicode="X" horiz-adv-x="942" 
d="M924 0l-488.998 0.000976562v13h49c16 0 29.167 1.83301 39.5 5.5s15.5 10.834 15.5 21.501c0 8 -3.33301 17.667 -10 29l-176 290l-74 -119c-12 -19.333 -20.667 -38 -26 -56s-8 -35 -8 -51c0 -18 2.83301 -34.333 8.5 -49s13.5 -27.167 23.5 -37.5
s21.5 -18.5 34.5 -24.5s26.5 -9 40.5 -9h23v-13h-351v13h9c18 0 35.333 4.33301 52 13s34.5 23.167 53.5 43.5s40.333 47.666 64 81.999s51.5 77.5 83.5 129.5l58 93l-218 359c-8.66699 14 -19.334 26.5 -32.001 37.5s-26.334 16.5 -41.001 16.5h-18v13h429v-13h-38
c-10 0 -18.167 -3 -24.5 -9s-9.5 -13.667 -9.5 -23c0 -7.33301 2 -14.333 6 -21l142 -227l62 100c8 12 13.667 24.5 17 37.5s5 26.167 5 39.5c0 14 -1.83301 27.167 -5.5 39.5s-8.5 23.166 -14.5 32.499s-13.333 16.833 -22 22.5s-18 8.5 -28 8.5h-25v13h322v-13h-22
c-18 0 -35.167 -3.83301 -51.5 -11.5s-31.833 -17.334 -46.5 -29.001s-28.334 -25 -41.001 -40s-24 -29.667 -34 -44s-18.833 -27.666 -26.5 -39.999l-18.5 -29.5l-63 -99l274 -438c10 -16 21.833 -27.167 35.5 -33.5s28.834 -9.5 45.501 -9.5h21v-13z" />
    <glyph glyph-name="Y" unicode="Y" horiz-adv-x="863" 
d="M851 787l-25.999 -0.00292969c-16.667 0 -33 -4.83301 -49 -14.5s-31.333 -22.5 -46 -38.5s-28.667 -34.167 -42 -54.5s-25.333 -40.833 -36 -61.5l-98 -186v-363c0 -17.333 3.66699 -31.166 11 -41.499s18.666 -15.5 33.999 -15.5h50v-13h-433v13h47
c15.333 0 28 6.33301 38 19s15 27.334 15 44.001v340l-212 327c-9.33301 13.333 -20.166 24.166 -32.499 32.499s-25.166 12.5 -38.499 12.5h-21v13h467v-13h-41c-12.667 0 -23.334 -1.83301 -32.001 -5.5s-13 -10.5 -13 -20.5c0 -7.33301 2.33301 -15.333 7 -24l146 -290
l97 182c7.33301 14.667 12.666 28.334 15.999 41.001s5 24.334 5 35.001c0 27.333 -8.5 47.833 -25.5 61.5s-35.5 20.5 -55.5 20.5h-21v13h289v-13z" />
    <glyph glyph-name="Z" unicode="Z" horiz-adv-x="806" 
d="M742 799l-396.002 -787.001h54c22 0 45.333 5.66699 70 17s48.834 26.333 72.501 45s46.334 40.167 68.001 64.5s40.667 49.5 57 75.5s29.333 51.667 39 77s14.5 48.666 14.5 69.999h8v-362h-673l389 788h-55c-19.333 0 -40 -4.66699 -62 -14
s-43.833 -22.166 -65.5 -38.499s-42.5 -35.333 -62.5 -57s-37.667 -44.667 -53 -69s-27.5 -49.666 -36.5 -75.999s-13.5 -51.833 -13.5 -76.5h-9v343h654z" />
    <glyph glyph-name="bracketleft" unicode="[" horiz-adv-x="295" 
d="M265 -127h-224v843h224v-24h-57c-16 0 -27.167 -3 -33.5 -9s-9.5 -18 -9.5 -36v-703c0 -31.333 13.667 -47 41 -47h59v-24z" />
    <glyph glyph-name="backslash" unicode="\" horiz-adv-x="500" 
d="M401 -36h-39l-264 791h39z" />
    <glyph glyph-name="bracketright" unicode="]" horiz-adv-x="284" 
d="M257 -127h-224v24h59c27.333 0 41 15.667 41 47v703c0 18 -3.16699 30 -9.5 36s-17.5 9 -33.5 9h-57v24h224v-843z" />
    <glyph glyph-name="asciicircum" unicode="^" horiz-adv-x="665" 
d="M632 522h-68l-231 220l-232 -220h-65l258 277h80z" />
    <glyph glyph-name="underscore" unicode="_" horiz-adv-x="490" 
d="M490 -89h-490v46h490v-46z" />
    <glyph glyph-name="grave" unicode="`" horiz-adv-x="222" 
d="M191 648l-7 -7.00098l-15 15c-8.66699 8.66699 -20.667 15.834 -36 21.501s-30.333 11.834 -45 18.501s-27.5 14.834 -38.5 24.501s-16.5 22.5 -16.5 38.5c0 10.667 3.66699 20.167 11 28.5s16.666 12.5 27.999 12.5c16 0 28.833 -5.5 38.5 -16.5
s17.834 -23.833 24.501 -38.5s13 -29.834 19 -45.501s13.333 -27.834 22 -36.501z" />
    <glyph glyph-name="a" unicode="a" horiz-adv-x="615" 
d="M606 144c0 -24.667 -1.6709 -46.832 -5.00391 -66.499s-9.5 -36.334 -18.5 -50.001s-21.667 -24.167 -38 -31.5s-37.833 -11 -64.5 -11c-32 0 -57.833 5.66699 -77.5 17s-34.834 23.833 -45.501 37.5s-18 26.167 -22 37.5s-6.33301 17 -7 17
c-2 0 -4.83301 -5.5 -8.5 -16.5s-10.167 -23.167 -19.5 -36.5c-4.66699 -6.66699 -9.83398 -13.167 -15.501 -19.5s-12.667 -12 -21 -17s-18.666 -9 -30.999 -12s-27.5 -4.5 -45.5 -4.5c-52.667 0 -94.834 13.167 -126.501 39.5s-47.5 60.833 -47.5 103.5
c0 32.667 7.33301 58.334 22 77.001s32.334 33 53.001 43s41.667 17 63 21s39 7.66699 53 11s28.333 7.5 43 12.5s28.167 12.667 40.5 23s22.5 24.833 30.5 43.5s12 43.667 12 75c0 22.667 -1.83301 41 -5.5 55s-8.66699 24.833 -15 32.5s-14.166 12.834 -23.499 15.501
s-19.666 4 -30.999 4s-22.833 -1.5 -34.5 -4.5s-22 -6.5 -31 -10.5s-16.333 -8.33301 -22 -13s-8.5 -9 -8.5 -13s1.33301 -6 4 -6c1.33301 0 3 0.166992 5 0.5s4 0.5 6 0.5c12.667 0 24.334 -2.5 35.001 -7.5s19.834 -11.5 27.501 -19.5s13.667 -17.5 18 -28.5
s6.5 -22.5 6.5 -34.5c0 -14 -2.66699 -27.5 -8 -40.5s-12.666 -24.167 -21.999 -33.5s-20.166 -16.833 -32.499 -22.5s-25.5 -8.5 -39.5 -8.5c-13.333 0 -26.333 2.5 -39 7.5s-23.834 12.167 -33.501 21.5s-17.5 20.5 -23.5 33.5s-9 27.833 -9 44.5
c0 18.667 4.83301 36.667 14.5 54s24.167 32.666 43.5 45.999s44 24.166 74 32.499s65.333 12.5 106 12.5c34.667 0 66.167 -3.33301 94.5 -10s52.833 -16.834 73.5 -30.501s36.667 -30.5 48 -50.5s17 -43.333 17 -70v-343c0 -13.333 2 -22.666 6 -27.999s9 -8 15 -8
c10.667 0 21.167 10.5 31.5 31.5s15.5 48.833 15.5 83.5v14h13zM325.996 333.002c0 3.33301 -1.00195 4.99609 -3.00195 4.99609c-1.33301 0 -5.16602 -3.66699 -11.499 -11s-14.833 -15 -25.5 -23l-18 -13c-7.33301 -5.33301 -14.5 -13.666 -21.5 -24.999
s-13 -27.166 -18 -47.499s-7.5 -47.166 -7.5 -80.499c0 -28.667 0.333008 -51.167 1 -67.5s2 -28.666 4 -36.999s5 -13.666 9 -15.999s9 -3.5 15 -3.5c8 0 16.333 4.5 25 13.5s16.834 20.667 24.501 35s14 30.166 19 47.499s7.5 34.333 7.5 51v171v1z" />
    <glyph glyph-name="b" unicode="b" horiz-adv-x="594" 
d="M571 291c0 -48 -7.49609 -90.835 -22.4961 -128.502s-34.667 -69.5 -59 -95.5s-51.833 -45.833 -82.5 -59.5s-61.667 -20.5 -93 -20.5c-25.333 0 -46.333 5.66699 -63 17s-31.5 23.666 -44.5 36.999l-37 37c-11.667 11.333 -24.834 17 -39.501 17
c-20 0 -35.333 -9.33301 -46 -28s-16 -40.667 -16 -66h-10v750c0 14.667 -2.66699 24.334 -8 29.001s-11.666 7 -18.999 7h-34v12h260v-319c11.333 22.667 27.666 41.334 48.999 56.001s47.666 22 78.999 22c24 0 47.167 -6.16699 69.5 -18.5s42.166 -30.166 59.499 -53.499
s31.166 -51.5 41.499 -84.5s15.5 -69.833 15.5 -110.5zM365.004 250.998c0 56.667 -0.99707 102.167 -2.99707 136.5s-5.16699 60.833 -9.5 79.5s-9.83301 31 -16.5 37s-14.334 9 -23.001 9c-13.333 0 -24.833 -7 -34.5 -21s-16.834 -33.667 -21.501 -59v-374
c0 -22.667 4.66699 -38.667 14 -48s20.666 -14 33.999 -14c12 0 21.833 2.16699 29.5 6.5s13.667 15 18 32s7.5 42.5 9.5 76.5s3 80.333 3 139z" />
    <glyph glyph-name="c" unicode="c" horiz-adv-x="566" 
d="M544 212c0 -28.667 -3.99707 -56.833 -11.9971 -84.5s-20.833 -52.167 -38.5 -73.5s-40.334 -38.666 -68.001 -51.999s-60.834 -20 -99.501 -20c-43.333 0 -83.833 7 -121.5 21s-70.167 33.667 -97.5 59s-48.833 55.666 -64.5 90.999s-23.5 74.333 -23.5 117
c0 38.667 8 75.334 24 110.001s38.333 65 67 91s62.667 46.5 102 61.5s82 22.5 128 22.5c30 0 57.167 -4.66699 81.5 -14s45 -21.5 62 -36.5s30.167 -32.167 39.5 -51.5s14 -39.333 14 -60c0 -18.667 -3.16699 -35.334 -9.5 -50.001s-14.833 -27 -25.5 -37
s-23 -17.667 -37 -23s-28.667 -8 -44 -8c-17.333 0 -33.5 2.83301 -48.5 8.5s-27.833 13.5 -38.5 23.5s-19 21.667 -25 35s-9 27.333 -9 42s2.66699 28.5 8 41.5s12.833 24.333 22.5 34s21.167 17.334 34.5 23.001s28 8.5 44 8.5c14 0 25 -1.66699 33 -5s12.667 -5 14 -5
c2 0 3 2.66699 3 8c0 2.66699 -2.33301 7 -7 13s-11.667 12.167 -21 18.5s-20.833 11.833 -34.5 16.5s-29.5 7 -47.5 7c-15.333 0 -29.666 -4 -42.999 -12s-25 -22.833 -35 -44.5s-17.833 -51.5 -23.5 -89.5s-8.5 -86.667 -8.5 -146c0 -50.667 2.33301 -92.5 7 -125.5
s11.5 -59 20.5 -78s20.5 -32.333 34.5 -40s30 -11.5 48 -11.5c26.667 0 51.167 5.5 73.5 16.5s41.666 26.167 57.999 45.5s29.166 42.166 38.499 68.499s14 54.833 14 85.5z" />
    <glyph glyph-name="d" unicode="d" horiz-adv-x="641" 
d="M638 0l-266.003 -0.000976562v91c-9.33301 -32.667 -24.666 -57.667 -45.999 -75s-51.333 -26 -90 -26c-28 0 -53.833 7.5 -77.5 22.5s-44.167 35.167 -61.5 60.5s-30.833 54.666 -40.5 87.999s-14.5 68.666 -14.5 105.999c0 36.667 5.83301 72.667 17.5 108
s27.167 66.833 46.5 94.5s42 49.834 68 66.501s53 25 81 25c33.333 0 59 -8.66699 77 -26s31.333 -42 40 -74v264c0 10.667 -1.83301 19.834 -5.5 27.501s-8.16699 14 -13.5 19s-11.166 8.83301 -17.499 11.5s-12.166 4 -17.499 4h-39v12h295v-754
c0 -13.333 3.33301 -22.166 10 -26.499s15.667 -6.5 27 -6.5h27v-12zM371.997 278.999c0 45.333 -1.99805 84.001 -5.99805 116.001s-9.16699 58.167 -15.5 78.5s-13.833 35.166 -22.5 44.499s-17.334 14 -26.001 14c-10 0 -18 -4.16699 -24 -12.5
s-10.667 -22.833 -14 -43.5s-5.5 -48.667 -6.5 -84s-1.5 -80 -1.5 -134v-129c0 -32 1 -56.167 3 -72.5s5.33301 -27 10 -32s11.667 -7.5 21 -7.5c8 0 16.667 3.83301 26 11.5s18.166 21.167 26.499 40.5s15.333 46 21 80s8.5 77.333 8.5 130z" />
    <glyph glyph-name="e" unicode="e" horiz-adv-x="553" 
d="M537 304c0 -10 -2.16699 -16.4951 -6.5 -19.4951s-11.166 -4.5 -20.499 -4.5h-282c0 -5.33301 -0.166992 -10.833 -0.5 -16.5s-0.5 -11.167 -0.5 -16.5c0 -50.667 2 -91.834 6 -123.501s10.167 -56.5 18.5 -74.5s18.833 -30.333 31.5 -37s27.667 -10 45 -10
c27.333 0 52.666 5.83301 75.999 17.5s43.666 26.667 60.999 45s30.833 39.166 40.5 62.499s14.5 47 14.5 71h14c0 -24 -4.83301 -48.667 -14.5 -74s-24 -48.166 -43 -68.499s-42.667 -37.166 -71 -50.499s-61.5 -20 -99.5 -20c-43.333 0 -82.5 6.66699 -117.5 20
s-65.167 32.166 -90.5 56.499s-44.833 53.666 -58.5 87.999s-20.5 72.5 -20.5 114.5s7.5 80.667 22.5 116s35.167 66 60.5 92s54.333 46.167 87 60.5s67 21.5 103 21.5c40 0 75.333 -7.33301 106 -22s56.334 -33.834 77.001 -57.501s36.167 -50.334 46.5 -80.001
s15.5 -59.834 15.5 -90.501zM344 312.005c0 46 -0.168945 83.6641 -0.501953 112.997s-1.83301 52.5 -4.5 69.5s-7.16699 28.833 -13.5 35.5s-15.833 10 -28.5 10c-11.333 0 -21.166 -4.16699 -29.499 -12.5s-15.333 -22.166 -21 -41.499s-10 -44.666 -13 -75.999
s-4.83301 -70 -5.5 -116h92c6.66699 0 12.334 0.333008 17.001 1s7 6.33398 7 17.001z" />
    <glyph glyph-name="f" unicode="f" horiz-adv-x="417" 
d="M550 684c0 -13.333 -2.50098 -26.166 -7.50098 -38.499s-12.167 -23.333 -21.5 -33s-20.666 -17.334 -33.999 -23.001s-28.333 -8.5 -45 -8.5c-13.333 0 -26.5 2 -39.5 6s-24.5 10 -34.5 18s-18.167 18 -24.5 30s-9.5 26 -9.5 42c0 28.667 10 52 30 70s44 27 72 27h26
c5.33301 0 8 0.666992 8 2c0 2.66699 -6.16699 6.5 -18.5 11.5s-29.5 7.5 -51.5 7.5c-28.667 0 -51.834 -8.16699 -69.501 -24.5s-26.5 -39.833 -26.5 -70.5v-158h116v-14h-116v-475c0 -13.333 3.83301 -23.333 11.5 -30s17.167 -10 28.5 -10h44v-13h-381v13h45
c12 0 22.667 2.5 32 7.5s14 15.167 14 30.5v477h-58v14h58v90c0 27.333 7.83301 52 23.5 74s36.334 40.667 62.001 56s54.5 27 86.5 35s64 12 96 12c32.667 0 60.5 -3.66699 83.5 -11s42 -16.833 57 -28.5s26 -25 33 -40s10.5 -30.167 10.5 -45.5z" />
    <glyph glyph-name="g" unicode="g" horiz-adv-x="617" 
d="M603 -21c0 -30 -5.66895 -57.166 -17.002 -81.499s-29.666 -44.833 -54.999 -61.5s-58.333 -29.5 -99 -38.5s-90.334 -13.5 -149.001 -13.5c-98.667 0 -171.167 10.333 -217.5 31s-69.5 49.667 -69.5 87c0 12 3 23.167 9 33.5s14 19.666 24 27.999s21.5 15.5 34.5 21.5
s26.5 10.333 40.5 13c-26.667 8.66699 -47.334 21.834 -62.001 39.501s-22 41.834 -22 72.501c0 17.333 4 33.333 12 48s18.667 27.5 32 38.5s28.5 20.333 45.5 28s34.833 13.5 53.5 17.5c-34 15.333 -61.333 35.166 -82 59.499s-31 51.5 -31 81.5
c0 23.333 6.5 45.166 19.5 65.499s30.5 38.166 52.5 53.499s47.833 27.333 77.5 36s61.5 13 95.5 13c10.667 0 21.167 -0.5 31.5 -1.5s20.5 -2.16699 30.5 -3.5c-4.66699 9.33301 -8.66699 19.666 -12 30.999s-5 23.333 -5 36c0 14.667 2.83301 29.167 8.5 43.5
s13.667 27.166 24 38.499s23.333 20.5 39 27.5s33.5 10.5 53.5 10.5c16 0 30.333 -2.83301 43 -8.5s23.5 -13 32.5 -22s16 -19 21 -30s7.5 -22.167 7.5 -33.5c0 -26 -9 -46.833 -27 -62.5s-39.333 -23.5 -64 -23.5s-45.667 8.16699 -63 24.5s-26 35.833 -26 58.5
c0 9.33301 1.33301 17.833 4 25.5s5.83398 14.5 9.50098 20.5s6.83398 10.667 9.50098 14s4 5.33301 4 6c0 2.66699 -1.66699 4 -5 4s-8.16602 -2.16699 -14.499 -6.5s-12.666 -10.5 -18.999 -18.5s-11.833 -17.5 -16.5 -28.5s-7 -22.833 -7 -35.5
c0 -21.333 4.5 -38.333 13.5 -51s19.5 -22.667 31.5 -30c42 -13.333 76 -33.666 102 -60.999s39 -58 39 -92c0 -23.333 -6.5 -45.166 -19.5 -65.499s-30.5 -38 -52.5 -53s-47.833 -27 -77.5 -36s-61.5 -13.5 -95.5 -13.5c-19.333 0 -38.333 1.66699 -57 5
s-36.334 7.66602 -53.001 12.999c-12.667 -2 -23.167 -6.66699 -31.5 -14s-12.5 -16.333 -12.5 -27c0 -12 3.16699 -21.167 9.5 -27.5s16.5 -11 30.5 -14s32 -4.5 54 -4.5s49 0.666992 81 2c32 0.666992 65 -0.166016 99 -2.49902s64.833 -9.16602 92.5 -20.499
s50.5 -28.5 68.5 -51.5s27 -54.5 27 -94.5zM355.998 383.001c0 30.667 -0.665039 55.9961 -1.99805 75.9961s-4 35.833 -8 47.5s-9.83301 19.834 -17.5 24.501s-17.834 7 -30.501 7c-10.667 0 -19.834 -2.16699 -27.501 -6.5s-13.834 -12.166 -18.501 -23.499
s-8 -27.333 -10 -48s-3 -47 -3 -79s0.833008 -57.833 2.5 -77.5s4.83398 -35 9.50098 -46s11 -18.333 19 -22s18.333 -5.5 31 -5.5c12 0 21.667 2.16699 29 6.5s13 12.333 17 24s6.5 27.334 7.5 47.001s1.5 44.834 1.5 75.501zM467 -111.003
c0 19.333 -6.5 34.6689 -19.5 46.002s-30 20.166 -51 26.499s-45 10.666 -72 12.999s-54.5 3.83301 -82.5 4.5c-19.333 1.33301 -37.333 2.5 -54 3.5s-32.334 3.16699 -47.001 6.5c-28 -4 -46.833 -14 -56.5 -30s-14.5 -35.333 -14.5 -58s5 -40.834 15 -54.501
s24.333 -24.167 43 -31.5s41.167 -12.166 67.5 -14.499s55.5 -3.5 87.5 -3.5c36.667 0 66.834 2 90.501 6s42.5 10 56.5 18s23.667 17.667 29 29s8 24.333 8 39z" />
    <glyph glyph-name="h" unicode="h" horiz-adv-x="676" 
d="M670 -1h-311.999v13h12c22.667 0 34 13.333 34 40v396c0 28.667 -4.83301 48.167 -14.5 58.5s-20.834 15.5 -33.501 15.5c-10 0 -19.5 -3.16699 -28.5 -9.5s-17 -15 -24 -26s-12.5 -24.5 -16.5 -40.5s-6 -33.333 -6 -52v-347c0 -13.333 3.33301 -22.5 10 -27.5
s12.334 -7.5 17.001 -7.5h19v-13h-319v13h30c15.333 0 27.166 4.83301 35.499 14.5s12.5 21.167 12.5 34.5v681c0 12 -2.83301 22.333 -8.5 31s-14.167 13 -25.5 13h-34v14h263v-331c9.33301 28 26.5 50 51.5 66s61.833 24 110.5 24c20.667 0 40.667 -2.83301 60 -8.5
s36.5 -15 51.5 -28s27 -30 36 -51s13.5 -47.167 13.5 -78.5v-343c0 -12.667 2 -22.167 6 -28.5s11.333 -9.5 22 -9.5h38v-13z" />
    <glyph glyph-name="i" unicode="i" horiz-adv-x="376" 
d="M305 679c0 -14 -3 -27.333 -9 -40s-14.333 -23.5 -25 -32.5s-23 -16.167 -37 -21.5s-29 -8 -45 -8s-31.167 2.66699 -45.5 8s-26.833 12.5 -37.5 21.5s-19 19.833 -25 32.5s-9 26 -9 40s3 27.167 9 39.5s14.333 23 25 32s23.167 16.167 37.5 21.5s29.5 8 45.5 8
s31 -2.66699 45 -8s26.333 -12.5 37 -21.5s19 -19.667 25 -32s9 -25.5 9 -39.5zM364 0h-352.001v13h30c14.667 0 26.334 4.5 35.001 13.5s13 20.167 13 33.5v424c0 13.333 -3.5 24 -10.5 32s-17.167 12 -30.5 12h-27v13h277v-481c0 -13.333 3 -24.5 9 -33.5
s15 -13.5 27 -13.5h29v-13z" />
    <glyph glyph-name="j" unicode="j" horiz-adv-x="367" 
d="M304 679c0 -14 -3 -27.333 -9 -40s-14.333 -23.5 -25 -32.5s-23 -16.167 -37 -21.5s-29 -8 -45 -8s-31 2.66699 -45 8s-26.333 12.5 -37 21.5s-19 19.833 -25 32.5s-9 26 -9 40s3 27.167 9 39.5s14.333 23 25 32s23 16.167 37 21.5s29 8 45 8s31 -2.66699 45 -8
s26.333 -12.5 37 -21.5s19 -19.667 25 -32s9 -25.5 9 -39.5zM298 7c0 -40.667 -7.83105 -76.168 -23.498 -106.501s-37 -55.5 -64 -75.5s-58.167 -34.833 -93.5 -44.5s-72.333 -14.5 -111 -14.5c-46.667 0 -84.167 11.167 -112.5 33.5s-42.5 51.5 -42.5 87.5
c0 28 9.83301 51.333 29.5 70s43.167 28 70.5 28c28.667 0 53 -9 73 -27s30 -40.667 30 -68c0 -14 -2.66699 -26.667 -8 -38s-12.333 -21 -21 -29s-19 -14.333 -31 -19s-24.333 -7 -37 -7c-6.66699 0 -10 -1.33301 -10 -4c0 -4 4.66699 -7.66699 14 -11s21.666 -5 36.999 -5
c25.333 0 46.833 6.83301 64.5 20.5s26.5 37.834 26.5 72.501v597c0 22 -3.83301 37.667 -11.5 47s-15.834 14 -24.501 14h-34v14h279v-535z" />
    <glyph glyph-name="k" unicode="k" horiz-adv-x="724" 
d="M733 0l-359.002 -0.000976562v13h16c11.333 0 19 5.33301 23 16s2.33301 21.334 -5 32.001l-111 176v-177c0 -13.333 3 -24.5 9 -33.5s15 -13.5 27 -13.5h11v-13h-328v13h30c14.667 0 26.334 4.5 35.001 13.5s13 20.167 13 33.5v682c0 13.333 -3.5 24 -10.5 32
s-17.167 12 -30.5 12h-27v13h271v-507l108 140c6.66699 8 11 17.5 13 28.5s1.66699 21.5 -1 31.5s-7.66699 18.5 -15 25.5s-17 10.5 -29 10.5h-42v13h292v-13h-40c-28 0 -55 -7.66699 -81 -23s-47.667 -33.333 -65 -54l-32 -37l229 -361c8 -13.333 16.333 -23.333 25 -30
s23.334 -10 44.001 -10h30v-13z" />
    <glyph glyph-name="l" unicode="l" horiz-adv-x="376" 
d="M368 0h-352.001v13h30c14.667 0 26.334 4.5 35.001 13.5s13 20.167 13 33.5v682c0 13.333 -3.5 24 -10.5 32s-17.167 12 -30.5 12h-27v13h277v-739c0 -13.333 3 -24.5 9 -33.5s15 -13.5 27 -13.5h29v-13z" />
    <glyph glyph-name="m" unicode="m" horiz-adv-x="1000" 
d="M991 0l-310.999 -0.00292969v13h11c11.333 0 20 3.5 26 10.5s9 16.5 9 28.5v390c0 28.667 -5.66699 48.5 -17 59.5s-23.333 16.5 -36 16.5c-10.667 0 -20.834 -3.66699 -30.501 -11s-18 -17.166 -25 -29.499s-12.667 -26.166 -17 -41.499s-6.5 -31 -6.5 -47v-338
c0 -12.667 2 -22.167 6 -28.5s11.333 -9.5 22 -9.5h38v-13h-309v13h12c11.333 0 19.833 3.5 25.5 10.5s8.5 16.5 8.5 28.5v390c0 28.667 -4.83301 48.167 -14.5 58.5s-20.834 15.5 -33.501 15.5c-19.333 0 -35.5 -11.833 -48.5 -35.5s-19.5 -54.5 -19.5 -92.5v-341
c0 -13.333 3.33301 -22.333 10 -27s12.334 -7 17.001 -7h19v-13h-314v13h30c15.333 0 27.166 4.66699 35.499 14s12.5 21 12.5 35v423c0 12.667 -2.83301 23 -8.5 31s-14.167 12 -25.5 12h-34v13h258v-69c11.333 32 30.333 54.333 57 67s57.667 19 93 19
c17.333 0 34.333 -2.33301 51 -7s32 -11.667 46 -21s26.167 -21.5 36.5 -36.5s18.166 -32.5 23.499 -52.5c11.333 42 31.333 72.167 60 90.5s65.667 27.5 111 27.5c20.667 0 41 -3.33301 61 -10s37.833 -17 53.5 -31s28.334 -31.667 38.001 -53s14.5 -46.666 14.5 -75.999
v-338c0 -12.667 1.83301 -22.167 5.5 -28.5s10.834 -9.5 21.501 -9.5h38v-13z" />
    <glyph glyph-name="n" unicode="n" horiz-adv-x="673" 
d="M670 0l-311.999 -0.000976562v12h12c11.333 0 19.833 3.66699 25.5 11s8.5 17 8.5 29v390c0 28.667 -4.83301 48.167 -14.5 58.5s-20.834 15.5 -33.501 15.5c-10 0 -19.5 -3.16699 -28.5 -9.5s-17 -15 -24 -26s-12.5 -24.5 -16.5 -40.5s-6 -33.333 -6 -52v-341
c0 -13.333 3.33301 -22.5 10 -27.5s12.334 -7.5 17.001 -7.5h19v-12h-319v12h30c15.333 0 27.166 4.83301 35.499 14.5s12.5 21.167 12.5 34.5v424c0 12.667 -2.83301 23 -8.5 31s-14.167 12 -25.5 12h-34v13h263v-72c9.33301 31.333 28.5 54 57.5 68s62.167 21 99.5 21
c20.667 0 41 -3.33301 61 -10s37.667 -16.834 53 -30.501s27.833 -31.167 37.5 -52.5s14.5 -46.666 14.5 -75.999v-338c0 -13.333 2 -23.166 6 -29.499s11.333 -9.5 22 -9.5h38v-12z" />
    <glyph glyph-name="o" unicode="o" horiz-adv-x="638" 
d="M618 271c0 -40 -7.83301 -77.667 -23.5 -113s-37 -66 -64 -92s-58.667 -46.667 -95 -62s-75.166 -23 -116.499 -23s-80.166 7.66699 -116.499 23s-68 36 -95 62s-48.333 56.667 -64 92s-23.5 73 -23.5 113s7.83301 77.5 23.5 112.5s37 65.5 64 91.5s58.667 46.667 95 62
s75.166 23 116.499 23s80.166 -7.66699 116.499 -23s68 -36 95 -62s48.333 -56.5 64 -91.5s23.5 -72.5 23.5 -112.5zM391 264c0 48 -0.164062 89.666 -0.49707 124.999s-2.66602 64.5 -6.99902 87.5s-11.333 40.167 -21 51.5s-23.834 17 -42.501 17
c-15.333 0 -27.5 -3.83301 -36.5 -11.5s-16.167 -21.667 -21.5 -42s-8.83301 -48.666 -10.5 -84.999s-2.5 -82.833 -2.5 -139.5c0 -60 1.16699 -107.833 3.5 -143.5s6.16602 -63 11.499 -82s12.666 -31.333 21.999 -37s20.666 -8.5 33.999 -8.5c14 0 25.5 3.5 34.5 10.5
s16.333 20.333 22 40s9.5 47 11.5 82s3 80.167 3 135.5z" />
    <glyph glyph-name="p" unicode="p" horiz-adv-x="616" 
d="M600 267c0 -37.333 -5.33301 -72.667 -16 -106s-25.167 -62.666 -43.5 -87.999s-39.833 -45.5 -64.5 -60.5s-51 -22.5 -79 -22.5c-36.667 0 -64.834 9 -84.501 27s-34.167 44 -43.5 78v-235c0 -13.333 3 -24.5 9 -33.5s15 -13.5 27 -13.5h29v-13h-352v13h30
c14.667 0 26.334 4.5 35.001 13.5s13 20.167 13 33.5v624c0 13.333 -3.5 24 -10.5 32s-17.167 12 -30.5 12h-27v13h277v-85c8 34 22.333 60 43 78s48 27 82 27c32 0 60.667 -8.33301 86 -25s47 -38.834 65 -66.501s31.667 -59.167 41 -94.5s14 -71.333 14 -108zM398 274.999
c0 50 -1.16699 91.1689 -3.5 123.502s-6 57.666 -11 75.999s-11.167 31.166 -18.5 38.499s-16 11 -26 11c-8.66699 0 -17.167 -4.33301 -25.5 -13s-15.666 -22.667 -21.999 -42s-11.5 -44.5 -15.5 -75.5s-6 -69.167 -6 -114.5c0 -52.667 2.83301 -96 8.5 -130
s12.5 -60.667 20.5 -80s16.833 -32.833 26.5 -40.5s18.5 -11.5 26.5 -11.5c9.33301 0 17 4.33301 23 13s10.667 23 14 43s5.66602 46.5 6.99902 79.5s2 73.833 2 122.5z" />
    <glyph glyph-name="q" unicode="q" horiz-adv-x="616" 
d="M636 -200l-351.998 0.000976562v13h29c11.333 0 20.166 4.5 26.499 13.5s9.5 20.167 9.5 33.5v235c-9.33301 -34 -23.833 -60 -43.5 -78s-47.834 -27 -84.501 -27c-28 0 -54.333 7.5 -79 22.5s-46.167 35.167 -64.5 60.5s-32.833 54.666 -43.5 87.999
s-16 68.666 -16 105.999c0 36.667 4.66699 72.667 14 108s23 66.833 41 94.5s39.667 49.834 65 66.501s54 25 86 25c34 0 61.333 -9 82 -27s35 -44 43 -78v85h277v-13h-27c-13.333 0 -23.5 -4 -30.5 -12s-10.5 -18.667 -10.5 -32v-624c0 -13.333 4.33301 -24.5 13 -33.5
s20 -13.5 34 -13.5h31v-13zM348.002 279.001c0 45.333 -1.99707 83.498 -5.99707 114.498s-9.16699 56.167 -15.5 75.5s-13.833 33.333 -22.5 42s-17.334 13 -26.001 13c-10 0 -18.5 -3.66699 -25.5 -11s-13 -20.166 -18 -38.499s-8.66699 -43.666 -11 -75.999
s-3.5 -73.5 -3.5 -123.5c0 -48.667 0.666992 -89.5 2 -122.5s3.66602 -59.5 6.99902 -79.5s8 -34.333 14 -43s13.667 -13 23 -13c8 0 16.667 3.83301 26 11.5s18.166 21.167 26.499 40.5s15.333 46 21 80s8.5 77.333 8.5 130z" />
    <glyph glyph-name="r" unicode="r" horiz-adv-x="543" 
d="M531 444c0 -18 -2.83301 -34.001 -8.5 -48.001s-13.334 -25.833 -23.001 -35.5s-20.667 -17 -33 -22s-24.833 -7.5 -37.5 -7.5c-11.333 0 -22.833 2.33301 -34.5 7s-22.167 11 -31.5 19s-16.833 17.667 -22.5 29s-8.5 24 -8.5 38c0 14.667 2.5 28.167 7.5 40.5
s11.833 23 20.5 32s18.667 15.833 30 20.5s23 7 35 7c18 0 31.333 -2.5 40 -7.5s14.667 -7.5 18 -7.5s5 1.66699 5 5c0 8 -6.5 16.833 -19.5 26.5s-30.167 14.5 -51.5 14.5c-10.667 0 -22.334 -2.33301 -35.001 -7s-24.5 -12.5 -35.5 -23.5s-20.167 -25.833 -27.5 -44.5
s-11 -42 -11 -70v-353c0 -16 2.83301 -27.5 8.5 -34.5s12.5 -10.5 20.5 -10.5h38v-12h-359v12h34c14.667 0 26.834 3.83301 36.501 11.5s14.5 18.167 14.5 31.5v427c0 13.333 -3.33301 24.333 -10 33s-15.667 13 -27 13h-34v13h267l5 -62
c2.66699 6.66699 7 14.834 13 24.501s13.667 19.167 23 28.5s20.833 17.333 34.5 24s29.5 10 47.5 10c14.667 0 28.834 -3 42.501 -9s25.5 -14.333 35.5 -25s18 -23.5 24 -38.5s9 -31.5 9 -49.5z" />
    <glyph glyph-name="s" unicode="s" horiz-adv-x="548" 
d="M529 179c0 -37.333 -7.50098 -68.6699 -22.501 -94.0029s-33.667 -45.833 -56 -61.5s-46.166 -26.834 -71.499 -33.501s-48 -10 -68 -10c-22 0 -42.333 2.33301 -61 7s-36.167 9.66699 -52.5 15l-45.5 15c-14 4.66699 -27.333 7 -40 7c-21.333 0 -35.833 -4 -43.5 -12
s-12.167 -14 -13.5 -18h-9v252h8c2 -11.333 6.5 -25.333 13.5 -42s16 -34.334 27 -53.001s23.667 -37.5 38 -56.5s30.333 -36.167 48 -51.5s36.5 -27.666 56.5 -36.999s40.667 -14 62 -14c26.667 0 47.5 6.5 62.5 19.5s22.5 32.5 22.5 58.5c0 18 -4.66699 32.833 -14 44.5
s-21.666 21.834 -36.999 30.501s-32.666 16.334 -51.999 23.001l-60 21c-20.667 7.33301 -41 15.833 -61 25.5s-37.667 21.834 -53 36.501s-27.833 32.667 -37.5 54s-14.5 47 -14.5 77c0 27.333 6.33301 52.333 19 75s29.5 42 50.5 58s45.167 28.333 72.5 37
s55.333 13 84 13c15.333 0 30.333 -1.66699 45 -5s28.5 -7 41.5 -11l35 -11c10.333 -3.33301 19.166 -5 26.499 -5c14 0 23.167 3 27.5 9s6.5 10.667 6.5 14h10v-187h-7c-3.33301 16.667 -9.83301 35.5 -19.5 56.5s-22.334 41 -38.001 60s-33.834 35 -54.501 48
s-44 19.5 -70 19.5c-24.667 0 -43.5 -6.66699 -56.5 -20s-19.5 -29.333 -19.5 -48s4.16699 -34.167 12.5 -46.5s19.5 -22.666 33.5 -30.999s30 -15.333 48 -21l56 -17.5c20.667 -6.66699 41.334 -14.167 62.001 -22.5s39 -19.5 55 -33.5s29 -31.833 39 -53.5
s15 -48.5 15 -80.5z" />
    <glyph glyph-name="t" unicode="t" horiz-adv-x="390" 
d="M365 181c0 -37.333 -3.49902 -68.667 -10.499 -94s-17.167 -45.666 -30.5 -60.999s-29.5 -26.333 -48.5 -33s-40.167 -10 -63.5 -10c-21.333 0 -41.333 2.16699 -60 6.5s-34.834 11.333 -48.501 21s-24.5 21.667 -32.5 36s-12 31.5 -12 51.5v429h-55v15h34
c25.333 0 51 5.16699 77 15.5s49.667 24.333 71 42s38.833 38.5 52.5 62.5s20.5 49.667 20.5 77l13 -1v-196h92v-15h-92v-453c0 -19.333 2.33301 -31.333 7 -36s10.667 -7 18 -7c13.333 0 26 12.667 38 38s18 62.666 18 111.999h12z" />
    <glyph glyph-name="u" unicode="u" horiz-adv-x="665" 
d="M656 0l-262.999 -0.000976562v72c-9.33301 -31.333 -28.5 -54 -57.5 -68s-62.167 -21 -99.5 -21c-20.667 0 -41 3.33301 -61 10s-37.667 16.834 -53 30.501s-27.833 31.167 -37.5 52.5s-14.5 46.666 -14.5 75.999v338c0 13.333 -2 23 -6 29s-11.333 9 -22 9h-38v13h265
v-441c0 -29.333 5 -49.166 15 -59.499s21.333 -15.5 34 -15.5c10 0 19.5 3.16699 28.5 9.5s17 15 24 26s12.5 24.333 16.5 40s6 33.167 6 52.5v341c0 13.333 -3.33301 22.333 -10 27s-12.334 7 -17.001 7h-20v13h242v-486c0 -12 2.83301 -22.167 8.5 -30.5
s14.167 -12.5 25.5 -12.5h34v-12z" />
    <glyph glyph-name="v" unicode="v" horiz-adv-x="633" 
d="M638 528l-16.9971 0.000976562c-20.667 0 -42.334 -12.833 -65.001 -38.5s-41.334 -63.5 -56.001 -113.5l-112 -376h-148l-182 495c-4 11.333 -8.66699 19.666 -14 24.999s-13.333 8 -24 8h-28v14h353v-14h-21c-20 0 -30 -7.33301 -30 -22
c0 -5.33301 0.666992 -9.33301 2 -12l119 -359l74 249c3.33301 10.667 5.66602 20.667 6.99902 30s2 18 2 26c0 28 -6.33301 49.667 -19 65s-26.667 23 -42 23h-29v14h230v-14z" />
    <glyph glyph-name="w" unicode="w" horiz-adv-x="851" 
d="M859 528h-11.001c-46 0 -84.667 -51.333 -116 -154l-114 -374h-110l-102 368l-105 -368h-104l-138 488c-3.33301 13.333 -9.33301 23.333 -18 30s-18.667 10 -30 10h-19v13h295v-13h-10c-12 0 -18 -6.33301 -18 -19c0 -4.66699 0.333008 -8.33398 1 -11.001l84 -304
l57 194l-29 104c-3.33301 10.667 -8 19.334 -14 26.001s-13.333 10 -22 10h-9v13h287v-13h-12c-6 0 -11.333 -2 -16 -6s-7 -10 -7 -18c0 -2 0.666992 -5.66699 2 -11l79 -314l61 198c4 12.667 6.83301 24.667 8.5 36s2.5 21.666 2.5 30.999
c0 28.667 -6.16699 49.834 -18.5 63.501s-25.166 20.5 -38.499 20.5h-20v13h204v-13z" />
    <glyph glyph-name="x" unicode="x" horiz-adv-x="729" 
d="M722 -1l-381.997 -0.00292969v14h18c10 0 18.333 2 25 6s10 10.333 10 19c0 8 -3 17 -9 27l-97 168l-69 -89c-9.33301 -11.333 -16.166 -23.166 -20.499 -35.499s-6.5 -24.166 -6.5 -35.499c0 -17.333 4.66699 -31.666 14 -42.999s23.666 -17 42.999 -17h34v-14h-273v14
h14c15.333 0 32.666 6 51.999 18s38 26 56 42s34.667 32.333 50 49s26.666 29.667 33.999 39l66 83l-139 241c-8.66699 15.333 -17.5 26.333 -26.5 33s-20.167 10 -33.5 10h-29v14h366v-14h-20c-8.66699 0 -15.334 -2.5 -20.001 -7.5s-7 -11.167 -7 -18.5
s1.66699 -13.333 5 -18l71 -122l42 58c8 10 13.833 20.333 17.5 31s5.5 20.667 5.5 30c0 13.333 -3.33301 24.5 -10 33.5s-16 13.5 -28 13.5h-15v14h199v-14h-13c-10 0 -21.333 -3.5 -34 -10.5s-25.5 -15.833 -38.5 -26.5s-25.5 -22.5 -37.5 -35.5
s-22.667 -25.833 -32 -38.5l-49 -66l171 -294c11.333 -19.333 23 -31.5 35 -36.5s25.667 -7.5 41 -7.5h20v-14z" />
    <glyph glyph-name="y" unicode="y" horiz-adv-x="636" 
d="M647 528l-13.0029 -0.00292969c-16.667 0 -31.5 -5 -44.5 -15s-24.5 -22.167 -34.5 -36.5s-18.5 -29.5 -25.5 -45.5s-12.5 -30.333 -16.5 -43l-158 -473c-28.667 -86.667 -83.667 -130 -165 -130c-18 0 -34.667 3.33301 -50 10s-28.5 15.5 -39.5 26.5
s-19.5 23.667 -25.5 38s-9 29.5 -9 45.5c0 15.333 2.83301 29.5 8.5 42.5s13.167 24.167 22.5 33.5s20.333 16.5 33 21.5s25.667 7.5 39 7.5c14.667 0 28.167 -2.83301 40.5 -8.5s22.833 -13 31.5 -22s15.334 -19.167 20.001 -30.5s7 -23 7 -35
c0 -26 -8.66699 -48.167 -26 -66.5s-39.666 -27.5 -66.999 -27.5c-9.33301 0 -18.166 1.16699 -26.499 3.5s-14.5 3.5 -18.5 3.5c-2 0 -3 -0.666992 -3 -2c0 -7.33301 6.66699 -13.833 20 -19.5s28.666 -8.5 45.999 -8.5c12.667 0 25.834 1.66699 39.501 5
s27.167 9.33301 40.5 18s25.666 20.334 36.999 35.001s21 33.334 29 56.001l30 89h-81l-220 478c-8 17.333 -16.833 30 -26.5 38s-19.167 12 -28.5 12h-23v13h362v-13h-25c-7.33301 0 -13.5 -2 -18.5 -6s-7.5 -9.66699 -7.5 -17c0 -6.66699 1.33301 -13 4 -19l123 -310
l61 185c6.66699 20 11.334 37.833 14.001 53.5s4 29.5 4 41.5c0 26.667 -5.16699 45.334 -15.5 56.001s-21.5 16 -33.5 16h-17v13h206v-13z" />
    <glyph glyph-name="z" unicode="z" horiz-adv-x="609" 
d="M560 0h-530l281 528h-40c-23.333 0 -47 -6 -71 -18s-45.833 -27.333 -65.5 -46s-35.834 -39.334 -48.501 -62.001s-19 -44.334 -19 -65.001v-24h-9v228h497l-291 -528h34c28 0 56.833 8.33301 86.5 25s56.834 37.334 81.501 62.001s45 51.334 61 80.001s24 55 24 79v19h9
v-278z" />
    <glyph glyph-name="braceleft" unicode="{" horiz-adv-x="500" 
d="M412 -67c-13.333 0 -28.834 0.337891 -46.501 1.00488s-35.167 1.66699 -52.5 3s-33.333 3.5 -48 6.5s-26 6.83301 -34 11.5c-18 11.333 -31.833 28.166 -41.5 50.499s-14.5 54.166 -14.5 95.499v105c0 26 -1.83301 48.167 -5.5 66.5s-14.167 33.166 -31.5 44.499
c-10.667 7.33301 -24.167 13.333 -40.5 18s-36.833 8.66699 -61.5 12v27c17.333 2.66699 33.5 5 48.5 7s28.5 6 40.5 12c14.667 7.33301 26.667 20.166 36 38.499s14 46.166 14 83.499v105c0 40 4 71.5 12 94.5s22.667 40.167 44 51.5c7.33301 4 18 7.33301 32 10
s29.5 5 46.5 7s34.5 3.5 52.5 4.5s34.667 1.83301 50 2.5v-23c-45.333 -2.66699 -76.333 -11 -93 -25c-14 -11.333 -22.5 -27.333 -25.5 -48s-4.5 -47.667 -4.5 -81v-47c0 -21.333 -0.166992 -40.666 -0.5 -57.999s-2.33301 -33.166 -6 -47.499s-9.66699 -27.333 -18 -39
s-20.833 -22.167 -37.5 -31.5c-21.333 -12 -48.666 -21.667 -81.999 -29c17.333 -4 33 -8.16699 47 -12.5s26.333 -9.83301 37 -16.5c11.333 -7.33301 20.833 -15.833 28.5 -25.5s13.834 -21.834 18.501 -36.501s8 -32 10 -52s3 -43.667 3 -71v-48c0 -34 1.66699 -61 5 -81
s13.666 -35 30.999 -45c18.667 -10.667 47.667 -16.334 87 -17.001v-23z" />
    <glyph glyph-name="bar" unicode="|" horiz-adv-x="500" 
d="M277 -234h-52v998h52v-998z" />
    <glyph glyph-name="braceright" unicode="}" horiz-adv-x="500" 
d="M482 348c-24.667 -3.33301 -45.167 -7.33789 -61.5 -12.0049s-29.833 -10.667 -40.5 -18c-17.333 -11.333 -27.833 -26.166 -31.5 -44.499s-5.5 -40.5 -5.5 -66.5v-105c0 -41.333 -4.83301 -73.166 -14.5 -95.499s-23.5 -39.166 -41.5 -50.499
c-8 -4.66699 -19.333 -8.5 -34 -11.5s-30.667 -5.16699 -48 -6.5s-34.833 -2.33301 -52.5 -3s-33.167 -1 -46.5 -1v23c39.333 0.666992 68.333 6.33398 87 17.001c17.333 10 27.666 25 30.999 45s5 47 5 81v48c0 27.333 1 51 3 71s5.33301 37.333 10 52
s10.834 26.834 18.501 36.501s17.167 18.167 28.5 25.5c10.667 6.66699 23 12.167 37 16.5s29.667 8.5 47 12.5c-33.333 7.33301 -60.666 17 -81.999 29c-16.667 9.33301 -29.167 19.833 -37.5 31.5s-14.333 24.667 -18 39s-5.66699 30.166 -6 47.499
s-0.5 36.666 -0.5 57.999v47c0 33.333 -1.33301 60.333 -4 81s-11.334 36.667 -26.001 48c-16.667 14 -47.667 22.333 -93 25v23c14.667 -0.666992 31.167 -1.5 49.5 -2.5s36 -2.5 53 -4.5s32.5 -4.33301 46.5 -7s24.667 -6 32 -10c21.333 -11.333 36 -28.5 44 -51.5
s12 -54.5 12 -94.5v-105c0 -37.333 4.5 -65.166 13.5 -83.499s21.167 -31.166 36.5 -38.499c12 -6 25.5 -10 40.5 -12s31.167 -4.33301 48.5 -7v-27z" />
    <glyph glyph-name="asciitilde" unicode="~" horiz-adv-x="647" 
d="M625 752c-4.66699 -12 -11.333 -24.3359 -20 -37.0029s-19.334 -24.167 -32.001 -34.5s-27.667 -18.833 -45 -25.5s-37 -10 -59 -10c-23.333 0 -46.833 3.16699 -70.5 9.5s-47.5 13.333 -71.5 21s-47.667 14.667 -71 21s-46.333 9.5 -69 9.5
c-49.333 0 -91 -25.667 -125 -77l-27 15c24.667 41.333 49.5 70.833 74.5 88.5s55.167 26.5 90.5 26.5c24 0 47.5 -3.16699 70.5 -9.5s46 -13.166 69 -20.499s45.833 -14.166 68.5 -20.499s46 -9.5 70 -9.5c24.667 0 46.834 5.33301 66.501 16s38.167 28.334 55.5 53.001z
" />
    <glyph glyph-name="nonbreakingspace" unicode="&#xa0;" horiz-adv-x="285" 
 />
    <glyph glyph-name="exclamdown" unicode="&#xa1;" horiz-adv-x="360" 
d="M313 680c0 -16 -3 -31 -9 -45s-14.333 -26.167 -25 -36.5s-23.167 -18.5 -37.5 -24.5s-29.5 -9 -45.5 -9s-31.167 3 -45.5 9s-26.833 14.167 -37.5 24.5s-19.167 22.5 -25.5 36.5s-9.5 29 -9.5 45s3.16699 31 9.5 45s14.833 26.167 25.5 36.5s23.167 18.5 37.5 24.5
s29.5 9 45.5 9s31.167 -3 45.5 -9s26.833 -14.167 37.5 -24.5s19 -22.5 25 -36.5s9 -29 9 -45zM319 138c0 -18 -2.99902 -35.8359 -8.99902 -53.5029s-14.833 -33.334 -26.5 -47.001s-25.667 -24.667 -42 -33s-34.833 -12.5 -55.5 -12.5c-22.667 0 -42.5 3.83301 -59.5 11.5
s-31.333 18.334 -43 32.001s-20.334 29.5 -26.001 47.5s-8.5 37.333 -8.5 58c0 24 3.5 45.5 10.5 64.5s15.667 37.167 26 54.5s21.5 34.333 33.5 51s23.167 34.834 33.5 54.501s19 41.334 26 65.001s10.5 50.834 10.5 81.501c0 12 1.66699 18 5 18c4 0 6 -6 6 -18
c0 -29.333 3 -55.666 9 -78.999s13.333 -44.833 22 -64.5s18.167 -38.334 28.5 -56.001s19.833 -35.5 28.5 -53.5s16 -36.667 22 -56s9 -41 9 -65z" />
    <glyph glyph-name="cent" unicode="&#xa2;" horiz-adv-x="616" 
d="M595 379c0 -34 -5.66309 -66.333 -16.9961 -97s-28 -57.667 -50 -81s-49 -41.833 -81 -55.5s-68.667 -20.5 -110 -20.5c-34 0 -65.667 5.33301 -95 16l-51 -141h-14l52 145c-29.333 12 -55.833 28.167 -79.5 48.5s-43.667 43.5 -60 69.5s-29 54.167 -38 84.5
s-13.5 61.5 -13.5 93.5c0 42 7.83301 82.667 23.5 122s37.5 74.166 65.5 104.499s61.333 54.666 100 72.999s80.667 27.5 126 27.5c36 0 68 -5 96 -15l46 128h16l-48 -133c36 -15.333 63.833 -37.166 83.5 -65.499s29.5 -58.833 29.5 -91.5
c0 -23.333 -3.83301 -43.333 -11.5 -60s-17.834 -30.5 -30.501 -41.5s-26.667 -19.167 -42 -24.5s-31 -8 -47 -8c-15.333 0 -29.5 2.5 -42.5 7.5s-24.833 11.833 -35.5 20.5l-94 -259c9.33301 -28.667 21.666 -49.167 36.999 -61.5s35.666 -18.5 60.999 -18.5
c27.333 0 53.666 5.66699 78.999 17s47.5 27.333 66.5 48s34.167 45.334 45.5 74.001s17 60 17 94h16zM521.004 670c0 9.33301 -5.33105 20.333 -15.998 33s-26.334 23 -47.001 31l-16 -42c12 -0.666992 22.333 -2.66699 31 -6s16 -7 22 -11s10.667 -7.5 14 -10.5
s5.66602 -4.5 6.99902 -4.5c2.66699 0 4.16699 0.5 4.5 1.5s0.5 3.83301 0.5 8.5zM444.006 739c-7.33301 2 -14.835 3.66895 -22.502 5.00195s-16.167 2 -25.5 2c-26 0 -48 -5.83301 -66 -17.5s-32.667 -29.667 -44 -54s-19.5 -55.833 -24.5 -94.5s-7.5 -85 -7.5 -139
c0 -42 0.833008 -78.5 2.5 -109.5s5.16699 -58.167 10.5 -81.5l89 245c-10 10.667 -18 22.667 -24 36s-9 27.333 -9 42c0 16 2.83301 31 8.5 45s13.334 26.167 23.001 36.5s20.834 18.666 33.501 24.999s25.667 10.166 39 11.499z" />
    <glyph glyph-name="sterling" unicode="&#xa3;" horiz-adv-x="630" 
d="M582 268c0 -15.333 -1.16406 -32.9961 -3.49707 -52.9961s-6.33301 -40.667 -12 -62s-12.834 -42.166 -21.501 -62.499s-19.167 -38.5 -31.5 -54.5s-27 -29 -44 -39s-36.167 -15 -57.5 -15c-17.333 0 -33 2.66699 -47 8s-27.333 12.166 -40 20.499
s-24.834 17.666 -36.501 27.999l-34.5 31.5c-21.333 -25.333 -44.166 -45.166 -68.499 -59.499s-49.166 -21.5 -74.499 -21.5c-30 0 -53.667 8.16699 -71 24.5s-26 34.833 -26 55.5c0 12 3.16699 23.833 9.5 35.5s16.5 22 30.5 31s31.833 16.333 53.5 22
s47.834 8.5 78.501 8.5h17c5.33301 0 10.666 -0.333008 15.999 -1c-2 20 -5.33301 39.167 -10 57.5s-9.83398 36.5 -15.501 54.5s-11.667 35.833 -18 53.5l-18.5 53.5h-86v15h81c-6 20.667 -11 41.834 -15 63.501s-6 44.5 -6 68.5c0 38.667 6.66699 74.5 20 107.5
s31.666 61.833 54.999 86.5s50.5 44 81.5 58s64.5 21 100.5 21c28 0 52.333 -3.66699 73 -11s37.834 -17.5 51.501 -30.5s23.834 -28.333 30.501 -46s10 -36.834 10 -57.501c0 -14 -2.33301 -27.5 -7 -40.5s-11.334 -24.333 -20.001 -34s-19 -17.5 -31 -23.5
s-25.333 -9 -40 -9c-14 0 -26.833 2.66699 -38.5 8s-21.834 12.333 -30.501 21s-15.5 18.667 -20.5 30s-7.5 23 -7.5 35s2.33301 23.5 7 34.5s11.167 20.5 19.5 28.5s18 14.5 29 19.5s23.167 7.5 36.5 7.5s24.666 -2.66699 33.999 -8s15.333 -8 18 -8c4.66699 0 7 3 7 9
c0 5.33301 -2.16699 11.166 -6.5 17.499s-10.5 12.166 -18.5 17.499s-17.333 9.83301 -28 13.5s-22 5.5 -34 5.5c-29.333 0 -54.5 -11.667 -75.5 -35s-31.5 -56.333 -31.5 -99c0 -19.333 1.66699 -39 5 -59s7 -40.333 11 -61s7.83301 -41.834 11.5 -63.501
s6.16699 -43.834 7.5 -66.501h149v-15h-148v-12c0 -41.333 -4.16699 -80.5 -12.5 -117.5s-19.833 -71.167 -34.5 -102.5c16.667 -3.33301 34 -6.5 52 -9.5s42 -4.5 72 -4.5c42 0 76.167 10 102.5 30s39.5 53 39.5 99zM219.003 100.004
c-14.667 10.667 -30.167 19.501 -46.5 26.501s-34.833 10.5 -55.5 10.5c-28 0 -49.667 -6.66699 -65 -20s-23 -29 -23 -47s7 -33.5 21 -46.5s34.333 -19.5 61 -19.5c12 0 23.833 1.5 35.5 4.5s22.5 8.16699 32.5 15.5s18.5 17.166 25.5 29.499s11.833 27.833 14.5 46.5z" />
    <glyph glyph-name="yen" unicode="&#xa5;" horiz-adv-x="854" 
d="M843 776l-25.998 0.00195312c-16 0 -31.833 -4.83301 -47.5 -14.5s-30.834 -22.334 -45.501 -38.001s-28.5 -33.5 -41.5 -53.5s-24.833 -40 -35.5 -60l-95 -182v-67h138v-15h-138v-80h138v-15h-138v-182c0 -17.333 3.5 -31 10.5 -41s18.167 -15 33.5 -15h49v-13h-425v13
h46c15.333 0 28 6.16699 38 18.5s15 26.833 15 43.5v176h-146v15h146v80h-146v15h146v50l-209 320c-8.66699 13.333 -19.167 24.166 -31.5 32.499s-24.833 12.5 -37.5 12.5h-21v12h458v-12h-40c-12 0 -22.333 -2 -31 -6s-13 -11 -13 -21c0 -6 2.33301 -13.667 7 -23
l143 -283l94 178c14.667 27.333 22 52 22 74c0 13.333 -2.33301 25 -7 35s-10.834 18.5 -18.501 25.5s-16.167 12.167 -25.5 15.5s-19 5 -29 5h-20v12h283v-12z" />
    <glyph glyph-name="section" unicode="&#xa7;" horiz-adv-x="398" 
d="M372 375c0 -13.333 -2.49707 -27.168 -7.49707 -41.501s-13.333 -27.333 -25 -39s-26.667 -21.167 -45 -28.5s-40.833 -11 -67.5 -11c64.667 -50 97 -98 97 -144c0 -14 -2.83301 -28.333 -8.5 -43s-14.834 -27.834 -27.501 -39.501s-29.167 -21.334 -49.5 -29.001
s-44.833 -11.5 -73.5 -11.5c-23.333 0 -43.333 3 -60 9s-30.334 13.667 -41.001 23s-18.334 20 -23.001 32s-7 24 -7 36c0 4.66699 0.666992 10.334 2 17.001s3.83301 12.667 7.5 18s8.33398 10 14.001 14s12.834 6 21.501 6c3.33301 0 7.66602 -0.333008 12.999 -1
s10.5 -2.5 15.5 -5.5s9.33301 -7.5 13 -13.5s5.5 -14 5.5 -24c0 -7.33301 -1.5 -13.833 -4.5 -19.5s-6.33301 -11 -10 -16l-10 -13.5c-3 -4 -4.5 -7.33301 -4.5 -10c0 -6 6.5 -12.833 19.5 -20.5s30.833 -11.5 53.5 -11.5c7.33301 0 16.333 0.833008 27 2.5s21 5 31 10
s18.5 12 25.5 21s10.5 21.167 10.5 36.5c0 10 -1 19.333 -3 28s-6.16699 17.667 -12.5 27s-15.166 19.833 -26.499 31.5s-26 25.5 -44 41.5l-88 77c-8.66699 8 -18 17.167 -28 27.5s-19.333 21.5 -28 33.5s-15.834 24.667 -21.501 38s-8.5 27 -8.5 41
c0 12.667 2.66699 26.167 8 40.5s13.666 27.5 24.999 39.5s26 21.833 44 29.5s40 11.5 66 11.5c-29.333 25.333 -52.666 48.666 -69.999 69.999s-26 46.333 -26 75c0 20 4 37.833 12 53.5s18.667 28.834 32 39.501s28.833 18.834 46.5 24.501s36.167 8.5 55.5 8.5
c16 0 31.667 -2.5 47 -7.5s29 -12 41 -21s21.833 -19.5 29.5 -31.5s11.5 -25.333 11.5 -40c0 -15.333 -4.66699 -28.333 -14 -39s-22.333 -16 -39 -16c-11.333 0 -21.333 3.66699 -30 11s-13 15.666 -13 24.999c0 8.66699 2 15.167 6 19.5l14 14.5
c3.33301 3.33301 6.33301 7.5 9 12.5s4 11.833 4 20.5c0 4 -2.16699 7.83301 -6.5 11.5s-9.83301 6.83398 -16.5 9.50098s-14 4.83398 -22 6.50098s-16 2.5 -24 2.5c-8.66699 0 -17.834 -1 -27.501 -3s-18.5 -5.66699 -26.5 -11s-14.667 -12.333 -20 -21s-8 -20 -8 -34
c0 -8.66699 0.666992 -17.167 2 -25.5s4.83301 -17.5 10.5 -27.5s14.334 -21.5 26.001 -34.5s28.167 -28.167 49.5 -45.5l88 -72c29.333 -23.333 50.666 -47.333 63.999 -72s20 -48.667 20 -72zM315.003 356.998c-1.33301 16 -8.16504 32.832 -20.498 50.499
s-26.333 34.167 -42 49.5s-31.167 29 -46.5 41s-26.333 20.333 -33 25c-34 0 -61 -5.83301 -81 -17.5s-30 -28.167 -30 -49.5c0 -11.333 6 -26.166 18 -44.499s26 -36.666 42 -54.999s32 -34.833 48 -49.5s28 -24.334 36 -29.001c9.33301 0 20.166 1 32.499 3
s24.166 6 35.499 12s21 14.167 29 24.5s12 23.5 12 39.5z" />
    <glyph glyph-name="dieresis" unicode="&#xa8;" horiz-adv-x="293" 
d="M267 743c0 -12.667 -4.83301 -23.5 -14.5 -32.5s-21.5 -13.5 -35.5 -13.5c-13.333 0 -24.833 4.5 -34.5 13.5s-14.5 19.833 -14.5 32.5s4.83301 23.5 14.5 32.5s21.167 13.5 34.5 13.5c14 0 25.833 -4.5 35.5 -13.5s14.5 -19.833 14.5 -32.5zM125 743
c0 -12.667 -4.83301 -23.5 -14.5 -32.5s-21.167 -13.5 -34.5 -13.5s-24.833 4.5 -34.5 13.5s-14.5 19.833 -14.5 32.5s4.83301 23.5 14.5 32.5s21.167 13.5 34.5 13.5s24.833 -4.5 34.5 -13.5s14.5 -19.833 14.5 -32.5z" />
    <glyph glyph-name="copyright" unicode="&#xa9;" horiz-adv-x="914" 
d="M861 394c0 -55.333 -10.5 -107.333 -31.5 -156s-49.667 -91 -86 -127s-78.833 -64.5 -127.5 -85.5s-100.667 -31.5 -156 -31.5s-107.333 10.5 -156 31.5s-91 49.5 -127 85.5s-64.5 78.333 -85.5 127s-31.5 100.667 -31.5 156s10.5 107.333 31.5 156
s49.5 91.167 85.5 127.5s78.333 65 127 86s100.667 31.5 156 31.5s107.333 -10.5 156 -31.5s91.167 -49.667 127.5 -86s65 -78.833 86 -127.5s31.5 -100.667 31.5 -156zM844 394c0 52.667 -10 102.334 -30 149.001s-47.5 87.5 -82.5 122.5s-75.833 62.5 -122.5 82.5
s-96.334 30 -149.001 30c-53.333 0 -103.166 -10 -149.499 -30s-86.833 -47.5 -121.5 -82.5s-62 -75.833 -82 -122.5s-30 -96.334 -30 -149.001c0 -53.333 10 -103.166 30 -149.499s47.333 -86.833 82 -121.5s75.167 -62 121.5 -82s96.166 -30 149.499 -30
c52.667 0 102.334 10 149.001 30s87.5 47.333 122.5 82s62.5 75.167 82.5 121.5s30 96.166 30 149.499zM690 334c0 -24.667 -4.17188 -50.002 -12.5049 -76.002s-21.166 -49.667 -38.499 -71s-39.166 -38.833 -65.499 -52.5s-57.5 -20.5 -93.5 -20.5
c-44 0 -84.167 6.83301 -120.5 20.5s-67.666 32.667 -93.999 57s-46.833 53.166 -61.5 86.499s-22 69.333 -22 108s8.33301 75.334 25 110.001s38.334 65 65.001 91s56.834 46.5 90.501 61.5s67.167 22.5 100.5 22.5c18.667 0 34.5 -2.16699 47.5 -6.5
s25.167 -9.16602 36.5 -14.499s22.333 -10.166 33 -14.499s22.667 -6.5 36 -6.5c10 0 18.167 1.83301 24.5 5.5s11.5 7.83398 15.5 12.501c4 5.33301 7.33301 11.333 10 18h4v-255h-10v15c0 6 -1.66699 16 -5 30s-8.5 29.667 -15.5 47s-15.833 35.5 -26.5 54.5
s-23 36.167 -37 51.5s-29.667 28 -47 38s-36.333 15 -57 15c-18.667 0 -35 -6.83301 -49 -20.5s-25.5 -33 -34.5 -58s-15.833 -54.833 -20.5 -89.5s-7 -73.334 -7 -116.001c0 -85.333 11.667 -148.5 35 -189.5s55.666 -61.5 96.999 -61.5c26 0 50.167 5.66699 72.5 17
s41.833 26.5 58.5 45.5s29.834 41 39.501 66s14.5 51.5 14.5 79.5h12z" />
    <glyph glyph-name="ordfeminine" unicode="&#xaa;" horiz-adv-x="504" 
d="M474 495c0 -18 -1.15918 -34.502 -3.49219 -49.502s-6.83301 -28 -13.5 -39s-16.334 -19.5 -29.001 -25.5s-29.334 -9 -50.001 -9c-56.667 0 -94.334 26 -113.001 78c-5.33301 -13.333 -10.833 -24.666 -16.5 -33.999s-12.5 -17.166 -20.5 -23.499s-17.333 -11 -28 -14
s-23.667 -4.5 -39 -4.5c-16.667 0 -32.834 2.16699 -48.501 6.5s-29.667 11 -42 20s-22.166 20.333 -29.499 34s-11 29.5 -11 47.5c0 28 5.83301 49 17.5 63s26.167 24.333 43.5 31s36.166 11.667 56.499 15s39.166 8.83301 56.499 16.5s31.833 19 43.5 34
s17.5 37.833 17.5 68.5c0 10 -0.5 19.667 -1.5 29s-3.33301 17.5 -7 24.5s-9 12.5 -16 16.5s-16.5 6 -28.5 6c-6.66699 0 -14.167 -0.666992 -22.5 -2s-16 -3.33301 -23 -6s-12.833 -5.83398 -17.5 -9.50098s-6.33398 -7.83398 -5.00098 -12.501
c1.33301 0.666992 3.66602 1 6.99902 1c19.333 0 35.5 -6.83301 48.5 -20.5s19.5 -29.834 19.5 -48.501c0 -10.667 -2 -20.834 -6 -30.501s-9.5 -18.167 -16.5 -25.5s-15.333 -13.166 -25 -17.499s-19.834 -6.5 -30.501 -6.5c-23.333 0 -42.666 7.83301 -57.999 23.5
s-23 34.834 -23 57.501c0 22 6.16699 40 18.5 54s27.666 25.167 45.999 33.5s37.833 14.166 58.5 17.499s39.334 5 56.001 5c19.333 0 39.5 -1.83301 60.5 -5.5s40 -10.167 57 -19.5s31 -21.666 42 -36.999s16.5 -35 16.5 -59v-255c0 -4 0.666992 -9 2 -15s5 -9 11 -9
c6.66699 0 12.167 4.16699 16.5 12.5s7.66602 17.833 9.99902 28.5s3.83301 21.334 4.5 32.001s1 18.334 1 23.001h14zM486.008 301.998h-466v15h466v-15zM262.008 633.998l-1.00195 -2l-11.5 -12c-3.66699 -4 -8.16699 -7.66699 -13.5 -11
c-21.333 -17.333 -34.5 -35.333 -39.5 -54s-7.5 -41 -7.5 -67c0 -4 -0.333008 -11 -1 -21s-0.666992 -20.167 0 -30.5s2.5 -19.333 5.5 -27s7.83301 -11.5 14.5 -11.5c8 0 15.333 4.5 22 13.5s12.334 19.333 17.001 31s8.33398 23.5 11.001 35.5s4 21 4 27v127v2z" />
    <glyph glyph-name="guillemotleft" unicode="&#xab;" horiz-adv-x="471" 
d="M436 538l-111 -154l108 -159l-227 162zM267 538l-111 -154l108 -159l-227 162z" />
    <glyph glyph-name="registered" unicode="&#xae;" horiz-adv-x="516" 
d="M488 577c0 -32 -6 -62 -18 -90s-28.5 -52.5 -49.5 -73.5s-45.333 -37.5 -73 -49.5s-57.5 -18 -89.5 -18s-62 6 -90 18s-52.5 28.5 -73.5 49.5s-37.5 45.5 -49.5 73.5s-18 58 -18 90s6 61.833 18 89.5s28.5 52 49.5 73s45.5 37.5 73.5 49.5s58 18 90 18
s61.833 -6 89.5 -18s52 -28.5 73 -49.5s37.5 -45.333 49.5 -73s18 -57.5 18 -89.5zM468 577c0 28.667 -5.5 55.834 -16.5 81.501s-26 48 -45 67s-41.333 34 -67 45s-52.834 16.5 -81.501 16.5c-29.333 0 -56.833 -5.5 -82.5 -16.5s-48 -26 -67 -45s-34 -41.333 -45 -67
s-16.5 -52.834 -16.5 -81.501c0 -29.333 5.5 -56.833 16.5 -82.5s26 -48 45 -67s41.333 -34 67 -45s53.167 -16.5 82.5 -16.5c28.667 0 55.834 5.5 81.501 16.5s48 26 67 45s34 41.333 45 67s16.5 53.167 16.5 82.5zM403 538c0 -16 -0.667969 -30 -2.00098 -42
s-4 -22 -8 -30s-10 -13.833 -18 -17.5s-18.667 -5.5 -32 -5.5c-21.333 0 -37 6 -47 18s-15 25.667 -15 41c0 7.33301 0.166992 14.666 0.5 21.999s0.5 16.666 0.5 27.999s-1.66699 18.833 -5 22.5s-9 5.5 -17 5.5h-18v-105c0 -5.33301 0.833008 -8.83301 2.5 -10.5
s3.83398 -2.5 6.50098 -2.5h21v-15h-145v15h19c8 0 12 4.33301 12 13v213c0 7.33301 -0.833008 11.666 -2.5 12.999s-4.16699 2 -7.5 2h-22v15h131c42 0 72.167 -6.16699 90.5 -18.5s27.5 -28.833 27.5 -49.5c0 -17.333 -6 -30.666 -18 -39.999s-24.667 -16.666 -38 -21.999
c12 -3.33301 24 -9.33301 36 -18s18 -22 18 -40v-47c0 -5.33301 0.5 -8.5 1.5 -9.5s1.83301 -1.5 2.5 -1.5c6 0 9.5 6.33301 10.5 19s1.5 28.334 1.5 47.001h14zM288.999 649c0 12.667 -0.831055 22.665 -2.49805 29.998s-3.83398 12.833 -6.50098 16.5
s-5.83398 5.83398 -9.50098 6.50098s-7.5 1 -11.5 1h-17v-107h17c5.33301 0 10 0.333008 14 1s7.16699 2.83398 9.5 6.50098s4 9 5 16s1.5 16.833 1.5 29.5z" />
    <glyph glyph-name="macron" unicode="&#xaf;" horiz-adv-x="293" 
d="M266 735h-244v52h244v-52z" />
    <glyph glyph-name="degree" unicode="&#xb0;" horiz-adv-x="410" 
d="M389 616c0 -24.667 -4.66699 -47.834 -14 -69.501s-22.166 -40.667 -38.499 -57s-35.333 -29.166 -57 -38.499s-44.834 -14 -69.501 -14s-47.834 4.66699 -69.501 14s-40.667 22.166 -57 38.499s-29.166 35.333 -38.499 57s-14 44.834 -14 69.501
s4.66699 47.834 14 69.501s22.166 40.667 38.499 57s35.333 29.166 57 38.499s44.834 14 69.501 14s47.834 -4.66699 69.501 -14s40.667 -22.166 57 -38.499s29.166 -35.333 38.499 -57s14 -44.834 14 -69.501zM343 615c0 18 -3.5 35.167 -10.5 51.5s-16.5 30.5 -28.5 42.5
s-26.167 21.5 -42.5 28.5s-33.5 10.5 -51.5 10.5s-35 -3.5 -51 -10.5s-30 -16.5 -42 -28.5s-21.5 -26.167 -28.5 -42.5s-10.5 -33.5 -10.5 -51.5s3.5 -35 10.5 -51s16.5 -30 28.5 -42s26 -21.5 42 -28.5s33 -10.5 51 -10.5s35.167 3.5 51.5 10.5s30.5 16.5 42.5 28.5
s21.5 26 28.5 42s10.5 33 10.5 51z" />
    <glyph glyph-name="twosuperior" unicode="&#xb2;" horiz-adv-x="322" 
d="M308 618c0 -21.333 -2.00098 -41.498 -6.00098 -60.498s-10.167 -35.833 -18.5 -50.5s-19 -26.167 -32 -34.5s-28.5 -12.5 -46.5 -12.5c-18.667 0 -33.834 3.66699 -45.501 11s-22 15.333 -31 24s-18 16.667 -27 24s-20.167 11 -33.5 11c-10.667 0 -20.5 -4 -29.5 -12
s-13.5 -18 -13.5 -30c0 -7.33301 0.666992 -12.333 2 -15h-8c-4 4 -6 17.333 -6 40c0 16.667 2.33301 31.667 7 45s10.834 25.166 18.501 35.499s16 19.333 25 27s18.167 14.167 27.5 19.5l25 12.5c11.333 5.66699 22.666 13.834 33.999 24.501s21.333 24.334 30 41.001
s13 38 13 64c0 33.333 -6.33301 56.666 -19 69.999s-27.334 20 -44.001 20c-8.66699 0 -17.5 -1.83301 -26.5 -5.5s-17.333 -8.33398 -25 -14.001s-13.834 -12.167 -18.501 -19.5s-7 -14.333 -7 -21c0 -5.33301 1 -8 3 -8c1.33301 0 5.33301 2.16699 12 6.5s15 6.5 25 6.5
c16 0 28.5 -5.5 37.5 -16.5s13.5 -23.167 13.5 -36.5c0 -14 -5.16699 -26.167 -15.5 -36.5s-24.166 -15.5 -41.499 -15.5c-18.667 0 -33 6.66699 -43 20s-15 28.666 -15 45.999c0 12 2.5 24.167 7.5 36.5s12.833 23.5 23.5 33.5s24.334 18.333 41.001 25
s36.334 10 59.001 10c42.667 0 76.834 -10.167 102.501 -30.5s38.5 -46.166 38.5 -77.499c0 -24.667 -7 -44.5 -21 -59.5s-30.167 -26.833 -48.5 -35.5s-36.5 -15 -54.5 -19s-31.333 -7.33301 -40 -10c-37.333 -11.333 -66 -29.333 -86 -54s-30 -52.334 -30 -83.001v-4
c0 -2 0.666992 -3 2 -3c0 1.33301 1.83301 5.5 5.5 12.5s10 14.333 19 22s21 14.667 36 21s33.833 9.5 56.5 9.5c12.667 0 23.167 -0.333008 31.5 -1s16 -1.5 23 -2.5s14 -1.83301 21 -2.5s15.5 -1 25.5 -1c22 0 38 5.33301 48 16s15 23 15 37h4z" />
    <glyph glyph-name="threesuperior" unicode="&#xb3;" horiz-adv-x="331" 
d="M310 589c0 -19.333 -4.50391 -36.8281 -13.5039 -52.4951s-21 -29 -36 -40s-32.333 -19.5 -52 -25.5s-40.167 -9 -61.5 -9c-28 0 -51.167 4.16699 -69.5 12.5s-32.833 18.666 -43.5 30.999s-17.334 25.833 -20.001 40.5s-2 28.167 2 40.5s11 22.666 21 30.999
s22.667 12.5 38 12.5s28 -5.33301 38 -16s15 -23 15 -37c0 -15.333 -4.83301 -28.333 -14.5 -39s-22.5 -16 -38.5 -16c-8.66699 0 -15.667 1.33301 -21 4s-8.33301 4 -9 4c-2 0 -3 -1.33301 -3 -4c0 -5.33301 2 -11.333 6 -18s9.66699 -12.834 17 -18.501
s16.5 -10.334 27.5 -14.001s23.167 -5.5 36.5 -5.5c12 0 22.667 1.33301 32 4s17 8 23 16s10.5 19.167 13.5 33.5s4.5 33.166 4.5 56.499c0 24 -2 43.333 -6 58s-9.16699 26 -15.5 34s-13.666 13.333 -21.999 16s-16.5 4 -24.5 4c-5.33301 0 -10.166 -0.5 -14.499 -1.5
s-7.16602 -1.5 -8.49902 -1.5c-2.66699 0 -4 2 -4 6c0 3.33301 1.33301 5 4 5c3.33301 0 6.33301 -0.5 9 -1.5s7.66699 -1.5 15 -1.5c18.667 0 31.167 6.66699 37.5 20s9.5 37.666 9.5 72.999c0 57.333 -17 86 -51 86c-6.66699 0 -13.5 -1.16699 -20.5 -3.5
s-13.333 -5.16602 -19 -8.49902s-10.334 -6.83301 -14.001 -10.5s-5.5 -6.83398 -5.5 -9.50098c0 -4 1.33301 -6 4 -6c1.33301 0 3.83301 0.666992 7.5 2s7.83398 2 12.501 2c12.667 0 23.334 -4.83301 32.001 -14.5s13 -21.167 13 -34.5c0 -15.333 -4.83301 -28 -14.5 -38
s-22.167 -15 -37.5 -15c-17.333 0 -30.5 5.66699 -39.5 17s-13.5 24.666 -13.5 39.999c0 10 2.16699 20.167 6.5 30.5s11 19.5 20 27.5s20.5 14.667 34.5 20s30.667 8 50 8s37.333 -2.5 54 -7.5s31 -11.667 43 -20s21.333 -18.333 28 -30s10 -23.834 10 -36.501
c0 -13.333 -3.33301 -25.333 -10 -36s-14.5 -19.667 -23.5 -27s-18 -13.333 -27 -18s-15.833 -7.66699 -20.5 -9v-3c10.667 -3.33301 22.334 -7.66602 35.001 -12.999s24.5 -12.166 35.5 -20.499s20.167 -18.666 27.5 -30.999s11 -26.5 11 -42.5z" />
    <glyph glyph-name="acute" unicode="&#xb4;" horiz-adv-x="222" 
d="M189 759c0 -16 -5.5 -28.832 -16.5 -38.499s-23.833 -17.834 -38.5 -24.501s-29.667 -12.834 -45 -18.501s-27.333 -12.834 -36 -21.501l-15 -15l-7 7l15 15c8.66699 8.66699 16 20.834 22 36.501s12.333 30.834 19 45.501s14.834 27.5 24.501 38.5s22.5 16.5 38.5 16.5
c11.333 0 20.666 -4.16699 27.999 -12.5s11 -17.833 11 -28.5z" />
    <glyph glyph-name="paragraph" unicode="&#xb6;" horiz-adv-x="500" 
d="M459 688l-63 0.00292969v-688h-39v688h-91v-688h-41v383c-58 0.666992 -103.167 15.667 -135.5 45s-48.5 71 -48.5 125c0 19.333 3.33301 39.166 10 59.499s17.667 38.666 33 54.999s35 29.666 59 39.999s53.667 15.5 89 15.5h227v-35z" />
    <glyph glyph-name="periodcentered" unicode="&#xb7;" horiz-adv-x="312" 
d="M279 419c0 -16 -3.16699 -31.167 -9.5 -45.5s-15 -26.833 -26 -37.5s-23.833 -19.167 -38.5 -25.5s-30.334 -9.5 -47.001 -9.5s-32.334 3.16699 -47.001 9.5s-27.5 14.833 -38.5 25.5s-19.667 23.167 -26 37.5s-9.5 29.5 -9.5 45.5s3.16699 31.167 9.5 45.5
s15 26.833 26 37.5s23.833 19.167 38.5 25.5s30.334 9.5 47.001 9.5s32.334 -3.16699 47.001 -9.5s27.5 -14.833 38.5 -25.5s19.667 -23.167 26 -37.5s9.5 -29.5 9.5 -45.5z" />
    <glyph glyph-name="cedilla" unicode="&#xb8;" horiz-adv-x="287" 
d="M255 -115c0 -11.333 -3.99707 -21.833 -11.9971 -31.5s-18.167 -18 -30.5 -25s-26.333 -12.667 -42 -17s-30.834 -6.5 -45.501 -6.5c-15.333 0 -28.833 1.33301 -40.5 4s-21.334 5.5 -29.001 8.5s-13.5 6 -17.5 9s-6.33301 5.16699 -7 6.5l6 11
c4.66699 -4 14.167 -9.33301 28.5 -16s31.166 -10 50.499 -10s34.666 3.16699 45.999 9.5s17 15.833 17 28.5s-8.16699 22.167 -24.5 28.5s-34.5 9.5 -54.5 9.5s-33.5 -0.666992 -40.5 -2s-11.167 -2 -12.5 -2c-2.66699 0 -4 1.66699 -4 5c0 2 0.666992 3.66699 2 5l76 100
h16l-39 -51c6.66699 0.666992 13.167 1 19.5 1h20.5c14.667 0 29.167 -1.66699 43.5 -5s26.833 -7.83301 37.5 -13.5s19.334 -12.5 26.001 -20.5s10 -16.667 10 -26z" />
    <glyph glyph-name="onesuperior" unicode="&#xb9;" horiz-adv-x="223" 
d="M210 474h-187v6h15c8 0 14 2.66699 18 8s6 12 6 20v272c0 12 -2.5 20.167 -7.5 24.5s-11.167 6.5 -18.5 6.5h-14v6c8 0 19 2.5 33 7.5s28 11 42 18s27 14.333 39 22s20 14.167 24 19.5v-370c0 -11.333 3 -19.833 9 -25.5s11.667 -8.5 17 -8.5h24v-6z" />
    <glyph glyph-name="ordmasculine" unicode="&#xba;" horiz-adv-x="530" 
d="M489 586c0 -30 -5.83301 -58.167 -17.5 -84.5s-27.834 -49.333 -48.501 -69s-44.667 -35.167 -72 -46.5s-56.333 -17 -87 -17c-31.333 0 -60.5 5.66699 -87.5 17s-50.667 26.833 -71 46.5s-36.333 42.667 -48 69s-17.5 54.5 -17.5 84.5s5.83301 58 17.5 84
s27.667 48.833 48 68.5s44 35.167 71 46.5s56.167 17 87.5 17c30.667 0 59.667 -5.66699 87 -17s51.333 -26.833 72 -46.5s36.834 -42.5 48.501 -68.5s17.5 -54 17.5 -84zM495 309h-466v15h466v-15zM315 581l0.000976562 91.999
c-0.666992 13.333 -1.33398 25.333 -2.00098 36s-2 20.334 -4 29.001c-3.33301 17.333 -8.16602 29.833 -14.499 37.5s-16.166 11.5 -29.499 11.5c-10.667 0 -19.167 -2.66699 -25.5 -8s-11.333 -15.5 -15 -30.5s-6.16699 -35.667 -7.5 -62s-2 -60.833 -2 -103.5
c0 -44.667 0.833008 -80.167 2.5 -106.5s4.5 -46.333 8.5 -60s9.16699 -22.5 15.5 -26.5s14.166 -6 23.499 -6s17.166 2.5 23.499 7.5s11.5 14.5 15.5 28.5s6.83301 33.833 8.5 59.5s2.5 59.5 2.5 101.5z" />
    <glyph glyph-name="guillemotright" unicode="&#xbb;" horiz-adv-x="464" 
d="M429 376l-230 -151l111 153l-108 160zM260 376l-230 -151l111 153l-108 160z" />
    <glyph glyph-name="onequarter" unicode="&#xbc;" horiz-adv-x="772" 
d="M598 799l-475 -799h-19l473 799h21zM747 222l-17.001 -68.999h-74v-113c0 -21.333 11.333 -32 34 -32h21v-7h-258v7h31c26 0 39 12.333 39 37v108h-178l210 360h101v-337h39c8.66699 0 16.834 2.66699 24.501 8s13.167 13.666 16.5 24.999l3 14zM522.999 437.001
l-154 -261h154v261zM248.999 339.001l-218 0.00195312v7h18c9.33301 0 16.333 3.16699 21 9.5s7 14.166 7 23.499v318c0 13.333 -3 22.666 -9 27.999s-13 8 -21 8h-17v6c9.33301 0 22.166 2.83301 38.499 8.5s32.833 12.667 49.5 21s31.834 17 45.501 26
s23.167 16.833 28.5 23.5v-432c0 -13.333 3.33301 -23.333 10 -30s13 -10 19 -10h28v-7z" />
    <glyph glyph-name="onehalf" unicode="&#xbd;" horiz-adv-x="893" 
d="M640 799l-475 -799h-19l473 799h21zM276 339l-218 0.00195312v7h18c9.33301 0 16.333 3.16699 21 9.5s7 14.166 7 23.499v318c0 13.333 -3 22.666 -9 27.999s-13 8 -21 8h-17v6c9.33301 0 22.166 2.83301 38.499 8.5s32.833 12.667 49.5 21s31.834 17 45.501 26
s23.167 16.833 28.5 23.5v-432c0 -13.333 3.33301 -23.333 10 -30s13 -10 19 -10h28v-7zM829 174.002c0 -27.333 -2.50098 -52.9971 -7.50098 -76.9971s-12.833 -45.333 -23.5 -64s-24.334 -33.334 -41.001 -44.001s-36.334 -16 -59.001 -16c-24 0 -43.333 4.66699 -58 14
s-27.667 19.5 -39 30.5s-22.666 21.167 -33.999 30.5s-25.666 14 -42.999 14c-13.333 0 -25.833 -5 -37.5 -15s-17.5 -22.667 -17.5 -38c0 -10.667 1 -17.334 3 -20.001h-11c-1.33301 2.66699 -2.83301 8.33398 -4.5 17.001s-2.5 20 -2.5 34c0 20.667 3 39.667 9 57
s13.833 32.666 23.5 45.999s20.334 25 32.001 35s23.167 18 34.5 24c6.66699 4 17.334 9.5 32.001 16.5s29.167 17.167 43.5 30.5s27 30.666 38 51.999s16.5 48.666 16.5 81.999c0 42.667 -8 72.334 -24 89.001s-34.667 25 -56 25c-10.667 0 -21.834 -2.33301 -33.501 -7
s-22.167 -10.667 -31.5 -18s-17.166 -15.5 -23.499 -24.5s-9.5 -18.167 -9.5 -27.5c0 -6 1 -9 3 -9s7.16699 2.66699 15.5 8s19.166 8 32.499 8c20 0 35.667 -6.83301 47 -20.5s17 -29.167 17 -46.5c0 -18 -6.5 -33.5 -19.5 -46.5s-30.5 -19.5 -52.5 -19.5
c-23.333 0 -41.333 8.33301 -54 25s-19 36 -19 58c0 15.333 3.33301 30.833 10 46.5s16.667 30 30 43s30.5 23.667 51.5 32s45.833 12.5 74.5 12.5c27.333 0 52 -3.5 74 -10.5s40.833 -16.5 56.5 -28.5s27.834 -26.333 36.501 -43s13 -35 13 -55
c0 -31.333 -8.83301 -56.666 -26.5 -75.999s-38.334 -34.5 -62.001 -45.5s-47 -19.167 -70 -24.5s-39.833 -9.33301 -50.5 -12c-47.333 -14 -83.666 -36.833 -108.999 -68.5s-38 -66.834 -38 -105.501v-5c0 -2.66699 0.333008 -4 1 -4c0 1.33301 2.5 6.5 7.5 15.5
s13.167 18.5 24.5 28.5s26.666 19 45.999 27s43.333 12 72 12c16 0 29.333 -0.5 40 -1.5s20.5 -2 29.5 -3l27 -3c9 -1 19.5 -1.5 31.5 -1.5c28 0 48.333 6.83301 61 20.5s19 29.167 19 46.5h5z" />
    <glyph glyph-name="threequarters" unicode="&#xbe;" horiz-adv-x="862" 
d="M688 799l-475 -799h-19l473 799h21zM837 222l-17.001 -68.999h-74v-113c0 -21.333 11.333 -32 34 -32h21v-7h-258v7h31c26 0 39 12.333 39 37v108h-178l210 360h101v-337h39c8.66699 0 16.834 2.66699 24.501 8s13.167 13.666 16.5 24.999l3 14zM612.999 437.001
l-154 -261h154v261zM376.999 478.001c0 -22.667 -5.17773 -42.999 -15.5107 -60.999s-24.333 -33.333 -42 -46s-37.834 -22.334 -60.501 -29.001s-46 -10 -70 -10c-32 0 -58.667 4.83301 -80 14.5s-38.166 21.5 -50.499 35.5s-20.166 29.5 -23.499 46.5
s-2.66602 32.5 2.00098 46.5s12.834 25.833 24.501 35.5s26.167 14.5 43.5 14.5c18 0 32.667 -6.16699 44 -18.5s17 -26.5 17 -42.5c0 -18 -5.5 -33.167 -16.5 -45.5s-25.5 -18.5 -43.5 -18.5c-10 0 -18 1.66699 -24 5s-9.66699 5 -11 5c-2.66699 0 -4 -1.66699 -4 -5
c0 -6 2.33301 -12.833 7 -20.5s11.334 -14.667 20.001 -21s19.167 -11.666 31.5 -15.999s26.5 -6.5 42.5 -6.5c14 0 26.333 1.5 37 4.5s19.5 9 26.5 18s12.167 21.833 15.5 38.5s5 38.334 5 65.001c0 28 -2.33301 50.5 -7 67.5s-10.667 30 -18 39s-15.666 15 -24.999 18
s-18.666 4.5 -27.999 4.5c-6 0 -11.667 -0.5 -17 -1.5s-8.66602 -1.5 -9.99902 -1.5c-2.66699 0 -4 2.33301 -4 7c0 3.33301 1.33301 5 4 5c4 0 7.5 -0.333008 10.5 -1s8.83301 -1 17.5 -1c21.333 0 35.666 7.66699 42.999 23s11 43 11 83c0 66 -19.667 99 -59 99
c-8 0 -16 -1.33301 -24 -4s-15.167 -5.83398 -21.5 -9.50098s-11.666 -7.66699 -15.999 -12s-6.5 -8.16602 -6.5 -11.499c0 -4 1.66699 -6 5 -6c2 0 5 0.666992 9 2s8.66699 2 14 2c14.667 0 27 -5.5 37 -16.5s15 -24.167 15 -39.5c0 -17.333 -5.66699 -31.833 -17 -43.5
s-25.666 -17.5 -42.999 -17.5c-19.333 0 -34.5 6.66699 -45.5 20s-16.5 28.666 -16.5 45.999c0 11.333 2.5 22.833 7.5 34.5s12.667 22.167 23 31.5s23.666 17 39.999 23s35.833 9 58.5 9c22 0 42.5 -2.83301 61.5 -8.5s35.5 -13.334 49.5 -23.001
s24.833 -21.167 32.5 -34.5s11.5 -27.333 11.5 -42c0 -15.333 -3.83301 -29 -11.5 -41s-16.667 -22.333 -27 -31s-20.666 -15.667 -30.999 -21s-18.166 -9 -23.499 -11v-3c12 -3.33301 25.333 -8.16602 40 -14.499s28.334 -14.5 41.001 -24.5s23.334 -21.833 32.001 -35.5
s13 -29.834 13 -48.501z" />
    <glyph glyph-name="questiondown" unicode="&#xbf;" horiz-adv-x="647" 
d="M488 688c0 -16 -3.16699 -30.833 -9.5 -44.5s-14.833 -25.667 -25.5 -36s-23.167 -18.5 -37.5 -24.5s-29.833 -9 -46.5 -9c-16 0 -31.167 3 -45.5 9s-26.833 14.167 -37.5 24.5s-19.167 22.333 -25.5 36s-9.5 28.5 -9.5 44.5s3.16699 31 9.5 45s14.833 26.167 25.5 36.5
s23.167 18.5 37.5 24.5s29.5 9 45.5 9c16.667 0 32.167 -3 46.5 -9s26.833 -14.167 37.5 -24.5s19.167 -22.5 25.5 -36.5s9.5 -29 9.5 -45zM637 204c0 -24.667 -5.66309 -50.001 -16.9961 -76.001s-29 -49.5 -53 -70.5s-54.333 -38.167 -91 -51.5s-80.334 -20 -131.001 -20
c-42 0 -82.167 5 -120.5 15s-72 24.167 -101 42.5s-52.167 40.333 -69.5 66s-26 54.167 -26 85.5c0 26 5 48.333 15 67s23.167 35 39.5 49s35.166 25.833 56.499 35.5s43 18.5 65 26.5c23.333 8.66699 46.5 16.834 69.5 24.501s43.5 16.334 61.5 26.001s32.667 21 44 34
s17 29.167 17 48.5c0 7.33301 -0.833008 13.333 -2.5 18s-2.5 8.66699 -2.5 12c0 2.66699 1.33301 4 4 4c5.33301 0 9.16602 -3.33301 11.499 -10s3.5 -15.667 3.5 -27c0 -23.333 -6.5 -46 -19.5 -68l-43 -71c-15.667 -25.333 -30 -53.5 -43 -84.5
s-19.5 -66.833 -19.5 -107.5c0 -32 3 -58.5 9 -79.5s14.5 -38 25.5 -51s23.667 -22.167 38 -27.5s30.166 -8 47.499 -8c16.667 0 33 2.33301 49 7s30.333 10.834 43 18.501s23 16 31 25s12 17.833 12 26.5c0 3.33301 -2.66699 5 -8 5
c-3.33301 0 -7.66602 -0.166992 -12.999 -0.5s-11.666 -0.5 -18.999 -0.5c-18.667 0 -35 3.33301 -49 10s-25.833 15.5 -35.5 26.5s-16.834 23.667 -21.501 38s-7 29.166 -7 44.499c0 16 2.5 31.5 7.5 46.5s12.833 28.5 23.5 40.5s23.667 21.667 39 29s33.666 11 54.999 11
c20 0 37.833 -3.5 53.5 -10.5s28.667 -16.333 39 -28s18.333 -25.334 24 -41.001s8.5 -32.167 8.5 -49.5z" />
    <glyph glyph-name="Agrave" unicode="&#xc0;" 
d="M501 848l-8.00098 -8.00098l-15 15c-8.66699 8.66699 -20.667 16 -36 22s-30.333 12.333 -45 19s-27.5 14.834 -38.5 24.501s-16.5 22.5 -16.5 38.5c0 10.667 3.83301 20 11.5 28s16.834 12 27.501 12c16 0 28.833 -5.5 38.5 -16.5s18 -23.833 25 -38.5
s13.333 -29.667 19 -45s13.167 -27.333 22.5 -36zM890.999 -0.000976562l-458 0.00292969v13h59c13.333 0 23.5 3.66699 30.5 11s10.5 17.666 10.5 30.999c0 9.33301 -1.33301 18.333 -4 27l-80 254h-214l-34 -114c-4.66699 -16 -8.16699 -30.833 -10.5 -44.5
s-3.5 -26.834 -3.5 -39.501c0 -20.667 3 -38.834 9 -54.501s13.833 -28.667 23.5 -39s21 -18.166 34 -23.499s26.5 -8 40.5 -8h35v-13h-332v13h19c20.667 0 39.834 7.16699 57.501 21.5s33.834 32.666 48.501 54.999s27.667 47 39 74s21 53.5 29 79.5l175 557h183l248 -748
c5.33301 -14 12.666 -24 21.999 -30s20.666 -9 33.999 -9h39v-13zM444.999 350.002l-104 322l-102 -322h206z" />
    <glyph glyph-name="Aacute" unicode="&#xc1;" 
d="M573 972c0 -16 -5.50098 -28.8301 -16.501 -38.4971s-23.833 -17.834 -38.5 -24.501s-29.667 -12.834 -45 -18.501s-27.333 -12.834 -36 -21.501l-15 -15l-8 8l15 15c8.66699 8.66699 16 20.667 22 36s12.5 30.333 19.5 45s15.333 27.5 25 38.5s22.5 16.5 38.5 16.5
c10.667 0 19.834 -4 27.501 -12s11.5 -17.667 11.5 -29zM890.999 0.00292969l-458 0.00292969v13h59c13.333 0 23.5 3.66699 30.5 11s10.5 17.666 10.5 30.999c0 9.33301 -1.33301 18.333 -4 27l-80 254h-214l-34 -114c-4.66699 -16 -8.16699 -30.833 -10.5 -44.5
s-3.5 -26.834 -3.5 -39.501c0 -20.667 3 -38.834 9 -54.501s13.833 -28.667 23.5 -39s21 -18.166 34 -23.499s26.5 -8 40.5 -8h35v-13h-332v13h19c20.667 0 39.834 7.16699 57.501 21.5s33.834 32.666 48.501 54.999s27.667 47 39 74s21 53.5 29 79.5l175 557h183l248 -748
c5.33301 -14 12.666 -24 21.999 -30s20.666 -9 33.999 -9h39v-13zM444.999 350.006l-104 322l-102 -322h206z" />
    <glyph glyph-name="Acircumflex" unicode="&#xc2;" 
d="M588 843l-131 61l-136 -58l138 134zM891 0l-458 0.00292969v13h59c13.333 0 23.5 3.66699 30.5 11s10.5 17.666 10.5 30.999c0 9.33301 -1.33301 18.333 -4 27l-80 254h-214l-34 -114c-4.66699 -16 -8.16699 -30.833 -10.5 -44.5s-3.5 -26.834 -3.5 -39.501
c0 -20.667 3 -38.834 9 -54.501s13.833 -28.667 23.5 -39s21 -18.166 34 -23.499s26.5 -8 40.5 -8h35v-13h-332v13h19c20.667 0 39.834 7.16699 57.501 21.5s33.834 32.666 48.501 54.999s27.667 47 39 74s21 53.5 29 79.5l175 557h183l248 -748
c5.33301 -14 12.666 -24 21.999 -30s20.666 -9 33.999 -9h39v-13zM445 350.003l-104 322l-102 -322h206z" />
    <glyph glyph-name="Atilde" unicode="&#xc3;" 
d="M604 974c0 -9.33301 -1.83203 -19.332 -5.49902 -29.999s-9.83398 -20.834 -18.501 -30.501s-19.834 -17.667 -33.501 -24s-30.5 -9.5 -50.5 -9.5c-21.333 0 -40.666 2 -57.999 6s-34 6 -50 6s-28.5 -2.5 -37.5 -7.5s-13.5 -12.167 -13.5 -21.5h-10
c0 10.667 2.16699 21.667 6.5 33s10.833 21.666 19.5 30.999s19.5 17 32.5 23s28.167 9 45.5 9c25.333 0 46.833 -2 64.5 -6s35.167 -6 52.5 -6s29.333 3.33301 36 10s10.667 12.334 12 17.001h8zM891.001 0.000976562l-458 0.00292969v13h59c13.333 0 23.5 3.66699 30.5 11
s10.5 17.666 10.5 30.999c0 9.33301 -1.33301 18.333 -4 27l-80 254h-214l-34 -114c-4.66699 -16 -8.16699 -30.833 -10.5 -44.5s-3.5 -26.834 -3.5 -39.501c0 -20.667 3 -38.834 9 -54.501s13.833 -28.667 23.5 -39s21 -18.166 34 -23.499s26.5 -8 40.5 -8h35v-13h-332v13
h19c20.667 0 39.834 7.16699 57.501 21.5s33.834 32.666 48.501 54.999s27.667 47 39 74s21 53.5 29 79.5l175 557h183l248 -748c5.33301 -14 12.666 -24 21.999 -30s20.666 -9 33.999 -9h39v-13zM445.001 350.004l-104 322l-102 -322h206z" />
    <glyph glyph-name="Adieresis" unicode="&#xc4;" 
d="M581 922c0 -12.667 -4.83301 -23.5 -14.5 -32.5s-21.167 -13.5 -34.5 -13.5s-24.833 4.5 -34.5 13.5s-14.5 19.833 -14.5 32.5s4.83301 23.5 14.5 32.5s21.167 13.5 34.5 13.5s24.833 -4.5 34.5 -13.5s14.5 -19.833 14.5 -32.5zM440 922
c0 -12.667 -4.83301 -23.5 -14.5 -32.5s-21.167 -13.5 -34.5 -13.5c-14 0 -25.833 4.5 -35.5 13.5s-14.5 19.833 -14.5 32.5s4.83301 23.5 14.5 32.5s21.5 13.5 35.5 13.5c13.333 0 24.833 -4.5 34.5 -13.5s14.5 -19.833 14.5 -32.5zM891 0l-458 0.00292969v13h59
c13.333 0 23.5 3.66699 30.5 11s10.5 17.666 10.5 30.999c0 9.33301 -1.33301 18.333 -4 27l-80 254h-214l-34 -114c-4.66699 -16 -8.16699 -30.833 -10.5 -44.5s-3.5 -26.834 -3.5 -39.501c0 -20.667 3 -38.834 9 -54.501s13.833 -28.667 23.5 -39s21 -18.166 34 -23.499
s26.5 -8 40.5 -8h35v-13h-332v13h19c20.667 0 39.834 7.16699 57.501 21.5s33.834 32.666 48.501 54.999s27.667 47 39 74s21 53.5 29 79.5l175 557h183l248 -748c5.33301 -14 12.666 -24 21.999 -30s20.666 -9 33.999 -9h39v-13zM445 350.003l-104 322l-102 -322h206z" />
    <glyph glyph-name="Aring" unicode="&#xc5;" 
d="M561 940c0 -15.333 -2.83301 -29.666 -8.5 -42.999s-13.5 -25 -23.5 -35s-21.667 -17.833 -35 -23.5s-27.666 -8.5 -42.999 -8.5s-29.666 2.83301 -42.999 8.5s-25 13.5 -35 23.5s-17.833 21.667 -23.5 35s-8.5 27.666 -8.5 42.999s2.83301 29.666 8.5 42.999
s13.5 25 23.5 35s21.667 17.833 35 23.5s27.666 8.5 42.999 8.5s29.666 -2.83301 42.999 -8.5s25 -13.5 35 -23.5s17.833 -21.667 23.5 -35s8.5 -27.666 8.5 -42.999zM506 940c0 15.333 -5.16699 28.166 -15.5 38.499s-22.833 15.5 -37.5 15.5
c-15.333 0 -28.166 -5.16699 -38.499 -15.5s-15.5 -23.166 -15.5 -38.499s5.16699 -28.166 15.5 -38.499s23.166 -15.5 38.499 -15.5c14.667 0 27.167 5.16699 37.5 15.5s15.5 23.166 15.5 38.499zM891 0l-458 0.00292969v13h59c13.333 0 23.5 3.66699 30.5 11
s10.5 17.666 10.5 30.999c0 9.33301 -1.33301 18.333 -4 27l-80 254h-214l-34 -114c-4.66699 -16 -8.16699 -30.833 -10.5 -44.5s-3.5 -26.834 -3.5 -39.501c0 -20.667 3 -38.834 9 -54.501s13.833 -28.667 23.5 -39s21 -18.166 34 -23.499s26.5 -8 40.5 -8h35v-13h-332v13
h19c20.667 0 39.834 7.16699 57.501 21.5s33.834 32.666 48.501 54.999s27.667 47 39 74s21 53.5 29 79.5l175 557h183l248 -748c5.33301 -14 12.666 -24 21.999 -30s20.666 -9 33.999 -9h39v-13zM445 350.003l-104 322l-102 -322h206z" />
    <glyph glyph-name="AE" unicode="&#xc6;" horiz-adv-x="1194" 
d="M1145 0h-722.002v13h63c19.333 0 34.166 7.16699 44.499 21.5s15.5 30.166 15.5 47.499v254h-207l-73 -114c-13.333 -21.333 -25.666 -44.166 -36.999 -68.499s-17.666 -47 -18.999 -68s3.66699 -38.333 15 -52s32.666 -20.5 63.999 -20.5h30v-13h-332v13h23
c20.667 0 40.834 4.83301 60.501 14.5s39.5 24.167 59.5 43.5s40.667 43.333 62 72s44 62 68 100l361 557l487 -1v-309h-9l-3 27c-2.66699 30 -11.167 61 -25.5 93s-33.166 61.167 -56.499 87.5s-51 47.833 -83 64.5s-66.667 25 -104 25h-53v-353h39
c17.333 0 34.833 4.33301 52.5 13s33.5 20.5 47.5 35.5s25.333 32.667 34 53s13 42.166 13 65.499v28h13v-424h-13v31c0 22.667 -3.83301 45 -11.5 67s-18 41.5 -31 58.5s-28.167 30.667 -45.5 41s-36 15.5 -56 15.5h-42v-374c0 -6 3.5 -12.667 10.5 -20s16.5 -11 28.5 -11
h82c18 0 36.167 5.33301 54.5 16s36.166 24.667 53.499 42s33.833 36.833 49.5 58.5s29.334 43.834 41.001 66.501s21 44.667 28 66s11.167 40 12.5 56l2 37h9v-355zM545.998 350v306l-199 -306h199z" />
    <glyph glyph-name="Ccedilla" unicode="&#xc7;" horiz-adv-x="820" 
d="M785 307c0 -36.667 -6.3252 -74.3311 -18.9922 -112.998s-32 -74 -58 -106s-58.667 -58.333 -98 -79s-86 -31 -140 -31c-9.33301 0 -18.333 0.166992 -27 0.5s-17.334 0.833008 -26.001 1.5l-32 -41c6.66699 0.666992 13.334 1 20.001 1h20
c14.667 0 29.167 -1.66699 43.5 -5s26.833 -7.83301 37.5 -13.5s19.334 -12.5 26.001 -20.5s10 -16.667 10 -26c0 -11.333 -4 -21.833 -12 -31.5s-18.167 -18 -30.5 -25s-26.333 -12.667 -42 -17s-30.834 -6.5 -45.501 -6.5c-15.333 0 -28.833 1.33301 -40.5 4
s-21.334 5.5 -29.001 8.5s-13.5 6 -17.5 9s-6.33301 5.16699 -7 6.5l6 11c4.66699 -4 14.167 -9.33301 28.5 -16s31.166 -10 50.499 -10s34.666 3.16699 45.999 9.5s17 15.833 17 28.5s-8.16699 22.167 -24.5 28.5s-34.5 9.5 -54.5 9.5s-33.5 -0.666992 -40.5 -2
s-11.167 -2 -12.5 -2c-2 0 -3 1.66699 -3 5c0 2.66699 0.333008 4.33398 1 5.00098l70 92c-56.667 6.66699 -108.5 21.667 -155.5 45s-87.167 52.833 -120.5 88.5s-59.333 76.5 -78 122.5s-28 95.667 -28 149c0 38.667 5.83301 76.334 17.5 113.001
s27.5 70.834 47.5 102.501s43.667 60.667 71 87s56.666 49 87.999 68s64 33.667 98 44s67.667 15.5 101 15.5c28 0 52 -3.33301 72 -10s38.333 -14 55 -22s33.167 -15.333 49.5 -22s34.5 -10 54.5 -10c15.333 0 28.166 2.66699 38.499 8s18.166 11.666 23.499 18.999
c6.66699 8 11.667 17.333 15 28h5v-383h-13v22c0 8.66699 -2.66699 23.5 -8 44.5s-13.333 44.833 -24 71.5s-24 54.167 -40 82.5s-34.5 54.166 -55.5 77.499s-44.833 42.666 -71.5 57.999s-55.667 23 -87 23c-28.667 0 -53.667 -10.333 -75 -31s-39 -49.834 -53 -87.501
s-24.333 -83 -31 -136s-10 -111.5 -10 -175.5c0 -128.667 17.667 -224.334 53 -287.001s84.666 -94 147.999 -94c38.667 0 75.167 8.5 109.5 25.5s64.166 40 89.499 69s45.333 62.333 60 100s22 77.5 22 119.5h15z" />
    <glyph glyph-name="Egrave" unicode="&#xc8;" horiz-adv-x="767" 
d="M444 848l-8 -8.00098l-15 15c-8.66699 8.66699 -20.5 16 -35.5 22s-29.833 12.333 -44.5 19s-27.5 14.834 -38.5 24.501s-16.5 22.5 -16.5 38.5c0 10.667 3.66699 20 11 28s16.666 12 27.999 12c16 0 28.833 -5.5 38.5 -16.5s17.834 -23.833 24.501 -38.5
s13 -29.667 19 -45s13.333 -27.333 22 -36zM718 -0.000976562l-733.996 0.000976562v13h69c21.333 0 37.833 5.83301 49.5 17.5s17.5 33.167 17.5 64.5v623c0 27.333 -4.33301 45.666 -13 54.999s-23.334 14 -44.001 14h-45v12h662v-309h-9l-2 27
c-2.66699 30 -11.167 61 -25.5 93s-33.333 61.167 -57 87.5s-51.334 47.833 -83.001 64.5s-66.167 25 -103.5 25h-54v-353h39c17.333 0 34.833 4.33301 52.5 13s33.5 20.5 47.5 35.5s25.5 32.667 34.5 53s13.5 42.166 13.5 65.499v28h12v-424h-12v31
c0 22.667 -3.83301 45 -11.5 67s-18 41.5 -31 58.5s-28.333 30.667 -46 41s-36.5 15.5 -56.5 15.5h-42v-374c0 -6 3.66699 -12.667 11 -20s16.666 -11 27.999 -11h82c18 0 36.333 5.33301 55 16s36.667 24.667 54 42s33.666 36.833 48.999 58.5s29 43.834 41 66.501
s21.5 44.667 28.5 66s11.167 40 12.5 56l2 37h9v-355z" />
    <glyph glyph-name="Eacute" unicode="&#xc9;" horiz-adv-x="767" 
d="M489 972c0 -16 -5.50098 -28.8301 -16.501 -38.4971s-23.833 -17.834 -38.5 -24.501s-29.667 -12.834 -45 -18.501s-27.333 -12.834 -36 -21.501l-15 -15l-8 8l15 15c8.66699 8.66699 16 20.667 22 36s12.5 30.333 19.5 45s15.333 27.5 25 38.5s22.5 16.5 38.5 16.5
c10.667 0 19.834 -4 27.501 -12s11.5 -17.667 11.5 -29zM717.999 0.00292969l-733.996 0.000976562v13h69c21.333 0 37.833 5.83301 49.5 17.5s17.5 33.167 17.5 64.5v623c0 27.333 -4.33301 45.666 -13 54.999s-23.334 14 -44.001 14h-45v12h662v-309h-9l-2 27
c-2.66699 30 -11.167 61 -25.5 93s-33.333 61.167 -57 87.5s-51.334 47.833 -83.001 64.5s-66.167 25 -103.5 25h-54v-353h39c17.333 0 34.833 4.33301 52.5 13s33.5 20.5 47.5 35.5s25.5 32.667 34.5 53s13.5 42.166 13.5 65.499v28h12v-424h-12v31
c0 22.667 -3.83301 45 -11.5 67s-18 41.5 -31 58.5s-28.333 30.667 -46 41s-36.5 15.5 -56.5 15.5h-42v-374c0 -6 3.66699 -12.667 11 -20s16.666 -11 27.999 -11h82c18 0 36.333 5.33301 55 16s36.667 24.667 54 42s33.666 36.833 48.999 58.5s29 43.834 41 66.501
s21.5 44.667 28.5 66s11.167 40 12.5 56l2 37h9v-355z" />
    <glyph glyph-name="Ecircumflex" unicode="&#xca;" horiz-adv-x="767" 
d="M528 843l-131 61l-136 -58l138 134zM718 0l-733.996 0.000976562v13h69c21.333 0 37.833 5.83301 49.5 17.5s17.5 33.167 17.5 64.5v623c0 27.333 -4.33301 45.666 -13 54.999s-23.334 14 -44.001 14h-45v12h662v-309h-9l-2 27c-2.66699 30 -11.167 61 -25.5 93
s-33.333 61.167 -57 87.5s-51.334 47.833 -83.001 64.5s-66.167 25 -103.5 25h-54v-353h39c17.333 0 34.833 4.33301 52.5 13s33.5 20.5 47.5 35.5s25.5 32.667 34.5 53s13.5 42.166 13.5 65.499v28h12v-424h-12v31c0 22.667 -3.83301 45 -11.5 67s-18 41.5 -31 58.5
s-28.333 30.667 -46 41s-36.5 15.5 -56.5 15.5h-42v-374c0 -6 3.66699 -12.667 11 -20s16.666 -11 27.999 -11h82c18 0 36.333 5.33301 55 16s36.667 24.667 54 42s33.666 36.833 48.999 58.5s29 43.834 41 66.501s21.5 44.667 28.5 66s11.167 40 12.5 56l2 37h9v-355z" />
    <glyph glyph-name="Edieresis" unicode="&#xcb;" horiz-adv-x="767" 
d="M528 922c0 -12.667 -4.83301 -23.5 -14.5 -32.5s-21.167 -13.5 -34.5 -13.5s-24.833 4.5 -34.5 13.5s-14.5 19.833 -14.5 32.5s4.83301 23.5 14.5 32.5s21.167 13.5 34.5 13.5s24.833 -4.5 34.5 -13.5s14.5 -19.833 14.5 -32.5zM387 922
c0 -12.667 -4.83301 -23.5 -14.5 -32.5s-21.167 -13.5 -34.5 -13.5c-14 0 -25.833 4.5 -35.5 13.5s-14.5 19.833 -14.5 32.5s4.83301 23.5 14.5 32.5s21.5 13.5 35.5 13.5c13.333 0 24.833 -4.5 34.5 -13.5s14.5 -19.833 14.5 -32.5zM718 0l-733.996 0.000976562v13h69
c21.333 0 37.833 5.83301 49.5 17.5s17.5 33.167 17.5 64.5v623c0 27.333 -4.33301 45.666 -13 54.999s-23.334 14 -44.001 14h-45v12h662v-309h-9l-2 27c-2.66699 30 -11.167 61 -25.5 93s-33.333 61.167 -57 87.5s-51.334 47.833 -83.001 64.5s-66.167 25 -103.5 25h-54
v-353h39c17.333 0 34.833 4.33301 52.5 13s33.5 20.5 47.5 35.5s25.5 32.667 34.5 53s13.5 42.166 13.5 65.499v28h12v-424h-12v31c0 22.667 -3.83301 45 -11.5 67s-18 41.5 -31 58.5s-28.333 30.667 -46 41s-36.5 15.5 -56.5 15.5h-42v-374c0 -6 3.66699 -12.667 11 -20
s16.666 -11 27.999 -11h82c18 0 36.333 5.33301 55 16s36.667 24.667 54 42s33.666 36.833 48.999 58.5s29 43.834 41 66.501s21.5 44.667 28.5 66s11.167 40 12.5 56l2 37h9v-355z" />
    <glyph glyph-name="Igrave" unicode="&#xcc;" horiz-adv-x="505" 
d="M308 848l-8 -8.00098l-15 15c-8.66699 8.66699 -20.5 16 -35.5 22s-29.833 12.333 -44.5 19s-27.5 14.834 -38.5 24.501s-16.5 22.5 -16.5 38.5c0 10.667 3.66699 20 11 28s16.666 12 27.999 12c16 0 28.833 -5.5 38.5 -16.5s17.834 -23.833 24.501 -38.5
s13 -29.667 19 -45s13.333 -27.333 22 -36zM487 -0.000976562l-467 -0.000976562v13h42c6 0 13.333 1.16699 22 3.5s17 6.33301 25 12s14.667 13.167 20 22.5s8 21 8 35v621c0 24 -6.5 43.333 -19.5 58s-30.833 22 -53.5 22h-44v13h467v-13h-43
c-19.333 0 -36 -7.5 -50 -22.5s-21 -34.167 -21 -57.5v-622c0 -13.333 2 -24.666 6 -33.999s9.16699 -16.833 15.5 -22.5s13.333 -9.66699 21 -12s15.167 -3.5 22.5 -3.5h49v-13z" />
    <glyph glyph-name="Iacute" unicode="&#xcd;" horiz-adv-x="505" 
d="M389 972c0 -16 -5.50098 -28.8301 -16.501 -38.4971s-23.833 -17.834 -38.5 -24.501s-29.667 -12.834 -45 -18.501s-27.333 -12.834 -36 -21.501l-15 -15l-8 8l15 15c8.66699 8.66699 16 20.667 22 36s12.5 30.333 19.5 45s15.333 27.5 25 38.5s22.5 16.5 38.5 16.5
c10.667 0 19.834 -4 27.501 -12s11.5 -17.667 11.5 -29zM486.999 0.00292969l-467 -0.000976562v13h42c6 0 13.333 1.16699 22 3.5s17 6.33301 25 12s14.667 13.167 20 22.5s8 21 8 35v621c0 24 -6.5 43.333 -19.5 58s-30.833 22 -53.5 22h-44v13h467v-13h-43
c-19.333 0 -36 -7.5 -50 -22.5s-21 -34.167 -21 -57.5v-622c0 -13.333 2 -24.666 6 -33.999s9.16699 -16.833 15.5 -22.5s13.333 -9.66699 21 -12s15.167 -3.5 22.5 -3.5h49v-13z" />
    <glyph glyph-name="Icircumflex" unicode="&#xce;" horiz-adv-x="505" 
d="M384 843l-131 61l-136 -58l138 134zM487 0l-467 -0.000976562v13h42c6 0 13.333 1.16699 22 3.5s17 6.33301 25 12s14.667 13.167 20 22.5s8 21 8 35v621c0 24 -6.5 43.333 -19.5 58s-30.833 22 -53.5 22h-44v13h467v-13h-43c-19.333 0 -36 -7.5 -50 -22.5
s-21 -34.167 -21 -57.5v-622c0 -13.333 2 -24.666 6 -33.999s9.16699 -16.833 15.5 -22.5s13.333 -9.66699 21 -12s15.167 -3.5 22.5 -3.5h49v-13z" />
    <glyph glyph-name="Idieresis" unicode="&#xcf;" horiz-adv-x="505" 
d="M377 922c0 -12.667 -4.83301 -23.5 -14.5 -32.5s-21.167 -13.5 -34.5 -13.5s-24.833 4.5 -34.5 13.5s-14.5 19.833 -14.5 32.5s4.83301 23.5 14.5 32.5s21.167 13.5 34.5 13.5s24.833 -4.5 34.5 -13.5s14.5 -19.833 14.5 -32.5zM236 922
c0 -12.667 -4.83301 -23.5 -14.5 -32.5s-21.167 -13.5 -34.5 -13.5c-14 0 -25.833 4.5 -35.5 13.5s-14.5 19.833 -14.5 32.5s4.83301 23.5 14.5 32.5s21.5 13.5 35.5 13.5c13.333 0 24.833 -4.5 34.5 -13.5s14.5 -19.833 14.5 -32.5zM487 0l-467 -0.000976562v13h42
c6 0 13.333 1.16699 22 3.5s17 6.33301 25 12s14.667 13.167 20 22.5s8 21 8 35v621c0 24 -6.5 43.333 -19.5 58s-30.833 22 -53.5 22h-44v13h467v-13h-43c-19.333 0 -36 -7.5 -50 -22.5s-21 -34.167 -21 -57.5v-622c0 -13.333 2 -24.666 6 -33.999
s9.16699 -16.833 15.5 -22.5s13.333 -9.66699 21 -12s15.167 -3.5 22.5 -3.5h49v-13z" />
    <glyph glyph-name="Eth" unicode="&#xd0;" horiz-adv-x="874" 
d="M850 402c0 -70 -10.333 -130.331 -31 -180.998s-48 -92.334 -82 -125.001s-73 -56.834 -117 -72.501s-89.333 -23.5 -136 -23.5h-496v12h58c50 0 75 19.333 75 58v313h-90v13h90v325c0 23.333 -6 40.166 -18 50.499s-27.667 15.5 -47 15.5h-29v13h461
c50 0 96.833 -10.833 140.5 -32.5s82 -50.667 115 -87s59 -78.666 78 -126.999s28.5 -98.833 28.5 -151.5zM589 406.002c0 79.333 -3.50098 143.834 -10.501 193.501s-16.5 88.334 -28.5 116.001s-26.333 46.5 -43 56.5s-34.667 15 -54 15h-103v-391h136v-13h-136v-311
c0 -18 4.83301 -32.5 14.5 -43.5s23.5 -16.5 41.5 -16.5h63c12.667 0 24.5 1.5 35.5 4.5s21 9.16699 30 18.5s16.833 22.666 23.5 39.999s12.334 40.666 17.001 69.999s8.16699 65.333 10.5 108s3.5 93.667 3.5 153z" />
    <glyph glyph-name="Ntilde" unicode="&#xd1;" horiz-adv-x="854" 
d="M596 974c0 -9.33301 -1.83203 -19.332 -5.49902 -29.999s-9.83398 -20.834 -18.501 -30.501s-19.834 -17.667 -33.501 -24s-30.5 -9.5 -50.5 -9.5c-21.333 0 -40.666 2 -57.999 6s-34 6 -50 6s-28.5 -2.5 -37.5 -7.5s-13.5 -12.167 -13.5 -21.5h-10
c0 10.667 2.16699 21.667 6.5 33s10.833 21.666 19.5 30.999s19.5 17 32.5 23s28.167 9 45.5 9c25.333 0 46.833 -2 64.5 -6s35.167 -6 52.5 -6s29.333 3.33301 36 10s10.667 12.334 12 17.001h8zM838.001 786.001l-17.999 -0.00195312c-12 0 -24.5 -2.5 -37.5 -7.5
s-25 -13.167 -36 -24.5s-20 -26.333 -27 -45s-10.5 -41.667 -10.5 -69v-640h-189l-365 683v-243v-90c0 -29.333 -0.166992 -55.666 -0.5 -78.999s-0.5 -42.5 -0.5 -57.5v-23.5c0 -56.667 10.5 -100.334 31.5 -131.001s50.167 -46 87.5 -46h28v-13h-280v13h32
c10 0 20.167 4 30.5 12s19.666 19.833 27.999 35.5s15.333 34.834 21 57.501s8.5 48.667 8.5 78v494c0 16 -2.83301 30 -8.5 42s-13 22.167 -22 30.5s-18.667 14.5 -29 18.5s-19.833 6 -28.5 6h-17v13h362l297 -565v406c0 22 -3 42 -9 60s-13.833 33.333 -23.5 46
s-20.667 22.334 -33 29.001s-24.833 10 -37.5 10h-44v14h290v-14z" />
    <glyph glyph-name="Ograve" unicode="&#xd2;" horiz-adv-x="864" 
d="M513 848l-8.00098 -8.00098l-15 15c-8.66699 8.66699 -20.667 16 -36 22s-30.333 12.333 -45 19s-27.5 14.834 -38.5 24.501s-16.5 22.5 -16.5 38.5c0 10.667 3.83301 20 11.5 28s16.834 12 27.501 12c16 0 28.833 -5.5 38.5 -16.5s18 -23.833 25 -38.5
s13.333 -29.667 19 -45s13.167 -27.333 22.5 -36zM839.999 399.999c0 -57.333 -10.667 -111.166 -32 -161.499s-50.5 -94.166 -87.5 -131.499s-80.333 -66.833 -130 -88.5s-102.5 -32.5 -158.5 -32.5s-108.833 10.833 -158.5 32.5s-93 51.167 -130 88.5
s-66.167 81.166 -87.5 131.499s-32 104.166 -32 161.499s10.667 111.166 32 161.499s50.5 94.333 87.5 132s80.333 67.334 130 89.001s102.5 32.5 158.5 32.5s108.833 -10.833 158.5 -32.5s93 -51.334 130 -89.001s66.167 -81.667 87.5 -132s32 -104.166 32 -161.499z
M588.999 414.999c0 82 -3.83398 148.337 -11.501 199.004s-18.334 89.667 -32.001 117s-30.167 45.666 -49.5 54.999s-40.666 14 -63.999 14c-26 0 -48.167 -5.16699 -66.5 -15.5s-33.333 -29.833 -45 -58.5s-20.334 -68.5 -26.001 -119.5s-8.5 -116.833 -8.5 -197.5
s2.5 -147.334 7.5 -200.001s13.333 -94.5 25 -125.5s26.667 -52.667 45 -65s40.5 -18.5 66.5 -18.5s48.833 6.16699 68.5 18.5s36.334 34.166 50.001 65.499s23.834 73.666 30.501 126.999s10 121.333 10 204z" />
    <glyph glyph-name="Oacute" unicode="&#xd3;" horiz-adv-x="864" 
d="M561 972c0 -16 -5.50098 -28.8301 -16.501 -38.4971s-23.833 -17.834 -38.5 -24.501s-29.667 -12.834 -45 -18.501s-27.333 -12.834 -36 -21.501l-15 -15l-8 8l15 15c8.66699 8.66699 16 20.667 22 36s12.5 30.333 19.5 45s15.333 27.5 25 38.5s22.5 16.5 38.5 16.5
c10.667 0 19.834 -4 27.501 -12s11.5 -17.667 11.5 -29zM839.999 400.003c0 -57.333 -10.667 -111.166 -32 -161.499s-50.5 -94.166 -87.5 -131.499s-80.333 -66.833 -130 -88.5s-102.5 -32.5 -158.5 -32.5s-108.833 10.833 -158.5 32.5s-93 51.167 -130 88.5
s-66.167 81.166 -87.5 131.499s-32 104.166 -32 161.499s10.667 111.166 32 161.499s50.5 94.333 87.5 132s80.333 67.334 130 89.001s102.5 32.5 158.5 32.5s108.833 -10.833 158.5 -32.5s93 -51.334 130 -89.001s66.167 -81.667 87.5 -132s32 -104.166 32 -161.499z
M588.999 415.003c0 82 -3.83398 148.337 -11.501 199.004s-18.334 89.667 -32.001 117s-30.167 45.666 -49.5 54.999s-40.666 14 -63.999 14c-26 0 -48.167 -5.16699 -66.5 -15.5s-33.333 -29.833 -45 -58.5s-20.334 -68.5 -26.001 -119.5s-8.5 -116.833 -8.5 -197.5
s2.5 -147.334 7.5 -200.001s13.333 -94.5 25 -125.5s26.667 -52.667 45 -65s40.5 -18.5 66.5 -18.5s48.833 6.16699 68.5 18.5s36.334 34.166 50.001 65.499s23.834 73.666 30.501 126.999s10 121.333 10 204z" />
    <glyph glyph-name="Ocircumflex" unicode="&#xd4;" horiz-adv-x="864" 
d="M567 843l-131 61l-136 -58l138 134zM840 400c0 -57.333 -10.667 -111.166 -32 -161.499s-50.5 -94.166 -87.5 -131.499s-80.333 -66.833 -130 -88.5s-102.5 -32.5 -158.5 -32.5s-108.833 10.833 -158.5 32.5s-93 51.167 -130 88.5s-66.167 81.166 -87.5 131.499
s-32 104.166 -32 161.499s10.667 111.166 32 161.499s50.5 94.333 87.5 132s80.333 67.334 130 89.001s102.5 32.5 158.5 32.5s108.833 -10.833 158.5 -32.5s93 -51.334 130 -89.001s66.167 -81.667 87.5 -132s32 -104.166 32 -161.499zM589 415
c0 82 -3.83398 148.337 -11.501 199.004s-18.334 89.667 -32.001 117s-30.167 45.666 -49.5 54.999s-40.666 14 -63.999 14c-26 0 -48.167 -5.16699 -66.5 -15.5s-33.333 -29.833 -45 -58.5s-20.334 -68.5 -26.001 -119.5s-8.5 -116.833 -8.5 -197.5
s2.5 -147.334 7.5 -200.001s13.333 -94.5 25 -125.5s26.667 -52.667 45 -65s40.5 -18.5 66.5 -18.5s48.833 6.16699 68.5 18.5s36.334 34.166 50.001 65.499s23.834 73.666 30.501 126.999s10 121.333 10 204z" />
    <glyph glyph-name="Otilde" unicode="&#xd5;" horiz-adv-x="864" 
d="M581 974c0 -9.33301 -1.83203 -19.332 -5.49902 -29.999s-9.83398 -20.834 -18.501 -30.501s-19.834 -17.667 -33.501 -24s-30.5 -9.5 -50.5 -9.5c-21.333 0 -40.666 2 -57.999 6s-34 6 -50 6s-28.5 -2.5 -37.5 -7.5s-13.5 -12.167 -13.5 -21.5h-10
c0 10.667 2.16699 21.667 6.5 33s10.833 21.666 19.5 30.999s19.5 17 32.5 23s28.167 9 45.5 9c25.333 0 46.833 -2 64.5 -6s35.167 -6 52.5 -6s29.333 3.33301 36 10s10.667 12.334 12 17.001h8zM840.001 400.001c0 -57.333 -10.667 -111.166 -32 -161.499
s-50.5 -94.166 -87.5 -131.499s-80.333 -66.833 -130 -88.5s-102.5 -32.5 -158.5 -32.5s-108.833 10.833 -158.5 32.5s-93 51.167 -130 88.5s-66.167 81.166 -87.5 131.499s-32 104.166 -32 161.499s10.667 111.166 32 161.499s50.5 94.333 87.5 132
s80.333 67.334 130 89.001s102.5 32.5 158.5 32.5s108.833 -10.833 158.5 -32.5s93 -51.334 130 -89.001s66.167 -81.667 87.5 -132s32 -104.166 32 -161.499zM589.001 415.001c0 82 -3.83398 148.337 -11.501 199.004s-18.334 89.667 -32.001 117
s-30.167 45.666 -49.5 54.999s-40.666 14 -63.999 14c-26 0 -48.167 -5.16699 -66.5 -15.5s-33.333 -29.833 -45 -58.5s-20.334 -68.5 -26.001 -119.5s-8.5 -116.833 -8.5 -197.5s2.5 -147.334 7.5 -200.001s13.333 -94.5 25 -125.5s26.667 -52.667 45 -65
s40.5 -18.5 66.5 -18.5s48.833 6.16699 68.5 18.5s36.334 34.166 50.001 65.499s23.834 73.666 30.501 126.999s10 121.333 10 204z" />
    <glyph glyph-name="Odieresis" unicode="&#xd6;" horiz-adv-x="864" 
d="M558 922c0 -12.667 -4.83301 -23.5 -14.5 -32.5s-21.167 -13.5 -34.5 -13.5s-24.833 4.5 -34.5 13.5s-14.5 19.833 -14.5 32.5s4.83301 23.5 14.5 32.5s21.167 13.5 34.5 13.5s24.833 -4.5 34.5 -13.5s14.5 -19.833 14.5 -32.5zM417 922
c0 -12.667 -4.83301 -23.5 -14.5 -32.5s-21.167 -13.5 -34.5 -13.5c-14 0 -25.833 4.5 -35.5 13.5s-14.5 19.833 -14.5 32.5s4.83301 23.5 14.5 32.5s21.5 13.5 35.5 13.5c13.333 0 24.833 -4.5 34.5 -13.5s14.5 -19.833 14.5 -32.5zM840 400
c0 -57.333 -10.667 -111.166 -32 -161.499s-50.5 -94.166 -87.5 -131.499s-80.333 -66.833 -130 -88.5s-102.5 -32.5 -158.5 -32.5s-108.833 10.833 -158.5 32.5s-93 51.167 -130 88.5s-66.167 81.166 -87.5 131.499s-32 104.166 -32 161.499s10.667 111.166 32 161.499
s50.5 94.333 87.5 132s80.333 67.334 130 89.001s102.5 32.5 158.5 32.5s108.833 -10.833 158.5 -32.5s93 -51.334 130 -89.001s66.167 -81.667 87.5 -132s32 -104.166 32 -161.499zM589 415c0 82 -3.83398 148.337 -11.501 199.004s-18.334 89.667 -32.001 117
s-30.167 45.666 -49.5 54.999s-40.666 14 -63.999 14c-26 0 -48.167 -5.16699 -66.5 -15.5s-33.333 -29.833 -45 -58.5s-20.334 -68.5 -26.001 -119.5s-8.5 -116.833 -8.5 -197.5s2.5 -147.334 7.5 -200.001s13.333 -94.5 25 -125.5s26.667 -52.667 45 -65
s40.5 -18.5 66.5 -18.5s48.833 6.16699 68.5 18.5s36.334 34.166 50.001 65.499s23.834 73.666 30.501 126.999s10 121.333 10 204z" />
    <glyph glyph-name="multiply" unicode="&#xd7;" horiz-adv-x="362" 
d="M261 233l-70 70l-71 -70l-25 25l70 71l-70 70l25 26l71 -71l70 71l26 -26l-71 -70l71 -71z" />
    <glyph glyph-name="Oslash" unicode="&#xd8;" horiz-adv-x="864" 
d="M840 400c0 -57.333 -10.6641 -111.166 -31.9971 -161.499s-50.5 -94.166 -87.5 -131.499s-80.333 -66.833 -130 -88.5s-102.5 -32.5 -158.5 -32.5c-56.667 0 -109.334 10.5 -158.001 31.5s-91.334 50.167 -128.001 87.5l-109 -113v22l98 102
c-34.667 37.333 -61.834 80.166 -81.501 128.499s-29.5 100.166 -29.5 155.499c0 57.333 10.667 111.166 32 161.499s50.5 94.333 87.5 132s80.333 67.334 130 89.001s102.5 32.5 158.5 32.5c52.667 0 102.167 -9.33301 148.5 -28s87.5 -44.667 123.5 -78l86 89v-22l-75 -77
c38.667 -38 69.167 -82.5 91.5 -133.5s33.5 -106.167 33.5 -165.5zM581.003 581c-4.66699 46 -11.666 83.167 -20.999 111.5s-20.333 50.5 -33 66.5s-27 26.833 -43 32.5s-33.333 8.5 -52 8.5c-26 0 -48.167 -5.16699 -66.5 -15.5s-33.333 -29.833 -45 -58.5
s-20.334 -68.5 -26.001 -119.5s-8.5 -116.833 -8.5 -197.5c0 -49.333 1 -93.333 3 -132zM589.004 415c0 56 -2.00195 104.669 -6.00195 146.002l-293 -305c3.33301 -49.333 8.5 -90.5 15.5 -123.5s16.167 -59.333 27.5 -79s25 -33.5 41 -41.5s34.667 -12 56 -12
c26 0 48.833 6.16699 68.5 18.5s36.334 34.166 50.001 65.499s23.834 73.666 30.501 126.999s10 121.333 10 204z" />
    <glyph glyph-name="Ugrave" unicode="&#xd9;" horiz-adv-x="851" 
d="M517 848l-8 -8.00098l-15 15c-8.66699 8.66699 -20.5 16 -35.5 22s-29.833 12.333 -44.5 19s-27.5 14.834 -38.5 24.501s-16.5 22.5 -16.5 38.5c0 10.667 3.66699 20 11 28s16.666 12 27.999 12c16 0 28.833 -5.5 38.5 -16.5s17.834 -23.833 24.501 -38.5
s13 -29.667 19 -45s13.333 -27.333 22 -36zM838 786.999l-17.002 0.000976562c-14.667 0 -29.667 -3.33301 -45 -10s-29.166 -17.334 -41.499 -32.001s-22.333 -33.667 -30 -57s-11.5 -51.666 -11.5 -84.999v-417c0 -136.667 -92.667 -205 -278 -205
c-46 0 -87.667 5.5 -125 16.5s-69.5 25.5 -96.5 43.5s-47.833 39 -62.5 63s-22 49 -22 75v550c0 38.667 -19.333 58 -58 58h-26v12h415v-12h-24c-21.333 0 -39 -5.33301 -53 -16s-21 -25.667 -21 -45v-563c0 -27.333 4.16699 -50 12.5 -68s20.333 -32.333 36 -43
s34.334 -18.334 56.001 -23.001s45.834 -7 72.501 -7c23.333 0 44.833 3.33301 64.5 10s36.5 17 50.5 31s25 31.5 33 52.5s12 45.833 12 74.5v410c0 30.667 -3.5 57.667 -10.5 81s-16.333 42.833 -28 58.5s-25.334 27.5 -41.001 35.5s-32.5 12 -50.5 12h-31v12h320v-12z" />
    <glyph glyph-name="Uacute" unicode="&#xda;" horiz-adv-x="851" 
d="M594 972c0 -16 -5.50098 -28.8301 -16.501 -38.4971s-24 -17.834 -39 -24.501s-30 -12.834 -45 -18.501s-26.833 -12.834 -35.5 -21.501l-15 -15l-8 8l15 15c8.66699 8.66699 16 20.667 22 36s12.5 30.333 19.5 45s15.333 27.5 25 38.5s22.5 16.5 38.5 16.5
c10.667 0 19.834 -4 27.501 -12s11.5 -17.667 11.5 -29zM837.999 787.003l-17.002 0.000976562c-14.667 0 -29.667 -3.33301 -45 -10s-29.166 -17.334 -41.499 -32.001s-22.333 -33.667 -30 -57s-11.5 -51.666 -11.5 -84.999v-417c0 -136.667 -92.667 -205 -278 -205
c-46 0 -87.667 5.5 -125 16.5s-69.5 25.5 -96.5 43.5s-47.833 39 -62.5 63s-22 49 -22 75v550c0 38.667 -19.333 58 -58 58h-26v12h415v-12h-24c-21.333 0 -39 -5.33301 -53 -16s-21 -25.667 -21 -45v-563c0 -27.333 4.16699 -50 12.5 -68s20.333 -32.333 36 -43
s34.334 -18.334 56.001 -23.001s45.834 -7 72.501 -7c23.333 0 44.833 3.33301 64.5 10s36.5 17 50.5 31s25 31.5 33 52.5s12 45.833 12 74.5v410c0 30.667 -3.5 57.667 -10.5 81s-16.333 42.833 -28 58.5s-25.334 27.5 -41.001 35.5s-32.5 12 -50.5 12h-31v12h320v-12z" />
    <glyph glyph-name="Ucircumflex" unicode="&#xdb;" horiz-adv-x="851" 
d="M608 843l-131 61l-136 -58l138 134zM838 787l-17.002 0.000976562c-14.667 0 -29.667 -3.33301 -45 -10s-29.166 -17.334 -41.499 -32.001s-22.333 -33.667 -30 -57s-11.5 -51.666 -11.5 -84.999v-417c0 -136.667 -92.667 -205 -278 -205c-46 0 -87.667 5.5 -125 16.5
s-69.5 25.5 -96.5 43.5s-47.833 39 -62.5 63s-22 49 -22 75v550c0 38.667 -19.333 58 -58 58h-26v12h415v-12h-24c-21.333 0 -39 -5.33301 -53 -16s-21 -25.667 -21 -45v-563c0 -27.333 4.16699 -50 12.5 -68s20.333 -32.333 36 -43s34.334 -18.334 56.001 -23.001
s45.834 -7 72.501 -7c23.333 0 44.833 3.33301 64.5 10s36.5 17 50.5 31s25 31.5 33 52.5s12 45.833 12 74.5v410c0 30.667 -3.5 57.667 -10.5 81s-16.333 42.833 -28 58.5s-25.334 27.5 -41.001 35.5s-32.5 12 -50.5 12h-31v12h320v-12z" />
    <glyph glyph-name="Udieresis" unicode="&#xdc;" horiz-adv-x="851" 
d="M581 922c0 -12.667 -4.83301 -23.5 -14.5 -32.5s-21.5 -13.5 -35.5 -13.5c-13.333 0 -24.833 4.5 -34.5 13.5s-14.5 19.833 -14.5 32.5s4.83301 23.5 14.5 32.5s21.167 13.5 34.5 13.5c14 0 25.833 -4.5 35.5 -13.5s14.5 -19.833 14.5 -32.5zM440 922
c0 -12.667 -5 -23.5 -15 -32.5s-21.667 -13.5 -35 -13.5s-24.833 4.5 -34.5 13.5s-14.5 19.833 -14.5 32.5s4.83301 23.5 14.5 32.5s21.167 13.5 34.5 13.5s25 -4.5 35 -13.5s15 -19.833 15 -32.5zM838 787l-17.002 0.000976562c-14.667 0 -29.667 -3.33301 -45 -10
s-29.166 -17.334 -41.499 -32.001s-22.333 -33.667 -30 -57s-11.5 -51.666 -11.5 -84.999v-417c0 -136.667 -92.667 -205 -278 -205c-46 0 -87.667 5.5 -125 16.5s-69.5 25.5 -96.5 43.5s-47.833 39 -62.5 63s-22 49 -22 75v550c0 38.667 -19.333 58 -58 58h-26v12h415v-12
h-24c-21.333 0 -39 -5.33301 -53 -16s-21 -25.667 -21 -45v-563c0 -27.333 4.16699 -50 12.5 -68s20.333 -32.333 36 -43s34.334 -18.334 56.001 -23.001s45.834 -7 72.501 -7c23.333 0 44.833 3.33301 64.5 10s36.5 17 50.5 31s25 31.5 33 52.5s12 45.833 12 74.5v410
c0 30.667 -3.5 57.667 -10.5 81s-16.333 42.833 -28 58.5s-25.334 27.5 -41.001 35.5s-32.5 12 -50.5 12h-31v12h320v-12z" />
    <glyph glyph-name="Yacute" unicode="&#xdd;" horiz-adv-x="863" 
d="M594 972c0 -16 -5.50098 -28.8301 -16.501 -38.4971s-24 -17.834 -39 -24.501s-30 -12.834 -45 -18.501s-26.833 -12.834 -35.5 -21.501l-15 -15l-8 8l15 15c8.66699 8.66699 16 20.667 22 36s12.5 30.333 19.5 45s15.333 27.5 25 38.5s22.5 16.5 38.5 16.5
c10.667 0 19.834 -4 27.501 -12s11.5 -17.667 11.5 -29zM850.999 787.003l-25.999 -0.00292969c-16.667 0 -33 -4.83301 -49 -14.5s-31.333 -22.5 -46 -38.5s-28.667 -34.167 -42 -54.5s-25.333 -40.833 -36 -61.5l-98 -186v-363c0 -17.333 3.66699 -31.166 11 -41.499
s18.666 -15.5 33.999 -15.5h50v-13h-433v13h47c15.333 0 28 6.33301 38 19s15 27.334 15 44.001v340l-212 327c-9.33301 13.333 -20.166 24.166 -32.499 32.499s-25.166 12.5 -38.499 12.5h-21v13h467v-13h-41c-12.667 0 -23.334 -1.83301 -32.001 -5.5s-13 -10.5 -13 -20.5
c0 -7.33301 2.33301 -15.333 7 -24l146 -290l97 182c7.33301 14.667 12.666 28.334 15.999 41.001s5 24.334 5 35.001c0 27.333 -8.5 47.833 -25.5 61.5s-35.5 20.5 -55.5 20.5h-21v13h289v-13z" />
    <glyph glyph-name="Thorn" unicode="&#xde;" horiz-adv-x="757" 
d="M746 408c0 -32 -6 -61.832 -18 -89.499s-29.5 -51.834 -52.5 -72.501s-51 -36.834 -84 -48.501s-70.5 -17.5 -112.5 -17.5h-107v-95c0 -13.333 2 -24.666 6 -33.999s9.33301 -16.833 16 -22.5s13.667 -9.66699 21 -12s14.666 -3.5 21.999 -3.5h49v-13h-466v13h41
c6 0 13.333 1.16699 22 3.5s17 6.33301 25 12s14.833 13.167 20.5 22.5s8.5 21 8.5 35v621c0 24 -6.5 43.333 -19.5 58s-30.833 22 -53.5 22h-44v13h466v-13h-42c-19.333 0 -36.166 -7.5 -50.499 -22.5s-21.5 -34.167 -21.5 -57.5v-64h107c42 0 79.5 -6 112.5 -18
s61 -28.5 84 -49.5s40.5 -45.833 52.5 -74.5s18 -59.667 18 -93zM515 412.001c0 53.333 -2.5 94.667 -7.5 124s-11.833 51 -20.5 65s-18.5 22.5 -29.5 25.5s-22.5 4.5 -34.5 4.5h-51v-439h51c12 0 23.5 1.5 34.5 4.5s20.833 11.5 29.5 25.5s15.5 35.833 20.5 65.5
s7.5 71.167 7.5 124.5z" />
    <glyph glyph-name="germandbls" unicode="&#xdf;" horiz-adv-x="836" 
d="M822 179c0 -37.333 -7.50195 -68.6729 -22.502 -94.0059s-33.667 -45.833 -56 -61.5s-46.166 -26.834 -71.499 -33.501s-48 -10 -68 -10c-22 0 -42.5 2.33301 -61.5 7s-36.5 9.66699 -52.5 15l-45 15c-14 4.66699 -27.333 7 -40 7c-11.333 0 -20.5 -1.16699 -27.5 -3.5
s-12.5 -5.16602 -16.5 -8.49902s-7 -6.66602 -9 -9.99902s-3.33301 -6 -4 -8h-9v252h8c3.33301 -16.667 11.833 -39.167 25.5 -67.5s31.334 -56.333 53.001 -84s46.667 -51.667 75 -72s58.5 -30.5 90.5 -30.5c26.667 0 47.667 6.5 63 19.5s23 32.5 23 58.5
c0 18 -4.66699 32.833 -14 44.5s-21.666 21.834 -36.999 30.501s-32.666 16.334 -51.999 23.001l-60 21c-20.667 7.33301 -41 15.833 -61 25.5s-37.667 21.334 -53 35.001s-27.833 29.834 -37.5 48.501s-14.5 40.667 -14.5 66c0 22 4.33301 42.833 13 62.5
s19.5 38.5 32.5 56.5s27 35.167 42 51.5s29 32.833 42 49.5s23.833 33.334 32.5 50.001s13 34.334 13 53.001c0 31.333 -8.83301 56.166 -26.5 74.499s-44.167 27.5 -79.5 27.5c-14 0 -27.833 -2.16699 -41.5 -6.5s-25.667 -11.333 -36 -21s-18.833 -22.167 -25.5 -37.5
s-10 -34.333 -10 -57v-667h-297v13h45c12.667 0 23.5 2.5 32.5 7.5s13.5 15.167 13.5 30.5v443h-58v14h58v91c0 34 7.83301 64 23.5 90s36.5 47.833 62.5 65.5s55.833 31.167 89.5 40.5s68.5 14 104.5 14c33.333 0 60.666 -3.66699 81.999 -11s38 -17.166 50 -29.499
s20.333 -26.333 25 -42s7 -31.5 7 -47.5s-2.16699 -31.5 -6.5 -46.5s-9 -30.333 -14 -46s-9.66699 -31.834 -14 -48.501s-6.5 -34.334 -6.5 -53.001s4.16699 -34.167 12.5 -46.5s19.5 -22.666 33.5 -30.999s30 -15.333 48 -21l56 -17.5
c20.667 -6.66699 41.167 -14.167 61.5 -22.5s38.666 -19.5 54.999 -33.5s29.5 -31.833 39.5 -53.5s15 -48.5 15 -80.5z" />
    <glyph glyph-name="agrave" unicode="&#xe0;" horiz-adv-x="615" 
d="M346 600l-8.00098 -8l-15 15c-8.66699 8.66699 -20.667 16 -36 22s-30.333 12.333 -45 19s-27.5 14.667 -38.5 24s-16.5 22 -16.5 38c0 11.333 3.83301 21 11.5 29s16.834 12 27.501 12c16 0 28.833 -5.5 38.5 -16.5s18 -23.833 25 -38.5s13.333 -29.667 19 -45
s13.167 -27.333 22.5 -36zM605.999 144c0 -24.667 -1.6709 -46.832 -5.00391 -66.499s-9.5 -36.334 -18.5 -50.001s-21.667 -24.167 -38 -31.5s-37.833 -11 -64.5 -11c-32 0 -57.833 5.66699 -77.5 17s-34.834 23.833 -45.501 37.5s-18 26.167 -22 37.5s-6.33301 17 -7 17
c-2 0 -4.83301 -5.5 -8.5 -16.5s-10.167 -23.167 -19.5 -36.5c-4.66699 -6.66699 -9.83398 -13.167 -15.501 -19.5s-12.667 -12 -21 -17s-18.666 -9 -30.999 -12s-27.5 -4.5 -45.5 -4.5c-52.667 0 -94.834 13.167 -126.501 39.5s-47.5 60.833 -47.5 103.5
c0 32.667 7.33301 58.334 22 77.001s32.334 33 53.001 43s41.667 17 63 21s39 7.66699 53 11s28.333 7.5 43 12.5s28.167 12.667 40.5 23s22.5 24.833 30.5 43.5s12 43.667 12 75c0 22.667 -1.83301 41 -5.5 55s-8.66699 24.833 -15 32.5s-14.166 12.834 -23.499 15.501
s-19.666 4 -30.999 4s-22.833 -1.5 -34.5 -4.5s-22 -6.5 -31 -10.5s-16.333 -8.33301 -22 -13s-8.5 -9 -8.5 -13s1.33301 -6 4 -6c1.33301 0 3 0.166992 5 0.5s4 0.5 6 0.5c12.667 0 24.334 -2.5 35.001 -7.5s19.834 -11.5 27.501 -19.5s13.667 -17.5 18 -28.5
s6.5 -22.5 6.5 -34.5c0 -14 -2.66699 -27.5 -8 -40.5s-12.666 -24.167 -21.999 -33.5s-20.166 -16.833 -32.499 -22.5s-25.5 -8.5 -39.5 -8.5c-13.333 0 -26.333 2.5 -39 7.5s-23.834 12.167 -33.501 21.5s-17.5 20.5 -23.5 33.5s-9 27.833 -9 44.5
c0 18.667 4.83301 36.667 14.5 54s24.167 32.666 43.5 45.999s44 24.166 74 32.499s65.333 12.5 106 12.5c34.667 0 66.167 -3.33301 94.5 -10s52.833 -16.834 73.5 -30.501s36.667 -30.5 48 -50.5s17 -43.333 17 -70v-343c0 -13.333 2 -22.666 6 -27.999s9 -8 15 -8
c10.667 0 21.167 10.5 31.5 31.5s15.5 48.833 15.5 83.5v14h13zM325.995 333.002c0 3.33301 -1.00195 4.99609 -3.00195 4.99609c-1.33301 0 -5.16602 -3.66699 -11.499 -11s-14.833 -15 -25.5 -23l-18 -13c-7.33301 -5.33301 -14.5 -13.666 -21.5 -24.999
s-13 -27.166 -18 -47.499s-7.5 -47.166 -7.5 -80.499c0 -28.667 0.333008 -51.167 1 -67.5s2 -28.666 4 -36.999s5 -13.666 9 -15.999s9 -3.5 15 -3.5c8 0 16.333 4.5 25 13.5s16.834 20.667 24.501 35s14 30.166 19 47.499s7.5 34.333 7.5 51v171v1z" />
    <glyph glyph-name="aacute" unicode="&#xe1;" horiz-adv-x="615" 
d="M408 711c0 -16 -5.50098 -28.8301 -16.501 -38.4971s-24 -17.834 -39 -24.501s-30 -12.834 -45 -18.501s-26.833 -12.834 -35.5 -21.501l-15 -15l-8 8l15 15c8.66699 8.66699 16 20.667 22 36s12.5 30.333 19.5 45s15.333 27.5 25 38.5s22.5 16.5 38.5 16.5
c10.667 0 19.834 -4 27.501 -12s11.5 -17.667 11.5 -29zM605.999 144.003c0 -24.667 -1.6709 -46.832 -5.00391 -66.499s-9.5 -36.334 -18.5 -50.001s-21.667 -24.167 -38 -31.5s-37.833 -11 -64.5 -11c-32 0 -57.833 5.66699 -77.5 17s-34.834 23.833 -45.501 37.5
s-18 26.167 -22 37.5s-6.33301 17 -7 17c-2 0 -4.83301 -5.5 -8.5 -16.5s-10.167 -23.167 -19.5 -36.5c-4.66699 -6.66699 -9.83398 -13.167 -15.501 -19.5s-12.667 -12 -21 -17s-18.666 -9 -30.999 -12s-27.5 -4.5 -45.5 -4.5c-52.667 0 -94.834 13.167 -126.501 39.5
s-47.5 60.833 -47.5 103.5c0 32.667 7.33301 58.334 22 77.001s32.334 33 53.001 43s41.667 17 63 21s39 7.66699 53 11s28.333 7.5 43 12.5s28.167 12.667 40.5 23s22.5 24.833 30.5 43.5s12 43.667 12 75c0 22.667 -1.83301 41 -5.5 55s-8.66699 24.833 -15 32.5
s-14.166 12.834 -23.499 15.501s-19.666 4 -30.999 4s-22.833 -1.5 -34.5 -4.5s-22 -6.5 -31 -10.5s-16.333 -8.33301 -22 -13s-8.5 -9 -8.5 -13s1.33301 -6 4 -6c1.33301 0 3 0.166992 5 0.5s4 0.5 6 0.5c12.667 0 24.334 -2.5 35.001 -7.5s19.834 -11.5 27.501 -19.5
s13.667 -17.5 18 -28.5s6.5 -22.5 6.5 -34.5c0 -14 -2.66699 -27.5 -8 -40.5s-12.666 -24.167 -21.999 -33.5s-20.166 -16.833 -32.499 -22.5s-25.5 -8.5 -39.5 -8.5c-13.333 0 -26.333 2.5 -39 7.5s-23.834 12.167 -33.501 21.5s-17.5 20.5 -23.5 33.5s-9 27.833 -9 44.5
c0 18.667 4.83301 36.667 14.5 54s24.167 32.666 43.5 45.999s44 24.166 74 32.499s65.333 12.5 106 12.5c34.667 0 66.167 -3.33301 94.5 -10s52.833 -16.834 73.5 -30.501s36.667 -30.5 48 -50.5s17 -43.333 17 -70v-343c0 -13.333 2 -22.666 6 -27.999s9 -8 15 -8
c10.667 0 21.167 10.5 31.5 31.5s15.5 48.833 15.5 83.5v14h13zM325.995 333.005c0 3.33301 -1.00195 4.99609 -3.00195 4.99609c-1.33301 0 -5.16602 -3.66699 -11.499 -11s-14.833 -15 -25.5 -23l-18 -13c-7.33301 -5.33301 -14.5 -13.666 -21.5 -24.999
s-13 -27.166 -18 -47.499s-7.5 -47.166 -7.5 -80.499c0 -28.667 0.333008 -51.167 1 -67.5s2 -28.666 4 -36.999s5 -13.666 9 -15.999s9 -3.5 15 -3.5c8 0 16.333 4.5 25 13.5s16.834 20.667 24.501 35s14 30.166 19 47.499s7.5 34.333 7.5 51v171v1z" />
    <glyph glyph-name="acircumflex" unicode="&#xe2;" horiz-adv-x="615" 
d="M434 602l-131 61l-136 -58l138 134zM606 144c0 -24.667 -1.6709 -46.832 -5.00391 -66.499s-9.5 -36.334 -18.5 -50.001s-21.667 -24.167 -38 -31.5s-37.833 -11 -64.5 -11c-32 0 -57.833 5.66699 -77.5 17s-34.834 23.833 -45.501 37.5s-18 26.167 -22 37.5
s-6.33301 17 -7 17c-2 0 -4.83301 -5.5 -8.5 -16.5s-10.167 -23.167 -19.5 -36.5c-4.66699 -6.66699 -9.83398 -13.167 -15.501 -19.5s-12.667 -12 -21 -17s-18.666 -9 -30.999 -12s-27.5 -4.5 -45.5 -4.5c-52.667 0 -94.834 13.167 -126.501 39.5s-47.5 60.833 -47.5 103.5
c0 32.667 7.33301 58.334 22 77.001s32.334 33 53.001 43s41.667 17 63 21s39 7.66699 53 11s28.333 7.5 43 12.5s28.167 12.667 40.5 23s22.5 24.833 30.5 43.5s12 43.667 12 75c0 22.667 -1.83301 41 -5.5 55s-8.66699 24.833 -15 32.5s-14.166 12.834 -23.499 15.501
s-19.666 4 -30.999 4s-22.833 -1.5 -34.5 -4.5s-22 -6.5 -31 -10.5s-16.333 -8.33301 -22 -13s-8.5 -9 -8.5 -13s1.33301 -6 4 -6c1.33301 0 3 0.166992 5 0.5s4 0.5 6 0.5c12.667 0 24.334 -2.5 35.001 -7.5s19.834 -11.5 27.501 -19.5s13.667 -17.5 18 -28.5
s6.5 -22.5 6.5 -34.5c0 -14 -2.66699 -27.5 -8 -40.5s-12.666 -24.167 -21.999 -33.5s-20.166 -16.833 -32.499 -22.5s-25.5 -8.5 -39.5 -8.5c-13.333 0 -26.333 2.5 -39 7.5s-23.834 12.167 -33.501 21.5s-17.5 20.5 -23.5 33.5s-9 27.833 -9 44.5
c0 18.667 4.83301 36.667 14.5 54s24.167 32.666 43.5 45.999s44 24.166 74 32.499s65.333 12.5 106 12.5c34.667 0 66.167 -3.33301 94.5 -10s52.833 -16.834 73.5 -30.501s36.667 -30.5 48 -50.5s17 -43.333 17 -70v-343c0 -13.333 2 -22.666 6 -27.999s9 -8 15 -8
c10.667 0 21.167 10.5 31.5 31.5s15.5 48.833 15.5 83.5v14h13zM325.996 333.002c0 3.33301 -1.00195 4.99609 -3.00195 4.99609c-1.33301 0 -5.16602 -3.66699 -11.499 -11s-14.833 -15 -25.5 -23l-18 -13c-7.33301 -5.33301 -14.5 -13.666 -21.5 -24.999
s-13 -27.166 -18 -47.499s-7.5 -47.166 -7.5 -80.499c0 -28.667 0.333008 -51.167 1 -67.5s2 -28.666 4 -36.999s5 -13.666 9 -15.999s9 -3.5 15 -3.5c8 0 16.333 4.5 25 13.5s16.834 20.667 24.501 35s14 30.166 19 47.499s7.5 34.333 7.5 51v171v1z" />
    <glyph glyph-name="atilde" unicode="&#xe3;" horiz-adv-x="615" 
d="M454 715c0 -9.33301 -1.83203 -19.332 -5.49902 -29.999s-9.83398 -20.834 -18.501 -30.501s-19.834 -17.667 -33.501 -24s-30.5 -9.5 -50.5 -9.5c-21.333 0 -40.666 2 -57.999 6s-34 6 -50 6s-28.5 -2.5 -37.5 -7.5s-13.5 -12.167 -13.5 -21.5h-10
c0 10.667 2.16699 21.667 6.5 33s10.833 21.666 19.5 30.999s19.5 17 32.5 23s28.167 9 45.5 9c25.333 0 46.833 -2 64.5 -6s35.167 -6 52.5 -6s29.333 3.33301 36 10s10.667 12.334 12 17.001h8zM606.001 144.001c0 -24.667 -1.6709 -46.832 -5.00391 -66.499
s-9.5 -36.334 -18.5 -50.001s-21.667 -24.167 -38 -31.5s-37.833 -11 -64.5 -11c-32 0 -57.833 5.66699 -77.5 17s-34.834 23.833 -45.501 37.5s-18 26.167 -22 37.5s-6.33301 17 -7 17c-2 0 -4.83301 -5.5 -8.5 -16.5s-10.167 -23.167 -19.5 -36.5
c-4.66699 -6.66699 -9.83398 -13.167 -15.501 -19.5s-12.667 -12 -21 -17s-18.666 -9 -30.999 -12s-27.5 -4.5 -45.5 -4.5c-52.667 0 -94.834 13.167 -126.501 39.5s-47.5 60.833 -47.5 103.5c0 32.667 7.33301 58.334 22 77.001s32.334 33 53.001 43s41.667 17 63 21
s39 7.66699 53 11s28.333 7.5 43 12.5s28.167 12.667 40.5 23s22.5 24.833 30.5 43.5s12 43.667 12 75c0 22.667 -1.83301 41 -5.5 55s-8.66699 24.833 -15 32.5s-14.166 12.834 -23.499 15.501s-19.666 4 -30.999 4s-22.833 -1.5 -34.5 -4.5s-22 -6.5 -31 -10.5
s-16.333 -8.33301 -22 -13s-8.5 -9 -8.5 -13s1.33301 -6 4 -6c1.33301 0 3 0.166992 5 0.5s4 0.5 6 0.5c12.667 0 24.334 -2.5 35.001 -7.5s19.834 -11.5 27.501 -19.5s13.667 -17.5 18 -28.5s6.5 -22.5 6.5 -34.5c0 -14 -2.66699 -27.5 -8 -40.5
s-12.666 -24.167 -21.999 -33.5s-20.166 -16.833 -32.499 -22.5s-25.5 -8.5 -39.5 -8.5c-13.333 0 -26.333 2.5 -39 7.5s-23.834 12.167 -33.501 21.5s-17.5 20.5 -23.5 33.5s-9 27.833 -9 44.5c0 18.667 4.83301 36.667 14.5 54s24.167 32.666 43.5 45.999
s44 24.166 74 32.499s65.333 12.5 106 12.5c34.667 0 66.167 -3.33301 94.5 -10s52.833 -16.834 73.5 -30.501s36.667 -30.5 48 -50.5s17 -43.333 17 -70v-343c0 -13.333 2 -22.666 6 -27.999s9 -8 15 -8c10.667 0 21.167 10.5 31.5 31.5s15.5 48.833 15.5 83.5v14h13z
M325.997 333.003c0 3.33301 -1.00195 4.99609 -3.00195 4.99609c-1.33301 0 -5.16602 -3.66699 -11.499 -11s-14.833 -15 -25.5 -23l-18 -13c-7.33301 -5.33301 -14.5 -13.666 -21.5 -24.999s-13 -27.166 -18 -47.499s-7.5 -47.166 -7.5 -80.499
c0 -28.667 0.333008 -51.167 1 -67.5s2 -28.666 4 -36.999s5 -13.666 9 -15.999s9 -3.5 15 -3.5c8 0 16.333 4.5 25 13.5s16.834 20.667 24.501 35s14 30.166 19 47.499s7.5 34.333 7.5 51v171v1z" />
    <glyph glyph-name="adieresis" unicode="&#xe4;" horiz-adv-x="615" 
d="M419 658c0 -12.667 -4.83301 -23.5 -14.5 -32.5s-21.167 -13.5 -34.5 -13.5s-24.833 4.5 -34.5 13.5s-14.5 19.833 -14.5 32.5s4.83301 23.5 14.5 32.5s21.167 13.5 34.5 13.5s24.833 -4.5 34.5 -13.5s14.5 -19.833 14.5 -32.5zM278 658
c0 -12.667 -4.83301 -23.5 -14.5 -32.5s-21.167 -13.5 -34.5 -13.5c-14 0 -25.833 4.5 -35.5 13.5s-14.5 19.833 -14.5 32.5s4.83301 23.5 14.5 32.5s21.5 13.5 35.5 13.5c13.333 0 24.833 -4.5 34.5 -13.5s14.5 -19.833 14.5 -32.5zM606 144
c0 -24.667 -1.6709 -46.832 -5.00391 -66.499s-9.5 -36.334 -18.5 -50.001s-21.667 -24.167 -38 -31.5s-37.833 -11 -64.5 -11c-32 0 -57.833 5.66699 -77.5 17s-34.834 23.833 -45.501 37.5s-18 26.167 -22 37.5s-6.33301 17 -7 17c-2 0 -4.83301 -5.5 -8.5 -16.5
s-10.167 -23.167 -19.5 -36.5c-4.66699 -6.66699 -9.83398 -13.167 -15.501 -19.5s-12.667 -12 -21 -17s-18.666 -9 -30.999 -12s-27.5 -4.5 -45.5 -4.5c-52.667 0 -94.834 13.167 -126.501 39.5s-47.5 60.833 -47.5 103.5c0 32.667 7.33301 58.334 22 77.001
s32.334 33 53.001 43s41.667 17 63 21s39 7.66699 53 11s28.333 7.5 43 12.5s28.167 12.667 40.5 23s22.5 24.833 30.5 43.5s12 43.667 12 75c0 22.667 -1.83301 41 -5.5 55s-8.66699 24.833 -15 32.5s-14.166 12.834 -23.499 15.501s-19.666 4 -30.999 4
s-22.833 -1.5 -34.5 -4.5s-22 -6.5 -31 -10.5s-16.333 -8.33301 -22 -13s-8.5 -9 -8.5 -13s1.33301 -6 4 -6c1.33301 0 3 0.166992 5 0.5s4 0.5 6 0.5c12.667 0 24.334 -2.5 35.001 -7.5s19.834 -11.5 27.501 -19.5s13.667 -17.5 18 -28.5s6.5 -22.5 6.5 -34.5
c0 -14 -2.66699 -27.5 -8 -40.5s-12.666 -24.167 -21.999 -33.5s-20.166 -16.833 -32.499 -22.5s-25.5 -8.5 -39.5 -8.5c-13.333 0 -26.333 2.5 -39 7.5s-23.834 12.167 -33.501 21.5s-17.5 20.5 -23.5 33.5s-9 27.833 -9 44.5c0 18.667 4.83301 36.667 14.5 54
s24.167 32.666 43.5 45.999s44 24.166 74 32.499s65.333 12.5 106 12.5c34.667 0 66.167 -3.33301 94.5 -10s52.833 -16.834 73.5 -30.501s36.667 -30.5 48 -50.5s17 -43.333 17 -70v-343c0 -13.333 2 -22.666 6 -27.999s9 -8 15 -8c10.667 0 21.167 10.5 31.5 31.5
s15.5 48.833 15.5 83.5v14h13zM325.996 333.002c0 3.33301 -1.00195 4.99609 -3.00195 4.99609c-1.33301 0 -5.16602 -3.66699 -11.499 -11s-14.833 -15 -25.5 -23l-18 -13c-7.33301 -5.33301 -14.5 -13.666 -21.5 -24.999s-13 -27.166 -18 -47.499
s-7.5 -47.166 -7.5 -80.499c0 -28.667 0.333008 -51.167 1 -67.5s2 -28.666 4 -36.999s5 -13.666 9 -15.999s9 -3.5 15 -3.5c8 0 16.333 4.5 25 13.5s16.834 20.667 24.501 35s14 30.166 19 47.499s7.5 34.333 7.5 51v171v1z" />
    <glyph glyph-name="aring" unicode="&#xe5;" horiz-adv-x="615" 
d="M409 708c0 -15.333 -2.83301 -29.666 -8.5 -42.999s-13.5 -25 -23.5 -35s-21.667 -17.833 -35 -23.5s-27.666 -8.5 -42.999 -8.5s-29.666 2.83301 -42.999 8.5s-25 13.5 -35 23.5s-17.833 21.667 -23.5 35s-8.5 27.666 -8.5 42.999s2.83301 29.666 8.5 42.999
s13.5 25 23.5 35s21.667 17.833 35 23.5s27.666 8.5 42.999 8.5s29.666 -2.83301 42.999 -8.5s25 -13.5 35 -23.5s17.833 -21.667 23.5 -35s8.5 -27.666 8.5 -42.999zM354 708c0 15.333 -5.16699 28.166 -15.5 38.499s-22.833 15.5 -37.5 15.5
c-15.333 0 -28.166 -5.16699 -38.499 -15.5s-15.5 -23.166 -15.5 -38.499s5.16699 -28.166 15.5 -38.499s23.166 -15.5 38.499 -15.5c14.667 0 27.167 5.16699 37.5 15.5s15.5 23.166 15.5 38.499zM606 144c0 -24.667 -1.6709 -46.832 -5.00391 -66.499
s-9.5 -36.334 -18.5 -50.001s-21.667 -24.167 -38 -31.5s-37.833 -11 -64.5 -11c-32 0 -57.833 5.66699 -77.5 17s-34.834 23.833 -45.501 37.5s-18 26.167 -22 37.5s-6.33301 17 -7 17c-2 0 -4.83301 -5.5 -8.5 -16.5s-10.167 -23.167 -19.5 -36.5
c-4.66699 -6.66699 -9.83398 -13.167 -15.501 -19.5s-12.667 -12 -21 -17s-18.666 -9 -30.999 -12s-27.5 -4.5 -45.5 -4.5c-52.667 0 -94.834 13.167 -126.501 39.5s-47.5 60.833 -47.5 103.5c0 32.667 7.33301 58.334 22 77.001s32.334 33 53.001 43s41.667 17 63 21
s39 7.66699 53 11s28.333 7.5 43 12.5s28.167 12.667 40.5 23s22.5 24.833 30.5 43.5s12 43.667 12 75c0 22.667 -1.83301 41 -5.5 55s-8.66699 24.833 -15 32.5s-14.166 12.834 -23.499 15.501s-19.666 4 -30.999 4s-22.833 -1.5 -34.5 -4.5s-22 -6.5 -31 -10.5
s-16.333 -8.33301 -22 -13s-8.5 -9 -8.5 -13s1.33301 -6 4 -6c1.33301 0 3 0.166992 5 0.5s4 0.5 6 0.5c12.667 0 24.334 -2.5 35.001 -7.5s19.834 -11.5 27.501 -19.5s13.667 -17.5 18 -28.5s6.5 -22.5 6.5 -34.5c0 -14 -2.66699 -27.5 -8 -40.5
s-12.666 -24.167 -21.999 -33.5s-20.166 -16.833 -32.499 -22.5s-25.5 -8.5 -39.5 -8.5c-13.333 0 -26.333 2.5 -39 7.5s-23.834 12.167 -33.501 21.5s-17.5 20.5 -23.5 33.5s-9 27.833 -9 44.5c0 18.667 4.83301 36.667 14.5 54s24.167 32.666 43.5 45.999
s44 24.166 74 32.499s65.333 12.5 106 12.5c34.667 0 66.167 -3.33301 94.5 -10s52.833 -16.834 73.5 -30.501s36.667 -30.5 48 -50.5s17 -43.333 17 -70v-343c0 -13.333 2 -22.666 6 -27.999s9 -8 15 -8c10.667 0 21.167 10.5 31.5 31.5s15.5 48.833 15.5 83.5v14h13z
M325.996 333.002c0 3.33301 -1.00195 4.99609 -3.00195 4.99609c-1.33301 0 -5.16602 -3.66699 -11.499 -11s-14.833 -15 -25.5 -23l-18 -13c-7.33301 -5.33301 -14.5 -13.666 -21.5 -24.999s-13 -27.166 -18 -47.499s-7.5 -47.166 -7.5 -80.499
c0 -28.667 0.333008 -51.167 1 -67.5s2 -28.666 4 -36.999s5 -13.666 9 -15.999s9 -3.5 15 -3.5c8 0 16.333 4.5 25 13.5s16.834 20.667 24.501 35s14 30.166 19 47.499s7.5 34.333 7.5 51v171v1z" />
    <glyph glyph-name="ae" unicode="&#xe6;" horiz-adv-x="862" 
d="M846 304c0 -10 -2.33887 -16.498 -7.00586 -19.498s-11.667 -4.5 -21 -4.5h-282v-33c0 -50.667 2 -91.834 6 -123.501s10 -56.5 18 -74.5s18.333 -30.333 31 -37s27.667 -10 45 -10c27.333 0 52.666 5.83301 75.999 17.5s43.666 26.667 60.999 45
s30.833 39.166 40.5 62.499s14.5 47 14.5 71h14c0 -24 -4.83301 -48.667 -14.5 -74s-24 -48.166 -43 -68.499s-42.667 -37.166 -71 -50.499s-61.5 -20 -99.5 -20c-68 0 -125.5 15.833 -172.5 47.5s-79.833 75.167 -98.5 130.5
c-2.66699 -15.333 -6.16699 -33.166 -10.5 -53.499s-11.833 -39.5 -22.5 -57.5s-25.667 -33.167 -45 -45.5s-45.333 -18.5 -78 -18.5c-52.667 0 -94.834 13.167 -126.501 39.5s-47.5 60.833 -47.5 103.5c0 32.667 7.33301 58.334 22 77.001s32.334 33 53.001 43
s41.667 17 63 21s39 7.66699 53 11s28.333 7.5 43 12.5s28.167 12.667 40.5 23s22.5 24.833 30.5 43.5s12 43.667 12 75c0 22.667 -1.83301 41 -5.5 55s-8.66699 24.833 -15 32.5s-14.166 12.834 -23.499 15.501s-19.666 4 -30.999 4s-22.833 -1.5 -34.5 -4.5
s-22 -6.5 -31 -10.5s-16.333 -8.33301 -22 -13s-8.5 -9 -8.5 -13s1.33301 -6 4 -6c1.33301 0 3 0.166992 5 0.5s4 0.5 6 0.5c12.667 0 24.334 -2.5 35.001 -7.5s19.834 -11.5 27.501 -19.5s13.667 -17.5 18 -28.5s6.5 -22.5 6.5 -34.5c0 -14 -2.66699 -27.5 -8 -40.5
s-12.666 -24.167 -21.999 -33.5s-20.166 -16.833 -32.499 -22.5s-25.5 -8.5 -39.5 -8.5c-13.333 0 -26.333 2.5 -39 7.5s-23.834 12.167 -33.501 21.5s-17.5 20.5 -23.5 33.5s-9 27.833 -9 44.5c0 18.667 4.83301 36.667 14.5 54s24.167 32.666 43.5 45.999
s44 24.166 74 32.499s65.333 12.5 106 12.5c35.333 0 67.333 -3.5 96 -10.5s53.334 -17.167 74.001 -30.5c20.667 12.667 42.667 22.5 66 29.5s47.333 10.5 72 10.5c40 0 75.333 -7.33301 106 -22s56.334 -33.834 77.001 -57.501s36.334 -50.334 47.001 -80.001
s16 -59.834 16 -90.501zM651.994 312.002c0 46 -0.166992 83.6641 -0.5 112.997s-1.83301 52.5 -4.5 69.5s-7.16699 28.833 -13.5 35.5s-15.5 10 -27.5 10c-11.333 0 -21.333 -4.16699 -30 -12.5s-15.834 -22.166 -21.501 -41.499s-10 -44.666 -13 -75.999
s-4.83301 -70 -5.5 -116h92c6.66699 0 12.334 0.333008 17.001 1s7 6.33398 7 17.001zM325.994 332.999c0 3.33301 -1.00195 4.99707 -3.00195 4.99707c-1.33301 0 -5.16602 -3.66699 -11.499 -11s-14.833 -15 -25.5 -23l-18 -13
c-7.33301 -5.33301 -14.5 -13.666 -21.5 -24.999s-13 -27.166 -18 -47.499s-7.5 -47.166 -7.5 -80.499c0 -28.667 0.333008 -51.167 1 -67.5s2 -28.5 4 -36.5s5 -13 9 -15s9 -3 15 -3c8 0 16.333 4 25 12s16.834 18.833 24.501 32.5s14 29.167 19 46.5s7.5 35.333 7.5 54
v171v1z" />
    <glyph glyph-name="ccedilla" unicode="&#xe7;" horiz-adv-x="566" 
d="M544 212c0 -28.667 -3.99805 -56.835 -11.998 -84.502s-20.833 -52.167 -38.5 -73.5s-40.334 -38.666 -68.001 -51.999s-60.834 -20 -99.501 -20c-6 0 -12 0.166992 -18 0.5s-12 0.833008 -18 1.5l-35 -45c6.66699 0.666992 13.334 1 20.001 1h20
c14.667 0 29.167 -1.66699 43.5 -5s26.833 -7.83301 37.5 -13.5s19.334 -12.5 26.001 -20.5s10 -16.667 10 -26c0 -11.333 -4 -21.833 -12 -31.5s-18.167 -18 -30.5 -25s-26.333 -12.667 -42 -17s-30.834 -6.5 -45.501 -6.5c-15.333 0 -28.833 1.33301 -40.5 4
s-21.334 5.5 -29.001 8.5s-13.5 6 -17.5 9s-6.33301 5.16699 -7 6.5l6 11c5.33301 -4 15.166 -9.33301 29.499 -16s31.166 -10 50.499 -10s34.5 3.16699 45.5 9.5s16.5 15.833 16.5 28.5s-8.16699 22.167 -24.5 28.5s-34.5 9.5 -54.5 9.5
c-19.333 0 -32.666 -0.666992 -39.999 -2s-11.666 -2 -12.999 -2c-2 0 -3 1.66699 -3 5c0 2.66699 0.333008 4.33398 1 5.00098l74 96c-37.333 4.66699 -71.666 15 -102.999 31s-58.5 36.333 -81.5 61s-40.833 53.167 -53.5 85.5s-19 67.833 -19 106.5s8 75.334 24 110.001
s38.333 65 67 91s62.667 46.5 102 61.5s82 22.5 128 22.5c30 0 57.167 -4.66699 81.5 -14s45 -21.5 62 -36.5s30.167 -32.167 39.5 -51.5s14 -39.333 14 -60c0 -18.667 -3.16699 -35.334 -9.5 -50.001s-14.833 -27 -25.5 -37s-23 -17.667 -37 -23s-28.667 -8 -44 -8
c-17.333 0 -33.5 2.83301 -48.5 8.5s-27.833 13.5 -38.5 23.5s-19 21.667 -25 35s-9 27.333 -9 42s2.66699 28.5 8 41.5s12.833 24.333 22.5 34s21.167 17.334 34.5 23.001s28 8.5 44 8.5c14 0 25 -1.66699 33 -5s12.667 -5 14 -5c2 0 3 2.66699 3 8
c0 2.66699 -2.33301 7 -7 13s-11.667 12.167 -21 18.5s-20.833 11.833 -34.5 16.5s-29.5 7 -47.5 7c-15.333 0 -29.666 -4 -42.999 -12s-25 -22.833 -35 -44.5s-17.833 -51.5 -23.5 -89.5s-8.5 -86.667 -8.5 -146c0 -50.667 2.33301 -92.5 7 -125.5s11.5 -59 20.5 -78
s20.5 -32.333 34.5 -40s30 -11.5 48 -11.5c26.667 0 51.167 5.5 73.5 16.5s41.666 26.167 57.999 45.5s29.166 42.166 38.499 68.499s14 54.833 14 85.5z" />
    <glyph glyph-name="egrave" unicode="&#xe8;" horiz-adv-x="553" 
d="M346 600l-8.00098 -8l-15 15c-8.66699 8.66699 -20.667 16 -36 22s-30.333 12.333 -45 19s-27.5 14.667 -38.5 24s-16.5 22 -16.5 38c0 11.333 3.83301 21 11.5 29s16.834 12 27.501 12c16 0 28.833 -5.5 38.5 -16.5s18 -23.833 25 -38.5s13.333 -29.667 19 -45
s13.167 -27.333 22.5 -36zM536.999 304c0 -10 -2.16699 -16.4951 -6.5 -19.4951s-11.166 -4.5 -20.499 -4.5h-282c0 -5.33301 -0.166992 -10.833 -0.5 -16.5s-0.5 -11.167 -0.5 -16.5c0 -50.667 2 -91.834 6 -123.501s10.167 -56.5 18.5 -74.5s18.833 -30.333 31.5 -37
s27.667 -10 45 -10c27.333 0 52.666 5.83301 75.999 17.5s43.666 26.667 60.999 45s30.833 39.166 40.5 62.499s14.5 47 14.5 71h14c0 -24 -4.83301 -48.667 -14.5 -74s-24 -48.166 -43 -68.499s-42.667 -37.166 -71 -50.499s-61.5 -20 -99.5 -20
c-43.333 0 -82.5 6.66699 -117.5 20s-65.167 32.166 -90.5 56.499s-44.833 53.666 -58.5 87.999s-20.5 72.5 -20.5 114.5s7.5 80.667 22.5 116s35.167 66 60.5 92s54.333 46.167 87 60.5s67 21.5 103 21.5c40 0 75.333 -7.33301 106 -22s56.334 -33.834 77.001 -57.501
s36.167 -50.334 46.5 -80.001s15.5 -59.834 15.5 -90.501zM343.999 312.005c0 46 -0.168945 83.6641 -0.501953 112.997s-1.83301 52.5 -4.5 69.5s-7.16699 28.833 -13.5 35.5s-15.833 10 -28.5 10c-11.333 0 -21.166 -4.16699 -29.499 -12.5s-15.333 -22.166 -21 -41.499
s-10 -44.666 -13 -75.999s-4.83301 -70 -5.5 -116h92c6.66699 0 12.334 0.333008 17.001 1s7 6.33398 7 17.001z" />
    <glyph glyph-name="eacute" unicode="&#xe9;" horiz-adv-x="553" 
d="M437 711c0 -16 -5.50098 -28.8301 -16.501 -38.4971s-23.833 -17.834 -38.5 -24.501s-29.667 -12.834 -45 -18.501s-27.333 -12.834 -36 -21.501l-15 -15l-8 8l15 15c8.66699 8.66699 16 20.667 22 36s12.5 30.333 19.5 45s15.333 27.5 25 38.5s22.5 16.5 38.5 16.5
c10.667 0 19.834 -4 27.501 -12s11.5 -17.667 11.5 -29zM536.999 304.003c0 -10 -2.16699 -16.4951 -6.5 -19.4951s-11.166 -4.5 -20.499 -4.5h-282c0 -5.33301 -0.166992 -10.833 -0.5 -16.5s-0.5 -11.167 -0.5 -16.5c0 -50.667 2 -91.834 6 -123.501
s10.167 -56.5 18.5 -74.5s18.833 -30.333 31.5 -37s27.667 -10 45 -10c27.333 0 52.666 5.83301 75.999 17.5s43.666 26.667 60.999 45s30.833 39.166 40.5 62.499s14.5 47 14.5 71h14c0 -24 -4.83301 -48.667 -14.5 -74s-24 -48.166 -43 -68.499
s-42.667 -37.166 -71 -50.499s-61.5 -20 -99.5 -20c-43.333 0 -82.5 6.66699 -117.5 20s-65.167 32.166 -90.5 56.499s-44.833 53.666 -58.5 87.999s-20.5 72.5 -20.5 114.5s7.5 80.667 22.5 116s35.167 66 60.5 92s54.333 46.167 87 60.5s67 21.5 103 21.5
c40 0 75.333 -7.33301 106 -22s56.334 -33.834 77.001 -57.501s36.167 -50.334 46.5 -80.001s15.5 -59.834 15.5 -90.501zM343.999 312.008c0 46 -0.168945 83.6641 -0.501953 112.997s-1.83301 52.5 -4.5 69.5s-7.16699 28.833 -13.5 35.5s-15.833 10 -28.5 10
c-11.333 0 -21.166 -4.16699 -29.499 -12.5s-15.333 -22.166 -21 -41.499s-10 -44.666 -13 -75.999s-4.83301 -70 -5.5 -116h92c6.66699 0 12.334 0.333008 17.001 1s7 6.33398 7 17.001z" />
    <glyph glyph-name="ecircumflex" unicode="&#xea;" horiz-adv-x="553" 
d="M434 602l-131 61l-136 -58l138 134zM537 304c0 -10 -2.16699 -16.4951 -6.5 -19.4951s-11.166 -4.5 -20.499 -4.5h-282c0 -5.33301 -0.166992 -10.833 -0.5 -16.5s-0.5 -11.167 -0.5 -16.5c0 -50.667 2 -91.834 6 -123.501s10.167 -56.5 18.5 -74.5
s18.833 -30.333 31.5 -37s27.667 -10 45 -10c27.333 0 52.666 5.83301 75.999 17.5s43.666 26.667 60.999 45s30.833 39.166 40.5 62.499s14.5 47 14.5 71h14c0 -24 -4.83301 -48.667 -14.5 -74s-24 -48.166 -43 -68.499s-42.667 -37.166 -71 -50.499s-61.5 -20 -99.5 -20
c-43.333 0 -82.5 6.66699 -117.5 20s-65.167 32.166 -90.5 56.499s-44.833 53.666 -58.5 87.999s-20.5 72.5 -20.5 114.5s7.5 80.667 22.5 116s35.167 66 60.5 92s54.333 46.167 87 60.5s67 21.5 103 21.5c40 0 75.333 -7.33301 106 -22s56.334 -33.834 77.001 -57.501
s36.167 -50.334 46.5 -80.001s15.5 -59.834 15.5 -90.501zM344 312.005c0 46 -0.168945 83.6641 -0.501953 112.997s-1.83301 52.5 -4.5 69.5s-7.16699 28.833 -13.5 35.5s-15.833 10 -28.5 10c-11.333 0 -21.166 -4.16699 -29.499 -12.5s-15.333 -22.166 -21 -41.499
s-10 -44.666 -13 -75.999s-4.83301 -70 -5.5 -116h92c6.66699 0 12.334 0.333008 17.001 1s7 6.33398 7 17.001z" />
    <glyph glyph-name="edieresis" unicode="&#xeb;" horiz-adv-x="553" 
d="M419 658c0 -12.667 -4.83301 -23.5 -14.5 -32.5s-21.167 -13.5 -34.5 -13.5s-24.833 4.5 -34.5 13.5s-14.5 19.833 -14.5 32.5s4.83301 23.5 14.5 32.5s21.167 13.5 34.5 13.5s24.833 -4.5 34.5 -13.5s14.5 -19.833 14.5 -32.5zM278 658
c0 -12.667 -4.83301 -23.5 -14.5 -32.5s-21.167 -13.5 -34.5 -13.5c-14 0 -25.833 4.5 -35.5 13.5s-14.5 19.833 -14.5 32.5s4.83301 23.5 14.5 32.5s21.5 13.5 35.5 13.5c13.333 0 24.833 -4.5 34.5 -13.5s14.5 -19.833 14.5 -32.5zM537 304
c0 -10 -2.16699 -16.4951 -6.5 -19.4951s-11.166 -4.5 -20.499 -4.5h-282c0 -5.33301 -0.166992 -10.833 -0.5 -16.5s-0.5 -11.167 -0.5 -16.5c0 -50.667 2 -91.834 6 -123.501s10.167 -56.5 18.5 -74.5s18.833 -30.333 31.5 -37s27.667 -10 45 -10
c27.333 0 52.666 5.83301 75.999 17.5s43.666 26.667 60.999 45s30.833 39.166 40.5 62.499s14.5 47 14.5 71h14c0 -24 -4.83301 -48.667 -14.5 -74s-24 -48.166 -43 -68.499s-42.667 -37.166 -71 -50.499s-61.5 -20 -99.5 -20c-43.333 0 -82.5 6.66699 -117.5 20
s-65.167 32.166 -90.5 56.499s-44.833 53.666 -58.5 87.999s-20.5 72.5 -20.5 114.5s7.5 80.667 22.5 116s35.167 66 60.5 92s54.333 46.167 87 60.5s67 21.5 103 21.5c40 0 75.333 -7.33301 106 -22s56.334 -33.834 77.001 -57.501s36.167 -50.334 46.5 -80.001
s15.5 -59.834 15.5 -90.501zM344 312.005c0 46 -0.168945 83.6641 -0.501953 112.997s-1.83301 52.5 -4.5 69.5s-7.16699 28.833 -13.5 35.5s-15.833 10 -28.5 10c-11.333 0 -21.166 -4.16699 -29.499 -12.5s-15.333 -22.166 -21 -41.499s-10 -44.666 -13 -75.999
s-4.83301 -70 -5.5 -116h92c6.66699 0 12.334 0.333008 17.001 1s7 6.33398 7 17.001z" />
    <glyph glyph-name="igrave" unicode="&#xec;" horiz-adv-x="376" 
d="M244 600l-8 -8l-15 15c-8.66699 8.66699 -20.5 16 -35.5 22s-29.833 12.333 -44.5 19s-27.5 14.667 -38.5 24s-16.5 22 -16.5 38c0 11.333 3.66699 21 11 29s16.666 12 27.999 12c16 0 28.833 -5.5 38.5 -16.5s17.834 -23.833 24.501 -38.5s13 -29.667 19 -45
s13.333 -27.333 22 -36zM365 0h-352.999v13h31c14.667 0 26.167 4.5 34.5 13.5s12.5 20.167 12.5 33.5v424c0 13.333 -3.5 24 -10.5 32s-17.167 12 -30.5 12h-26v13h276v-481c0 -13.333 3.16699 -24.5 9.5 -33.5s15.166 -13.5 26.499 -13.5h30v-13z" />
    <glyph glyph-name="iacute" unicode="&#xed;" horiz-adv-x="376" 
d="M312 711c0 -16 -5.5 -28.8301 -16.5 -38.4971s-23.833 -17.834 -38.5 -24.501s-29.5 -12.834 -44.5 -18.501s-26.833 -12.834 -35.5 -21.501l-15 -15l-8 8l15 15c8.66699 8.66699 16 20.667 22 36s12.333 30.333 19 45s14.834 27.5 24.501 38.5s22.5 16.5 38.5 16.5
c11.333 0 20.666 -4 27.999 -12s11 -17.667 11 -29zM365 0.00292969h-352.999v13h31c14.667 0 26.167 4.5 34.5 13.5s12.5 20.167 12.5 33.5v424c0 13.333 -3.5 24 -10.5 32s-17.167 12 -30.5 12h-26v13h276v-481c0 -13.333 3.16699 -24.5 9.5 -33.5
s15.166 -13.5 26.499 -13.5h30v-13z" />
    <glyph glyph-name="icircumflex" unicode="&#xee;" horiz-adv-x="376" 
d="M313 602l-131 61l-136 -58l138 134zM365 0h-352.999v13h31c14.667 0 26.167 4.5 34.5 13.5s12.5 20.167 12.5 33.5v424c0 13.333 -3.5 24 -10.5 32s-17.167 12 -30.5 12h-26v13h276v-481c0 -13.333 3.16699 -24.5 9.5 -33.5s15.166 -13.5 26.499 -13.5h30v-13z" />
    <glyph glyph-name="idieresis" unicode="&#xef;" horiz-adv-x="376" 
d="M315 658c0 -12.667 -4.83301 -23.5 -14.5 -32.5s-21.167 -13.5 -34.5 -13.5s-24.833 4.5 -34.5 13.5s-14.5 19.833 -14.5 32.5s4.83301 23.5 14.5 32.5s21.167 13.5 34.5 13.5s24.833 -4.5 34.5 -13.5s14.5 -19.833 14.5 -32.5zM174 658
c0 -12.667 -4.83301 -23.5 -14.5 -32.5s-21.167 -13.5 -34.5 -13.5c-14 0 -25.833 4.5 -35.5 13.5s-14.5 19.833 -14.5 32.5s4.83301 23.5 14.5 32.5s21.5 13.5 35.5 13.5c13.333 0 24.833 -4.5 34.5 -13.5s14.5 -19.833 14.5 -32.5zM365 0h-352.999v13h31
c14.667 0 26.167 4.5 34.5 13.5s12.5 20.167 12.5 33.5v424c0 13.333 -3.5 24 -10.5 32s-17.167 12 -30.5 12h-26v13h276v-481c0 -13.333 3.16699 -24.5 9.5 -33.5s15.166 -13.5 26.499 -13.5h30v-13z" />
    <glyph glyph-name="eth" unicode="&#xf0;" horiz-adv-x="636" 
d="M616 303c0 -43.333 -5.83301 -84.501 -17.5 -123.501s-29.5 -73.167 -53.5 -102.5s-54.667 -52.666 -92 -69.999s-82 -26 -134 -26c-41.333 0 -80.166 7.66699 -116.499 23s-68 36 -95 62s-48.333 56.667 -64 92s-23.5 73 -23.5 113s7.83301 77.5 23.5 112.5
s37 65.5 64 91.5s58.667 46.667 95 62s75.166 23 116.499 23c14 0 28.667 -1 44 -3c-8 23.333 -17.5 44.833 -28.5 64.5s-22.833 37.5 -35.5 53.5l-106 -69l-7 11l104 68c-30 34.667 -62.667 60.334 -98 77.001s-69 25 -101 25h-27v13h240
c33.333 -12.667 63.333 -28.334 90 -47.001l77 49l7 -11l-72 -47c32.667 -25.333 62 -54.833 88 -88.5s48 -70 66 -109s31.833 -79.333 41.5 -121s14.5 -82.5 14.5 -122.5zM391 263.999c0 60.667 -1.33105 109.332 -3.99805 145.999s-6.66699 65 -12 85
s-12.666 33.333 -21.999 40s-20.333 10 -33 10c-15.333 0 -27.5 -3.83301 -36.5 -11.5s-16.167 -21.667 -21.5 -42s-8.83301 -48.666 -10.5 -84.999s-2.5 -82.833 -2.5 -139.5c0 -60 1.16699 -107.833 3.5 -143.5s6.16602 -63 11.499 -82s12.666 -31.333 21.999 -37
s20.666 -8.5 33.999 -8.5c14 0 25.5 3.5 34.5 10.5s16.333 20.333 22 40s9.5 47 11.5 82s3 80.167 3 135.5z" />
    <glyph glyph-name="ntilde" unicode="&#xf1;" horiz-adv-x="673" 
d="M504 715c0 -9.33301 -1.83203 -19.332 -5.49902 -29.999s-9.83398 -20.834 -18.501 -30.501s-19.834 -17.667 -33.501 -24s-30.5 -9.5 -50.5 -9.5c-21.333 0 -40.666 2 -57.999 6s-34 6 -50 6s-28.5 -2.5 -37.5 -7.5s-13.5 -12.167 -13.5 -21.5h-10
c0 10.667 2.16699 21.667 6.5 33s10.833 21.666 19.5 30.999s19.5 17 32.5 23s28.167 9 45.5 9c25.333 0 46.833 -2 64.5 -6s35.167 -6 52.5 -6s29.333 3.33301 36 10s10.667 12.334 12 17.001h8zM670.001 0.000976562l-311.999 -0.000976562v12h12
c11.333 0 19.833 3.66699 25.5 11s8.5 17 8.5 29v390c0 28.667 -4.83301 48.167 -14.5 58.5s-20.834 15.5 -33.501 15.5c-10 0 -19.5 -3.16699 -28.5 -9.5s-17 -15 -24 -26s-12.5 -24.5 -16.5 -40.5s-6 -33.333 -6 -52v-341c0 -13.333 3.33301 -22.5 10 -27.5
s12.334 -7.5 17.001 -7.5h19v-12h-319v12h30c15.333 0 27.166 4.83301 35.499 14.5s12.5 21.167 12.5 34.5v424c0 12.667 -2.83301 23 -8.5 31s-14.167 12 -25.5 12h-34v13h263v-72c9.33301 31.333 28.5 54 57.5 68s62.167 21 99.5 21c20.667 0 41 -3.33301 61 -10
s37.667 -16.834 53 -30.501s27.833 -31.167 37.5 -52.5s14.5 -46.666 14.5 -75.999v-338c0 -13.333 2 -23.166 6 -29.499s11.333 -9.5 22 -9.5h38v-12z" />
    <glyph glyph-name="ograve" unicode="&#xf2;" horiz-adv-x="636" 
d="M373 600l-8.00098 -8l-15 15c-8.66699 8.66699 -20.667 16 -36 22s-30.333 12.333 -45 19s-27.5 14.667 -38.5 24s-16.5 22 -16.5 38c0 11.333 3.83301 21 11.5 29s16.834 12 27.501 12c16 0 28.833 -5.5 38.5 -16.5s18 -23.833 25 -38.5s13.333 -29.667 19 -45
s13.167 -27.333 22.5 -36zM617.999 271c0 -40 -7.83301 -77.667 -23.5 -113s-37 -66 -64 -92s-58.667 -46.667 -95 -62s-75.166 -23 -116.499 -23s-80.166 7.66699 -116.499 23s-68 36 -95 62s-48.333 56.667 -64 92s-23.5 73 -23.5 113s7.83301 77.5 23.5 112.5
s37 65.5 64 91.5s58.667 46.667 95 62s75.166 23 116.499 23s80.166 -7.66699 116.499 -23s68 -36 95 -62s48.333 -56.5 64 -91.5s23.5 -72.5 23.5 -112.5zM390.999 264c0 48 -0.164062 89.666 -0.49707 124.999s-2.66602 64.5 -6.99902 87.5s-11.333 40.167 -21 51.5
s-23.834 17 -42.501 17c-15.333 0 -27.5 -3.83301 -36.5 -11.5s-16.167 -21.667 -21.5 -42s-8.83301 -48.666 -10.5 -84.999s-2.5 -82.833 -2.5 -139.5c0 -60 1.16699 -107.833 3.5 -143.5s6.16602 -63 11.499 -82s12.666 -31.333 21.999 -37s20.666 -8.5 33.999 -8.5
c14 0 25.5 3.5 34.5 10.5s16.333 20.333 22 40s9.5 47 11.5 82s3 80.167 3 135.5z" />
    <glyph glyph-name="oacute" unicode="&#xf3;" horiz-adv-x="636" 
d="M428 711c0 -16 -5.50098 -28.8301 -16.501 -38.4971s-24 -17.834 -39 -24.501s-30 -12.834 -45 -18.501s-26.833 -12.834 -35.5 -21.501l-15 -15l-8 8l15 15c8.66699 8.66699 16 20.667 22 36s12.5 30.333 19.5 45s15.333 27.5 25 38.5s22.5 16.5 38.5 16.5
c10.667 0 19.834 -4 27.501 -12s11.5 -17.667 11.5 -29zM617.999 271.003c0 -40 -7.83301 -77.667 -23.5 -113s-37 -66 -64 -92s-58.667 -46.667 -95 -62s-75.166 -23 -116.499 -23s-80.166 7.66699 -116.499 23s-68 36 -95 62s-48.333 56.667 -64 92s-23.5 73 -23.5 113
s7.83301 77.5 23.5 112.5s37 65.5 64 91.5s58.667 46.667 95 62s75.166 23 116.499 23s80.166 -7.66699 116.499 -23s68 -36 95 -62s48.333 -56.5 64 -91.5s23.5 -72.5 23.5 -112.5zM390.999 264.003c0 48 -0.164062 89.666 -0.49707 124.999s-2.66602 64.5 -6.99902 87.5
s-11.333 40.167 -21 51.5s-23.834 17 -42.501 17c-15.333 0 -27.5 -3.83301 -36.5 -11.5s-16.167 -21.667 -21.5 -42s-8.83301 -48.666 -10.5 -84.999s-2.5 -82.833 -2.5 -139.5c0 -60 1.16699 -107.833 3.5 -143.5s6.16602 -63 11.499 -82s12.666 -31.333 21.999 -37
s20.666 -8.5 33.999 -8.5c14 0 25.5 3.5 34.5 10.5s16.333 20.333 22 40s9.5 47 11.5 82s3 80.167 3 135.5z" />
    <glyph glyph-name="ocircumflex" unicode="&#xf4;" horiz-adv-x="636" 
d="M449 602l-131 61l-136 -58l138 134zM618 271c0 -40 -7.83301 -77.667 -23.5 -113s-37 -66 -64 -92s-58.667 -46.667 -95 -62s-75.166 -23 -116.499 -23s-80.166 7.66699 -116.499 23s-68 36 -95 62s-48.333 56.667 -64 92s-23.5 73 -23.5 113s7.83301 77.5 23.5 112.5
s37 65.5 64 91.5s58.667 46.667 95 62s75.166 23 116.499 23s80.166 -7.66699 116.499 -23s68 -36 95 -62s48.333 -56.5 64 -91.5s23.5 -72.5 23.5 -112.5zM391 264c0 48 -0.164062 89.666 -0.49707 124.999s-2.66602 64.5 -6.99902 87.5s-11.333 40.167 -21 51.5
s-23.834 17 -42.501 17c-15.333 0 -27.5 -3.83301 -36.5 -11.5s-16.167 -21.667 -21.5 -42s-8.83301 -48.666 -10.5 -84.999s-2.5 -82.833 -2.5 -139.5c0 -60 1.16699 -107.833 3.5 -143.5s6.16602 -63 11.499 -82s12.666 -31.333 21.999 -37s20.666 -8.5 33.999 -8.5
c14 0 25.5 3.5 34.5 10.5s16.333 20.333 22 40s9.5 47 11.5 82s3 80.167 3 135.5z" />
    <glyph glyph-name="otilde" unicode="&#xf5;" horiz-adv-x="636" 
d="M473 715c0 -9.33301 -1.83203 -19.332 -5.49902 -29.999s-9.83398 -20.834 -18.501 -30.501s-19.834 -17.667 -33.501 -24s-30.5 -9.5 -50.5 -9.5c-21.333 0 -40.666 2 -57.999 6s-34 6 -50 6s-28.5 -2.5 -37.5 -7.5s-13.5 -12.167 -13.5 -21.5h-10
c0 10.667 2.16699 21.667 6.5 33s10.833 21.666 19.5 30.999s19.5 17 32.5 23s28.167 9 45.5 9c25.333 0 46.833 -2 64.5 -6s35.167 -6 52.5 -6s29.333 3.33301 36 10s10.667 12.334 12 17.001h8zM618.001 271.001c0 -40 -7.83301 -77.667 -23.5 -113s-37 -66 -64 -92
s-58.667 -46.667 -95 -62s-75.166 -23 -116.499 -23s-80.166 7.66699 -116.499 23s-68 36 -95 62s-48.333 56.667 -64 92s-23.5 73 -23.5 113s7.83301 77.5 23.5 112.5s37 65.5 64 91.5s58.667 46.667 95 62s75.166 23 116.499 23s80.166 -7.66699 116.499 -23
s68 -36 95 -62s48.333 -56.5 64 -91.5s23.5 -72.5 23.5 -112.5zM391.001 264.001c0 48 -0.164062 89.666 -0.49707 124.999s-2.66602 64.5 -6.99902 87.5s-11.333 40.167 -21 51.5s-23.834 17 -42.501 17c-15.333 0 -27.5 -3.83301 -36.5 -11.5s-16.167 -21.667 -21.5 -42
s-8.83301 -48.666 -10.5 -84.999s-2.5 -82.833 -2.5 -139.5c0 -60 1.16699 -107.833 3.5 -143.5s6.16602 -63 11.499 -82s12.666 -31.333 21.999 -37s20.666 -8.5 33.999 -8.5c14 0 25.5 3.5 34.5 10.5s16.333 20.333 22 40s9.5 47 11.5 82s3 80.167 3 135.5z" />
    <glyph glyph-name="odieresis" unicode="&#xf6;" horiz-adv-x="636" 
d="M450 658c0 -12.667 -4.83301 -23.5 -14.5 -32.5s-21.167 -13.5 -34.5 -13.5s-24.833 4.5 -34.5 13.5s-14.5 19.833 -14.5 32.5s4.83301 23.5 14.5 32.5s21.167 13.5 34.5 13.5s24.833 -4.5 34.5 -13.5s14.5 -19.833 14.5 -32.5zM309 658
c0 -12.667 -4.83301 -23.5 -14.5 -32.5s-21.167 -13.5 -34.5 -13.5c-14 0 -25.833 4.5 -35.5 13.5s-14.5 19.833 -14.5 32.5s4.83301 23.5 14.5 32.5s21.5 13.5 35.5 13.5c13.333 0 24.833 -4.5 34.5 -13.5s14.5 -19.833 14.5 -32.5zM618 271
c0 -40 -7.83301 -77.667 -23.5 -113s-37 -66 -64 -92s-58.667 -46.667 -95 -62s-75.166 -23 -116.499 -23s-80.166 7.66699 -116.499 23s-68 36 -95 62s-48.333 56.667 -64 92s-23.5 73 -23.5 113s7.83301 77.5 23.5 112.5s37 65.5 64 91.5s58.667 46.667 95 62
s75.166 23 116.499 23s80.166 -7.66699 116.499 -23s68 -36 95 -62s48.333 -56.5 64 -91.5s23.5 -72.5 23.5 -112.5zM391 264c0 48 -0.164062 89.666 -0.49707 124.999s-2.66602 64.5 -6.99902 87.5s-11.333 40.167 -21 51.5s-23.834 17 -42.501 17
c-15.333 0 -27.5 -3.83301 -36.5 -11.5s-16.167 -21.667 -21.5 -42s-8.83301 -48.666 -10.5 -84.999s-2.5 -82.833 -2.5 -139.5c0 -60 1.16699 -107.833 3.5 -143.5s6.16602 -63 11.499 -82s12.666 -31.333 21.999 -37s20.666 -8.5 33.999 -8.5c14 0 25.5 3.5 34.5 10.5
s16.333 20.333 22 40s9.5 47 11.5 82s3 80.167 3 135.5z" />
    <glyph glyph-name="divide" unicode="&#xf7;" horiz-adv-x="336" 
d="M287 338h-236v46h236v-46zM123 258c0 13.333 4.66699 24.666 14 33.999s20.666 14 33.999 14s24.666 -4.66699 33.999 -14s14 -20.666 14 -33.999s-4.66699 -24.666 -14 -33.999s-20.666 -14 -33.999 -14s-24.666 4.66699 -33.999 14s-14 20.666 -14 33.999zM123 459
c0 13.333 4.66699 24.666 14 33.999s20.666 14 33.999 14s24.666 -4.66699 33.999 -14s14 -20.666 14 -33.999s-4.66699 -24.666 -14 -33.999s-20.666 -14 -33.999 -14s-24.666 4.66699 -33.999 14s-14 20.666 -14 33.999z" />
    <glyph glyph-name="oslash" unicode="&#xf8;" horiz-adv-x="636" 
d="M618 271c0 -40 -7.83398 -77.667 -23.501 -113s-37 -66 -64 -92s-58.667 -46.667 -95 -62s-75.166 -23 -116.499 -23s-80 7.5 -116 22.5s-67.667 35.5 -95 61.5l-80 -78v24l68 67c-23.333 25.333 -41.833 54.333 -55.5 87s-20.5 68 -20.5 106
c0 40 7.83301 77.5 23.5 112.5s37 65.5 64 91.5s58.667 46.667 95 62s75.166 23 116.499 23c38 0 73.833 -6.5 107.5 -19.5s63.834 -30.833 90.501 -53.5l78 76v-24l-65 -63c27.333 -26.667 48.833 -57.5 64.5 -92.5s23.5 -72.5 23.5 -112.5zM390.999 365
c-0.666992 30.667 -2 57.166 -4 79.499s-5.5 41 -10.5 56s-12 26.167 -21 33.5s-20.833 11 -35.5 11c-15.333 0 -27.5 -3.83301 -36.5 -11.5s-16.167 -21.667 -21.5 -42s-8.83301 -48.666 -10.5 -84.999s-2.5 -82.833 -2.5 -139.5v-40zM390.999 263.999l-0.00292969 76.998
l-141 -138c0.666992 -45.333 2.33398 -81.666 5.00098 -108.999s6.83398 -48.166 12.501 -62.499s12.834 -23.833 21.501 -28.5s19 -7 31 -7c14 0 25.5 3.5 34.5 10.5s16.333 20.333 22 40s9.5 47 11.5 82s3 80.167 3 135.5z" />
    <glyph glyph-name="ugrave" unicode="&#xf9;" horiz-adv-x="665" 
d="M356 600l-8.00098 -8l-15 15c-8.66699 8.66699 -20.667 16 -36 22s-30.333 12.333 -45 19s-27.5 14.667 -38.5 24s-16.5 22 -16.5 38c0 11.333 3.83301 21 11.5 29s16.834 12 27.501 12c16 0 28.833 -5.5 38.5 -16.5s18 -23.833 25 -38.5s13.333 -29.667 19 -45
s13.167 -27.333 22.5 -36zM655.999 0l-262.999 -0.000976562v72c-9.33301 -31.333 -28.5 -54 -57.5 -68s-62.167 -21 -99.5 -21c-20.667 0 -41 3.33301 -61 10s-37.667 16.834 -53 30.501s-27.833 31.167 -37.5 52.5s-14.5 46.666 -14.5 75.999v338c0 13.333 -2 23 -6 29
s-11.333 9 -22 9h-38v13h265v-441c0 -29.333 5 -49.166 15 -59.499s21.333 -15.5 34 -15.5c10 0 19.5 3.16699 28.5 9.5s17 15 24 26s12.5 24.333 16.5 40s6 33.167 6 52.5v341c0 13.333 -3.33301 22.333 -10 27s-12.334 7 -17.001 7h-20v13h242v-486
c0 -12 2.83301 -22.167 8.5 -30.5s14.167 -12.5 25.5 -12.5h34v-12z" />
    <glyph glyph-name="uacute" unicode="&#xfa;" horiz-adv-x="665" 
d="M443 711c0 -16 -5.50098 -28.8301 -16.501 -38.4971s-23.833 -17.834 -38.5 -24.501s-29.667 -12.834 -45 -18.501s-27.333 -12.834 -36 -21.501l-15 -15l-8 8l15 15c8.66699 8.66699 16 20.667 22 36s12.5 30.333 19.5 45s15.333 27.5 25 38.5s22.5 16.5 38.5 16.5
c10.667 0 19.834 -4 27.501 -12s11.5 -17.667 11.5 -29zM655.999 0.00292969l-262.999 -0.000976562v72c-9.33301 -31.333 -28.5 -54 -57.5 -68s-62.167 -21 -99.5 -21c-20.667 0 -41 3.33301 -61 10s-37.667 16.834 -53 30.501s-27.833 31.167 -37.5 52.5
s-14.5 46.666 -14.5 75.999v338c0 13.333 -2 23 -6 29s-11.333 9 -22 9h-38v13h265v-441c0 -29.333 5 -49.166 15 -59.499s21.333 -15.5 34 -15.5c10 0 19.5 3.16699 28.5 9.5s17 15 24 26s12.5 24.333 16.5 40s6 33.167 6 52.5v341c0 13.333 -3.33301 22.333 -10 27
s-12.334 7 -17.001 7h-20v13h242v-486c0 -12 2.83301 -22.167 8.5 -30.5s14.167 -12.5 25.5 -12.5h34v-12z" />
    <glyph glyph-name="ucircumflex" unicode="&#xfb;" horiz-adv-x="665" 
d="M455 602l-131 61l-136 -58l138 134zM656 0l-262.999 -0.000976562v72c-9.33301 -31.333 -28.5 -54 -57.5 -68s-62.167 -21 -99.5 -21c-20.667 0 -41 3.33301 -61 10s-37.667 16.834 -53 30.501s-27.833 31.167 -37.5 52.5s-14.5 46.666 -14.5 75.999v338
c0 13.333 -2 23 -6 29s-11.333 9 -22 9h-38v13h265v-441c0 -29.333 5 -49.166 15 -59.499s21.333 -15.5 34 -15.5c10 0 19.5 3.16699 28.5 9.5s17 15 24 26s12.5 24.333 16.5 40s6 33.167 6 52.5v341c0 13.333 -3.33301 22.333 -10 27s-12.334 7 -17.001 7h-20v13h242v-486
c0 -12 2.83301 -22.167 8.5 -30.5s14.167 -12.5 25.5 -12.5h34v-12z" />
    <glyph glyph-name="udieresis" unicode="&#xfc;" horiz-adv-x="665" 
d="M453 658c0 -12.667 -4.83301 -23.5 -14.5 -32.5s-21.167 -13.5 -34.5 -13.5s-24.833 4.5 -34.5 13.5s-14.5 19.833 -14.5 32.5s4.83301 23.5 14.5 32.5s21.167 13.5 34.5 13.5s24.833 -4.5 34.5 -13.5s14.5 -19.833 14.5 -32.5zM312 658
c0 -12.667 -4.83301 -23.5 -14.5 -32.5s-21.167 -13.5 -34.5 -13.5c-14 0 -25.833 4.5 -35.5 13.5s-14.5 19.833 -14.5 32.5s4.83301 23.5 14.5 32.5s21.5 13.5 35.5 13.5c13.333 0 24.833 -4.5 34.5 -13.5s14.5 -19.833 14.5 -32.5zM656 0l-262.999 -0.000976562v72
c-9.33301 -31.333 -28.5 -54 -57.5 -68s-62.167 -21 -99.5 -21c-20.667 0 -41 3.33301 -61 10s-37.667 16.834 -53 30.501s-27.833 31.167 -37.5 52.5s-14.5 46.666 -14.5 75.999v338c0 13.333 -2 23 -6 29s-11.333 9 -22 9h-38v13h265v-441c0 -29.333 5 -49.166 15 -59.499
s21.333 -15.5 34 -15.5c10 0 19.5 3.16699 28.5 9.5s17 15 24 26s12.5 24.333 16.5 40s6 33.167 6 52.5v341c0 13.333 -3.33301 22.333 -10 27s-12.334 7 -17.001 7h-20v13h242v-486c0 -12 2.83301 -22.167 8.5 -30.5s14.167 -12.5 25.5 -12.5h34v-12z" />
    <glyph glyph-name="yacute" unicode="&#xfd;" horiz-adv-x="636" 
d="M460 711c0 -16 -5.50098 -28.8301 -16.501 -38.4971s-23.833 -17.834 -38.5 -24.501s-29.667 -12.834 -45 -18.501s-27.333 -12.834 -36 -21.501l-15 -15l-8 8l15 15c8.66699 8.66699 16 20.667 22 36s12.5 30.333 19.5 45s15.333 27.5 25 38.5s22.5 16.5 38.5 16.5
c10.667 0 19.834 -4 27.501 -12s11.5 -17.667 11.5 -29zM646.999 528.003l-13.0029 -0.00292969c-16.667 0 -31.5 -5 -44.5 -15s-24.5 -22.167 -34.5 -36.5s-18.5 -29.5 -25.5 -45.5s-12.5 -30.333 -16.5 -43l-158 -473c-28.667 -86.667 -83.667 -130 -165 -130
c-18 0 -34.667 3.33301 -50 10s-28.5 15.5 -39.5 26.5s-19.5 23.667 -25.5 38s-9 29.5 -9 45.5c0 15.333 2.83301 29.5 8.5 42.5s13.167 24.167 22.5 33.5s20.333 16.5 33 21.5s25.667 7.5 39 7.5c14.667 0 28.167 -2.83301 40.5 -8.5s22.833 -13 31.5 -22
s15.334 -19.167 20.001 -30.5s7 -23 7 -35c0 -26 -8.66699 -48.167 -26 -66.5s-39.666 -27.5 -66.999 -27.5c-9.33301 0 -18.166 1.16699 -26.499 3.5s-14.5 3.5 -18.5 3.5c-2 0 -3 -0.666992 -3 -2c0 -7.33301 6.66699 -13.833 20 -19.5s28.666 -8.5 45.999 -8.5
c12.667 0 25.834 1.66699 39.501 5s27.167 9.33301 40.5 18s25.666 20.334 36.999 35.001s21 33.334 29 56.001l30 89h-81l-220 478c-8 17.333 -16.833 30 -26.5 38s-19.167 12 -28.5 12h-23v13h362v-13h-25c-7.33301 0 -13.5 -2 -18.5 -6s-7.5 -9.66699 -7.5 -17
c0 -6.66699 1.33301 -13 4 -19l123 -310l61 185c6.66699 20 11.334 37.833 14.001 53.5s4 29.5 4 41.5c0 26.667 -5.16699 45.334 -15.5 56.001s-21.5 16 -33.5 16h-17v13h206v-13z" />
    <glyph glyph-name="thorn" unicode="&#xfe;" horiz-adv-x="616" 
d="M600 267c0 -37.333 -5.33301 -72.667 -16 -106s-25.167 -62.666 -43.5 -87.999s-39.833 -45.5 -64.5 -60.5s-51 -22.5 -79 -22.5c-36.667 0 -64.834 9 -84.501 27s-34.167 44 -43.5 78v-235c0 -13.333 3 -24.5 9 -33.5s15 -13.5 27 -13.5h29v-13h-352v13h30
c14.667 0 26.334 4.5 35.001 13.5s13 20.167 13 33.5v883c0 13.333 -3.5 24 -10.5 32s-17.167 12 -30.5 12h-27v13h277v-344c8 34 22.333 60 43 78s48 27 82 27c32 0 60.667 -8.33301 86 -25s47 -38.834 65 -66.501s31.667 -59.167 41 -94.5s14 -71.333 14 -108z
M398 274.999c0 50 -1.16699 91.1689 -3.5 123.502s-6 57.666 -11 75.999s-11.167 31.166 -18.5 38.499s-16 11 -26 11c-8.66699 0 -17.167 -4.33301 -25.5 -13s-15.666 -22.667 -21.999 -42s-11.5 -44.5 -15.5 -75.5s-6 -69.167 -6 -114.5c0 -52.667 2.83301 -96 8.5 -130
s12.5 -60.667 20.5 -80s16.833 -32.833 26.5 -40.5s18.5 -11.5 26.5 -11.5c9.33301 0 17 4.33301 23 13s10.667 23 14 43s5.66602 46.5 6.99902 79.5s2 73.833 2 122.5z" />
    <glyph glyph-name="ydieresis" unicode="&#xff;" horiz-adv-x="636" 
d="M480 658c0 -12.667 -4.83301 -23.5 -14.5 -32.5s-21.167 -13.5 -34.5 -13.5s-24.833 4.5 -34.5 13.5s-14.5 19.833 -14.5 32.5s4.83301 23.5 14.5 32.5s21.167 13.5 34.5 13.5s24.833 -4.5 34.5 -13.5s14.5 -19.833 14.5 -32.5zM339 658
c0 -12.667 -4.83301 -23.5 -14.5 -32.5s-21.167 -13.5 -34.5 -13.5c-14 0 -25.833 4.5 -35.5 13.5s-14.5 19.833 -14.5 32.5s4.83301 23.5 14.5 32.5s21.5 13.5 35.5 13.5c13.333 0 24.833 -4.5 34.5 -13.5s14.5 -19.833 14.5 -32.5zM647 528l-13.0029 -0.00292969
c-16.667 0 -31.5 -5 -44.5 -15s-24.5 -22.167 -34.5 -36.5s-18.5 -29.5 -25.5 -45.5s-12.5 -30.333 -16.5 -43l-158 -473c-28.667 -86.667 -83.667 -130 -165 -130c-18 0 -34.667 3.33301 -50 10s-28.5 15.5 -39.5 26.5s-19.5 23.667 -25.5 38s-9 29.5 -9 45.5
c0 15.333 2.83301 29.5 8.5 42.5s13.167 24.167 22.5 33.5s20.333 16.5 33 21.5s25.667 7.5 39 7.5c14.667 0 28.167 -2.83301 40.5 -8.5s22.833 -13 31.5 -22s15.334 -19.167 20.001 -30.5s7 -23 7 -35c0 -26 -8.66699 -48.167 -26 -66.5s-39.666 -27.5 -66.999 -27.5
c-9.33301 0 -18.166 1.16699 -26.499 3.5s-14.5 3.5 -18.5 3.5c-2 0 -3 -0.666992 -3 -2c0 -7.33301 6.66699 -13.833 20 -19.5s28.666 -8.5 45.999 -8.5c12.667 0 25.834 1.66699 39.501 5s27.167 9.33301 40.5 18s25.666 20.334 36.999 35.001s21 33.334 29 56.001l30 89
h-81l-220 478c-8 17.333 -16.833 30 -26.5 38s-19.167 12 -28.5 12h-23v13h362v-13h-25c-7.33301 0 -13.5 -2 -18.5 -6s-7.5 -9.66699 -7.5 -17c0 -6.66699 1.33301 -13 4 -19l123 -310l61 185c6.66699 20 11.334 37.833 14.001 53.5s4 29.5 4 41.5
c0 26.667 -5.16699 45.334 -15.5 56.001s-21.5 16 -33.5 16h-17v13h206v-13z" />
    <glyph glyph-name="Abreve" unicode="&#x102;" 
d="M891 0l-458 0.00292969v13h59c13.333 0 23.5 3.66699 30.5 11s10.5 17.666 10.5 30.999c0 9.33301 -1.33301 18.333 -4 27l-80 254h-214l-34 -114c-4.66699 -16 -8.16699 -30.833 -10.5 -44.5s-3.5 -26.834 -3.5 -39.501c0 -20.667 3 -38.834 9 -54.501
s13.833 -28.667 23.5 -39s21 -18.166 34 -23.499s26.5 -8 40.5 -8h35v-13h-332v13h19c20.667 0 39.834 7.16699 57.501 21.5s33.834 32.666 48.501 54.999s27.667 47 39 74s21 53.5 29 79.5l175 557h183l248 -748c5.33301 -14 12.666 -24 21.999 -30s20.666 -9 33.999 -9h39
v-13zM445 350.003l-104 322l-102 -322h206zM570 979.003c-2 -10 -5.66895 -21.668 -11.002 -35.001s-12.666 -25.833 -21.999 -37.5s-20.833 -21.5 -34.5 -29.5s-29.5 -12 -47.5 -12c-20.667 0 -38.167 4.83301 -52.5 14.5s-26.333 21 -36 34s-16.834 26 -21.501 39
s-7.66699 23.167 -9 30.5l5 3c4 -7.33301 8.83301 -14.166 14.5 -20.499s13 -11.833 22 -16.5s19.833 -8.16699 32.5 -10.5s28 -3.5 46 -3.5c30.667 0 54.334 4.16699 71.001 12.5s29.334 20.5 38.001 36.5z" />
    </font>
</defs>
</svg>
